M48
;Layer_Color=9474304
;FILE_FORMAT=4:2
METRIC,LZ
;TYPE=PLATED
T1F00S00C0.51
T2F00S00C0.71
T3F00S00C0.85
T4F00S00C0.90
T5F00S00C2.54
%
T01
X002324Y002921
X002667Y002692
X002578Y003721
X001943Y003683
X005651Y002438
X006033Y002273
X00597Y004828
X005423Y004712
X005601Y005474
X003531Y005931
X00221Y005766
T02
X000991Y001308
X001613Y001321
X002197Y001295
X002832Y001257
X003454Y001334
X003564Y002245
X003891Y00216
X003772Y002601
X003365Y002896
X002949Y002725
X002072Y002479
X001511Y002217
X001376Y002692
X001422Y003035
X001478Y003365
X002388Y003543
X002173Y003897
X003099Y003839
X004686Y003495
X004912Y003721
X005423Y00379
X005601Y00333
X005728Y003228
Y002736
X005096Y002734
X005161Y00331
X004422Y003228
X004354Y00216
X004514Y002032
X004775Y001346
X005271Y001321
X00588Y001232
X004026Y001321
X006502Y002908
X004915Y004229
X004624Y004087
X004587Y00447
X004526Y004674
X004102Y004542
X004115Y004064
X004379Y0051
X004617Y005194
X004547Y005588
X004539Y00574
X004686Y005847
X005042Y005495
X005047Y004803
X005067Y00462
X005436Y004948
X005804Y005334
X005601Y005893
X005298Y006142
X005146Y006144
X004115Y005385
X003739Y00462
X003838Y004028
X002949Y004166
Y004387
X003Y004783
X002695Y005159
X002357Y00526
X002286Y0051
X002199Y004475
X002301Y00429
X001633Y004618
X001372Y004064
X000955Y005448
X000279Y006086
X002202Y005989
X002743Y005555
T03
X004295Y002465
X005057
X005169Y004305
X004407
T04
X000383Y002325
X000637
Y002812
X000383
Y003298
X000637
Y003784
X000383
X001308Y001752
Y001498
X001918
Y001752
X002531
Y001498
X003141
Y001752
X00375
Y001498
X004358
Y001752
X00498
Y001498
X005601
Y001752
X006337Y002261
Y002515
Y002769
Y003023
Y003277
Y003531
Y003785
Y004039
X006452Y00494
X006198
Y005194
X006452
Y005448
X006198
Y005702
X006452
X00578Y006358
X005526
X005272
X005018
Y006612
X004764
X00451
X004256
X004002
Y006358
X004256
X00451
X004764
X005272Y006612
X005526
X00578
X003748
X003494
X00324
X002986
X002732
X002478
X002224
X00197
Y006358
X001716
X001462
Y006612
X001208
X000954
Y006358
X001208
X001716Y006612
X002224Y006358
X002478
X002732
X002986
X00324
X003494
X003748
X000637Y005729
X000383
Y005243
X000637
Y004757
X000383
Y00427
X000637
T05
X000461Y001652
X006261
X006267Y006485
X000467
M30
