%TF.GenerationSoftware,KiCad,Pcbnew,7.0.1-3b83917a11~172~ubuntu22.04.1*%
%TF.CreationDate,2023-03-24T22:05:32-05:00*%
%TF.ProjectId,pi_hat_forclayton3,70695f68-6174-45f6-966f-72636c617974,rev?*%
%TF.SameCoordinates,Original*%
%TF.FileFunction,Copper,L2,Inr*%
%TF.FilePolarity,Positive*%
%FSLAX46Y46*%
G04 Gerber Fmt 4.6, Leading zero omitted, Abs format (unit mm)*
G04 Created by KiCad (PCBNEW 7.0.1-3b83917a11~172~ubuntu22.04.1) date 2023-03-24 22:05:32*
%MOMM*%
%LPD*%
G01*
G04 APERTURE LIST*
%TA.AperFunction,ComponentPad*%
%ADD10C,6.200013*%
%TD*%
%TA.AperFunction,ComponentPad*%
%ADD11R,1.499997X1.499997*%
%TD*%
%TA.AperFunction,ComponentPad*%
%ADD12C,1.499997*%
%TD*%
%TA.AperFunction,ComponentPad*%
%ADD13C,1.399997*%
%TD*%
%TA.AperFunction,ViaPad*%
%ADD14C,1.270000*%
%TD*%
G04 APERTURE END LIST*
D10*
%TO.N,*%
%TO.C,*%
X4556600Y-4627771D03*
%TD*%
%TO.N,*%
%TO.C,*%
X62494000Y-52956148D03*
%TD*%
D11*
%TO.N,NetD1_H8_2*%
%TO.C,M\u002A1_H8*%
X55890000Y-54496150D03*
D12*
%TO.N,5V*%
X55890000Y-51956150D03*
%TD*%
D11*
%TO.N,5V*%
%TO.C,P3*%
X64399000Y-20076000D03*
D12*
%TO.N,Button0*%
X61859000Y-20076000D03*
%TO.N,NetC7_1*%
X64399000Y-17536000D03*
%TO.N,Button1*%
X61859000Y-17536000D03*
%TO.N,NetC6_1*%
X64399000Y-14996000D03*
%TO.N,Button2*%
X61859000Y-14996000D03*
%TO.N,GPIO_12*%
X64399000Y-12456000D03*
%TO.N,GND*%
X61859000Y-12456000D03*
%TD*%
D11*
%TO.N,NetD1_H5_2*%
%TO.C,M\u002A1_H5*%
X37385998Y-54496150D03*
D12*
%TO.N,5V*%
X37385998Y-51956150D03*
%TD*%
D11*
%TO.N,NetD1_H6_2*%
%TO.C,M\u002A1_H6*%
X43462999Y-54496150D03*
D12*
%TO.N,5V*%
X43462999Y-51956150D03*
%TD*%
D11*
%TO.N,NetD1_H4_2*%
%TO.C,M\u002A1_H4*%
X31289998Y-54496150D03*
D12*
%TO.N,5V*%
X31289998Y-51956150D03*
%TD*%
D11*
%TO.N,GND*%
%TO.C,MK3_A_IN_2*%
X3711034Y-36500554D03*
D12*
%TO.N,NetC3_A_in_2_2*%
X6251034Y-36500554D03*
%TD*%
D11*
%TO.N,audio_ch_out_0*%
%TO.C,P2*%
X63256000Y-29093000D03*
D12*
%TO.N,audio_ch_out_1*%
X63256000Y-31633000D03*
%TO.N,audio_ch_out_2*%
X63256000Y-34173000D03*
%TO.N,audio_ch_out_3*%
X63256000Y-36713000D03*
%TO.N,audio_ch_out_4*%
X63256000Y-39253000D03*
%TO.N,audio_ch_out_5*%
X63256000Y-41793000D03*
%TO.N,audio_ch_out_6*%
X63256000Y-44333000D03*
%TO.N,audio_ch_out_7*%
X63256000Y-46873000D03*
%TD*%
D11*
%TO.N,NetD1_H3_2*%
%TO.C,M\u002A1_H3*%
X25193998Y-54496150D03*
D12*
%TO.N,5V*%
X25193998Y-51956150D03*
%TD*%
D10*
%TO.N,*%
%TO.C,*%
X4494014Y-52956148D03*
%TD*%
D11*
%TO.N,GND*%
%TO.C,MK4_A_IN_2*%
X3711034Y-46225097D03*
D12*
%TO.N,NetC4_A_in_2_2*%
X6251034Y-46225097D03*
%TD*%
D13*
%TO.N,audio_ref_A_in_1*%
%TO.C,R14_A_IN_1*%
X51572000Y-26426000D03*
%TO.N,5V*%
X43952000Y-26426000D03*
%TD*%
D11*
%TO.N,NetD1_H2_2*%
%TO.C,M\u002A1_H2*%
X19060000Y-54496150D03*
D12*
%TO.N,5V*%
X19060000Y-51956150D03*
%TD*%
D11*
%TO.N,3.3V*%
%TO.C,P1*%
X9426593Y-5897771D03*
D12*
%TO.N,5V*%
X9426593Y-3357771D03*
%TO.N,audio_ch_out_0*%
X11966593Y-5897771D03*
%TO.N,5V*%
X11966593Y-3357771D03*
%TO.N,audio_ch_out_1*%
X14506593Y-5897771D03*
%TO.N,GND*%
X14506593Y-3357771D03*
%TO.N,audio_ch_out_2*%
X17046593Y-5897771D03*
%TO.N,GPIO_14*%
X17046593Y-3357771D03*
%TO.N,GND*%
X19586593Y-5897771D03*
%TO.N,GPIO_15*%
X19586593Y-3357771D03*
%TO.N,Button0*%
X22126593Y-5897771D03*
%TO.N,GPIO_18*%
X22126593Y-3357771D03*
%TO.N,Button1*%
X24666593Y-5897771D03*
%TO.N,GND*%
X24666593Y-3357771D03*
%TO.N,Button2*%
X27206593Y-5897771D03*
%TO.N,GPIO_23*%
X27206593Y-3357771D03*
%TO.N,3.3V*%
X29746593Y-5897771D03*
%TO.N,GPIO_24*%
X29746593Y-3357771D03*
%TO.N,GPIO_10*%
X32286593Y-5897771D03*
%TO.N,GND*%
X32286593Y-3357771D03*
%TO.N,audio_ch_out_3*%
X34826593Y-5897771D03*
%TO.N,GPIO_25*%
X34826593Y-3357771D03*
%TO.N,GPIO_11*%
X37366593Y-5897771D03*
%TO.N,GPIO_8*%
X37366593Y-3357771D03*
%TO.N,GND*%
X39906593Y-5897771D03*
%TO.N,GPIO_7*%
X39906593Y-3357771D03*
%TO.N,GPIO_0*%
X42446593Y-5897771D03*
%TO.N,GPIO_1*%
X42446593Y-3357771D03*
%TO.N,GPIO_5*%
X44986593Y-5897771D03*
%TO.N,GND*%
X44986593Y-3357771D03*
%TO.N,GPIO_6*%
X47526593Y-5897771D03*
%TO.N,GPIO_12*%
X47526593Y-3357771D03*
%TO.N,GPIO_13*%
X50066593Y-5897771D03*
%TO.N,GND*%
X50066593Y-3357771D03*
%TO.N,audio_ch_out_5*%
X52606593Y-5897771D03*
%TO.N,audio_ch_out_4*%
X52606593Y-3357771D03*
%TO.N,audio_ch_out_7*%
X55146593Y-5897771D03*
%TO.N,audio_ch_out_6*%
X55146593Y-3357771D03*
%TO.N,GND*%
X57686593Y-5897771D03*
%TO.N,GPIO_21*%
X57686593Y-3357771D03*
%TD*%
D11*
%TO.N,NetD1_H7_2*%
%TO.C,M\u002A1_H7*%
X49685999Y-54496150D03*
D12*
%TO.N,5V*%
X49685999Y-51956150D03*
%TD*%
D13*
%TO.N,audio_ref_A_in_2*%
%TO.C,R14_A_IN_2*%
X50456991Y-44828097D03*
%TO.N,5V*%
X42836991Y-44828097D03*
%TD*%
D11*
%TO.N,GND*%
%TO.C,MK2_A_IN_2*%
X3711034Y-31638284D03*
D12*
%TO.N,NetC2_A_in_2_2*%
X6251034Y-31638284D03*
%TD*%
D11*
%TO.N,NetD1_H1_2*%
%TO.C,M\u002A1_H1*%
X12964000Y-54496150D03*
D12*
%TO.N,5V*%
X12964000Y-51956150D03*
%TD*%
D11*
%TO.N,GND*%
%TO.C,MK1_A_IN_2*%
X3711034Y-41362825D03*
D12*
%TO.N,NetC1_A_in_2_2*%
X6251034Y-41362825D03*
%TD*%
D11*
%TO.N,GND*%
%TO.C,MK1_A_IN_1*%
X3711034Y-21913690D03*
D12*
%TO.N,NetC1_A_in_1_2*%
X6251034Y-21913690D03*
%TD*%
D11*
%TO.N,GND*%
%TO.C,MK4_A_IN_1*%
X3711034Y-26776012D03*
D12*
%TO.N,NetC4_A_in_1_2*%
X6251034Y-26776012D03*
%TD*%
D11*
%TO.N,GND*%
%TO.C,MK2_A_IN_1*%
X3711034Y-12189147D03*
D12*
%TO.N,NetC2_A_in_1_2*%
X6251034Y-12189147D03*
%TD*%
D11*
%TO.N,GND*%
%TO.C,MK3_A_IN_1*%
X3711034Y-17051419D03*
D12*
%TO.N,NetC3_A_in_1_2*%
X6251034Y-17051419D03*
%TD*%
D10*
%TO.N,*%
%TO.C,*%
X62556586Y-4627771D03*
%TD*%
D14*
%TO.N,GND*%
X25664000Y-32268000D03*
X59581814Y-21196013D03*
X56398000Y-45095000D03*
X26553000Y-42555000D03*
X55890000Y-14742000D03*
X54112000Y-22362000D03*
X21981000Y-11821000D03*
X23124000Y-40269000D03*
X19314000Y-32649000D03*
X35189000Y-10170000D03*
X60208000Y-46746000D03*
%TO.N,5V*%
X46124056Y-28609130D03*
X13641977Y-42560131D03*
X20601983Y-44689108D03*
X46053037Y-17536000D03*
X2677000Y-8620600D03*
X23759000Y-34046000D03*
X57922000Y-16139000D03*
X21871983Y-24731972D03*
X13599000Y-28839000D03*
X41031000Y-28839000D03*
X22743508Y-18475800D03*
X9433400Y-14996000D03*
X55890000Y-36174012D03*
X21611989Y-30505088D03*
X41031000Y-15631000D03*
X45349000Y-13599000D03*
X14667934Y-35829080D03*
%TO.N,audio_ch_out_0*%
X46746000Y-11013001D03*
%TO.N,audio_ch_out_1*%
X21899364Y-9591236D03*
X45269092Y-12075000D03*
%TO.N,audio_ch_out_2*%
X52867400Y-8061800D03*
X54239000Y-19999800D03*
%TO.N,audio_ch_out_3*%
X55890000Y-10551000D03*
%TO.N,audio_ch_out_6*%
X57160000Y-37195600D03*
X30871000Y-31084106D03*
X57160000Y-42123200D03*
%TO.N,audio_ch_out_7*%
X38262400Y-29194600D03*
X45023956Y-49159000D03*
X64907000Y-40396000D03*
%TO.N,GPIO_1*%
X47635000Y-56017000D03*
%TO.N,GPIO_7*%
X40142000Y-56271000D03*
%TO.N,GPIO_23*%
X21854000Y-56525000D03*
%TO.N,GPIO_24*%
X28204000Y-56906000D03*
%TO.N,GPIO_25*%
X34427000Y-56144000D03*
%TO.N,audio_ch_out_4*%
X49032000Y-27188000D03*
%TO.N,audio_ch_out_5*%
X54112000Y-31580676D03*
X50556000Y-23276400D03*
%TO.N,NetC1_A_in_1_2*%
X22895400Y-26578400D03*
X23454200Y-16875600D03*
%TO.N,NetC1_A_in_2_1*%
X35519200Y-47025400D03*
X14996000Y-47304800D03*
X14107000Y-39126000D03*
X37602000Y-43469400D03*
%TO.N,GPIO_11*%
X52588000Y-56271000D03*
%TO.N,bias_A_in_1*%
X16215200Y-23301800D03*
X43672600Y-18475800D03*
%TO.N,bias_A_in_2*%
X29372400Y-27823000D03*
X29372400Y-42224800D03*
%TO.N,GPIO_15*%
X9789000Y-56398000D03*
%TO.N,GPIO_18*%
X16012000Y-56271000D03*
%TO.N,Button1*%
X58684000Y-57160000D03*
%TO.N,ch2_+2in_A_in_1*%
X27315000Y-13925085D03*
X26832400Y-17891600D03*
%TO.N,ch2_+2in_A_in_2*%
X43418600Y-47878992D03*
X38795800Y-47878992D03*
X33538000Y-40523000D03*
X44104400Y-37195600D03*
%TO.N,ch2_out2_A_in_2*%
X49006600Y-32268000D03*
X46746051Y-34528549D03*
%TO.N,ch3_out3_A_in_1*%
X37271800Y-23276400D03*
X45145800Y-22743000D03*
X40904000Y-24063800D03*
X45755400Y-24775000D03*
%TO.N,ch4_out4_A_in_1*%
X29372400Y-25613200D03*
X29880400Y-21650800D03*
%TO.N,audio_ref_A_in_1*%
X50307486Y-14533314D03*
X50352800Y-21447600D03*
%TO.N,audio_ref_A_in_2*%
X51495800Y-36382800D03*
X50845458Y-42142809D03*
%TO.N,Button0*%
X51343400Y-8036400D03*
%TD*%
%TA.AperFunction,Conductor*%
%TO.N,5V*%
G36*
X66891900Y-118713D02*
G01*
X66937287Y-164100D01*
X66953900Y-226100D01*
X66953900Y-58320900D01*
X66937287Y-58382900D01*
X66891900Y-58428287D01*
X66829900Y-58444900D01*
X59173958Y-58444900D01*
X59108680Y-58426327D01*
X59062958Y-58376171D01*
X59050487Y-58309459D01*
X59075004Y-58246173D01*
X59129162Y-58205274D01*
X59192304Y-58180813D01*
X59371223Y-58070031D01*
X59526740Y-57928259D01*
X59653558Y-57760325D01*
X59653558Y-57760323D01*
X59653560Y-57760322D01*
X59747359Y-57571947D01*
X59804948Y-57369544D01*
X59810648Y-57308029D01*
X59824365Y-57160000D01*
X59804948Y-56950458D01*
X59804948Y-56950455D01*
X59747359Y-56748052D01*
X59653560Y-56559677D01*
X59526739Y-56391739D01*
X59371225Y-56249970D01*
X59192304Y-56139187D01*
X59124844Y-56113053D01*
X58996076Y-56063168D01*
X58789220Y-56024500D01*
X58578780Y-56024500D01*
X58381088Y-56061455D01*
X58371924Y-56063168D01*
X58175695Y-56139187D01*
X57996774Y-56249970D01*
X57841260Y-56391739D01*
X57714439Y-56559677D01*
X57620640Y-56748052D01*
X57563051Y-56950455D01*
X57543635Y-57160000D01*
X57563051Y-57369544D01*
X57620640Y-57571947D01*
X57714439Y-57760322D01*
X57841260Y-57928260D01*
X57996774Y-58070029D01*
X57996776Y-58070030D01*
X57996777Y-58070031D01*
X58175696Y-58180813D01*
X58238837Y-58205274D01*
X58292996Y-58246173D01*
X58317513Y-58309459D01*
X58305042Y-58376171D01*
X58259320Y-58426327D01*
X58194042Y-58444900D01*
X226100Y-58444900D01*
X164100Y-58428287D01*
X118713Y-58382900D01*
X102100Y-58320900D01*
X102100Y-52956148D01*
X888567Y-52956148D01*
X908318Y-53333022D01*
X967353Y-53705759D01*
X1065029Y-54070291D01*
X1200275Y-54422617D01*
X1371604Y-54758872D01*
X1577143Y-55075373D01*
X1577146Y-55075377D01*
X1814645Y-55368663D01*
X2081499Y-55635517D01*
X2374785Y-55873016D01*
X2374787Y-55873017D01*
X2374788Y-55873018D01*
X2691289Y-56078557D01*
X2819729Y-56144000D01*
X3027547Y-56249888D01*
X3379870Y-56385132D01*
X3744402Y-56482808D01*
X3930770Y-56512325D01*
X4117142Y-56541844D01*
X4494014Y-56561595D01*
X4870886Y-56541844D01*
X5113498Y-56503417D01*
X5243625Y-56482808D01*
X5243629Y-56482807D01*
X5560134Y-56398000D01*
X8648635Y-56398000D01*
X8668051Y-56607544D01*
X8725640Y-56809947D01*
X8819439Y-56998322D01*
X8946260Y-57166260D01*
X9101774Y-57308029D01*
X9101776Y-57308030D01*
X9101777Y-57308031D01*
X9280696Y-57418813D01*
X9476924Y-57494832D01*
X9683780Y-57533500D01*
X9894218Y-57533500D01*
X9894220Y-57533500D01*
X10101076Y-57494832D01*
X10297304Y-57418813D01*
X10476223Y-57308031D01*
X10631740Y-57166259D01*
X10758558Y-56998325D01*
X10758558Y-56998323D01*
X10758560Y-56998322D01*
X10852359Y-56809947D01*
X10909948Y-56607544D01*
X10914383Y-56559677D01*
X10929365Y-56398000D01*
X10917597Y-56270999D01*
X14871635Y-56270999D01*
X14891051Y-56480544D01*
X14948640Y-56682947D01*
X15042439Y-56871322D01*
X15169260Y-57039260D01*
X15324774Y-57181029D01*
X15324776Y-57181030D01*
X15324777Y-57181031D01*
X15503696Y-57291813D01*
X15699924Y-57367832D01*
X15906780Y-57406500D01*
X16117218Y-57406500D01*
X16117220Y-57406500D01*
X16324076Y-57367832D01*
X16520304Y-57291813D01*
X16699223Y-57181031D01*
X16854740Y-57039259D01*
X16981558Y-56871325D01*
X16981558Y-56871323D01*
X16981560Y-56871322D01*
X17075359Y-56682947D01*
X17120299Y-56525000D01*
X20713635Y-56525000D01*
X20733051Y-56734544D01*
X20790640Y-56936947D01*
X20884439Y-57125322D01*
X21011260Y-57293260D01*
X21166774Y-57435029D01*
X21166776Y-57435030D01*
X21166777Y-57435031D01*
X21345696Y-57545813D01*
X21541924Y-57621832D01*
X21748780Y-57660500D01*
X21959218Y-57660500D01*
X21959220Y-57660500D01*
X22166076Y-57621832D01*
X22362304Y-57545813D01*
X22541223Y-57435031D01*
X22644900Y-57340516D01*
X22696739Y-57293260D01*
X22697832Y-57291813D01*
X22823558Y-57125325D01*
X22823558Y-57125323D01*
X22823560Y-57125322D01*
X22917359Y-56936947D01*
X22926164Y-56906000D01*
X27063635Y-56906000D01*
X27083051Y-57115544D01*
X27140640Y-57317947D01*
X27234439Y-57506322D01*
X27361260Y-57674260D01*
X27516774Y-57816029D01*
X27516776Y-57816030D01*
X27516777Y-57816031D01*
X27695696Y-57926813D01*
X27891924Y-58002832D01*
X28098780Y-58041500D01*
X28309218Y-58041500D01*
X28309220Y-58041500D01*
X28516076Y-58002832D01*
X28712304Y-57926813D01*
X28891223Y-57816031D01*
X29046740Y-57674259D01*
X29173558Y-57506325D01*
X29173558Y-57506323D01*
X29173560Y-57506322D01*
X29267359Y-57317947D01*
X29324948Y-57115544D01*
X29330648Y-57054029D01*
X29344365Y-56906000D01*
X29324948Y-56696458D01*
X29324948Y-56696455D01*
X29267359Y-56494052D01*
X29173560Y-56305677D01*
X29051467Y-56144000D01*
X33286635Y-56144000D01*
X33306051Y-56353544D01*
X33363640Y-56555947D01*
X33457439Y-56744322D01*
X33584260Y-56912260D01*
X33739774Y-57054029D01*
X33739776Y-57054030D01*
X33739777Y-57054031D01*
X33918696Y-57164813D01*
X34114924Y-57240832D01*
X34321780Y-57279500D01*
X34532218Y-57279500D01*
X34532220Y-57279500D01*
X34739076Y-57240832D01*
X34935304Y-57164813D01*
X35114223Y-57054031D01*
X35227841Y-56950455D01*
X35269739Y-56912260D01*
X35269740Y-56912259D01*
X35396558Y-56744325D01*
X35396558Y-56744323D01*
X35396560Y-56744322D01*
X35490359Y-56555947D01*
X35547948Y-56353544D01*
X35552383Y-56305677D01*
X35555596Y-56270999D01*
X39001635Y-56270999D01*
X39021051Y-56480544D01*
X39078640Y-56682947D01*
X39172439Y-56871322D01*
X39299260Y-57039260D01*
X39454774Y-57181029D01*
X39454776Y-57181030D01*
X39454777Y-57181031D01*
X39633696Y-57291813D01*
X39829924Y-57367832D01*
X40036780Y-57406500D01*
X40247218Y-57406500D01*
X40247220Y-57406500D01*
X40454076Y-57367832D01*
X40650304Y-57291813D01*
X40829223Y-57181031D01*
X40984740Y-57039259D01*
X41111558Y-56871325D01*
X41111558Y-56871323D01*
X41111560Y-56871322D01*
X41205359Y-56682947D01*
X41262948Y-56480544D01*
X41267729Y-56428947D01*
X41282365Y-56271000D01*
X41267501Y-56110598D01*
X41262948Y-56061455D01*
X41250299Y-56017000D01*
X46494635Y-56017000D01*
X46514051Y-56226544D01*
X46571640Y-56428947D01*
X46665439Y-56617322D01*
X46792260Y-56785260D01*
X46947774Y-56927029D01*
X46947776Y-56927030D01*
X46947777Y-56927031D01*
X47126696Y-57037813D01*
X47322924Y-57113832D01*
X47529780Y-57152500D01*
X47740218Y-57152500D01*
X47740220Y-57152500D01*
X47947076Y-57113832D01*
X48143304Y-57037813D01*
X48322223Y-56927031D01*
X48425900Y-56832516D01*
X48477739Y-56785260D01*
X48477740Y-56785259D01*
X48604558Y-56617325D01*
X48604558Y-56617323D01*
X48604560Y-56617322D01*
X48698359Y-56428947D01*
X48743299Y-56270999D01*
X51447635Y-56270999D01*
X51467051Y-56480544D01*
X51524640Y-56682947D01*
X51618439Y-56871322D01*
X51745260Y-57039260D01*
X51900774Y-57181029D01*
X51900776Y-57181030D01*
X51900777Y-57181031D01*
X52079696Y-57291813D01*
X52275924Y-57367832D01*
X52482780Y-57406500D01*
X52693218Y-57406500D01*
X52693220Y-57406500D01*
X52900076Y-57367832D01*
X53096304Y-57291813D01*
X53275223Y-57181031D01*
X53430740Y-57039259D01*
X53557558Y-56871325D01*
X53557558Y-56871323D01*
X53557560Y-56871322D01*
X53651359Y-56682947D01*
X53708948Y-56480544D01*
X53713729Y-56428947D01*
X53728365Y-56271000D01*
X53713501Y-56110598D01*
X53708948Y-56061455D01*
X53651359Y-55859052D01*
X53557560Y-55670677D01*
X53430739Y-55502739D01*
X53275225Y-55360970D01*
X53167094Y-55294018D01*
X54639501Y-55294018D01*
X54645910Y-55353633D01*
X54648647Y-55360970D01*
X54696205Y-55488480D01*
X54782455Y-55603695D01*
X54897670Y-55689945D01*
X55032518Y-55740240D01*
X55092128Y-55746649D01*
X56687871Y-55746648D01*
X56747482Y-55740240D01*
X56882330Y-55689945D01*
X56997545Y-55603695D01*
X57083795Y-55488480D01*
X57134090Y-55353632D01*
X57140499Y-55294022D01*
X57140498Y-53698279D01*
X57134090Y-53638668D01*
X57083795Y-53503820D01*
X56997545Y-53388605D01*
X56882330Y-53302355D01*
X56747482Y-53252060D01*
X56687872Y-53245651D01*
X56687868Y-53245651D01*
X56620984Y-53245651D01*
X56560868Y-53230104D01*
X56515826Y-53187362D01*
X56497154Y-53128142D01*
X56509533Y-53067294D01*
X56549859Y-53020077D01*
X56579569Y-52999272D01*
X56536445Y-52956148D01*
X58888553Y-52956148D01*
X58908304Y-53333022D01*
X58967339Y-53705759D01*
X59065015Y-54070291D01*
X59200261Y-54422617D01*
X59371590Y-54758872D01*
X59577129Y-55075373D01*
X59577132Y-55075377D01*
X59814631Y-55368663D01*
X60081485Y-55635517D01*
X60374771Y-55873016D01*
X60374773Y-55873017D01*
X60374774Y-55873018D01*
X60691275Y-56078557D01*
X60819715Y-56144000D01*
X61027533Y-56249888D01*
X61379856Y-56385132D01*
X61744388Y-56482808D01*
X61930756Y-56512325D01*
X62117128Y-56541844D01*
X62494000Y-56561595D01*
X62870872Y-56541844D01*
X63113484Y-56503417D01*
X63243611Y-56482808D01*
X63243615Y-56482807D01*
X63608144Y-56385132D01*
X63960467Y-56249888D01*
X64296724Y-56078557D01*
X64613229Y-55873016D01*
X64906515Y-55635517D01*
X65173369Y-55368663D01*
X65410868Y-55075377D01*
X65616409Y-54758872D01*
X65787740Y-54422615D01*
X65922984Y-54070292D01*
X66020659Y-53705763D01*
X66021845Y-53698279D01*
X66070892Y-53388605D01*
X66079696Y-53333020D01*
X66099447Y-52956148D01*
X66079696Y-52579276D01*
X66050177Y-52392904D01*
X66020660Y-52206536D01*
X65922984Y-51842004D01*
X65787740Y-51489681D01*
X65616407Y-51153420D01*
X65410870Y-50836922D01*
X65301107Y-50701376D01*
X65173369Y-50543633D01*
X64906515Y-50276779D01*
X64613229Y-50039280D01*
X64613227Y-50039279D01*
X64613225Y-50039277D01*
X64296724Y-49833738D01*
X63960469Y-49662409D01*
X63960468Y-49662408D01*
X63960467Y-49662408D01*
X63864011Y-49625382D01*
X63608143Y-49527163D01*
X63243611Y-49429487D01*
X62870874Y-49370452D01*
X62494000Y-49350701D01*
X62117125Y-49370452D01*
X61744388Y-49429487D01*
X61379856Y-49527163D01*
X61027533Y-49662407D01*
X60691272Y-49833740D01*
X60374774Y-50039277D01*
X60081481Y-50276782D01*
X59814634Y-50543629D01*
X59577129Y-50836922D01*
X59371592Y-51153420D01*
X59200259Y-51489681D01*
X59065015Y-51842004D01*
X58967339Y-52206536D01*
X58908304Y-52579273D01*
X58888553Y-52956148D01*
X56536445Y-52956148D01*
X55890001Y-52309703D01*
X55890000Y-52309703D01*
X55200428Y-52999272D01*
X55230139Y-53020076D01*
X55270466Y-53067293D01*
X55282846Y-53128140D01*
X55264175Y-53187360D01*
X55219134Y-53230103D01*
X55159018Y-53245651D01*
X55092131Y-53245651D01*
X55032516Y-53252060D01*
X54897670Y-53302355D01*
X54782455Y-53388605D01*
X54696205Y-53503819D01*
X54645910Y-53638667D01*
X54639501Y-53698281D01*
X54639501Y-55294018D01*
X53167094Y-55294018D01*
X53096304Y-55250187D01*
X53054440Y-55233969D01*
X52900076Y-55174168D01*
X52693220Y-55135500D01*
X52482780Y-55135500D01*
X52275923Y-55174168D01*
X52275924Y-55174168D01*
X52079695Y-55250187D01*
X51900774Y-55360970D01*
X51745260Y-55502739D01*
X51618439Y-55670677D01*
X51524640Y-55859052D01*
X51467051Y-56061455D01*
X51447635Y-56270999D01*
X48743299Y-56270999D01*
X48755948Y-56226544D01*
X48759477Y-56188455D01*
X48775365Y-56017000D01*
X48762863Y-55882087D01*
X48775334Y-55815377D01*
X48821056Y-55765221D01*
X48886334Y-55746648D01*
X48888118Y-55746648D01*
X48888127Y-55746649D01*
X50483870Y-55746648D01*
X50543481Y-55740240D01*
X50678329Y-55689945D01*
X50793544Y-55603695D01*
X50879794Y-55488480D01*
X50930089Y-55353632D01*
X50936498Y-55294022D01*
X50936497Y-53698279D01*
X50930089Y-53638668D01*
X50879794Y-53503820D01*
X50793544Y-53388605D01*
X50678329Y-53302355D01*
X50543481Y-53252060D01*
X50483871Y-53245651D01*
X50483867Y-53245651D01*
X50416983Y-53245651D01*
X50356867Y-53230104D01*
X50311825Y-53187362D01*
X50293153Y-53128142D01*
X50305532Y-53067294D01*
X50345858Y-53020077D01*
X50375568Y-52999272D01*
X49686000Y-52309703D01*
X49685999Y-52309703D01*
X48996427Y-52999272D01*
X49026138Y-53020076D01*
X49066465Y-53067293D01*
X49078845Y-53128140D01*
X49060174Y-53187360D01*
X49015133Y-53230103D01*
X48955017Y-53245651D01*
X48888130Y-53245651D01*
X48828515Y-53252060D01*
X48693669Y-53302355D01*
X48578454Y-53388605D01*
X48492204Y-53503819D01*
X48441909Y-53638667D01*
X48435500Y-53698282D01*
X48435500Y-54954484D01*
X48418407Y-55017309D01*
X48371839Y-55062813D01*
X48308636Y-55078451D01*
X48246223Y-55059911D01*
X48143307Y-54996188D01*
X48035656Y-54954484D01*
X47947076Y-54920168D01*
X47740220Y-54881500D01*
X47529780Y-54881500D01*
X47322923Y-54920168D01*
X47322924Y-54920168D01*
X47126695Y-54996187D01*
X46947774Y-55106970D01*
X46792260Y-55248739D01*
X46665439Y-55416677D01*
X46571640Y-55605052D01*
X46514051Y-55807455D01*
X46494635Y-56017000D01*
X41250299Y-56017000D01*
X41205359Y-55859052D01*
X41111560Y-55670677D01*
X40984739Y-55502739D01*
X40829225Y-55360970D01*
X40721094Y-55294018D01*
X42212500Y-55294018D01*
X42218909Y-55353633D01*
X42221646Y-55360970D01*
X42269204Y-55488480D01*
X42355454Y-55603695D01*
X42470669Y-55689945D01*
X42605517Y-55740240D01*
X42665127Y-55746649D01*
X44260870Y-55746648D01*
X44320481Y-55740240D01*
X44455329Y-55689945D01*
X44570544Y-55603695D01*
X44656794Y-55488480D01*
X44707089Y-55353632D01*
X44713498Y-55294022D01*
X44713497Y-53698279D01*
X44707089Y-53638668D01*
X44656794Y-53503820D01*
X44570544Y-53388605D01*
X44455329Y-53302355D01*
X44320481Y-53252060D01*
X44260871Y-53245651D01*
X44260867Y-53245651D01*
X44193983Y-53245651D01*
X44133867Y-53230104D01*
X44088825Y-53187362D01*
X44070153Y-53128142D01*
X44082532Y-53067294D01*
X44122858Y-53020077D01*
X44152568Y-52999272D01*
X43463000Y-52309703D01*
X43462999Y-52309703D01*
X42773427Y-52999272D01*
X42803138Y-53020076D01*
X42843465Y-53067293D01*
X42855845Y-53128140D01*
X42837174Y-53187360D01*
X42792133Y-53230103D01*
X42732017Y-53245651D01*
X42665130Y-53245651D01*
X42605515Y-53252060D01*
X42470669Y-53302355D01*
X42355454Y-53388605D01*
X42269204Y-53503819D01*
X42218909Y-53638667D01*
X42212500Y-53698281D01*
X42212500Y-55294018D01*
X40721094Y-55294018D01*
X40650304Y-55250187D01*
X40608440Y-55233969D01*
X40454076Y-55174168D01*
X40247220Y-55135500D01*
X40036780Y-55135500D01*
X39829923Y-55174168D01*
X39829924Y-55174168D01*
X39633695Y-55250187D01*
X39454774Y-55360970D01*
X39299260Y-55502739D01*
X39172439Y-55670677D01*
X39078640Y-55859052D01*
X39021051Y-56061455D01*
X39001635Y-56270999D01*
X35555596Y-56270999D01*
X35567365Y-56144000D01*
X35547948Y-55934458D01*
X35547948Y-55934455D01*
X35490359Y-55732052D01*
X35396560Y-55543677D01*
X35269739Y-55375739D01*
X35180095Y-55294018D01*
X36135499Y-55294018D01*
X36141908Y-55353633D01*
X36144645Y-55360970D01*
X36192203Y-55488480D01*
X36278453Y-55603695D01*
X36393668Y-55689945D01*
X36528516Y-55740240D01*
X36588126Y-55746649D01*
X38183869Y-55746648D01*
X38243480Y-55740240D01*
X38378328Y-55689945D01*
X38493543Y-55603695D01*
X38579793Y-55488480D01*
X38630088Y-55353632D01*
X38636497Y-55294022D01*
X38636496Y-53698279D01*
X38630088Y-53638668D01*
X38579793Y-53503820D01*
X38493543Y-53388605D01*
X38378328Y-53302355D01*
X38243480Y-53252060D01*
X38183870Y-53245651D01*
X38183866Y-53245651D01*
X38116982Y-53245651D01*
X38056866Y-53230104D01*
X38011824Y-53187362D01*
X37993152Y-53128142D01*
X38005531Y-53067294D01*
X38045857Y-53020077D01*
X38075567Y-52999272D01*
X37385999Y-52309703D01*
X37385998Y-52309703D01*
X36696426Y-52999272D01*
X36726137Y-53020076D01*
X36766464Y-53067293D01*
X36778844Y-53128140D01*
X36760173Y-53187360D01*
X36715132Y-53230103D01*
X36655016Y-53245651D01*
X36588129Y-53245651D01*
X36528514Y-53252060D01*
X36393668Y-53302355D01*
X36278453Y-53388605D01*
X36192203Y-53503819D01*
X36141908Y-53638667D01*
X36135499Y-53698281D01*
X36135499Y-55294018D01*
X35180095Y-55294018D01*
X35114225Y-55233970D01*
X34935304Y-55123187D01*
X34893440Y-55106969D01*
X34739076Y-55047168D01*
X34532220Y-55008500D01*
X34321780Y-55008500D01*
X34114924Y-55047167D01*
X34114924Y-55047168D01*
X33918695Y-55123187D01*
X33739774Y-55233970D01*
X33584260Y-55375739D01*
X33457439Y-55543677D01*
X33363640Y-55732052D01*
X33306051Y-55934455D01*
X33286635Y-56144000D01*
X29051467Y-56144000D01*
X29046739Y-56137739D01*
X28891225Y-55995970D01*
X28712304Y-55885187D01*
X28644844Y-55859053D01*
X28516076Y-55809168D01*
X28309220Y-55770500D01*
X28098780Y-55770500D01*
X27953396Y-55797677D01*
X27891924Y-55809168D01*
X27695695Y-55885187D01*
X27516774Y-55995970D01*
X27361260Y-56137739D01*
X27234439Y-56305677D01*
X27140640Y-56494052D01*
X27083051Y-56696455D01*
X27063635Y-56906000D01*
X22926164Y-56906000D01*
X22974948Y-56734544D01*
X22979729Y-56682947D01*
X22994365Y-56525000D01*
X22974948Y-56315458D01*
X22974948Y-56315455D01*
X22917359Y-56113052D01*
X22823560Y-55924677D01*
X22696739Y-55756739D01*
X22541225Y-55614970D01*
X22362304Y-55504187D01*
X22320440Y-55487969D01*
X22166076Y-55428168D01*
X21959220Y-55389500D01*
X21748780Y-55389500D01*
X21603396Y-55416677D01*
X21541924Y-55428168D01*
X21345695Y-55504187D01*
X21166774Y-55614970D01*
X21011260Y-55756739D01*
X20884439Y-55924677D01*
X20790640Y-56113052D01*
X20733051Y-56315455D01*
X20713635Y-56525000D01*
X17120299Y-56525000D01*
X17132948Y-56480544D01*
X17137729Y-56428947D01*
X17152365Y-56271000D01*
X17137171Y-56107035D01*
X17132948Y-56061455D01*
X17075359Y-55859052D01*
X16981560Y-55670677D01*
X16854739Y-55502739D01*
X16699225Y-55360970D01*
X16591094Y-55294018D01*
X17809501Y-55294018D01*
X17815910Y-55353633D01*
X17818647Y-55360970D01*
X17866205Y-55488480D01*
X17952455Y-55603695D01*
X18067670Y-55689945D01*
X18202518Y-55740240D01*
X18262128Y-55746649D01*
X19857871Y-55746648D01*
X19917482Y-55740240D01*
X20052330Y-55689945D01*
X20167545Y-55603695D01*
X20253795Y-55488480D01*
X20304090Y-55353632D01*
X20310499Y-55294022D01*
X20310499Y-55294018D01*
X23943499Y-55294018D01*
X23949908Y-55353633D01*
X23952645Y-55360970D01*
X24000203Y-55488480D01*
X24086453Y-55603695D01*
X24201668Y-55689945D01*
X24336516Y-55740240D01*
X24396126Y-55746649D01*
X25991869Y-55746648D01*
X26051480Y-55740240D01*
X26186328Y-55689945D01*
X26301543Y-55603695D01*
X26387793Y-55488480D01*
X26438088Y-55353632D01*
X26444497Y-55294022D01*
X26444497Y-55294018D01*
X30039499Y-55294018D01*
X30045908Y-55353633D01*
X30048645Y-55360970D01*
X30096203Y-55488480D01*
X30182453Y-55603695D01*
X30297668Y-55689945D01*
X30432516Y-55740240D01*
X30492126Y-55746649D01*
X32087869Y-55746648D01*
X32147480Y-55740240D01*
X32282328Y-55689945D01*
X32397543Y-55603695D01*
X32483793Y-55488480D01*
X32534088Y-55353632D01*
X32540497Y-55294022D01*
X32540496Y-53698279D01*
X32534088Y-53638668D01*
X32483793Y-53503820D01*
X32397543Y-53388605D01*
X32282328Y-53302355D01*
X32147480Y-53252060D01*
X32087870Y-53245651D01*
X32087866Y-53245651D01*
X32020982Y-53245651D01*
X31960866Y-53230104D01*
X31915824Y-53187362D01*
X31897152Y-53128142D01*
X31909531Y-53067294D01*
X31949857Y-53020077D01*
X31979567Y-52999272D01*
X31289999Y-52309703D01*
X31289998Y-52309703D01*
X30600426Y-52999272D01*
X30630137Y-53020076D01*
X30670464Y-53067293D01*
X30682844Y-53128140D01*
X30664173Y-53187360D01*
X30619132Y-53230103D01*
X30559016Y-53245651D01*
X30492129Y-53245651D01*
X30432514Y-53252060D01*
X30297668Y-53302355D01*
X30182453Y-53388605D01*
X30096203Y-53503819D01*
X30045908Y-53638667D01*
X30039499Y-53698281D01*
X30039499Y-55294018D01*
X26444497Y-55294018D01*
X26444496Y-53698279D01*
X26438088Y-53638668D01*
X26387793Y-53503820D01*
X26301543Y-53388605D01*
X26186328Y-53302355D01*
X26051480Y-53252060D01*
X25991870Y-53245651D01*
X25991866Y-53245651D01*
X25924982Y-53245651D01*
X25864866Y-53230104D01*
X25819824Y-53187362D01*
X25801152Y-53128142D01*
X25813531Y-53067294D01*
X25853857Y-53020077D01*
X25883567Y-52999272D01*
X25193999Y-52309703D01*
X25193998Y-52309703D01*
X24504426Y-52999272D01*
X24534137Y-53020076D01*
X24574464Y-53067293D01*
X24586844Y-53128140D01*
X24568173Y-53187360D01*
X24523132Y-53230103D01*
X24463016Y-53245651D01*
X24396129Y-53245651D01*
X24336514Y-53252060D01*
X24201668Y-53302355D01*
X24086453Y-53388605D01*
X24000203Y-53503819D01*
X23949908Y-53638667D01*
X23943499Y-53698281D01*
X23943499Y-55294018D01*
X20310499Y-55294018D01*
X20310498Y-53698279D01*
X20304090Y-53638668D01*
X20253795Y-53503820D01*
X20167545Y-53388605D01*
X20052330Y-53302355D01*
X19917482Y-53252060D01*
X19857872Y-53245651D01*
X19857868Y-53245651D01*
X19790984Y-53245651D01*
X19730868Y-53230104D01*
X19685826Y-53187362D01*
X19667154Y-53128142D01*
X19679533Y-53067294D01*
X19719859Y-53020077D01*
X19749570Y-52999272D01*
X19060001Y-52309703D01*
X19060000Y-52309703D01*
X18370428Y-52999272D01*
X18400139Y-53020076D01*
X18440466Y-53067293D01*
X18452846Y-53128140D01*
X18434175Y-53187360D01*
X18389134Y-53230103D01*
X18329018Y-53245651D01*
X18262131Y-53245651D01*
X18202516Y-53252060D01*
X18067670Y-53302355D01*
X17952455Y-53388605D01*
X17866205Y-53503819D01*
X17815910Y-53638667D01*
X17809501Y-53698281D01*
X17809501Y-55294018D01*
X16591094Y-55294018D01*
X16520304Y-55250187D01*
X16478440Y-55233969D01*
X16324076Y-55174168D01*
X16117220Y-55135500D01*
X15906780Y-55135500D01*
X15699923Y-55174168D01*
X15699924Y-55174168D01*
X15503695Y-55250187D01*
X15324774Y-55360970D01*
X15169260Y-55502739D01*
X15042439Y-55670677D01*
X14948640Y-55859052D01*
X14891051Y-56061455D01*
X14871635Y-56270999D01*
X10917597Y-56270999D01*
X10909948Y-56188458D01*
X10909948Y-56188455D01*
X10852359Y-55986052D01*
X10758560Y-55797677D01*
X10631739Y-55629739D01*
X10476225Y-55487970D01*
X10297304Y-55377187D01*
X10236501Y-55353632D01*
X10101076Y-55301168D01*
X10062827Y-55294018D01*
X11713501Y-55294018D01*
X11719910Y-55353633D01*
X11722647Y-55360970D01*
X11770205Y-55488480D01*
X11856455Y-55603695D01*
X11971670Y-55689945D01*
X12106518Y-55740240D01*
X12166128Y-55746649D01*
X13761871Y-55746648D01*
X13821482Y-55740240D01*
X13956330Y-55689945D01*
X14071545Y-55603695D01*
X14157795Y-55488480D01*
X14208090Y-55353632D01*
X14214499Y-55294022D01*
X14214498Y-53698279D01*
X14208090Y-53638668D01*
X14157795Y-53503820D01*
X14071545Y-53388605D01*
X13956330Y-53302355D01*
X13821482Y-53252060D01*
X13761872Y-53245651D01*
X13761868Y-53245651D01*
X13694984Y-53245651D01*
X13634868Y-53230104D01*
X13589826Y-53187362D01*
X13571154Y-53128142D01*
X13583533Y-53067294D01*
X13623859Y-53020077D01*
X13653569Y-52999272D01*
X12964001Y-52309703D01*
X12964000Y-52309703D01*
X12274428Y-52999272D01*
X12304139Y-53020076D01*
X12344466Y-53067293D01*
X12356846Y-53128140D01*
X12338175Y-53187360D01*
X12293134Y-53230103D01*
X12233018Y-53245651D01*
X12166131Y-53245651D01*
X12106516Y-53252060D01*
X11971670Y-53302355D01*
X11856455Y-53388605D01*
X11770205Y-53503819D01*
X11719910Y-53638667D01*
X11713501Y-53698281D01*
X11713501Y-55294018D01*
X10062827Y-55294018D01*
X9894220Y-55262500D01*
X9683780Y-55262500D01*
X9515152Y-55294022D01*
X9476924Y-55301168D01*
X9280695Y-55377187D01*
X9101774Y-55487970D01*
X8946260Y-55629739D01*
X8819439Y-55797677D01*
X8725640Y-55986052D01*
X8668051Y-56188455D01*
X8648635Y-56398000D01*
X5560134Y-56398000D01*
X5608158Y-56385132D01*
X5960481Y-56249888D01*
X6296738Y-56078557D01*
X6613243Y-55873016D01*
X6906529Y-55635517D01*
X7173383Y-55368663D01*
X7410882Y-55075377D01*
X7616423Y-54758872D01*
X7787754Y-54422615D01*
X7922998Y-54070292D01*
X8020673Y-53705763D01*
X8021859Y-53698279D01*
X8070906Y-53388605D01*
X8079710Y-53333020D01*
X8099461Y-52956148D01*
X8079710Y-52579276D01*
X8050191Y-52392904D01*
X8020674Y-52206536D01*
X7953583Y-51956150D01*
X11709226Y-51956150D01*
X11728289Y-52174036D01*
X11784899Y-52385309D01*
X11877335Y-52583537D01*
X11920876Y-52645720D01*
X12610447Y-51956151D01*
X12610447Y-51956150D01*
X13317553Y-51956150D01*
X14007122Y-52645719D01*
X14050665Y-52583536D01*
X14143100Y-52385309D01*
X14199710Y-52174036D01*
X14218773Y-51956150D01*
X17805226Y-51956150D01*
X17824289Y-52174036D01*
X17880899Y-52385309D01*
X17973335Y-52583537D01*
X18016876Y-52645720D01*
X18706447Y-51956151D01*
X18706447Y-51956150D01*
X19413553Y-51956150D01*
X20103122Y-52645719D01*
X20146665Y-52583536D01*
X20239100Y-52385309D01*
X20295710Y-52174036D01*
X20314773Y-51956150D01*
X23939224Y-51956150D01*
X23958287Y-52174036D01*
X24014897Y-52385309D01*
X24107333Y-52583537D01*
X24150874Y-52645720D01*
X24840445Y-51956151D01*
X24840445Y-51956150D01*
X24840444Y-51956149D01*
X25547550Y-51956149D01*
X26237120Y-52645719D01*
X26280663Y-52583536D01*
X26373098Y-52385309D01*
X26429708Y-52174036D01*
X26448771Y-51956150D01*
X30035224Y-51956150D01*
X30054287Y-52174036D01*
X30110897Y-52385309D01*
X30203333Y-52583537D01*
X30246874Y-52645720D01*
X30936445Y-51956151D01*
X30936445Y-51956150D01*
X31643551Y-51956150D01*
X32333120Y-52645719D01*
X32376663Y-52583536D01*
X32469098Y-52385309D01*
X32525708Y-52174036D01*
X32544771Y-51956150D01*
X36131224Y-51956150D01*
X36150287Y-52174036D01*
X36206897Y-52385309D01*
X36299333Y-52583537D01*
X36342874Y-52645720D01*
X37032445Y-51956151D01*
X37032445Y-51956150D01*
X37032444Y-51956149D01*
X37739550Y-51956149D01*
X38429120Y-52645719D01*
X38472663Y-52583536D01*
X38565098Y-52385309D01*
X38621708Y-52174036D01*
X38640771Y-51956150D01*
X42208225Y-51956150D01*
X42227288Y-52174036D01*
X42283898Y-52385309D01*
X42376334Y-52583537D01*
X42419875Y-52645720D01*
X43109446Y-51956151D01*
X43109446Y-51956150D01*
X43816552Y-51956150D01*
X44506121Y-52645719D01*
X44549664Y-52583536D01*
X44642099Y-52385309D01*
X44698709Y-52174036D01*
X44717772Y-51956150D01*
X48431225Y-51956150D01*
X48450288Y-52174036D01*
X48506898Y-52385309D01*
X48599334Y-52583537D01*
X48642875Y-52645720D01*
X49332446Y-51956151D01*
X49332446Y-51956150D01*
X50039552Y-51956150D01*
X50729121Y-52645719D01*
X50772664Y-52583536D01*
X50865099Y-52385309D01*
X50921709Y-52174036D01*
X50940772Y-51956150D01*
X54635226Y-51956150D01*
X54654289Y-52174036D01*
X54710899Y-52385309D01*
X54803335Y-52583537D01*
X54846876Y-52645720D01*
X55536447Y-51956151D01*
X55536447Y-51956150D01*
X55536446Y-51956149D01*
X56243552Y-51956149D01*
X56933122Y-52645719D01*
X56976665Y-52583536D01*
X57069100Y-52385309D01*
X57125710Y-52174036D01*
X57144773Y-51956150D01*
X57125710Y-51738263D01*
X57069100Y-51526990D01*
X56976664Y-51328763D01*
X56933123Y-51266579D01*
X56933122Y-51266578D01*
X56243552Y-51956149D01*
X55536446Y-51956149D01*
X54846875Y-51266578D01*
X54803334Y-51328764D01*
X54710899Y-51526990D01*
X54654289Y-51738263D01*
X54635226Y-51956150D01*
X50940772Y-51956150D01*
X50921709Y-51738263D01*
X50865099Y-51526990D01*
X50772663Y-51328763D01*
X50729122Y-51266579D01*
X50729121Y-51266578D01*
X50039552Y-51956150D01*
X49332446Y-51956150D01*
X48642874Y-51266578D01*
X48599333Y-51328764D01*
X48506898Y-51526990D01*
X48450288Y-51738263D01*
X48431225Y-51956150D01*
X44717772Y-51956150D01*
X44698709Y-51738263D01*
X44642099Y-51526990D01*
X44549663Y-51328763D01*
X44506122Y-51266579D01*
X44506121Y-51266578D01*
X43816552Y-51956150D01*
X43109446Y-51956150D01*
X42419874Y-51266578D01*
X42376333Y-51328764D01*
X42283898Y-51526990D01*
X42227288Y-51738263D01*
X42208225Y-51956150D01*
X38640771Y-51956150D01*
X38621708Y-51738263D01*
X38565098Y-51526990D01*
X38472662Y-51328763D01*
X38429121Y-51266579D01*
X38429120Y-51266578D01*
X37739550Y-51956149D01*
X37032444Y-51956149D01*
X36342873Y-51266578D01*
X36299332Y-51328764D01*
X36206897Y-51526990D01*
X36150287Y-51738263D01*
X36131224Y-51956150D01*
X32544771Y-51956150D01*
X32525708Y-51738263D01*
X32469098Y-51526990D01*
X32376662Y-51328763D01*
X32333121Y-51266579D01*
X32333120Y-51266578D01*
X31643551Y-51956150D01*
X30936445Y-51956150D01*
X30246873Y-51266578D01*
X30203332Y-51328764D01*
X30110897Y-51526990D01*
X30054287Y-51738263D01*
X30035224Y-51956150D01*
X26448771Y-51956150D01*
X26429708Y-51738263D01*
X26373098Y-51526990D01*
X26280662Y-51328763D01*
X26237121Y-51266579D01*
X26237120Y-51266578D01*
X25547550Y-51956149D01*
X24840444Y-51956149D01*
X24150873Y-51266578D01*
X24107332Y-51328764D01*
X24014897Y-51526990D01*
X23958287Y-51738263D01*
X23939224Y-51956150D01*
X20314773Y-51956150D01*
X20295710Y-51738263D01*
X20239100Y-51526990D01*
X20146664Y-51328763D01*
X20103123Y-51266579D01*
X20103122Y-51266578D01*
X19413553Y-51956150D01*
X18706447Y-51956150D01*
X18016875Y-51266578D01*
X17973334Y-51328764D01*
X17880899Y-51526990D01*
X17824289Y-51738263D01*
X17805226Y-51956150D01*
X14218773Y-51956150D01*
X14199710Y-51738263D01*
X14143100Y-51526990D01*
X14050664Y-51328763D01*
X14007123Y-51266579D01*
X14007122Y-51266578D01*
X13317553Y-51956150D01*
X12610447Y-51956150D01*
X11920875Y-51266578D01*
X11877334Y-51328764D01*
X11784899Y-51526990D01*
X11728289Y-51738263D01*
X11709226Y-51956150D01*
X7953583Y-51956150D01*
X7922998Y-51842004D01*
X7787754Y-51489681D01*
X7616421Y-51153420D01*
X7460306Y-50913025D01*
X12274428Y-50913025D01*
X12964000Y-51602597D01*
X12964001Y-51602597D01*
X13653570Y-50913026D01*
X13653569Y-50913025D01*
X18370428Y-50913025D01*
X19060000Y-51602597D01*
X19060001Y-51602597D01*
X19749570Y-50913026D01*
X19749569Y-50913025D01*
X24504426Y-50913025D01*
X25193998Y-51602597D01*
X25193999Y-51602597D01*
X25883568Y-50913026D01*
X25883567Y-50913025D01*
X30600426Y-50913025D01*
X31289998Y-51602597D01*
X31289999Y-51602597D01*
X31979568Y-50913026D01*
X31979567Y-50913025D01*
X36696426Y-50913025D01*
X37385998Y-51602597D01*
X37385999Y-51602597D01*
X38075568Y-50913026D01*
X38075567Y-50913025D01*
X42773427Y-50913025D01*
X43462999Y-51602597D01*
X43463000Y-51602597D01*
X44152569Y-50913026D01*
X44152568Y-50913025D01*
X48996427Y-50913025D01*
X49685999Y-51602597D01*
X49686000Y-51602597D01*
X50375569Y-50913026D01*
X50375568Y-50913025D01*
X55200428Y-50913025D01*
X55890000Y-51602597D01*
X55890001Y-51602597D01*
X56579570Y-50913026D01*
X56517387Y-50869485D01*
X56319159Y-50777049D01*
X56107886Y-50720439D01*
X55890000Y-50701376D01*
X55672113Y-50720439D01*
X55460840Y-50777049D01*
X55262614Y-50869484D01*
X55200428Y-50913025D01*
X50375568Y-50913025D01*
X50313386Y-50869485D01*
X50115158Y-50777049D01*
X49903885Y-50720439D01*
X49685999Y-50701376D01*
X49468112Y-50720439D01*
X49256839Y-50777049D01*
X49058613Y-50869484D01*
X48996427Y-50913025D01*
X44152568Y-50913025D01*
X44090386Y-50869485D01*
X43892158Y-50777049D01*
X43680885Y-50720439D01*
X43462999Y-50701376D01*
X43245112Y-50720439D01*
X43033839Y-50777049D01*
X42835613Y-50869484D01*
X42773427Y-50913025D01*
X38075567Y-50913025D01*
X38013385Y-50869485D01*
X37815157Y-50777049D01*
X37603884Y-50720439D01*
X37385998Y-50701376D01*
X37168111Y-50720439D01*
X36956838Y-50777049D01*
X36758612Y-50869484D01*
X36696426Y-50913025D01*
X31979567Y-50913025D01*
X31917385Y-50869485D01*
X31719157Y-50777049D01*
X31507884Y-50720439D01*
X31289998Y-50701376D01*
X31072111Y-50720439D01*
X30860838Y-50777049D01*
X30662612Y-50869484D01*
X30600426Y-50913025D01*
X25883567Y-50913025D01*
X25821385Y-50869485D01*
X25623157Y-50777049D01*
X25411884Y-50720439D01*
X25193998Y-50701376D01*
X24976111Y-50720439D01*
X24764838Y-50777049D01*
X24566612Y-50869484D01*
X24504426Y-50913025D01*
X19749569Y-50913025D01*
X19687387Y-50869485D01*
X19489159Y-50777049D01*
X19277886Y-50720439D01*
X19060000Y-50701376D01*
X18842113Y-50720439D01*
X18630840Y-50777049D01*
X18432614Y-50869484D01*
X18370428Y-50913025D01*
X13653569Y-50913025D01*
X13591387Y-50869485D01*
X13393159Y-50777049D01*
X13181886Y-50720439D01*
X12964000Y-50701376D01*
X12746113Y-50720439D01*
X12534840Y-50777049D01*
X12336614Y-50869484D01*
X12274428Y-50913025D01*
X7460306Y-50913025D01*
X7410884Y-50836922D01*
X7301121Y-50701376D01*
X7173383Y-50543633D01*
X6906529Y-50276779D01*
X6613243Y-50039280D01*
X6613241Y-50039279D01*
X6613239Y-50039277D01*
X6296738Y-49833738D01*
X5960483Y-49662409D01*
X5960482Y-49662408D01*
X5960481Y-49662408D01*
X5864025Y-49625382D01*
X5608157Y-49527163D01*
X5243625Y-49429487D01*
X4870888Y-49370452D01*
X4494014Y-49350701D01*
X4117139Y-49370452D01*
X3744402Y-49429487D01*
X3379870Y-49527163D01*
X3027547Y-49662407D01*
X2691286Y-49833740D01*
X2374788Y-50039277D01*
X2081495Y-50276782D01*
X1814648Y-50543629D01*
X1577143Y-50836922D01*
X1371606Y-51153420D01*
X1200273Y-51489681D01*
X1065029Y-51842004D01*
X967353Y-52206536D01*
X908318Y-52579273D01*
X888567Y-52956148D01*
X102100Y-52956148D01*
X102100Y-47022965D01*
X2460535Y-47022965D01*
X2466944Y-47082580D01*
X2470076Y-47090976D01*
X2517239Y-47217427D01*
X2603489Y-47332642D01*
X2718704Y-47418892D01*
X2853552Y-47469187D01*
X2913162Y-47475596D01*
X4508905Y-47475595D01*
X4568516Y-47469187D01*
X4703364Y-47418892D01*
X4818579Y-47332642D01*
X4904829Y-47217427D01*
X4955124Y-47082579D01*
X4961533Y-47022969D01*
X4961532Y-46956951D01*
X4977078Y-46896838D01*
X5019821Y-46851796D01*
X5079041Y-46833123D01*
X5139889Y-46845502D01*
X5187106Y-46885829D01*
X5284836Y-47025400D01*
X5289438Y-47031972D01*
X5444159Y-47186693D01*
X5623396Y-47312197D01*
X5821705Y-47404670D01*
X6033058Y-47461302D01*
X6251034Y-47480372D01*
X6469010Y-47461302D01*
X6680363Y-47404670D01*
X6878672Y-47312197D01*
X6889237Y-47304799D01*
X13855635Y-47304799D01*
X13875051Y-47514344D01*
X13932640Y-47716747D01*
X14026439Y-47905122D01*
X14153260Y-48073060D01*
X14308774Y-48214829D01*
X14308776Y-48214830D01*
X14308777Y-48214831D01*
X14487696Y-48325613D01*
X14683924Y-48401632D01*
X14890780Y-48440300D01*
X15101218Y-48440300D01*
X15101220Y-48440300D01*
X15308076Y-48401632D01*
X15504304Y-48325613D01*
X15683223Y-48214831D01*
X15799090Y-48109205D01*
X15838739Y-48073060D01*
X15844639Y-48065247D01*
X15965558Y-47905125D01*
X15965558Y-47905123D01*
X15965560Y-47905122D01*
X16059359Y-47716747D01*
X16116948Y-47514344D01*
X16121863Y-47461302D01*
X16136365Y-47304800D01*
X16116948Y-47095258D01*
X16116948Y-47095255D01*
X16097072Y-47025399D01*
X34378835Y-47025399D01*
X34398251Y-47234944D01*
X34455840Y-47437347D01*
X34549639Y-47625722D01*
X34676460Y-47793660D01*
X34831974Y-47935429D01*
X34831976Y-47935430D01*
X34831977Y-47935431D01*
X35010896Y-48046213D01*
X35207124Y-48122232D01*
X35413980Y-48160900D01*
X35624418Y-48160900D01*
X35624420Y-48160900D01*
X35831276Y-48122232D01*
X36027504Y-48046213D01*
X36206423Y-47935431D01*
X36268334Y-47878992D01*
X37655435Y-47878992D01*
X37674851Y-48088536D01*
X37732440Y-48290939D01*
X37826239Y-48479314D01*
X37953060Y-48647252D01*
X38108574Y-48789021D01*
X38108576Y-48789022D01*
X38108577Y-48789023D01*
X38287496Y-48899805D01*
X38483724Y-48975824D01*
X38690580Y-49014492D01*
X38901018Y-49014492D01*
X38901020Y-49014492D01*
X39107876Y-48975824D01*
X39304104Y-48899805D01*
X39483023Y-48789023D01*
X39638540Y-48647251D01*
X39765358Y-48479317D01*
X39765358Y-48479315D01*
X39765360Y-48479314D01*
X39859159Y-48290939D01*
X39916748Y-48088536D01*
X39922774Y-48023500D01*
X39936165Y-47878992D01*
X42278235Y-47878992D01*
X42297651Y-48088536D01*
X42355240Y-48290939D01*
X42449039Y-48479314D01*
X42575860Y-48647252D01*
X42731374Y-48789021D01*
X42731376Y-48789022D01*
X42731377Y-48789023D01*
X42910296Y-48899805D01*
X43106524Y-48975824D01*
X43313380Y-49014492D01*
X43523818Y-49014492D01*
X43523820Y-49014492D01*
X43730676Y-48975824D01*
X43730678Y-48975822D01*
X43741971Y-48973712D01*
X43742643Y-48977309D01*
X43781929Y-48972698D01*
X43839590Y-48996517D01*
X43878356Y-49045398D01*
X43888412Y-49106969D01*
X43883591Y-49158999D01*
X43903007Y-49368544D01*
X43960596Y-49570947D01*
X44054395Y-49759322D01*
X44181216Y-49927260D01*
X44336730Y-50069029D01*
X44336732Y-50069030D01*
X44336733Y-50069031D01*
X44515652Y-50179813D01*
X44711880Y-50255832D01*
X44918736Y-50294500D01*
X45129174Y-50294500D01*
X45129176Y-50294500D01*
X45336032Y-50255832D01*
X45532260Y-50179813D01*
X45711179Y-50069031D01*
X45866696Y-49927259D01*
X45993514Y-49759325D01*
X45993514Y-49759323D01*
X45993516Y-49759322D01*
X46087315Y-49570947D01*
X46144904Y-49368544D01*
X46147939Y-49335781D01*
X46164321Y-49159000D01*
X46147347Y-48975823D01*
X46144904Y-48949455D01*
X46087315Y-48747052D01*
X45993516Y-48558677D01*
X45866695Y-48390739D01*
X45711181Y-48248970D01*
X45532260Y-48138187D01*
X45491073Y-48122231D01*
X45336032Y-48062168D01*
X45129176Y-48023500D01*
X44918736Y-48023500D01*
X44711880Y-48062168D01*
X44711876Y-48062169D01*
X44700586Y-48064280D01*
X44699920Y-48060722D01*
X44660292Y-48065247D01*
X44602785Y-48041340D01*
X44564153Y-47992490D01*
X44554143Y-47931024D01*
X44558965Y-47878992D01*
X44543931Y-47716747D01*
X44539548Y-47669447D01*
X44481959Y-47467044D01*
X44388160Y-47278669D01*
X44261339Y-47110731D01*
X44105825Y-46968962D01*
X43926904Y-46858179D01*
X43912844Y-46852732D01*
X43730676Y-46782160D01*
X43537231Y-46745999D01*
X59067635Y-46745999D01*
X59087051Y-46955544D01*
X59144640Y-47157947D01*
X59238439Y-47346322D01*
X59365260Y-47514260D01*
X59520774Y-47656029D01*
X59520776Y-47656030D01*
X59520777Y-47656031D01*
X59699696Y-47766813D01*
X59895924Y-47842832D01*
X60102780Y-47881500D01*
X60313218Y-47881500D01*
X60313220Y-47881500D01*
X60520076Y-47842832D01*
X60716304Y-47766813D01*
X60895223Y-47656031D01*
X61050740Y-47514259D01*
X61177558Y-47346325D01*
X61177558Y-47346323D01*
X61177560Y-47346322D01*
X61271359Y-47157947D01*
X61328948Y-46955544D01*
X61335408Y-46885829D01*
X61336597Y-46872999D01*
X62000724Y-46872999D01*
X62019794Y-47090973D01*
X62076427Y-47302330D01*
X62124149Y-47404669D01*
X62168900Y-47500638D01*
X62294404Y-47679875D01*
X62449125Y-47834596D01*
X62628362Y-47960100D01*
X62826671Y-48052573D01*
X63038024Y-48109205D01*
X63256000Y-48128275D01*
X63473976Y-48109205D01*
X63685329Y-48052573D01*
X63883638Y-47960100D01*
X64062875Y-47834596D01*
X64217596Y-47679875D01*
X64343100Y-47500638D01*
X64435573Y-47302329D01*
X64492205Y-47090976D01*
X64511275Y-46873000D01*
X64492205Y-46655024D01*
X64435573Y-46443671D01*
X64343100Y-46245363D01*
X64217596Y-46066125D01*
X64062875Y-45911404D01*
X63883638Y-45785900D01*
X63732410Y-45715381D01*
X63680235Y-45669625D01*
X63660816Y-45603000D01*
X63680235Y-45536375D01*
X63732410Y-45490618D01*
X63883638Y-45420100D01*
X64062875Y-45294596D01*
X64217596Y-45139875D01*
X64343100Y-44960638D01*
X64435573Y-44762329D01*
X64492205Y-44550976D01*
X64511275Y-44333000D01*
X64510727Y-44326741D01*
X64492205Y-44115026D01*
X64492205Y-44115024D01*
X64435573Y-43903671D01*
X64343100Y-43705363D01*
X64217596Y-43526125D01*
X64062875Y-43371404D01*
X63883638Y-43245900D01*
X63732410Y-43175381D01*
X63680235Y-43129625D01*
X63660816Y-43063000D01*
X63680235Y-42996375D01*
X63732410Y-42950618D01*
X63883638Y-42880100D01*
X64062875Y-42754596D01*
X64217596Y-42599875D01*
X64343100Y-42420638D01*
X64435573Y-42222329D01*
X64492205Y-42010976D01*
X64511275Y-41793000D01*
X64499508Y-41658500D01*
X64497422Y-41634651D01*
X64505497Y-41578605D01*
X64537648Y-41531993D01*
X64587169Y-41504534D01*
X64643729Y-41501955D01*
X64801780Y-41531500D01*
X65012218Y-41531500D01*
X65012220Y-41531500D01*
X65219076Y-41492832D01*
X65415304Y-41416813D01*
X65594223Y-41306031D01*
X65749740Y-41164259D01*
X65876558Y-40996325D01*
X65876558Y-40996323D01*
X65876560Y-40996322D01*
X65970359Y-40807947D01*
X66027948Y-40605544D01*
X66034232Y-40537725D01*
X66047365Y-40396000D01*
X66031319Y-40222832D01*
X66027948Y-40186455D01*
X65970359Y-39984052D01*
X65876560Y-39795677D01*
X65749739Y-39627739D01*
X65594225Y-39485970D01*
X65415304Y-39375187D01*
X65312968Y-39335542D01*
X65219076Y-39299168D01*
X65012220Y-39260500D01*
X64801780Y-39260500D01*
X64684903Y-39282348D01*
X64650992Y-39288687D01*
X64583215Y-39282348D01*
X64528997Y-39241185D01*
X64504679Y-39177605D01*
X64492205Y-39035026D01*
X64492205Y-39035024D01*
X64435573Y-38823671D01*
X64343100Y-38625363D01*
X64217596Y-38446125D01*
X64062875Y-38291404D01*
X63883638Y-38165900D01*
X63732410Y-38095381D01*
X63680235Y-38049625D01*
X63660816Y-37983000D01*
X63680235Y-37916375D01*
X63732410Y-37870618D01*
X63883638Y-37800100D01*
X64062875Y-37674596D01*
X64217596Y-37519875D01*
X64343100Y-37340638D01*
X64435573Y-37142329D01*
X64492205Y-36930976D01*
X64511275Y-36713000D01*
X64492205Y-36495024D01*
X64435573Y-36283671D01*
X64343100Y-36085363D01*
X64217596Y-35906125D01*
X64062875Y-35751404D01*
X63883638Y-35625900D01*
X63732410Y-35555381D01*
X63680235Y-35509625D01*
X63660816Y-35443000D01*
X63680235Y-35376375D01*
X63732410Y-35330618D01*
X63883638Y-35260100D01*
X64062875Y-35134596D01*
X64217596Y-34979875D01*
X64343100Y-34800638D01*
X64435573Y-34602329D01*
X64492205Y-34390976D01*
X64511275Y-34173000D01*
X64492205Y-33955024D01*
X64435573Y-33743671D01*
X64343100Y-33545363D01*
X64217596Y-33366125D01*
X64062875Y-33211404D01*
X63883638Y-33085900D01*
X63732410Y-33015381D01*
X63680235Y-32969625D01*
X63660816Y-32903000D01*
X63680235Y-32836375D01*
X63732410Y-32790618D01*
X63883638Y-32720100D01*
X64062875Y-32594596D01*
X64217596Y-32439875D01*
X64343100Y-32260638D01*
X64435573Y-32062329D01*
X64492205Y-31850976D01*
X64511275Y-31633000D01*
X64492205Y-31415024D01*
X64435573Y-31203671D01*
X64343100Y-31005363D01*
X64217596Y-30826125D01*
X64062875Y-30671404D01*
X63916729Y-30569070D01*
X63876404Y-30521856D01*
X63864025Y-30461008D01*
X63882697Y-30401788D01*
X63927739Y-30359045D01*
X63987854Y-30343498D01*
X64053871Y-30343498D01*
X64113482Y-30337090D01*
X64248330Y-30286795D01*
X64363545Y-30200545D01*
X64449795Y-30085330D01*
X64500090Y-29950482D01*
X64506499Y-29890872D01*
X64506498Y-28295129D01*
X64500090Y-28235518D01*
X64449795Y-28100670D01*
X64363545Y-27985455D01*
X64248330Y-27899205D01*
X64113482Y-27848910D01*
X64053872Y-27842501D01*
X64053868Y-27842501D01*
X62458131Y-27842501D01*
X62398516Y-27848910D01*
X62263670Y-27899205D01*
X62148455Y-27985455D01*
X62062205Y-28100669D01*
X62011910Y-28235516D01*
X62011910Y-28235518D01*
X62006637Y-28284569D01*
X62005501Y-28295131D01*
X62005501Y-29890868D01*
X62011910Y-29950483D01*
X62037057Y-30017906D01*
X62062205Y-30085330D01*
X62148455Y-30200545D01*
X62263670Y-30286795D01*
X62398518Y-30337090D01*
X62458128Y-30343499D01*
X62524145Y-30343498D01*
X62584259Y-30359044D01*
X62629301Y-30401787D01*
X62647974Y-30461007D01*
X62635595Y-30521855D01*
X62595268Y-30569072D01*
X62449125Y-30671403D01*
X62294407Y-30826121D01*
X62294404Y-30826124D01*
X62294404Y-30826125D01*
X62186413Y-30980353D01*
X62168899Y-31005365D01*
X62076427Y-31203669D01*
X62019794Y-31415026D01*
X62000724Y-31632999D01*
X62019794Y-31850973D01*
X62076427Y-32062330D01*
X62096287Y-32104919D01*
X62168900Y-32260638D01*
X62294404Y-32439875D01*
X62449125Y-32594596D01*
X62628362Y-32720100D01*
X62757184Y-32780171D01*
X62779588Y-32790618D01*
X62831764Y-32836375D01*
X62851183Y-32903000D01*
X62831764Y-32969625D01*
X62779588Y-33015382D01*
X62628365Y-33085899D01*
X62628363Y-33085900D01*
X62496787Y-33178031D01*
X62449121Y-33211407D01*
X62294407Y-33366121D01*
X62168899Y-33545365D01*
X62076427Y-33743669D01*
X62019794Y-33955026D01*
X62000724Y-34172999D01*
X62019794Y-34390973D01*
X62056657Y-34528549D01*
X62076427Y-34602329D01*
X62168900Y-34800638D01*
X62294404Y-34979875D01*
X62449125Y-35134596D01*
X62628362Y-35260100D01*
X62707083Y-35296808D01*
X62779588Y-35330618D01*
X62831764Y-35376375D01*
X62851183Y-35443000D01*
X62831764Y-35509625D01*
X62779588Y-35555382D01*
X62652722Y-35614541D01*
X62628363Y-35625900D01*
X62518706Y-35702683D01*
X62449121Y-35751407D01*
X62294407Y-35906121D01*
X62294404Y-35906124D01*
X62294404Y-35906125D01*
X62186590Y-36060100D01*
X62168899Y-36085365D01*
X62076427Y-36283669D01*
X62019794Y-36495026D01*
X62000724Y-36713000D01*
X62019794Y-36930973D01*
X62076427Y-37142330D01*
X62118433Y-37232412D01*
X62168900Y-37340638D01*
X62294404Y-37519875D01*
X62449125Y-37674596D01*
X62628362Y-37800100D01*
X62757184Y-37860171D01*
X62779588Y-37870618D01*
X62831764Y-37916375D01*
X62851183Y-37983000D01*
X62831764Y-38049625D01*
X62779588Y-38095382D01*
X62628365Y-38165899D01*
X62628363Y-38165900D01*
X62449125Y-38291404D01*
X62449121Y-38291407D01*
X62294407Y-38446121D01*
X62294404Y-38446124D01*
X62294404Y-38446125D01*
X62238703Y-38525675D01*
X62168899Y-38625365D01*
X62076427Y-38823669D01*
X62019794Y-39035026D01*
X62000724Y-39252999D01*
X62019794Y-39470973D01*
X62076427Y-39682330D01*
X62110192Y-39754739D01*
X62168900Y-39880638D01*
X62294404Y-40059875D01*
X62449125Y-40214596D01*
X62628362Y-40340100D01*
X62748240Y-40396000D01*
X62779588Y-40410618D01*
X62831764Y-40456375D01*
X62851183Y-40523000D01*
X62831764Y-40589625D01*
X62779588Y-40635382D01*
X62636525Y-40702094D01*
X62628363Y-40705900D01*
X62576206Y-40742421D01*
X62449121Y-40831407D01*
X62294407Y-40986121D01*
X62294404Y-40986124D01*
X62294404Y-40986125D01*
X62169673Y-41164260D01*
X62168899Y-41165365D01*
X62076427Y-41363669D01*
X62019794Y-41575026D01*
X62000724Y-41793000D01*
X62019794Y-42010973D01*
X62059912Y-42160697D01*
X62076427Y-42222329D01*
X62168900Y-42420638D01*
X62294404Y-42599875D01*
X62449125Y-42754596D01*
X62628362Y-42880100D01*
X62757184Y-42940171D01*
X62779588Y-42950618D01*
X62831764Y-42996375D01*
X62851183Y-43063000D01*
X62831764Y-43129625D01*
X62779588Y-43175382D01*
X62628978Y-43245613D01*
X62628363Y-43245900D01*
X62520208Y-43321631D01*
X62449121Y-43371407D01*
X62294407Y-43526121D01*
X62294404Y-43526124D01*
X62294404Y-43526125D01*
X62179308Y-43690500D01*
X62168899Y-43705365D01*
X62076427Y-43903669D01*
X62019794Y-44115026D01*
X62000724Y-44333000D01*
X62019794Y-44550973D01*
X62076427Y-44762330D01*
X62126263Y-44869204D01*
X62168900Y-44960638D01*
X62294404Y-45139875D01*
X62449125Y-45294596D01*
X62628362Y-45420100D01*
X62757184Y-45480171D01*
X62779588Y-45490618D01*
X62831764Y-45536375D01*
X62851183Y-45603000D01*
X62831764Y-45669625D01*
X62779588Y-45715382D01*
X62628365Y-45785899D01*
X62628363Y-45785900D01*
X62556856Y-45835970D01*
X62449121Y-45911407D01*
X62294407Y-46066121D01*
X62294404Y-46066124D01*
X62294404Y-46066125D01*
X62179308Y-46230500D01*
X62168899Y-46245365D01*
X62076427Y-46443669D01*
X62019794Y-46655026D01*
X62000724Y-46872999D01*
X61336597Y-46872999D01*
X61348365Y-46746000D01*
X61328948Y-46536458D01*
X61328948Y-46536455D01*
X61271359Y-46334052D01*
X61177560Y-46145677D01*
X61050739Y-45977739D01*
X60895225Y-45835970D01*
X60716304Y-45725187D01*
X60639213Y-45695322D01*
X60520076Y-45649168D01*
X60313220Y-45610500D01*
X60102780Y-45610500D01*
X59895924Y-45649167D01*
X59895924Y-45649168D01*
X59699695Y-45725187D01*
X59520774Y-45835970D01*
X59365260Y-45977739D01*
X59238439Y-46145677D01*
X59144640Y-46334052D01*
X59087051Y-46536455D01*
X59067635Y-46745999D01*
X43537231Y-46745999D01*
X43523820Y-46743492D01*
X43313380Y-46743492D01*
X43106524Y-46782159D01*
X43106524Y-46782160D01*
X42910295Y-46858179D01*
X42731374Y-46968962D01*
X42575860Y-47110731D01*
X42449039Y-47278669D01*
X42355240Y-47467044D01*
X42297651Y-47669447D01*
X42278235Y-47878992D01*
X39936165Y-47878992D01*
X39920971Y-47715027D01*
X39916748Y-47669447D01*
X39859159Y-47467044D01*
X39765360Y-47278669D01*
X39638539Y-47110731D01*
X39483025Y-46968962D01*
X39304104Y-46858179D01*
X39290044Y-46852732D01*
X39107876Y-46782160D01*
X38901020Y-46743492D01*
X38690580Y-46743492D01*
X38483724Y-46782159D01*
X38483724Y-46782160D01*
X38287495Y-46858179D01*
X38108574Y-46968962D01*
X37953060Y-47110731D01*
X37826239Y-47278669D01*
X37732440Y-47467044D01*
X37674851Y-47669447D01*
X37655435Y-47878992D01*
X36268334Y-47878992D01*
X36361940Y-47793659D01*
X36488758Y-47625725D01*
X36488758Y-47625723D01*
X36488760Y-47625722D01*
X36582559Y-47437347D01*
X36640148Y-47234944D01*
X36644619Y-47186689D01*
X36659565Y-47025400D01*
X36640148Y-46815858D01*
X36640148Y-46815855D01*
X36582559Y-46613452D01*
X36488760Y-46425077D01*
X36361939Y-46257139D01*
X36206425Y-46115370D01*
X36027504Y-46004587D01*
X35983947Y-45987713D01*
X35831276Y-45928568D01*
X35624420Y-45889900D01*
X35413980Y-45889900D01*
X35207123Y-45928568D01*
X35207124Y-45928568D01*
X35010895Y-46004587D01*
X34831974Y-46115370D01*
X34676460Y-46257139D01*
X34549639Y-46425077D01*
X34455840Y-46613452D01*
X34398251Y-46815855D01*
X34378835Y-47025399D01*
X16097072Y-47025399D01*
X16059359Y-46892852D01*
X15965560Y-46704477D01*
X15838739Y-46536539D01*
X15683225Y-46394770D01*
X15504304Y-46283987D01*
X15435001Y-46257139D01*
X15308076Y-46207968D01*
X15101220Y-46169300D01*
X14890780Y-46169300D01*
X14683924Y-46207967D01*
X14683924Y-46207968D01*
X14487695Y-46283987D01*
X14308774Y-46394770D01*
X14153260Y-46536539D01*
X14026439Y-46704477D01*
X13932640Y-46892852D01*
X13875051Y-47095255D01*
X13855635Y-47304799D01*
X6889237Y-47304799D01*
X7057909Y-47186693D01*
X7212630Y-47031972D01*
X7338134Y-46852735D01*
X7430607Y-46654426D01*
X7487239Y-46443073D01*
X7506309Y-46225097D01*
X7487239Y-46007121D01*
X7441113Y-45834975D01*
X42183663Y-45834975D01*
X42299813Y-45906892D01*
X42507189Y-45987230D01*
X42725797Y-46028095D01*
X42948185Y-46028095D01*
X43166792Y-45987230D01*
X43374168Y-45906892D01*
X43490317Y-45834975D01*
X42836992Y-45181650D01*
X42836991Y-45181650D01*
X42183663Y-45834975D01*
X7441113Y-45834975D01*
X7430607Y-45795768D01*
X7338134Y-45597460D01*
X7212630Y-45418222D01*
X7057909Y-45263501D01*
X6878672Y-45137997D01*
X6786462Y-45094999D01*
X6680364Y-45045524D01*
X6469007Y-44988891D01*
X6251034Y-44969821D01*
X6033060Y-44988891D01*
X5821703Y-45045524D01*
X5667241Y-45117552D01*
X5623397Y-45137997D01*
X5488053Y-45232766D01*
X5444155Y-45263504D01*
X5289441Y-45418218D01*
X5289438Y-45418221D01*
X5289438Y-45418222D01*
X5206707Y-45536375D01*
X5187107Y-45564366D01*
X5139890Y-45604693D01*
X5079042Y-45617072D01*
X5019822Y-45598400D01*
X4977079Y-45553358D01*
X4961532Y-45493242D01*
X4961532Y-45427228D01*
X4960564Y-45418222D01*
X4955124Y-45367615D01*
X4904829Y-45232767D01*
X4818579Y-45117552D01*
X4703364Y-45031302D01*
X4568516Y-44981007D01*
X4508906Y-44974598D01*
X4508902Y-44974598D01*
X2913165Y-44974598D01*
X2853550Y-44981007D01*
X2718704Y-45031302D01*
X2603489Y-45117552D01*
X2517239Y-45232766D01*
X2466944Y-45367613D01*
X2466944Y-45367615D01*
X2461504Y-45418218D01*
X2460535Y-45427228D01*
X2460535Y-47022965D01*
X102100Y-47022965D01*
X102100Y-44828097D01*
X41631852Y-44828097D01*
X41652371Y-45049543D01*
X41713231Y-45263443D01*
X41812358Y-45462517D01*
X41828130Y-45483402D01*
X42483437Y-44828098D01*
X43190544Y-44828098D01*
X43845850Y-45483402D01*
X43861622Y-45462518D01*
X43960751Y-45263441D01*
X44021610Y-45049543D01*
X44042129Y-44828097D01*
X44042129Y-44828096D01*
X49251350Y-44828096D01*
X49271878Y-45049634D01*
X49332762Y-45263623D01*
X49353138Y-45304542D01*
X49431934Y-45462785D01*
X49487507Y-45536375D01*
X49566012Y-45640333D01*
X49730427Y-45790217D01*
X49730429Y-45790218D01*
X49730430Y-45790219D01*
X49919591Y-45907343D01*
X50127052Y-45987713D01*
X50345748Y-46028595D01*
X50568232Y-46028595D01*
X50568234Y-46028595D01*
X50786930Y-45987713D01*
X50994391Y-45907343D01*
X51183552Y-45790219D01*
X51347970Y-45640332D01*
X51482048Y-45462785D01*
X51581218Y-45263625D01*
X51581253Y-45263504D01*
X51616962Y-45137997D01*
X51629196Y-45094999D01*
X55257635Y-45094999D01*
X55277051Y-45304544D01*
X55334640Y-45506947D01*
X55428439Y-45695322D01*
X55555260Y-45863260D01*
X55710774Y-46005029D01*
X55710776Y-46005030D01*
X55710777Y-46005031D01*
X55889696Y-46115813D01*
X56085924Y-46191832D01*
X56292780Y-46230500D01*
X56503218Y-46230500D01*
X56503220Y-46230500D01*
X56710076Y-46191832D01*
X56906304Y-46115813D01*
X57085223Y-46005031D01*
X57240740Y-45863259D01*
X57367558Y-45695325D01*
X57367558Y-45695323D01*
X57367560Y-45695322D01*
X57461359Y-45506947D01*
X57518948Y-45304544D01*
X57521763Y-45274156D01*
X57538365Y-45095000D01*
X57518948Y-44885458D01*
X57518948Y-44885455D01*
X57461359Y-44683052D01*
X57367560Y-44494677D01*
X57240739Y-44326739D01*
X57085225Y-44184970D01*
X56906304Y-44074187D01*
X56894778Y-44069722D01*
X56710076Y-43998168D01*
X56503220Y-43959500D01*
X56292780Y-43959500D01*
X56085923Y-43998168D01*
X56085924Y-43998168D01*
X55889695Y-44074187D01*
X55710774Y-44184970D01*
X55555260Y-44326739D01*
X55428439Y-44494677D01*
X55334640Y-44683052D01*
X55277051Y-44885455D01*
X55257635Y-45094999D01*
X51629196Y-45094999D01*
X51642104Y-45049633D01*
X51662632Y-44828097D01*
X51642104Y-44606561D01*
X51604542Y-44474543D01*
X51581219Y-44392570D01*
X51504082Y-44237660D01*
X51482048Y-44193409D01*
X51388643Y-44069722D01*
X51347969Y-44015860D01*
X51183554Y-43865976D01*
X50994389Y-43748850D01*
X50786931Y-43668481D01*
X50697862Y-43651831D01*
X50568234Y-43627599D01*
X50345748Y-43627599D01*
X50236400Y-43648039D01*
X50127050Y-43668481D01*
X49919592Y-43748850D01*
X49730427Y-43865976D01*
X49566012Y-44015860D01*
X49431934Y-44193409D01*
X49332762Y-44392570D01*
X49271878Y-44606559D01*
X49251350Y-44828096D01*
X44042129Y-44828096D01*
X44021610Y-44606650D01*
X43960750Y-44392750D01*
X43861621Y-44193672D01*
X43845851Y-44172789D01*
X43845850Y-44172789D01*
X43190544Y-44828097D01*
X43190544Y-44828098D01*
X42483437Y-44828098D01*
X42483437Y-44828097D01*
X41828130Y-44172789D01*
X41812358Y-44193675D01*
X41713231Y-44392750D01*
X41652371Y-44606650D01*
X41631852Y-44828097D01*
X102100Y-44828097D01*
X102100Y-42160693D01*
X2460535Y-42160693D01*
X2466944Y-42220308D01*
X2492091Y-42287730D01*
X2517239Y-42355155D01*
X2603489Y-42470370D01*
X2718704Y-42556620D01*
X2853552Y-42606915D01*
X2913162Y-42613324D01*
X4508905Y-42613323D01*
X4568516Y-42606915D01*
X4703364Y-42556620D01*
X4818579Y-42470370D01*
X4904829Y-42355155D01*
X4955124Y-42220307D01*
X4961533Y-42160697D01*
X4961532Y-42094679D01*
X4977078Y-42034566D01*
X5019821Y-41989524D01*
X5079041Y-41970851D01*
X5139889Y-41983230D01*
X5187106Y-42023557D01*
X5270779Y-42143053D01*
X5289438Y-42169700D01*
X5444159Y-42324421D01*
X5623396Y-42449925D01*
X5821705Y-42542398D01*
X6033058Y-42599030D01*
X6251034Y-42618100D01*
X6469010Y-42599030D01*
X6633332Y-42555000D01*
X25412635Y-42555000D01*
X25432051Y-42764544D01*
X25489640Y-42966947D01*
X25583439Y-43155322D01*
X25710260Y-43323260D01*
X25865774Y-43465029D01*
X25865776Y-43465030D01*
X25865777Y-43465031D01*
X26044696Y-43575813D01*
X26240924Y-43651832D01*
X26447780Y-43690500D01*
X26658218Y-43690500D01*
X26658220Y-43690500D01*
X26865076Y-43651832D01*
X27061304Y-43575813D01*
X27233168Y-43469399D01*
X36461635Y-43469399D01*
X36481051Y-43678944D01*
X36538640Y-43881347D01*
X36632439Y-44069722D01*
X36759260Y-44237660D01*
X36914774Y-44379429D01*
X36914776Y-44379430D01*
X36914777Y-44379431D01*
X37093696Y-44490213D01*
X37289924Y-44566232D01*
X37496780Y-44604900D01*
X37707218Y-44604900D01*
X37707220Y-44604900D01*
X37914076Y-44566232D01*
X38110304Y-44490213D01*
X38289223Y-44379431D01*
X38444740Y-44237659D01*
X38571558Y-44069725D01*
X38571558Y-44069723D01*
X38571560Y-44069722D01*
X38665359Y-43881347D01*
X38682468Y-43821217D01*
X42183663Y-43821217D01*
X42836991Y-44474543D01*
X42836992Y-44474543D01*
X43490317Y-43821217D01*
X43490316Y-43821216D01*
X43374170Y-43749302D01*
X43166792Y-43668963D01*
X42948185Y-43628099D01*
X42725797Y-43628099D01*
X42507189Y-43668963D01*
X42299810Y-43749302D01*
X42183664Y-43821216D01*
X42183663Y-43821217D01*
X38682468Y-43821217D01*
X38722948Y-43678944D01*
X38732504Y-43575812D01*
X38742365Y-43469400D01*
X38722948Y-43259858D01*
X38722948Y-43259855D01*
X38665359Y-43057452D01*
X38571560Y-42869077D01*
X38444739Y-42701139D01*
X38289225Y-42559370D01*
X38110304Y-42448587D01*
X38110303Y-42448586D01*
X37914076Y-42372568D01*
X37707220Y-42333900D01*
X37496780Y-42333900D01*
X37383076Y-42355155D01*
X37289924Y-42372568D01*
X37093695Y-42448587D01*
X36914774Y-42559370D01*
X36759260Y-42701139D01*
X36632439Y-42869077D01*
X36538640Y-43057452D01*
X36481051Y-43259855D01*
X36461635Y-43469399D01*
X27233168Y-43469399D01*
X27240223Y-43465031D01*
X27395740Y-43323259D01*
X27522558Y-43155325D01*
X27522558Y-43155323D01*
X27522560Y-43155322D01*
X27616359Y-42966947D01*
X27673948Y-42764544D01*
X27679823Y-42701139D01*
X27693365Y-42555000D01*
X27674847Y-42355155D01*
X27673948Y-42345455D01*
X27639618Y-42224800D01*
X28232035Y-42224800D01*
X28251451Y-42434344D01*
X28309040Y-42636747D01*
X28402839Y-42825122D01*
X28529660Y-42993060D01*
X28685174Y-43134829D01*
X28685176Y-43134830D01*
X28685177Y-43134831D01*
X28864096Y-43245613D01*
X29060324Y-43321632D01*
X29267180Y-43360300D01*
X29477618Y-43360300D01*
X29477620Y-43360300D01*
X29684476Y-43321632D01*
X29880704Y-43245613D01*
X30059623Y-43134831D01*
X30215140Y-42993059D01*
X30341958Y-42825125D01*
X30341958Y-42825123D01*
X30341960Y-42825122D01*
X30435759Y-42636747D01*
X30493348Y-42434344D01*
X30500945Y-42352353D01*
X30512765Y-42224800D01*
X30505167Y-42142809D01*
X49705093Y-42142809D01*
X49724509Y-42352353D01*
X49782098Y-42554756D01*
X49875897Y-42743131D01*
X50002718Y-42911069D01*
X50158232Y-43052838D01*
X50158234Y-43052839D01*
X50158235Y-43052840D01*
X50337154Y-43163622D01*
X50533382Y-43239641D01*
X50740238Y-43278309D01*
X50950676Y-43278309D01*
X50950678Y-43278309D01*
X51157534Y-43239641D01*
X51353762Y-43163622D01*
X51532681Y-43052840D01*
X51688198Y-42911068D01*
X51815016Y-42743134D01*
X51815016Y-42743132D01*
X51815018Y-42743131D01*
X51908817Y-42554756D01*
X51966406Y-42352353D01*
X51978454Y-42222329D01*
X51985823Y-42142809D01*
X51984006Y-42123199D01*
X56019635Y-42123199D01*
X56039051Y-42332744D01*
X56096640Y-42535147D01*
X56190439Y-42723522D01*
X56317260Y-42891460D01*
X56472774Y-43033229D01*
X56472776Y-43033230D01*
X56472777Y-43033231D01*
X56651696Y-43144013D01*
X56847924Y-43220032D01*
X57054780Y-43258700D01*
X57265218Y-43258700D01*
X57265220Y-43258700D01*
X57472076Y-43220032D01*
X57668304Y-43144013D01*
X57847223Y-43033231D01*
X58002740Y-42891459D01*
X58129558Y-42723525D01*
X58129558Y-42723523D01*
X58129560Y-42723522D01*
X58223359Y-42535147D01*
X58280948Y-42332744D01*
X58291179Y-42222329D01*
X58300365Y-42123200D01*
X58280948Y-41913658D01*
X58280948Y-41913655D01*
X58223359Y-41711252D01*
X58129560Y-41522877D01*
X58002739Y-41354939D01*
X57847225Y-41213170D01*
X57668304Y-41102387D01*
X57668303Y-41102386D01*
X57472076Y-41026368D01*
X57265220Y-40987700D01*
X57054780Y-40987700D01*
X56847924Y-41026367D01*
X56847924Y-41026368D01*
X56651695Y-41102387D01*
X56472774Y-41213170D01*
X56317260Y-41354939D01*
X56190439Y-41522877D01*
X56096640Y-41711252D01*
X56039051Y-41913655D01*
X56019635Y-42123199D01*
X51984006Y-42123199D01*
X51966406Y-41933267D01*
X51966406Y-41933264D01*
X51908817Y-41730861D01*
X51815018Y-41542486D01*
X51688197Y-41374548D01*
X51532683Y-41232779D01*
X51353762Y-41121996D01*
X51303145Y-41102387D01*
X51157534Y-41045977D01*
X50950678Y-41007309D01*
X50740238Y-41007309D01*
X50580014Y-41037260D01*
X50533382Y-41045977D01*
X50337153Y-41121996D01*
X50158232Y-41232779D01*
X50002718Y-41374548D01*
X49875897Y-41542486D01*
X49782098Y-41730861D01*
X49724509Y-41933264D01*
X49705093Y-42142809D01*
X30505167Y-42142809D01*
X30493348Y-42015258D01*
X30493348Y-42015255D01*
X30435759Y-41812852D01*
X30341960Y-41624477D01*
X30215139Y-41456539D01*
X30059625Y-41314770D01*
X29880704Y-41203987D01*
X29816280Y-41179029D01*
X29684476Y-41127968D01*
X29477620Y-41089300D01*
X29267180Y-41089300D01*
X29085178Y-41123322D01*
X29060324Y-41127968D01*
X28864095Y-41203987D01*
X28685174Y-41314770D01*
X28529660Y-41456539D01*
X28402839Y-41624477D01*
X28309040Y-41812852D01*
X28251451Y-42015255D01*
X28232035Y-42224800D01*
X27639618Y-42224800D01*
X27616359Y-42143052D01*
X27522560Y-41954677D01*
X27395739Y-41786739D01*
X27240225Y-41644970D01*
X27061304Y-41534187D01*
X27032104Y-41522875D01*
X26865076Y-41458168D01*
X26658220Y-41419500D01*
X26447780Y-41419500D01*
X26249638Y-41456539D01*
X26240924Y-41458168D01*
X26044695Y-41534187D01*
X25865774Y-41644970D01*
X25710260Y-41786739D01*
X25583439Y-41954677D01*
X25489640Y-42143052D01*
X25432051Y-42345455D01*
X25412635Y-42555000D01*
X6633332Y-42555000D01*
X6680363Y-42542398D01*
X6878672Y-42449925D01*
X7057909Y-42324421D01*
X7212630Y-42169700D01*
X7338134Y-41990463D01*
X7430607Y-41792154D01*
X7487239Y-41580801D01*
X7506309Y-41362825D01*
X7487239Y-41144849D01*
X7430607Y-40933496D01*
X7338134Y-40735188D01*
X7212630Y-40555950D01*
X7057909Y-40401229D01*
X6878672Y-40275725D01*
X6864250Y-40269000D01*
X21983635Y-40269000D01*
X22003051Y-40478544D01*
X22060640Y-40680947D01*
X22154439Y-40869322D01*
X22281260Y-41037260D01*
X22436774Y-41179029D01*
X22436776Y-41179030D01*
X22436777Y-41179031D01*
X22615696Y-41289813D01*
X22811924Y-41365832D01*
X23018780Y-41404500D01*
X23229218Y-41404500D01*
X23229220Y-41404500D01*
X23436076Y-41365832D01*
X23632304Y-41289813D01*
X23811223Y-41179031D01*
X23966740Y-41037259D01*
X24093558Y-40869325D01*
X24093558Y-40869323D01*
X24093560Y-40869322D01*
X24187359Y-40680947D01*
X24232299Y-40522999D01*
X32397635Y-40522999D01*
X32417051Y-40732544D01*
X32474640Y-40934947D01*
X32568439Y-41123322D01*
X32695260Y-41291260D01*
X32850774Y-41433029D01*
X32850776Y-41433030D01*
X32850777Y-41433031D01*
X33029696Y-41543813D01*
X33225924Y-41619832D01*
X33432780Y-41658500D01*
X33643218Y-41658500D01*
X33643220Y-41658500D01*
X33850076Y-41619832D01*
X34046304Y-41543813D01*
X34225223Y-41433031D01*
X34380740Y-41291259D01*
X34507558Y-41123325D01*
X34507558Y-41123323D01*
X34507560Y-41123322D01*
X34601359Y-40934947D01*
X34658948Y-40732544D01*
X34668360Y-40630970D01*
X34678365Y-40523000D01*
X34658948Y-40313458D01*
X34658948Y-40313455D01*
X34601359Y-40111052D01*
X34507560Y-39922677D01*
X34380739Y-39754739D01*
X34225225Y-39612970D01*
X34046304Y-39502187D01*
X33965731Y-39470973D01*
X33850076Y-39426168D01*
X33643220Y-39387500D01*
X33432780Y-39387500D01*
X33225923Y-39426168D01*
X33225924Y-39426168D01*
X33029695Y-39502187D01*
X32850774Y-39612970D01*
X32695260Y-39754739D01*
X32568439Y-39922677D01*
X32474640Y-40111052D01*
X32417051Y-40313455D01*
X32397635Y-40522999D01*
X24232299Y-40522999D01*
X24244948Y-40478544D01*
X24252112Y-40401229D01*
X24264365Y-40269000D01*
X24244948Y-40059458D01*
X24244948Y-40059455D01*
X24187359Y-39857052D01*
X24093560Y-39668677D01*
X23966739Y-39500739D01*
X23811225Y-39358970D01*
X23632304Y-39248187D01*
X23614230Y-39241185D01*
X23436076Y-39172168D01*
X23229220Y-39133500D01*
X23018780Y-39133500D01*
X22811923Y-39172168D01*
X22811924Y-39172168D01*
X22615695Y-39248187D01*
X22436774Y-39358970D01*
X22281260Y-39500739D01*
X22154439Y-39668677D01*
X22060640Y-39857052D01*
X22003051Y-40059455D01*
X21983635Y-40269000D01*
X6864250Y-40269000D01*
X6765243Y-40222832D01*
X6680364Y-40183252D01*
X6469007Y-40126619D01*
X6251034Y-40107549D01*
X6033060Y-40126619D01*
X5821703Y-40183252D01*
X5623399Y-40275724D01*
X5623397Y-40275725D01*
X5488053Y-40370494D01*
X5444155Y-40401232D01*
X5289441Y-40555946D01*
X5289438Y-40555949D01*
X5289438Y-40555950D01*
X5236909Y-40630970D01*
X5187107Y-40702094D01*
X5139890Y-40742421D01*
X5079042Y-40754800D01*
X5019822Y-40736128D01*
X4977079Y-40691086D01*
X4961532Y-40630970D01*
X4961532Y-40564956D01*
X4960564Y-40555950D01*
X4955124Y-40505343D01*
X4904829Y-40370495D01*
X4818579Y-40255280D01*
X4703364Y-40169030D01*
X4568516Y-40118735D01*
X4508906Y-40112326D01*
X4508902Y-40112326D01*
X2913165Y-40112326D01*
X2853550Y-40118735D01*
X2718704Y-40169030D01*
X2603489Y-40255280D01*
X2517239Y-40370494D01*
X2466944Y-40505341D01*
X2466944Y-40505343D01*
X2461504Y-40555946D01*
X2460535Y-40564956D01*
X2460535Y-42160693D01*
X102100Y-42160693D01*
X102100Y-39125999D01*
X12966635Y-39125999D01*
X12986051Y-39335544D01*
X13043640Y-39537947D01*
X13137439Y-39726322D01*
X13264260Y-39894260D01*
X13419774Y-40036029D01*
X13419776Y-40036030D01*
X13419777Y-40036031D01*
X13598696Y-40146813D01*
X13794924Y-40222832D01*
X14001780Y-40261500D01*
X14212218Y-40261500D01*
X14212220Y-40261500D01*
X14419076Y-40222832D01*
X14615304Y-40146813D01*
X14794223Y-40036031D01*
X14949740Y-39894259D01*
X15076558Y-39726325D01*
X15076558Y-39726323D01*
X15076560Y-39726322D01*
X15170359Y-39537947D01*
X15227948Y-39335544D01*
X15232877Y-39282348D01*
X15247365Y-39126000D01*
X15227948Y-38916458D01*
X15227948Y-38916455D01*
X15170359Y-38714052D01*
X15076560Y-38525677D01*
X14949739Y-38357739D01*
X14794225Y-38215970D01*
X14615304Y-38105187D01*
X14589994Y-38095382D01*
X14419076Y-38029168D01*
X14212220Y-37990500D01*
X14001780Y-37990500D01*
X13861114Y-38016795D01*
X13794924Y-38029168D01*
X13598695Y-38105187D01*
X13419774Y-38215970D01*
X13264260Y-38357739D01*
X13137439Y-38525677D01*
X13043640Y-38714052D01*
X12986051Y-38916455D01*
X12966635Y-39125999D01*
X102100Y-39125999D01*
X102100Y-37298422D01*
X2460535Y-37298422D01*
X2466944Y-37358036D01*
X2517239Y-37492884D01*
X2603489Y-37608099D01*
X2718704Y-37694349D01*
X2853552Y-37744644D01*
X2913162Y-37751053D01*
X4508905Y-37751052D01*
X4568516Y-37744644D01*
X4703364Y-37694349D01*
X4818579Y-37608099D01*
X4904829Y-37492884D01*
X4955124Y-37358036D01*
X4961533Y-37298426D01*
X4961532Y-37232408D01*
X4977078Y-37172295D01*
X5019821Y-37127253D01*
X5079041Y-37108580D01*
X5139889Y-37120959D01*
X5187106Y-37161286D01*
X5236910Y-37232412D01*
X5289438Y-37307429D01*
X5444159Y-37462150D01*
X5623396Y-37587654D01*
X5821705Y-37680127D01*
X6033058Y-37736759D01*
X6251034Y-37755829D01*
X6469010Y-37736759D01*
X6680363Y-37680127D01*
X6878672Y-37587654D01*
X7057909Y-37462150D01*
X7212630Y-37307429D01*
X7290934Y-37195600D01*
X42964035Y-37195600D01*
X42983451Y-37405144D01*
X43041040Y-37607547D01*
X43134839Y-37795922D01*
X43261660Y-37963860D01*
X43417174Y-38105629D01*
X43417176Y-38105630D01*
X43417177Y-38105631D01*
X43596096Y-38216413D01*
X43792324Y-38292432D01*
X43999180Y-38331100D01*
X44209618Y-38331100D01*
X44209620Y-38331100D01*
X44416476Y-38292432D01*
X44612704Y-38216413D01*
X44791623Y-38105631D01*
X44947140Y-37963859D01*
X45073958Y-37795925D01*
X45073958Y-37795923D01*
X45073960Y-37795922D01*
X45167759Y-37607547D01*
X45225348Y-37405144D01*
X45234402Y-37307429D01*
X45244765Y-37195600D01*
X45225348Y-36986058D01*
X45225348Y-36986055D01*
X45167759Y-36783652D01*
X45073960Y-36595277D01*
X44947139Y-36427339D01*
X44898281Y-36382799D01*
X50355435Y-36382799D01*
X50374851Y-36592344D01*
X50432440Y-36794747D01*
X50526239Y-36983122D01*
X50653060Y-37151060D01*
X50808574Y-37292829D01*
X50808576Y-37292830D01*
X50808577Y-37292831D01*
X50987496Y-37403613D01*
X51183724Y-37479632D01*
X51390580Y-37518300D01*
X51601018Y-37518300D01*
X51601020Y-37518300D01*
X51807876Y-37479632D01*
X52004104Y-37403613D01*
X52183023Y-37292831D01*
X52289681Y-37195600D01*
X56019635Y-37195600D01*
X56039051Y-37405144D01*
X56096640Y-37607547D01*
X56190439Y-37795922D01*
X56317260Y-37963860D01*
X56472774Y-38105629D01*
X56472776Y-38105630D01*
X56472777Y-38105631D01*
X56651696Y-38216413D01*
X56847924Y-38292432D01*
X57054780Y-38331100D01*
X57265218Y-38331100D01*
X57265220Y-38331100D01*
X57472076Y-38292432D01*
X57668304Y-38216413D01*
X57847223Y-38105631D01*
X58002740Y-37963859D01*
X58129558Y-37795925D01*
X58129558Y-37795923D01*
X58129560Y-37795922D01*
X58223359Y-37607547D01*
X58280948Y-37405144D01*
X58290002Y-37307429D01*
X58300365Y-37195600D01*
X58280948Y-36986058D01*
X58280948Y-36986055D01*
X58223359Y-36783652D01*
X58129560Y-36595277D01*
X58002739Y-36427339D01*
X57847225Y-36285570D01*
X57668304Y-36174787D01*
X57664349Y-36173255D01*
X57472076Y-36098768D01*
X57265220Y-36060100D01*
X57054780Y-36060100D01*
X56847923Y-36098768D01*
X56847924Y-36098768D01*
X56651695Y-36174787D01*
X56472774Y-36285570D01*
X56317260Y-36427339D01*
X56190439Y-36595277D01*
X56096640Y-36783652D01*
X56039051Y-36986055D01*
X56019635Y-37195600D01*
X52289681Y-37195600D01*
X52315245Y-37172295D01*
X52338539Y-37151060D01*
X52345132Y-37142330D01*
X52465358Y-36983125D01*
X52465358Y-36983123D01*
X52465360Y-36983122D01*
X52559159Y-36794747D01*
X52616748Y-36592344D01*
X52625253Y-36500554D01*
X52636165Y-36382800D01*
X52616748Y-36173258D01*
X52616748Y-36173255D01*
X52559159Y-35970852D01*
X52465360Y-35782477D01*
X52338539Y-35614539D01*
X52183025Y-35472770D01*
X52004104Y-35361987D01*
X51807876Y-35285968D01*
X51601020Y-35247300D01*
X51390580Y-35247300D01*
X51183723Y-35285968D01*
X51183724Y-35285968D01*
X50987495Y-35361987D01*
X50808574Y-35472770D01*
X50653060Y-35614539D01*
X50526239Y-35782477D01*
X50432440Y-35970852D01*
X50374851Y-36173255D01*
X50355435Y-36382799D01*
X44898281Y-36382799D01*
X44791625Y-36285570D01*
X44612704Y-36174787D01*
X44608749Y-36173255D01*
X44416476Y-36098768D01*
X44209620Y-36060100D01*
X43999180Y-36060100D01*
X43792323Y-36098768D01*
X43792324Y-36098768D01*
X43596095Y-36174787D01*
X43417174Y-36285570D01*
X43261660Y-36427339D01*
X43134839Y-36595277D01*
X43041040Y-36783652D01*
X42983451Y-36986055D01*
X42964035Y-37195600D01*
X7290934Y-37195600D01*
X7338134Y-37128192D01*
X7430607Y-36929883D01*
X7487239Y-36718530D01*
X7506309Y-36500554D01*
X7487239Y-36282578D01*
X7430607Y-36071225D01*
X7338134Y-35872917D01*
X7212630Y-35693679D01*
X7057909Y-35538958D01*
X6878672Y-35413454D01*
X6768301Y-35361987D01*
X6680364Y-35320981D01*
X6469007Y-35264348D01*
X6251033Y-35245278D01*
X6033060Y-35264348D01*
X5821703Y-35320981D01*
X5667241Y-35393009D01*
X5623397Y-35413454D01*
X5532937Y-35476795D01*
X5444155Y-35538961D01*
X5289441Y-35693675D01*
X5289438Y-35693678D01*
X5289438Y-35693679D01*
X5227263Y-35782475D01*
X5187107Y-35839823D01*
X5139890Y-35880150D01*
X5079042Y-35892529D01*
X5019822Y-35873857D01*
X4977079Y-35828815D01*
X4961532Y-35768699D01*
X4961532Y-35702685D01*
X4960564Y-35693679D01*
X4955124Y-35643072D01*
X4904829Y-35508224D01*
X4818579Y-35393009D01*
X4703364Y-35306759D01*
X4568516Y-35256464D01*
X4508906Y-35250055D01*
X4508902Y-35250055D01*
X2913165Y-35250055D01*
X2853550Y-35256464D01*
X2718704Y-35306759D01*
X2603489Y-35393009D01*
X2517239Y-35508223D01*
X2466944Y-35643070D01*
X2466944Y-35643072D01*
X2461504Y-35693675D01*
X2460535Y-35702685D01*
X2460535Y-37298422D01*
X102100Y-37298422D01*
X102100Y-34528549D01*
X45605686Y-34528549D01*
X45625102Y-34738093D01*
X45682691Y-34940496D01*
X45776490Y-35128871D01*
X45903311Y-35296809D01*
X46058825Y-35438578D01*
X46058827Y-35438579D01*
X46058828Y-35438580D01*
X46237747Y-35549362D01*
X46433975Y-35625381D01*
X46640831Y-35664049D01*
X46851269Y-35664049D01*
X46851271Y-35664049D01*
X47058127Y-35625381D01*
X47254355Y-35549362D01*
X47433274Y-35438580D01*
X47588791Y-35296808D01*
X47715609Y-35128874D01*
X47715609Y-35128872D01*
X47715611Y-35128871D01*
X47809410Y-34940496D01*
X47866999Y-34738093D01*
X47879579Y-34602329D01*
X47886416Y-34528549D01*
X47866999Y-34319007D01*
X47866999Y-34319004D01*
X47809410Y-34116601D01*
X47715611Y-33928226D01*
X47588790Y-33760288D01*
X47433276Y-33618519D01*
X47254355Y-33507736D01*
X47058127Y-33431717D01*
X46851271Y-33393049D01*
X46640831Y-33393049D01*
X46433975Y-33431716D01*
X46433975Y-33431717D01*
X46237746Y-33507736D01*
X46058825Y-33618519D01*
X45903311Y-33760288D01*
X45776490Y-33928226D01*
X45682691Y-34116601D01*
X45625102Y-34319004D01*
X45605686Y-34528549D01*
X102100Y-34528549D01*
X102100Y-32436152D01*
X2460535Y-32436152D01*
X2461504Y-32445162D01*
X2466944Y-32495766D01*
X2517239Y-32630614D01*
X2603489Y-32745829D01*
X2718704Y-32832079D01*
X2853552Y-32882374D01*
X2913162Y-32888783D01*
X4508905Y-32888782D01*
X4568516Y-32882374D01*
X4703364Y-32832079D01*
X4818579Y-32745829D01*
X4904829Y-32630614D01*
X4955124Y-32495766D01*
X4961533Y-32436156D01*
X4961532Y-32370138D01*
X4977078Y-32310025D01*
X5019821Y-32264983D01*
X5079041Y-32246310D01*
X5139889Y-32258689D01*
X5187106Y-32299016D01*
X5222061Y-32348936D01*
X5289438Y-32445159D01*
X5444159Y-32599880D01*
X5623396Y-32725384D01*
X5821705Y-32817857D01*
X6033058Y-32874489D01*
X6251034Y-32893559D01*
X6469010Y-32874489D01*
X6680363Y-32817857D01*
X6878672Y-32725384D01*
X6987759Y-32649000D01*
X18173635Y-32649000D01*
X18193051Y-32858544D01*
X18250640Y-33060947D01*
X18344439Y-33249322D01*
X18471260Y-33417260D01*
X18626774Y-33559029D01*
X18626776Y-33559030D01*
X18626777Y-33559031D01*
X18805696Y-33669813D01*
X19001924Y-33745832D01*
X19208780Y-33784500D01*
X19419218Y-33784500D01*
X19419220Y-33784500D01*
X19626076Y-33745832D01*
X19822304Y-33669813D01*
X20001223Y-33559031D01*
X20156740Y-33417259D01*
X20283558Y-33249325D01*
X20283558Y-33249323D01*
X20283560Y-33249322D01*
X20377359Y-33060947D01*
X20434948Y-32858544D01*
X20445392Y-32745829D01*
X20454365Y-32649000D01*
X20435477Y-32445162D01*
X20434948Y-32439455D01*
X20386165Y-32268000D01*
X24523635Y-32268000D01*
X24543051Y-32477544D01*
X24600640Y-32679947D01*
X24694439Y-32868322D01*
X24821260Y-33036260D01*
X24976774Y-33178029D01*
X24976776Y-33178030D01*
X24976777Y-33178031D01*
X25155696Y-33288813D01*
X25351924Y-33364832D01*
X25558780Y-33403500D01*
X25769218Y-33403500D01*
X25769220Y-33403500D01*
X25976076Y-33364832D01*
X26172304Y-33288813D01*
X26351223Y-33178031D01*
X26454900Y-33083516D01*
X26506739Y-33036260D01*
X26506740Y-33036259D01*
X26633558Y-32868325D01*
X26633558Y-32868323D01*
X26633560Y-32868322D01*
X26727359Y-32679947D01*
X26784948Y-32477544D01*
X26796865Y-32348935D01*
X26804365Y-32268000D01*
X26804365Y-32267999D01*
X47866235Y-32267999D01*
X47885651Y-32477544D01*
X47943240Y-32679947D01*
X48037039Y-32868322D01*
X48163860Y-33036260D01*
X48319374Y-33178029D01*
X48319376Y-33178030D01*
X48319377Y-33178031D01*
X48498296Y-33288813D01*
X48694524Y-33364832D01*
X48901380Y-33403500D01*
X49111818Y-33403500D01*
X49111820Y-33403500D01*
X49318676Y-33364832D01*
X49514904Y-33288813D01*
X49693823Y-33178031D01*
X49797500Y-33083516D01*
X49849339Y-33036260D01*
X49849340Y-33036259D01*
X49976158Y-32868325D01*
X49976158Y-32868323D01*
X49976160Y-32868322D01*
X50069959Y-32679947D01*
X50127548Y-32477544D01*
X50139465Y-32348935D01*
X50146965Y-32268000D01*
X50131853Y-32104918D01*
X50127548Y-32058455D01*
X50069959Y-31856052D01*
X49976160Y-31667677D01*
X49910459Y-31580675D01*
X52971635Y-31580675D01*
X52991051Y-31790220D01*
X53048640Y-31992623D01*
X53142439Y-32180998D01*
X53269260Y-32348936D01*
X53424774Y-32490705D01*
X53424776Y-32490706D01*
X53424777Y-32490707D01*
X53603696Y-32601489D01*
X53799924Y-32677508D01*
X54006780Y-32716176D01*
X54217218Y-32716176D01*
X54217220Y-32716176D01*
X54424076Y-32677508D01*
X54620304Y-32601489D01*
X54799223Y-32490707D01*
X54954740Y-32348935D01*
X55081558Y-32181001D01*
X55081558Y-32180999D01*
X55081560Y-32180998D01*
X55175359Y-31992623D01*
X55232948Y-31790220D01*
X55237697Y-31738969D01*
X55252365Y-31580676D01*
X55232948Y-31371134D01*
X55232948Y-31371131D01*
X55175359Y-31168728D01*
X55081560Y-30980353D01*
X54954739Y-30812415D01*
X54799225Y-30670646D01*
X54620304Y-30559863D01*
X54522196Y-30521856D01*
X54424076Y-30483844D01*
X54217220Y-30445176D01*
X54006780Y-30445176D01*
X53800261Y-30483781D01*
X53799924Y-30483844D01*
X53603695Y-30559863D01*
X53424774Y-30670646D01*
X53269260Y-30812415D01*
X53142439Y-30980353D01*
X53048640Y-31168728D01*
X52991051Y-31371131D01*
X52971635Y-31580675D01*
X49910459Y-31580675D01*
X49849339Y-31499739D01*
X49693825Y-31357970D01*
X49514904Y-31247187D01*
X49318676Y-31171168D01*
X49111820Y-31132500D01*
X48901380Y-31132500D01*
X48707577Y-31168728D01*
X48694524Y-31171168D01*
X48498295Y-31247187D01*
X48319374Y-31357970D01*
X48163860Y-31499739D01*
X48037039Y-31667677D01*
X47943240Y-31856052D01*
X47885651Y-32058455D01*
X47866235Y-32267999D01*
X26804365Y-32267999D01*
X26789171Y-32104035D01*
X26784948Y-32058455D01*
X26727359Y-31856052D01*
X26633560Y-31667677D01*
X26506739Y-31499739D01*
X26351225Y-31357970D01*
X26172304Y-31247187D01*
X25976076Y-31171168D01*
X25769220Y-31132500D01*
X25558780Y-31132500D01*
X25364977Y-31168728D01*
X25351924Y-31171168D01*
X25155695Y-31247187D01*
X24976774Y-31357970D01*
X24821260Y-31499739D01*
X24694439Y-31667677D01*
X24600640Y-31856052D01*
X24543051Y-32058455D01*
X24523635Y-32268000D01*
X20386165Y-32268000D01*
X20377359Y-32237052D01*
X20283560Y-32048677D01*
X20156739Y-31880739D01*
X20001225Y-31738970D01*
X19822304Y-31628187D01*
X19822303Y-31628186D01*
X19626076Y-31552168D01*
X19419220Y-31513500D01*
X19208780Y-31513500D01*
X19001924Y-31552167D01*
X19001924Y-31552168D01*
X18805695Y-31628187D01*
X18626774Y-31738970D01*
X18471260Y-31880739D01*
X18344439Y-32048677D01*
X18250640Y-32237052D01*
X18193051Y-32439455D01*
X18173635Y-32649000D01*
X6987759Y-32649000D01*
X7057909Y-32599880D01*
X7212630Y-32445159D01*
X7338134Y-32265922D01*
X7430607Y-32067613D01*
X7487239Y-31856260D01*
X7506309Y-31638284D01*
X7487239Y-31420308D01*
X7430607Y-31208955D01*
X7372388Y-31084105D01*
X29730635Y-31084105D01*
X29750051Y-31293650D01*
X29807640Y-31496053D01*
X29901439Y-31684428D01*
X30028260Y-31852366D01*
X30183774Y-31994135D01*
X30183776Y-31994136D01*
X30183777Y-31994137D01*
X30362696Y-32104919D01*
X30558924Y-32180938D01*
X30765780Y-32219606D01*
X30976218Y-32219606D01*
X30976220Y-32219606D01*
X31183076Y-32180938D01*
X31379304Y-32104919D01*
X31558223Y-31994137D01*
X31709471Y-31856257D01*
X31713739Y-31852366D01*
X31840560Y-31684428D01*
X31934359Y-31496053D01*
X31991948Y-31293650D01*
X31999796Y-31208953D01*
X32011365Y-31084106D01*
X31991948Y-30874564D01*
X31991948Y-30874561D01*
X31934359Y-30672158D01*
X31840560Y-30483783D01*
X31713739Y-30315845D01*
X31558225Y-30174076D01*
X31379304Y-30063293D01*
X31183076Y-29987274D01*
X30976220Y-29948606D01*
X30765780Y-29948606D01*
X30558924Y-29987273D01*
X30558924Y-29987274D01*
X30362695Y-30063293D01*
X30183774Y-30174076D01*
X30028260Y-30315845D01*
X29901439Y-30483783D01*
X29807640Y-30672158D01*
X29750051Y-30874561D01*
X29730635Y-31084105D01*
X7372388Y-31084105D01*
X7338134Y-31010647D01*
X7212630Y-30831409D01*
X7057909Y-30676688D01*
X6878672Y-30551184D01*
X6734261Y-30483844D01*
X6680364Y-30458711D01*
X6469007Y-30402078D01*
X6251034Y-30383008D01*
X6033060Y-30402078D01*
X5821703Y-30458711D01*
X5623399Y-30551183D01*
X5623397Y-30551184D01*
X5451701Y-30671407D01*
X5444155Y-30676691D01*
X5289441Y-30831405D01*
X5289438Y-30831408D01*
X5289438Y-30831409D01*
X5236909Y-30906429D01*
X5187107Y-30977553D01*
X5139890Y-31017880D01*
X5079042Y-31030259D01*
X5019822Y-31011587D01*
X4977079Y-30966545D01*
X4961532Y-30906429D01*
X4961532Y-30840415D01*
X4960564Y-30831409D01*
X4955124Y-30780802D01*
X4904829Y-30645954D01*
X4818579Y-30530739D01*
X4703364Y-30444489D01*
X4568516Y-30394194D01*
X4508906Y-30387785D01*
X4508902Y-30387785D01*
X2913165Y-30387785D01*
X2853550Y-30394194D01*
X2718704Y-30444489D01*
X2603489Y-30530739D01*
X2517239Y-30645953D01*
X2466944Y-30780800D01*
X2466944Y-30780802D01*
X2461504Y-30831405D01*
X2460535Y-30840415D01*
X2460535Y-32436152D01*
X102100Y-32436152D01*
X102100Y-29194600D01*
X37122035Y-29194600D01*
X37141451Y-29404144D01*
X37199040Y-29606547D01*
X37292839Y-29794922D01*
X37419660Y-29962860D01*
X37575174Y-30104629D01*
X37575176Y-30104630D01*
X37575177Y-30104631D01*
X37754096Y-30215413D01*
X37950324Y-30291432D01*
X38157180Y-30330100D01*
X38367618Y-30330100D01*
X38367620Y-30330100D01*
X38574476Y-30291432D01*
X38770704Y-30215413D01*
X38949623Y-30104631D01*
X39105140Y-29962859D01*
X39231958Y-29794925D01*
X39231958Y-29794923D01*
X39231960Y-29794922D01*
X39325759Y-29606547D01*
X39383348Y-29404144D01*
X39386383Y-29371381D01*
X39402765Y-29194600D01*
X39383348Y-28985058D01*
X39383348Y-28985055D01*
X39325759Y-28782652D01*
X39231960Y-28594277D01*
X39105139Y-28426339D01*
X38949625Y-28284570D01*
X38770704Y-28173787D01*
X38770703Y-28173786D01*
X38574476Y-28097768D01*
X38367620Y-28059100D01*
X38157180Y-28059100D01*
X37950324Y-28097767D01*
X37950324Y-28097768D01*
X37754095Y-28173787D01*
X37575174Y-28284570D01*
X37419660Y-28426339D01*
X37292839Y-28594277D01*
X37199040Y-28782652D01*
X37141451Y-28985055D01*
X37122035Y-29194600D01*
X102100Y-29194600D01*
X102100Y-27573880D01*
X2460535Y-27573880D01*
X2464790Y-27613455D01*
X2466944Y-27633494D01*
X2517239Y-27768342D01*
X2603489Y-27883557D01*
X2718704Y-27969807D01*
X2853552Y-28020102D01*
X2913162Y-28026511D01*
X4508905Y-28026510D01*
X4568516Y-28020102D01*
X4703364Y-27969807D01*
X4818579Y-27883557D01*
X4904829Y-27768342D01*
X4955124Y-27633494D01*
X4961533Y-27573884D01*
X4961532Y-27507866D01*
X4977078Y-27447753D01*
X5019821Y-27402711D01*
X5079041Y-27384038D01*
X5139889Y-27396417D01*
X5187106Y-27436744D01*
X5236910Y-27507870D01*
X5289438Y-27582887D01*
X5444159Y-27737608D01*
X5623396Y-27863112D01*
X5821705Y-27955585D01*
X6033058Y-28012217D01*
X6251034Y-28031287D01*
X6469010Y-28012217D01*
X6680363Y-27955585D01*
X6878672Y-27863112D01*
X6935959Y-27822999D01*
X28232035Y-27822999D01*
X28251451Y-28032544D01*
X28309040Y-28234947D01*
X28402839Y-28423322D01*
X28529660Y-28591260D01*
X28685174Y-28733029D01*
X28685176Y-28733030D01*
X28685177Y-28733031D01*
X28864096Y-28843813D01*
X29060324Y-28919832D01*
X29267180Y-28958500D01*
X29477618Y-28958500D01*
X29477620Y-28958500D01*
X29684476Y-28919832D01*
X29880704Y-28843813D01*
X30059623Y-28733031D01*
X30215140Y-28591259D01*
X30341958Y-28423325D01*
X30341958Y-28423323D01*
X30341960Y-28423322D01*
X30435759Y-28234947D01*
X30493348Y-28032544D01*
X30499161Y-27969806D01*
X30512765Y-27823000D01*
X30495205Y-27633494D01*
X30493348Y-27613455D01*
X30441969Y-27432878D01*
X43298672Y-27432878D01*
X43414822Y-27504795D01*
X43622198Y-27585133D01*
X43840806Y-27625998D01*
X44063194Y-27625998D01*
X44281801Y-27585133D01*
X44489177Y-27504795D01*
X44605326Y-27432878D01*
X44360448Y-27188000D01*
X47891635Y-27188000D01*
X47911051Y-27397544D01*
X47968640Y-27599947D01*
X48062439Y-27788322D01*
X48189260Y-27956260D01*
X48344774Y-28098029D01*
X48344776Y-28098030D01*
X48344777Y-28098031D01*
X48523696Y-28208813D01*
X48719924Y-28284832D01*
X48926780Y-28323500D01*
X49137218Y-28323500D01*
X49137220Y-28323500D01*
X49344076Y-28284832D01*
X49540304Y-28208813D01*
X49719223Y-28098031D01*
X49874740Y-27956259D01*
X50001558Y-27788325D01*
X50001558Y-27788323D01*
X50001560Y-27788322D01*
X50095359Y-27599947D01*
X50152948Y-27397544D01*
X50157663Y-27346659D01*
X50172365Y-27188000D01*
X50152948Y-26978458D01*
X50152948Y-26978455D01*
X50095359Y-26776052D01*
X50001560Y-26587677D01*
X49879467Y-26426000D01*
X50366359Y-26426000D01*
X50386887Y-26647537D01*
X50447771Y-26861526D01*
X50505996Y-26978455D01*
X50546943Y-27060688D01*
X50613982Y-27149461D01*
X50681021Y-27238236D01*
X50845436Y-27388120D01*
X50845438Y-27388121D01*
X50845439Y-27388122D01*
X51034600Y-27505246D01*
X51242061Y-27585616D01*
X51460757Y-27626498D01*
X51683241Y-27626498D01*
X51683243Y-27626498D01*
X51901939Y-27585616D01*
X52109400Y-27505246D01*
X52298561Y-27388122D01*
X52462979Y-27238235D01*
X52597057Y-27060688D01*
X52696227Y-26861528D01*
X52696280Y-26861344D01*
X52734740Y-26726168D01*
X52757113Y-26647536D01*
X52777641Y-26426000D01*
X52757113Y-26204464D01*
X52728606Y-26104273D01*
X52696228Y-25990473D01*
X52637151Y-25871832D01*
X52597057Y-25791312D01*
X52504214Y-25668369D01*
X52462978Y-25613763D01*
X52298563Y-25463879D01*
X52201298Y-25403655D01*
X52109400Y-25346754D01*
X52109398Y-25346753D01*
X51901940Y-25266384D01*
X51829040Y-25252756D01*
X51683243Y-25225502D01*
X51460757Y-25225502D01*
X51351408Y-25245943D01*
X51242059Y-25266384D01*
X51034601Y-25346753D01*
X50845436Y-25463879D01*
X50681021Y-25613763D01*
X50546943Y-25791312D01*
X50447771Y-25990473D01*
X50386887Y-26204462D01*
X50366359Y-26426000D01*
X49879467Y-26426000D01*
X49874739Y-26419739D01*
X49719225Y-26277970D01*
X49540304Y-26167187D01*
X49494171Y-26149315D01*
X49344076Y-26091168D01*
X49137220Y-26052500D01*
X48926780Y-26052500D01*
X48719924Y-26091167D01*
X48719924Y-26091168D01*
X48523695Y-26167187D01*
X48344774Y-26277970D01*
X48189260Y-26419739D01*
X48062439Y-26587677D01*
X47968640Y-26776052D01*
X47911051Y-26978455D01*
X47891635Y-27188000D01*
X44360448Y-27188000D01*
X43952001Y-26779553D01*
X43952000Y-26779553D01*
X43298672Y-27432878D01*
X30441969Y-27432878D01*
X30435759Y-27411052D01*
X30341960Y-27222677D01*
X30215139Y-27054739D01*
X30059623Y-26912969D01*
X29915169Y-26823527D01*
X29872117Y-26778439D01*
X29856446Y-26718100D01*
X29872117Y-26657761D01*
X29915169Y-26612673D01*
X29955542Y-26587675D01*
X30059623Y-26523231D01*
X30166282Y-26425999D01*
X42746861Y-26425999D01*
X42767380Y-26647446D01*
X42828240Y-26861346D01*
X42927367Y-27060420D01*
X42943139Y-27081305D01*
X43598446Y-26426001D01*
X43598446Y-26426000D01*
X42943139Y-25770692D01*
X42927367Y-25791578D01*
X42828240Y-25990653D01*
X42767380Y-26204553D01*
X42746861Y-26425999D01*
X30166282Y-26425999D01*
X30215140Y-26381459D01*
X30341958Y-26213525D01*
X30341958Y-26213523D01*
X30341960Y-26213522D01*
X30435759Y-26025147D01*
X30493348Y-25822744D01*
X30505749Y-25688911D01*
X30512765Y-25613200D01*
X30494781Y-25419120D01*
X43298672Y-25419120D01*
X43952000Y-26072447D01*
X44960859Y-27081305D01*
X44976631Y-27060421D01*
X45075760Y-26861344D01*
X45136619Y-26647446D01*
X45157138Y-26425999D01*
X45136619Y-26204553D01*
X45075760Y-25990658D01*
X45053382Y-25945717D01*
X45040572Y-25883574D01*
X45060179Y-25823230D01*
X45107068Y-25780485D01*
X45168963Y-25766529D01*
X45229659Y-25785017D01*
X45247092Y-25795811D01*
X45247094Y-25795811D01*
X45247096Y-25795813D01*
X45443324Y-25871832D01*
X45650180Y-25910500D01*
X45860618Y-25910500D01*
X45860620Y-25910500D01*
X46067476Y-25871832D01*
X46263704Y-25795813D01*
X46442623Y-25685031D01*
X46598140Y-25543259D01*
X46724958Y-25375325D01*
X46724958Y-25375323D01*
X46724960Y-25375322D01*
X46818759Y-25186947D01*
X46876348Y-24984544D01*
X46879383Y-24951781D01*
X46895765Y-24775000D01*
X46876348Y-24565458D01*
X46876348Y-24565455D01*
X46818759Y-24363052D01*
X46724960Y-24174677D01*
X46598139Y-24006739D01*
X46442625Y-23864970D01*
X46263704Y-23754187D01*
X46159316Y-23713747D01*
X46067476Y-23678168D01*
X46067473Y-23678167D01*
X46062005Y-23676049D01*
X46015162Y-23643960D01*
X45987533Y-23594356D01*
X45984910Y-23537637D01*
X46007845Y-23485695D01*
X46115360Y-23343322D01*
X46209159Y-23154947D01*
X46266748Y-22952544D01*
X46273907Y-22875282D01*
X46286165Y-22743000D01*
X46270277Y-22571542D01*
X46266748Y-22533455D01*
X46209159Y-22331052D01*
X46115360Y-22142677D01*
X45988539Y-21974739D01*
X45833025Y-21832970D01*
X45654104Y-21722187D01*
X45486208Y-21657144D01*
X45457876Y-21646168D01*
X45251020Y-21607500D01*
X45040580Y-21607500D01*
X44833724Y-21646167D01*
X44833724Y-21646168D01*
X44637495Y-21722187D01*
X44458574Y-21832970D01*
X44303060Y-21974739D01*
X44176239Y-22142677D01*
X44082440Y-22331052D01*
X44024851Y-22533455D01*
X44005435Y-22743000D01*
X44024851Y-22952544D01*
X44082440Y-23154947D01*
X44176239Y-23343322D01*
X44303060Y-23511260D01*
X44458574Y-23653029D01*
X44458576Y-23653030D01*
X44458577Y-23653031D01*
X44637496Y-23763813D01*
X44833724Y-23839832D01*
X44833729Y-23839833D01*
X44839194Y-23841950D01*
X44886037Y-23874038D01*
X44913666Y-23923642D01*
X44916289Y-23980361D01*
X44893355Y-24032303D01*
X44785839Y-24174678D01*
X44692040Y-24363052D01*
X44634451Y-24565455D01*
X44615035Y-24775000D01*
X44634451Y-24984544D01*
X44692039Y-25186942D01*
X44692040Y-25186944D01*
X44692041Y-25186947D01*
X44703573Y-25210107D01*
X44716383Y-25272248D01*
X44696776Y-25332591D01*
X44649888Y-25375337D01*
X44587993Y-25389293D01*
X44527297Y-25370806D01*
X44489179Y-25347205D01*
X44281801Y-25266866D01*
X44063194Y-25226002D01*
X43840806Y-25226002D01*
X43622198Y-25266866D01*
X43414819Y-25347205D01*
X43298673Y-25419119D01*
X43298672Y-25419120D01*
X30494781Y-25419120D01*
X30493348Y-25403658D01*
X30493348Y-25403655D01*
X30435759Y-25201252D01*
X30341960Y-25012877D01*
X30215139Y-24844939D01*
X30059625Y-24703170D01*
X29880704Y-24592387D01*
X29811184Y-24565455D01*
X29684476Y-24516368D01*
X29477620Y-24477700D01*
X29267180Y-24477700D01*
X29060323Y-24516368D01*
X29060324Y-24516368D01*
X28864095Y-24592387D01*
X28685174Y-24703170D01*
X28529660Y-24844939D01*
X28402839Y-25012877D01*
X28309040Y-25201252D01*
X28251451Y-25403655D01*
X28232035Y-25613200D01*
X28251451Y-25822744D01*
X28309040Y-26025147D01*
X28402839Y-26213522D01*
X28529660Y-26381460D01*
X28685174Y-26523229D01*
X28829631Y-26612673D01*
X28872682Y-26657761D01*
X28888353Y-26718100D01*
X28872682Y-26778439D01*
X28829631Y-26823527D01*
X28685174Y-26912970D01*
X28529660Y-27054739D01*
X28402839Y-27222677D01*
X28309040Y-27411052D01*
X28251451Y-27613455D01*
X28232035Y-27822999D01*
X6935959Y-27822999D01*
X7057909Y-27737608D01*
X7212630Y-27582887D01*
X7338134Y-27403650D01*
X7430607Y-27205341D01*
X7487239Y-26993988D01*
X7506309Y-26776012D01*
X7489021Y-26578400D01*
X21755035Y-26578400D01*
X21774451Y-26787944D01*
X21832040Y-26990347D01*
X21925839Y-27178722D01*
X22052660Y-27346660D01*
X22208174Y-27488429D01*
X22208176Y-27488430D01*
X22208177Y-27488431D01*
X22387096Y-27599213D01*
X22583324Y-27675232D01*
X22790180Y-27713900D01*
X23000618Y-27713900D01*
X23000620Y-27713900D01*
X23207476Y-27675232D01*
X23403704Y-27599213D01*
X23582623Y-27488431D01*
X23738140Y-27346659D01*
X23864958Y-27178725D01*
X23864958Y-27178723D01*
X23864960Y-27178722D01*
X23958759Y-26990347D01*
X24016348Y-26787944D01*
X24029358Y-26647537D01*
X24035765Y-26578400D01*
X24016348Y-26368858D01*
X24016348Y-26368855D01*
X23958759Y-26166452D01*
X23864960Y-25978077D01*
X23738139Y-25810139D01*
X23582625Y-25668370D01*
X23403704Y-25557587D01*
X23207476Y-25481568D01*
X23000620Y-25442900D01*
X22790180Y-25442900D01*
X22583324Y-25481567D01*
X22583324Y-25481568D01*
X22387095Y-25557587D01*
X22208174Y-25668370D01*
X22052660Y-25810139D01*
X21925839Y-25978077D01*
X21832040Y-26166452D01*
X21774451Y-26368855D01*
X21755035Y-26578400D01*
X7489021Y-26578400D01*
X7487239Y-26558036D01*
X7430607Y-26346683D01*
X7338134Y-26148375D01*
X7212630Y-25969137D01*
X7057909Y-25814416D01*
X6878672Y-25688912D01*
X6717519Y-25613765D01*
X6680364Y-25596439D01*
X6469007Y-25539806D01*
X6251034Y-25520736D01*
X6033060Y-25539806D01*
X5821703Y-25596439D01*
X5667451Y-25668369D01*
X5623397Y-25688912D01*
X5444159Y-25814416D01*
X5444155Y-25814419D01*
X5289441Y-25969133D01*
X5289438Y-25969136D01*
X5289438Y-25969137D01*
X5217100Y-26072447D01*
X5187107Y-26115281D01*
X5139890Y-26155608D01*
X5079042Y-26167987D01*
X5019822Y-26149315D01*
X4977079Y-26104273D01*
X4961532Y-26044157D01*
X4961532Y-25978143D01*
X4960564Y-25969137D01*
X4955124Y-25918530D01*
X4904829Y-25783682D01*
X4818579Y-25668467D01*
X4703364Y-25582217D01*
X4568516Y-25531922D01*
X4508906Y-25525513D01*
X4508902Y-25525513D01*
X2913165Y-25525513D01*
X2853550Y-25531922D01*
X2718704Y-25582217D01*
X2603489Y-25668467D01*
X2517239Y-25783681D01*
X2466944Y-25918528D01*
X2466944Y-25918530D01*
X2461504Y-25969133D01*
X2460535Y-25978143D01*
X2460535Y-27573880D01*
X102100Y-27573880D01*
X102100Y-23301799D01*
X15074835Y-23301799D01*
X15094251Y-23511344D01*
X15151840Y-23713747D01*
X15245639Y-23902122D01*
X15372460Y-24070060D01*
X15527974Y-24211829D01*
X15527976Y-24211830D01*
X15527977Y-24211831D01*
X15706896Y-24322613D01*
X15903124Y-24398632D01*
X16109980Y-24437300D01*
X16320418Y-24437300D01*
X16320420Y-24437300D01*
X16527276Y-24398632D01*
X16723504Y-24322613D01*
X16902423Y-24211831D01*
X17057940Y-24070059D01*
X17184758Y-23902125D01*
X17184758Y-23902123D01*
X17184760Y-23902122D01*
X17278559Y-23713747D01*
X17336148Y-23511344D01*
X17340583Y-23463477D01*
X17355565Y-23301800D01*
X17353211Y-23276400D01*
X36131435Y-23276400D01*
X36150851Y-23485944D01*
X36208440Y-23688347D01*
X36302239Y-23876722D01*
X36429060Y-24044660D01*
X36584574Y-24186429D01*
X36584576Y-24186430D01*
X36584577Y-24186431D01*
X36763496Y-24297213D01*
X36959724Y-24373232D01*
X37166580Y-24411900D01*
X37377018Y-24411900D01*
X37377020Y-24411900D01*
X37583876Y-24373232D01*
X37780104Y-24297213D01*
X37959023Y-24186431D01*
X38093544Y-24063799D01*
X39763635Y-24063799D01*
X39783051Y-24273344D01*
X39840640Y-24475747D01*
X39934439Y-24664122D01*
X40061260Y-24832060D01*
X40216774Y-24973829D01*
X40216776Y-24973830D01*
X40216777Y-24973831D01*
X40395696Y-25084613D01*
X40591924Y-25160632D01*
X40798780Y-25199300D01*
X41009218Y-25199300D01*
X41009220Y-25199300D01*
X41216076Y-25160632D01*
X41412304Y-25084613D01*
X41591223Y-24973831D01*
X41746740Y-24832059D01*
X41873558Y-24664125D01*
X41873558Y-24664123D01*
X41873560Y-24664122D01*
X41967359Y-24475747D01*
X42024948Y-24273344D01*
X42030648Y-24211829D01*
X42044365Y-24063800D01*
X42029383Y-23902122D01*
X42024948Y-23854255D01*
X41967359Y-23651852D01*
X41873560Y-23463477D01*
X41746739Y-23295539D01*
X41591225Y-23153770D01*
X41412304Y-23042987D01*
X41216076Y-22966968D01*
X41009220Y-22928300D01*
X40798780Y-22928300D01*
X40616778Y-22962322D01*
X40591924Y-22966968D01*
X40395695Y-23042987D01*
X40216774Y-23153770D01*
X40061260Y-23295539D01*
X39934439Y-23463477D01*
X39840640Y-23651852D01*
X39783051Y-23854255D01*
X39763635Y-24063799D01*
X38093544Y-24063799D01*
X38114540Y-24044659D01*
X38241358Y-23876725D01*
X38241358Y-23876723D01*
X38241360Y-23876722D01*
X38335159Y-23688347D01*
X38392748Y-23485944D01*
X38405963Y-23343325D01*
X38412165Y-23276400D01*
X38395102Y-23092258D01*
X38392748Y-23066855D01*
X38335159Y-22864452D01*
X38241360Y-22676077D01*
X38114539Y-22508139D01*
X37959025Y-22366370D01*
X37780104Y-22255587D01*
X37680050Y-22216826D01*
X37583876Y-22179568D01*
X37377020Y-22140900D01*
X37166580Y-22140900D01*
X37030702Y-22166300D01*
X36959724Y-22179568D01*
X36763495Y-22255587D01*
X36584574Y-22366370D01*
X36429060Y-22508139D01*
X36302239Y-22676077D01*
X36208440Y-22864452D01*
X36150851Y-23066855D01*
X36131435Y-23276400D01*
X17353211Y-23276400D01*
X17336148Y-23092258D01*
X17336148Y-23092255D01*
X17278559Y-22889852D01*
X17184760Y-22701477D01*
X17057939Y-22533539D01*
X16902425Y-22391770D01*
X16723504Y-22280987D01*
X16646413Y-22251122D01*
X16527276Y-22204968D01*
X16320420Y-22166300D01*
X16109980Y-22166300D01*
X15903124Y-22204967D01*
X15903124Y-22204968D01*
X15706895Y-22280987D01*
X15527974Y-22391770D01*
X15372460Y-22533539D01*
X15245639Y-22701477D01*
X15151840Y-22889852D01*
X15094251Y-23092255D01*
X15074835Y-23301799D01*
X102100Y-23301799D01*
X102100Y-22711558D01*
X2460535Y-22711558D01*
X2466944Y-22771172D01*
X2517239Y-22906020D01*
X2603489Y-23021235D01*
X2718704Y-23107485D01*
X2853552Y-23157780D01*
X2913162Y-23164189D01*
X4508905Y-23164188D01*
X4568516Y-23157780D01*
X4703364Y-23107485D01*
X4818579Y-23021235D01*
X4904829Y-22906020D01*
X4955124Y-22771172D01*
X4961533Y-22711562D01*
X4961532Y-22645544D01*
X4977078Y-22585431D01*
X5019821Y-22540389D01*
X5079041Y-22521716D01*
X5139889Y-22534095D01*
X5187106Y-22574422D01*
X5276071Y-22701475D01*
X5289438Y-22720565D01*
X5444159Y-22875286D01*
X5623396Y-23000790D01*
X5821705Y-23093263D01*
X6033058Y-23149895D01*
X6251034Y-23168965D01*
X6469010Y-23149895D01*
X6680363Y-23093263D01*
X6878672Y-23000790D01*
X7057909Y-22875286D01*
X7212630Y-22720565D01*
X7338134Y-22541328D01*
X7430607Y-22343019D01*
X7487239Y-22131666D01*
X7506309Y-21913690D01*
X7487239Y-21695714D01*
X7475204Y-21650800D01*
X28740035Y-21650800D01*
X28759451Y-21860344D01*
X28817040Y-22062747D01*
X28910839Y-22251122D01*
X29037660Y-22419060D01*
X29193174Y-22560829D01*
X29193176Y-22560830D01*
X29193177Y-22560831D01*
X29372096Y-22671613D01*
X29568324Y-22747632D01*
X29775180Y-22786300D01*
X29985618Y-22786300D01*
X29985620Y-22786300D01*
X30192476Y-22747632D01*
X30388704Y-22671613D01*
X30567623Y-22560831D01*
X30723140Y-22419059D01*
X30849958Y-22251125D01*
X30849958Y-22251123D01*
X30849960Y-22251122D01*
X30943759Y-22062747D01*
X31001348Y-21860344D01*
X31007279Y-21796335D01*
X31020765Y-21650800D01*
X31001936Y-21447600D01*
X49212435Y-21447600D01*
X49231851Y-21657144D01*
X49289440Y-21859547D01*
X49383239Y-22047922D01*
X49510060Y-22215860D01*
X49674068Y-22365372D01*
X49672107Y-22367523D01*
X49705588Y-22404247D01*
X49718060Y-22470961D01*
X49693543Y-22534248D01*
X49586441Y-22676074D01*
X49492640Y-22864452D01*
X49435051Y-23066855D01*
X49415635Y-23276400D01*
X49435051Y-23485944D01*
X49492640Y-23688347D01*
X49586439Y-23876722D01*
X49713260Y-24044660D01*
X49868774Y-24186429D01*
X49868776Y-24186430D01*
X49868777Y-24186431D01*
X50047696Y-24297213D01*
X50243924Y-24373232D01*
X50450780Y-24411900D01*
X50661218Y-24411900D01*
X50661220Y-24411900D01*
X50868076Y-24373232D01*
X51064304Y-24297213D01*
X51243223Y-24186431D01*
X51398740Y-24044659D01*
X51525558Y-23876725D01*
X51525558Y-23876723D01*
X51525560Y-23876722D01*
X51619359Y-23688347D01*
X51676948Y-23485944D01*
X51690163Y-23343325D01*
X51696365Y-23276400D01*
X51679302Y-23092258D01*
X51676948Y-23066855D01*
X51619359Y-22864452D01*
X51525560Y-22676077D01*
X51398739Y-22508139D01*
X51238431Y-22362000D01*
X52971635Y-22362000D01*
X52972040Y-22366369D01*
X52991051Y-22571544D01*
X53048640Y-22773947D01*
X53142439Y-22962322D01*
X53269260Y-23130260D01*
X53424774Y-23272029D01*
X53424776Y-23272030D01*
X53424777Y-23272031D01*
X53603696Y-23382813D01*
X53799924Y-23458832D01*
X54006780Y-23497500D01*
X54217218Y-23497500D01*
X54217220Y-23497500D01*
X54424076Y-23458832D01*
X54620304Y-23382813D01*
X54799223Y-23272031D01*
X54924552Y-23157779D01*
X54954739Y-23130260D01*
X55002618Y-23066858D01*
X55081558Y-22962325D01*
X55081558Y-22962323D01*
X55081560Y-22962322D01*
X55175359Y-22773947D01*
X55232948Y-22571544D01*
X55236469Y-22533541D01*
X55252365Y-22362000D01*
X55232948Y-22152458D01*
X55232948Y-22152455D01*
X55175359Y-21950052D01*
X55081560Y-21761677D01*
X54954739Y-21593739D01*
X54799225Y-21451970D01*
X54620301Y-21341185D01*
X54568520Y-21321125D01*
X54520149Y-21287329D01*
X54492876Y-21235002D01*
X54492876Y-21196012D01*
X58441449Y-21196012D01*
X58460865Y-21405557D01*
X58518454Y-21607960D01*
X58612253Y-21796335D01*
X58739074Y-21964273D01*
X58894588Y-22106042D01*
X58894590Y-22106043D01*
X58894591Y-22106044D01*
X59073510Y-22216826D01*
X59269738Y-22292845D01*
X59476594Y-22331513D01*
X59687032Y-22331513D01*
X59687034Y-22331513D01*
X59893890Y-22292845D01*
X60090118Y-22216826D01*
X60269037Y-22106044D01*
X60424554Y-21964272D01*
X60551372Y-21796338D01*
X60551372Y-21796336D01*
X60551374Y-21796335D01*
X60645173Y-21607960D01*
X60702762Y-21405557D01*
X60705797Y-21372794D01*
X60722179Y-21196013D01*
X60703991Y-20999735D01*
X60713121Y-20940314D01*
X60749130Y-20892170D01*
X60803552Y-20866622D01*
X60863594Y-20869676D01*
X60915143Y-20900614D01*
X61052125Y-21037596D01*
X61231362Y-21163100D01*
X61429671Y-21255573D01*
X61641024Y-21312205D01*
X61859000Y-21331275D01*
X62076976Y-21312205D01*
X62082514Y-21310721D01*
X63517830Y-21310721D01*
X63541625Y-21319596D01*
X63601177Y-21325999D01*
X65196823Y-21325999D01*
X65256377Y-21319596D01*
X65280169Y-21310722D01*
X65280169Y-21310721D01*
X64399000Y-20429553D01*
X63517830Y-21310721D01*
X62082514Y-21310721D01*
X62288329Y-21255573D01*
X62486638Y-21163100D01*
X62665875Y-21037596D01*
X62820596Y-20882875D01*
X62923428Y-20736015D01*
X62970643Y-20695691D01*
X63031491Y-20683312D01*
X63090711Y-20701984D01*
X63133454Y-20747026D01*
X63149001Y-20807142D01*
X63149001Y-20873822D01*
X63155403Y-20933375D01*
X63164277Y-20957168D01*
X63164277Y-20957169D01*
X64045447Y-20076001D01*
X64752553Y-20076001D01*
X65633721Y-20957169D01*
X65633722Y-20957169D01*
X65642596Y-20933377D01*
X65648999Y-20873823D01*
X65648999Y-19278177D01*
X65642596Y-19218625D01*
X65633721Y-19194830D01*
X64752553Y-20076000D01*
X64752553Y-20076001D01*
X64045447Y-20076001D01*
X64045447Y-20076000D01*
X63164278Y-19194830D01*
X63164277Y-19194830D01*
X63155403Y-19218625D01*
X63149001Y-19278178D01*
X63149001Y-19344858D01*
X63133454Y-19404974D01*
X63090711Y-19450016D01*
X63031491Y-19468688D01*
X62970643Y-19456309D01*
X62923427Y-19415983D01*
X62820596Y-19269125D01*
X62665875Y-19114404D01*
X62486638Y-18988900D01*
X62431532Y-18963203D01*
X62335411Y-18918381D01*
X62283235Y-18872624D01*
X62263816Y-18805998D01*
X62283236Y-18739373D01*
X62335409Y-18693618D01*
X62486638Y-18623100D01*
X62665875Y-18497596D01*
X62820596Y-18342875D01*
X62946100Y-18163638D01*
X63016618Y-18012410D01*
X63062375Y-17960235D01*
X63129000Y-17940816D01*
X63195625Y-17960235D01*
X63241381Y-18012410D01*
X63311900Y-18163638D01*
X63437404Y-18342875D01*
X63592125Y-18497596D01*
X63738984Y-18600428D01*
X63779309Y-18647643D01*
X63791688Y-18708491D01*
X63773016Y-18767711D01*
X63727974Y-18810454D01*
X63667858Y-18826001D01*
X63601178Y-18826001D01*
X63541625Y-18832403D01*
X63517830Y-18841277D01*
X63517830Y-18841278D01*
X64399000Y-19722447D01*
X64399001Y-19722447D01*
X65280169Y-18841277D01*
X65256375Y-18832403D01*
X65196822Y-18826001D01*
X65130142Y-18826001D01*
X65070026Y-18810454D01*
X65024984Y-18767711D01*
X65006312Y-18708491D01*
X65018691Y-18647643D01*
X65059015Y-18600428D01*
X65205875Y-18497596D01*
X65360596Y-18342875D01*
X65486100Y-18163638D01*
X65578573Y-17965329D01*
X65635205Y-17753976D01*
X65654275Y-17536000D01*
X65635205Y-17318024D01*
X65578573Y-17106671D01*
X65486100Y-16908363D01*
X65360596Y-16729125D01*
X65205875Y-16574404D01*
X65026638Y-16448900D01*
X64875410Y-16378381D01*
X64823235Y-16332625D01*
X64803816Y-16266000D01*
X64823235Y-16199375D01*
X64875410Y-16153618D01*
X65026638Y-16083100D01*
X65205875Y-15957596D01*
X65360596Y-15802875D01*
X65486100Y-15623638D01*
X65578573Y-15425329D01*
X65635205Y-15213976D01*
X65654275Y-14996000D01*
X65635205Y-14778024D01*
X65578573Y-14566671D01*
X65486100Y-14368363D01*
X65360596Y-14189125D01*
X65205875Y-14034404D01*
X65026638Y-13908900D01*
X64971532Y-13883203D01*
X64875411Y-13838381D01*
X64823235Y-13792624D01*
X64803816Y-13725998D01*
X64823236Y-13659373D01*
X64875409Y-13613618D01*
X65026638Y-13543100D01*
X65205875Y-13417596D01*
X65360596Y-13262875D01*
X65486100Y-13083638D01*
X65578573Y-12885329D01*
X65635205Y-12673976D01*
X65654275Y-12456000D01*
X65635205Y-12238024D01*
X65578573Y-12026671D01*
X65486100Y-11828363D01*
X65360596Y-11649125D01*
X65205875Y-11494404D01*
X65026638Y-11368900D01*
X64893338Y-11306741D01*
X64828330Y-11276427D01*
X64616973Y-11219794D01*
X64398999Y-11200724D01*
X64181026Y-11219794D01*
X63969669Y-11276427D01*
X63771365Y-11368899D01*
X63771363Y-11368900D01*
X63639787Y-11461031D01*
X63592121Y-11494407D01*
X63437407Y-11649121D01*
X63437404Y-11649124D01*
X63437404Y-11649125D01*
X63317057Y-11820999D01*
X63311899Y-11828365D01*
X63241382Y-11979588D01*
X63195625Y-12031764D01*
X63129000Y-12051183D01*
X63062375Y-12031764D01*
X63016618Y-11979588D01*
X62990244Y-11923030D01*
X62946100Y-11828363D01*
X62820596Y-11649125D01*
X62665875Y-11494404D01*
X62486638Y-11368900D01*
X62353338Y-11306741D01*
X62288330Y-11276427D01*
X62076973Y-11219794D01*
X61858999Y-11200724D01*
X61641026Y-11219794D01*
X61429669Y-11276427D01*
X61231365Y-11368899D01*
X61231363Y-11368900D01*
X61099787Y-11461031D01*
X61052121Y-11494407D01*
X60897407Y-11649121D01*
X60897404Y-11649124D01*
X60897404Y-11649125D01*
X60777057Y-11820999D01*
X60771899Y-11828365D01*
X60679427Y-12026669D01*
X60622794Y-12238026D01*
X60603724Y-12455999D01*
X60622794Y-12673973D01*
X60679427Y-12885330D01*
X60725918Y-12985029D01*
X60771900Y-13083638D01*
X60897404Y-13262875D01*
X61052125Y-13417596D01*
X61231362Y-13543100D01*
X61360184Y-13603171D01*
X61382588Y-13613618D01*
X61434764Y-13659375D01*
X61454183Y-13726000D01*
X61434764Y-13792625D01*
X61382588Y-13838382D01*
X61231365Y-13908899D01*
X61231363Y-13908900D01*
X61138761Y-13973741D01*
X61052121Y-14034407D01*
X60897407Y-14189121D01*
X60897404Y-14189124D01*
X60897404Y-14189125D01*
X60793839Y-14337032D01*
X60771899Y-14368365D01*
X60679427Y-14566669D01*
X60622794Y-14778026D01*
X60603724Y-14996000D01*
X60622794Y-15213973D01*
X60679427Y-15425330D01*
X60719031Y-15510260D01*
X60771900Y-15623638D01*
X60897404Y-15802875D01*
X61052125Y-15957596D01*
X61231362Y-16083100D01*
X61360184Y-16143171D01*
X61382588Y-16153618D01*
X61434764Y-16199375D01*
X61454183Y-16266000D01*
X61434764Y-16332625D01*
X61382588Y-16378382D01*
X61231365Y-16448899D01*
X61231363Y-16448900D01*
X61210294Y-16463653D01*
X61052121Y-16574407D01*
X60897407Y-16729121D01*
X60897404Y-16729124D01*
X60897404Y-16729125D01*
X60824359Y-16833445D01*
X60771899Y-16908365D01*
X60679427Y-17106669D01*
X60622794Y-17318026D01*
X60603724Y-17536000D01*
X60622794Y-17753973D01*
X60679427Y-17965330D01*
X60701661Y-18013011D01*
X60771900Y-18163638D01*
X60897404Y-18342875D01*
X61052125Y-18497596D01*
X61231362Y-18623100D01*
X61360184Y-18683171D01*
X61382588Y-18693618D01*
X61434764Y-18739375D01*
X61454183Y-18806000D01*
X61434764Y-18872625D01*
X61382588Y-18918382D01*
X61231365Y-18988899D01*
X61231363Y-18988900D01*
X61087306Y-19089770D01*
X61052121Y-19114407D01*
X60897407Y-19269121D01*
X60897404Y-19269124D01*
X60897404Y-19269125D01*
X60794574Y-19415982D01*
X60771899Y-19448365D01*
X60679427Y-19646669D01*
X60622794Y-19858026D01*
X60603724Y-20075999D01*
X60622794Y-20293979D01*
X60624717Y-20301154D01*
X60625008Y-20364232D01*
X60594228Y-20419292D01*
X60540342Y-20452085D01*
X60477296Y-20454124D01*
X60421404Y-20424882D01*
X60269039Y-20285983D01*
X60090118Y-20175200D01*
X60090117Y-20175199D01*
X59893890Y-20099181D01*
X59687034Y-20060513D01*
X59476594Y-20060513D01*
X59269738Y-20099180D01*
X59269738Y-20099181D01*
X59073509Y-20175200D01*
X58894588Y-20285983D01*
X58739074Y-20427752D01*
X58612253Y-20595690D01*
X58518454Y-20784065D01*
X58460865Y-20986468D01*
X58441449Y-21196012D01*
X54492876Y-21196012D01*
X54492876Y-21175994D01*
X54520150Y-21123668D01*
X54568517Y-21089875D01*
X54747304Y-21020613D01*
X54926223Y-20909831D01*
X55081740Y-20768059D01*
X55208558Y-20600125D01*
X55208558Y-20600123D01*
X55208560Y-20600122D01*
X55302359Y-20411747D01*
X55359948Y-20209344D01*
X55363112Y-20175200D01*
X55379365Y-19999800D01*
X55359948Y-19790258D01*
X55359948Y-19790255D01*
X55302359Y-19587852D01*
X55208560Y-19399477D01*
X55081739Y-19231539D01*
X54926225Y-19089770D01*
X54747304Y-18978987D01*
X54551076Y-18902968D01*
X54344220Y-18864300D01*
X54133780Y-18864300D01*
X53926923Y-18902968D01*
X53926924Y-18902968D01*
X53730695Y-18978987D01*
X53551774Y-19089770D01*
X53396260Y-19231539D01*
X53269439Y-19399477D01*
X53175640Y-19587852D01*
X53118051Y-19790255D01*
X53098635Y-19999799D01*
X53118051Y-20209344D01*
X53175640Y-20411747D01*
X53269439Y-20600122D01*
X53396260Y-20768060D01*
X53551774Y-20909829D01*
X53551776Y-20909830D01*
X53551777Y-20909831D01*
X53730696Y-21020613D01*
X53782479Y-21040673D01*
X53830849Y-21074469D01*
X53858123Y-21126796D01*
X53858123Y-21185804D01*
X53830849Y-21238131D01*
X53782479Y-21271926D01*
X53742720Y-21287329D01*
X53603695Y-21341187D01*
X53424774Y-21451970D01*
X53269260Y-21593739D01*
X53142439Y-21761677D01*
X53048640Y-21950052D01*
X52991051Y-22152455D01*
X52974460Y-22331513D01*
X52971635Y-22362000D01*
X51238431Y-22362000D01*
X51234732Y-22358628D01*
X51236693Y-22356476D01*
X51203212Y-22319754D01*
X51190738Y-22253038D01*
X51215253Y-22189754D01*
X51322358Y-22047925D01*
X51416159Y-21859547D01*
X51423721Y-21832969D01*
X51473748Y-21657144D01*
X51479623Y-21593739D01*
X51493165Y-21447600D01*
X51477971Y-21283635D01*
X51473748Y-21238055D01*
X51416159Y-21035652D01*
X51322360Y-20847277D01*
X51195539Y-20679339D01*
X51040025Y-20537570D01*
X50861104Y-20426787D01*
X50822281Y-20411747D01*
X50664876Y-20350768D01*
X50458020Y-20312100D01*
X50247580Y-20312100D01*
X50040723Y-20350768D01*
X50040724Y-20350768D01*
X49844495Y-20426787D01*
X49665574Y-20537570D01*
X49510060Y-20679339D01*
X49383239Y-20847277D01*
X49289440Y-21035652D01*
X49231851Y-21238055D01*
X49212435Y-21447600D01*
X31001936Y-21447600D01*
X31001348Y-21441258D01*
X31001348Y-21441255D01*
X30943759Y-21238852D01*
X30849960Y-21050477D01*
X30723139Y-20882539D01*
X30567625Y-20740770D01*
X30388704Y-20629987D01*
X30300173Y-20595690D01*
X30192476Y-20553968D01*
X29985620Y-20515300D01*
X29775180Y-20515300D01*
X29568324Y-20553967D01*
X29568324Y-20553968D01*
X29372095Y-20629987D01*
X29193174Y-20740770D01*
X29037660Y-20882539D01*
X28910839Y-21050477D01*
X28817040Y-21238852D01*
X28759451Y-21441255D01*
X28740035Y-21650800D01*
X7475204Y-21650800D01*
X7430607Y-21484361D01*
X7338134Y-21286053D01*
X7212630Y-21106815D01*
X7057909Y-20952094D01*
X6878672Y-20826590D01*
X6753152Y-20768059D01*
X6680364Y-20734117D01*
X6469007Y-20677484D01*
X6251034Y-20658414D01*
X6033060Y-20677484D01*
X5821703Y-20734117D01*
X5667241Y-20806145D01*
X5623397Y-20826590D01*
X5470890Y-20933377D01*
X5444155Y-20952097D01*
X5289441Y-21106811D01*
X5289438Y-21106814D01*
X5289438Y-21106815D01*
X5197490Y-21238131D01*
X5187107Y-21252959D01*
X5139890Y-21293286D01*
X5079042Y-21305665D01*
X5019822Y-21286993D01*
X4977079Y-21241951D01*
X4961532Y-21181835D01*
X4961532Y-21115821D01*
X4960564Y-21106815D01*
X4955124Y-21056208D01*
X4904829Y-20921360D01*
X4818579Y-20806145D01*
X4703364Y-20719895D01*
X4568516Y-20669600D01*
X4508906Y-20663191D01*
X4508902Y-20663191D01*
X2913165Y-20663191D01*
X2853550Y-20669600D01*
X2718704Y-20719895D01*
X2603489Y-20806145D01*
X2517239Y-20921359D01*
X2466944Y-21056206D01*
X2466944Y-21056208D01*
X2461504Y-21106811D01*
X2460535Y-21115821D01*
X2460535Y-22711558D01*
X102100Y-22711558D01*
X102100Y-17849287D01*
X2460535Y-17849287D01*
X2466944Y-17908902D01*
X2492091Y-17976325D01*
X2517239Y-18043749D01*
X2603489Y-18158964D01*
X2718704Y-18245214D01*
X2853552Y-18295509D01*
X2913162Y-18301918D01*
X4508905Y-18301917D01*
X4568516Y-18295509D01*
X4703364Y-18245214D01*
X4818579Y-18158964D01*
X4904829Y-18043749D01*
X4955124Y-17908901D01*
X4961533Y-17849291D01*
X4961532Y-17783273D01*
X4977078Y-17723160D01*
X5019821Y-17678118D01*
X5079041Y-17659445D01*
X5139889Y-17671824D01*
X5187106Y-17712151D01*
X5238558Y-17785631D01*
X5289438Y-17858294D01*
X5444159Y-18013015D01*
X5623396Y-18138519D01*
X5821705Y-18230992D01*
X6033058Y-18287624D01*
X6251034Y-18306694D01*
X6469010Y-18287624D01*
X6680363Y-18230992D01*
X6878672Y-18138519D01*
X7057909Y-18013015D01*
X7212630Y-17858294D01*
X7338134Y-17679057D01*
X7430607Y-17480748D01*
X7487239Y-17269395D01*
X7506309Y-17051419D01*
X7490927Y-16875599D01*
X22313835Y-16875599D01*
X22333251Y-17085144D01*
X22390840Y-17287547D01*
X22484639Y-17475922D01*
X22611460Y-17643860D01*
X22766974Y-17785629D01*
X22766976Y-17785630D01*
X22766977Y-17785631D01*
X22945896Y-17896413D01*
X23142124Y-17972432D01*
X23348980Y-18011100D01*
X23559418Y-18011100D01*
X23559420Y-18011100D01*
X23766276Y-17972432D01*
X23962504Y-17896413D01*
X23970277Y-17891600D01*
X25692035Y-17891600D01*
X25711451Y-18101144D01*
X25769040Y-18303547D01*
X25862839Y-18491922D01*
X25989660Y-18659860D01*
X26145174Y-18801629D01*
X26145176Y-18801630D01*
X26145177Y-18801631D01*
X26324096Y-18912413D01*
X26520324Y-18988432D01*
X26727180Y-19027100D01*
X26937618Y-19027100D01*
X26937620Y-19027100D01*
X27144476Y-18988432D01*
X27340704Y-18912413D01*
X27519623Y-18801631D01*
X27675140Y-18659859D01*
X27801958Y-18491925D01*
X27801958Y-18491923D01*
X27801960Y-18491922D01*
X27809988Y-18475800D01*
X42532235Y-18475800D01*
X42551651Y-18685344D01*
X42609240Y-18887747D01*
X42703039Y-19076122D01*
X42829860Y-19244060D01*
X42985374Y-19385829D01*
X42985376Y-19385830D01*
X42985377Y-19385831D01*
X43164296Y-19496613D01*
X43360524Y-19572632D01*
X43567380Y-19611300D01*
X43777818Y-19611300D01*
X43777820Y-19611300D01*
X43984676Y-19572632D01*
X44180904Y-19496613D01*
X44359823Y-19385831D01*
X44515340Y-19244059D01*
X44642158Y-19076125D01*
X44642158Y-19076123D01*
X44642160Y-19076122D01*
X44735959Y-18887747D01*
X44793548Y-18685344D01*
X44799315Y-18623102D01*
X44812965Y-18475800D01*
X44796259Y-18295509D01*
X44793548Y-18266255D01*
X44735959Y-18063852D01*
X44642160Y-17875477D01*
X44515339Y-17707539D01*
X44359825Y-17565770D01*
X44180904Y-17454987D01*
X43984676Y-17378968D01*
X43777820Y-17340300D01*
X43567380Y-17340300D01*
X43360524Y-17378967D01*
X43360524Y-17378968D01*
X43164295Y-17454987D01*
X42985374Y-17565770D01*
X42829860Y-17707539D01*
X42703039Y-17875477D01*
X42609240Y-18063852D01*
X42551651Y-18266255D01*
X42532235Y-18475800D01*
X27809988Y-18475800D01*
X27895759Y-18303547D01*
X27953348Y-18101144D01*
X27961514Y-18013015D01*
X27972765Y-17891600D01*
X27953348Y-17682058D01*
X27953348Y-17682055D01*
X27895759Y-17479652D01*
X27801960Y-17291277D01*
X27675139Y-17123339D01*
X27519625Y-16981570D01*
X27340704Y-16870787D01*
X27244313Y-16833445D01*
X27144476Y-16794768D01*
X26937620Y-16756100D01*
X26727180Y-16756100D01*
X26520324Y-16794767D01*
X26520324Y-16794768D01*
X26324095Y-16870787D01*
X26145174Y-16981570D01*
X25989660Y-17123339D01*
X25862839Y-17291277D01*
X25769040Y-17479652D01*
X25711451Y-17682055D01*
X25692035Y-17891600D01*
X23970277Y-17891600D01*
X24141423Y-17785631D01*
X24296940Y-17643859D01*
X24423758Y-17475925D01*
X24423758Y-17475923D01*
X24423760Y-17475922D01*
X24517559Y-17287547D01*
X24575148Y-17085144D01*
X24584745Y-16981569D01*
X24594565Y-16875600D01*
X24575148Y-16666058D01*
X24575148Y-16666055D01*
X24517559Y-16463652D01*
X24423760Y-16275277D01*
X24296939Y-16107339D01*
X24141425Y-15965570D01*
X23962504Y-15854787D01*
X23860354Y-15815214D01*
X23766276Y-15778768D01*
X23559420Y-15740100D01*
X23348980Y-15740100D01*
X23142123Y-15778768D01*
X23142124Y-15778768D01*
X22945895Y-15854787D01*
X22766974Y-15965570D01*
X22611460Y-16107339D01*
X22484639Y-16275277D01*
X22390840Y-16463652D01*
X22333251Y-16666055D01*
X22313835Y-16875599D01*
X7490927Y-16875599D01*
X7487239Y-16833443D01*
X7430607Y-16622090D01*
X7338134Y-16423782D01*
X7212630Y-16244544D01*
X7057909Y-16089823D01*
X6878672Y-15964319D01*
X6787238Y-15921682D01*
X6680364Y-15871846D01*
X6469007Y-15815213D01*
X6251034Y-15796143D01*
X6033060Y-15815213D01*
X5821703Y-15871846D01*
X5667241Y-15943874D01*
X5623397Y-15964319D01*
X5444159Y-16089823D01*
X5444155Y-16089826D01*
X5289441Y-16244540D01*
X5289438Y-16244543D01*
X5289438Y-16244544D01*
X5195724Y-16378382D01*
X5187107Y-16390688D01*
X5139890Y-16431015D01*
X5079042Y-16443394D01*
X5019822Y-16424722D01*
X4977079Y-16379680D01*
X4961532Y-16319564D01*
X4961532Y-16253550D01*
X4961532Y-16253547D01*
X4955124Y-16193937D01*
X4904829Y-16059089D01*
X4818579Y-15943874D01*
X4703364Y-15857624D01*
X4568516Y-15807329D01*
X4508906Y-15800920D01*
X4508902Y-15800920D01*
X2913165Y-15800920D01*
X2853550Y-15807329D01*
X2718704Y-15857624D01*
X2603489Y-15943874D01*
X2517239Y-16059088D01*
X2466944Y-16193935D01*
X2466944Y-16193937D01*
X2460780Y-16251275D01*
X2460535Y-16253550D01*
X2460535Y-17849287D01*
X102100Y-17849287D01*
X102100Y-13925085D01*
X26174635Y-13925085D01*
X26194051Y-14134629D01*
X26251640Y-14337032D01*
X26345439Y-14525407D01*
X26472260Y-14693345D01*
X26627774Y-14835114D01*
X26627776Y-14835115D01*
X26627777Y-14835116D01*
X26806696Y-14945898D01*
X27002924Y-15021917D01*
X27209780Y-15060585D01*
X27420218Y-15060585D01*
X27420220Y-15060585D01*
X27627076Y-15021917D01*
X27823304Y-14945898D01*
X28002223Y-14835116D01*
X28157740Y-14693344D01*
X28278590Y-14533313D01*
X49167121Y-14533313D01*
X49186537Y-14742858D01*
X49244126Y-14945261D01*
X49337925Y-15133636D01*
X49464746Y-15301574D01*
X49620260Y-15443343D01*
X49620262Y-15443344D01*
X49620263Y-15443345D01*
X49799182Y-15554127D01*
X49995410Y-15630146D01*
X50202266Y-15668814D01*
X50412704Y-15668814D01*
X50412706Y-15668814D01*
X50619562Y-15630146D01*
X50815790Y-15554127D01*
X50994709Y-15443345D01*
X51150226Y-15301573D01*
X51277044Y-15133639D01*
X51277044Y-15133637D01*
X51277046Y-15133636D01*
X51370845Y-14945261D01*
X51428434Y-14742858D01*
X51428514Y-14741999D01*
X54749635Y-14741999D01*
X54769051Y-14951544D01*
X54826640Y-15153947D01*
X54920439Y-15342322D01*
X55047260Y-15510260D01*
X55202774Y-15652029D01*
X55202776Y-15652030D01*
X55202777Y-15652031D01*
X55381696Y-15762813D01*
X55577924Y-15838832D01*
X55784780Y-15877500D01*
X55995218Y-15877500D01*
X55995220Y-15877500D01*
X56202076Y-15838832D01*
X56398304Y-15762813D01*
X56577223Y-15652031D01*
X56732740Y-15510259D01*
X56859558Y-15342325D01*
X56859558Y-15342323D01*
X56859560Y-15342322D01*
X56953359Y-15153947D01*
X57010948Y-14951544D01*
X57021736Y-14835116D01*
X57030365Y-14742000D01*
X57014118Y-14566669D01*
X57010948Y-14532455D01*
X56953359Y-14330052D01*
X56859560Y-14141677D01*
X56732739Y-13973739D01*
X56577225Y-13831970D01*
X56398304Y-13721187D01*
X56372718Y-13711275D01*
X56202076Y-13645168D01*
X55995220Y-13606500D01*
X55784780Y-13606500D01*
X55629253Y-13635573D01*
X55577924Y-13645168D01*
X55381695Y-13721187D01*
X55202774Y-13831970D01*
X55047260Y-13973739D01*
X54920439Y-14141677D01*
X54826640Y-14330052D01*
X54769051Y-14532455D01*
X54749635Y-14741999D01*
X51428514Y-14741999D01*
X51433022Y-14693344D01*
X51447851Y-14533314D01*
X51428434Y-14323772D01*
X51428434Y-14323769D01*
X51370845Y-14121366D01*
X51277046Y-13932991D01*
X51150225Y-13765053D01*
X50994711Y-13623284D01*
X50815790Y-13512501D01*
X50815789Y-13512500D01*
X50619562Y-13436482D01*
X50412706Y-13397814D01*
X50202266Y-13397814D01*
X50012775Y-13433236D01*
X49995410Y-13436482D01*
X49799181Y-13512501D01*
X49620260Y-13623284D01*
X49464746Y-13765053D01*
X49337925Y-13932991D01*
X49244126Y-14121366D01*
X49186537Y-14323769D01*
X49167121Y-14533313D01*
X28278590Y-14533313D01*
X28284558Y-14525410D01*
X28284558Y-14525408D01*
X28284560Y-14525407D01*
X28378359Y-14337032D01*
X28435948Y-14134629D01*
X28438983Y-14101866D01*
X28455365Y-13925085D01*
X28440049Y-13759795D01*
X28435948Y-13715540D01*
X28378359Y-13513137D01*
X28284560Y-13324762D01*
X28157739Y-13156824D01*
X28002225Y-13015055D01*
X27823304Y-12904272D01*
X27761257Y-12880235D01*
X27627076Y-12828253D01*
X27420220Y-12789585D01*
X27209780Y-12789585D01*
X27069296Y-12815846D01*
X27002924Y-12828253D01*
X26806695Y-12904272D01*
X26627774Y-13015055D01*
X26472260Y-13156824D01*
X26345439Y-13324762D01*
X26251640Y-13513137D01*
X26194051Y-13715540D01*
X26174635Y-13925085D01*
X102100Y-13925085D01*
X102100Y-12987015D01*
X2460535Y-12987015D01*
X2466944Y-13046629D01*
X2517239Y-13181477D01*
X2603489Y-13296692D01*
X2718704Y-13382942D01*
X2853552Y-13433237D01*
X2913162Y-13439646D01*
X4508905Y-13439645D01*
X4568516Y-13433237D01*
X4703364Y-13382942D01*
X4818579Y-13296692D01*
X4904829Y-13181477D01*
X4955124Y-13046629D01*
X4961533Y-12987019D01*
X4961532Y-12921001D01*
X4977078Y-12860888D01*
X5019821Y-12815846D01*
X5079041Y-12797173D01*
X5139889Y-12809552D01*
X5187106Y-12849879D01*
X5281742Y-12985031D01*
X5289438Y-12996022D01*
X5444159Y-13150743D01*
X5623396Y-13276247D01*
X5821705Y-13368720D01*
X6033058Y-13425352D01*
X6251034Y-13444422D01*
X6469010Y-13425352D01*
X6680363Y-13368720D01*
X6878672Y-13276247D01*
X7057909Y-13150743D01*
X7212630Y-12996022D01*
X7338134Y-12816785D01*
X7430607Y-12618476D01*
X7487239Y-12407123D01*
X7506309Y-12189147D01*
X7487239Y-11971171D01*
X7430607Y-11759818D01*
X7338134Y-11561510D01*
X7212630Y-11382272D01*
X7057909Y-11227551D01*
X6878672Y-11102047D01*
X6772931Y-11052739D01*
X6680364Y-11009574D01*
X6469007Y-10952941D01*
X6251034Y-10933871D01*
X6033060Y-10952941D01*
X5821703Y-11009574D01*
X5670610Y-11080031D01*
X5623397Y-11102047D01*
X5444159Y-11227551D01*
X5444155Y-11227554D01*
X5289441Y-11382268D01*
X5289438Y-11382271D01*
X5289438Y-11382272D01*
X5234291Y-11461031D01*
X5187107Y-11528416D01*
X5139890Y-11568743D01*
X5079042Y-11581122D01*
X5019822Y-11562450D01*
X4977079Y-11517408D01*
X4961532Y-11457292D01*
X4961532Y-11391278D01*
X4960564Y-11382272D01*
X4955124Y-11331665D01*
X4904829Y-11196817D01*
X4818579Y-11081602D01*
X4703364Y-10995352D01*
X4568516Y-10945057D01*
X4508906Y-10938648D01*
X4508902Y-10938648D01*
X2913165Y-10938648D01*
X2853550Y-10945057D01*
X2718704Y-10995352D01*
X2603489Y-11081602D01*
X2517239Y-11196816D01*
X2466944Y-11331663D01*
X2466944Y-11331665D01*
X2461504Y-11382268D01*
X2460535Y-11391278D01*
X2460535Y-12987015D01*
X102100Y-12987015D01*
X102100Y-9591236D01*
X20758999Y-9591236D01*
X20778415Y-9800780D01*
X20836004Y-10003183D01*
X20929803Y-10191558D01*
X21056624Y-10359496D01*
X21212138Y-10501265D01*
X21212140Y-10501266D01*
X21212141Y-10501267D01*
X21391060Y-10612049D01*
X21395975Y-10613953D01*
X21450136Y-10654853D01*
X21474653Y-10718138D01*
X21462182Y-10784851D01*
X21416460Y-10835007D01*
X21293774Y-10910970D01*
X21138260Y-11052739D01*
X21011439Y-11220677D01*
X20917640Y-11409052D01*
X20860051Y-11611455D01*
X20846304Y-11759818D01*
X20840635Y-11821000D01*
X20842042Y-11836192D01*
X20860051Y-12030544D01*
X20917640Y-12232947D01*
X21011439Y-12421322D01*
X21138260Y-12589260D01*
X21293774Y-12731029D01*
X21293776Y-12731030D01*
X21293777Y-12731031D01*
X21472696Y-12841813D01*
X21668924Y-12917832D01*
X21875780Y-12956500D01*
X22086218Y-12956500D01*
X22086220Y-12956500D01*
X22293076Y-12917832D01*
X22489304Y-12841813D01*
X22668223Y-12731031D01*
X22823740Y-12589259D01*
X22950558Y-12421325D01*
X22950558Y-12421323D01*
X22950560Y-12421322D01*
X23044359Y-12232947D01*
X23089299Y-12074999D01*
X44128727Y-12074999D01*
X44148143Y-12284544D01*
X44205732Y-12486947D01*
X44299531Y-12675322D01*
X44426352Y-12843260D01*
X44581866Y-12985029D01*
X44581868Y-12985030D01*
X44581869Y-12985031D01*
X44760788Y-13095813D01*
X44957016Y-13171832D01*
X45163872Y-13210500D01*
X45374310Y-13210500D01*
X45374312Y-13210500D01*
X45581168Y-13171832D01*
X45777396Y-13095813D01*
X45956315Y-12985031D01*
X46111832Y-12843259D01*
X46238650Y-12675325D01*
X46238650Y-12675323D01*
X46238652Y-12675322D01*
X46332451Y-12486947D01*
X46390040Y-12284543D01*
X46394150Y-12240186D01*
X46418667Y-12176900D01*
X46472827Y-12135999D01*
X46540402Y-12129737D01*
X46640780Y-12148501D01*
X46851218Y-12148501D01*
X46851220Y-12148501D01*
X47058076Y-12109833D01*
X47254304Y-12033814D01*
X47433223Y-11923032D01*
X47588740Y-11781260D01*
X47715558Y-11613326D01*
X47715558Y-11613324D01*
X47715560Y-11613323D01*
X47809359Y-11424948D01*
X47866948Y-11222545D01*
X47873547Y-11151325D01*
X47886365Y-11013001D01*
X47866948Y-10803459D01*
X47866948Y-10803456D01*
X47809359Y-10601053D01*
X47784436Y-10551000D01*
X54749635Y-10551000D01*
X54769051Y-10760544D01*
X54826640Y-10962947D01*
X54920439Y-11151322D01*
X55047260Y-11319260D01*
X55202774Y-11461029D01*
X55202776Y-11461030D01*
X55202777Y-11461031D01*
X55381696Y-11571813D01*
X55577924Y-11647832D01*
X55784780Y-11686500D01*
X55995218Y-11686500D01*
X55995220Y-11686500D01*
X56202076Y-11647832D01*
X56398304Y-11571813D01*
X56577223Y-11461031D01*
X56732740Y-11319259D01*
X56859558Y-11151325D01*
X56859558Y-11151323D01*
X56859560Y-11151322D01*
X56953359Y-10962947D01*
X57010948Y-10760544D01*
X57017664Y-10688068D01*
X57030365Y-10551000D01*
X57014477Y-10379542D01*
X57010948Y-10341455D01*
X56953359Y-10139052D01*
X56859560Y-9950677D01*
X56732739Y-9782739D01*
X56577225Y-9640970D01*
X56398304Y-9530187D01*
X56202076Y-9454168D01*
X55995220Y-9415500D01*
X55784780Y-9415500D01*
X55577924Y-9454167D01*
X55577924Y-9454168D01*
X55381695Y-9530187D01*
X55202774Y-9640970D01*
X55047260Y-9782739D01*
X54920439Y-9950677D01*
X54826640Y-10139052D01*
X54769051Y-10341455D01*
X54749635Y-10551000D01*
X47784436Y-10551000D01*
X47715560Y-10412678D01*
X47588739Y-10244740D01*
X47433225Y-10102971D01*
X47254304Y-9992188D01*
X47172399Y-9960458D01*
X47058076Y-9916169D01*
X46851220Y-9877501D01*
X46640780Y-9877501D01*
X46433924Y-9916168D01*
X46433924Y-9916169D01*
X46237695Y-9992188D01*
X46058774Y-10102971D01*
X45903260Y-10244740D01*
X45776439Y-10412678D01*
X45682640Y-10601053D01*
X45625051Y-10803456D01*
X45620941Y-10847816D01*
X45596424Y-10911101D01*
X45542264Y-10952001D01*
X45474685Y-10958263D01*
X45374312Y-10939500D01*
X45163872Y-10939500D01*
X44957016Y-10978167D01*
X44957016Y-10978168D01*
X44760787Y-11054187D01*
X44581866Y-11164970D01*
X44426352Y-11306739D01*
X44299531Y-11474677D01*
X44205732Y-11663052D01*
X44148143Y-11865455D01*
X44128727Y-12074999D01*
X23089299Y-12074999D01*
X23101948Y-12030544D01*
X23104763Y-12000156D01*
X23121365Y-11821000D01*
X23105319Y-11647832D01*
X23101948Y-11611455D01*
X23044359Y-11409052D01*
X22950560Y-11220677D01*
X22823739Y-11052739D01*
X22668225Y-10910970D01*
X22494588Y-10803459D01*
X22489304Y-10800187D01*
X22489303Y-10800186D01*
X22489299Y-10800184D01*
X22484384Y-10798280D01*
X22430225Y-10757379D01*
X22405710Y-10694094D01*
X22418181Y-10627382D01*
X22463901Y-10577230D01*
X22586587Y-10501267D01*
X22742104Y-10359495D01*
X22868922Y-10191561D01*
X22868922Y-10191559D01*
X22868924Y-10191558D01*
X22879659Y-10169999D01*
X34048635Y-10169999D01*
X34068051Y-10379544D01*
X34125640Y-10581947D01*
X34219439Y-10770322D01*
X34346260Y-10938260D01*
X34501774Y-11080029D01*
X34501776Y-11080030D01*
X34501777Y-11080031D01*
X34680696Y-11190813D01*
X34876924Y-11266832D01*
X35083780Y-11305500D01*
X35294218Y-11305500D01*
X35294220Y-11305500D01*
X35501076Y-11266832D01*
X35697304Y-11190813D01*
X35876223Y-11080031D01*
X35987962Y-10978168D01*
X36031739Y-10938260D01*
X36035053Y-10933872D01*
X36158558Y-10770325D01*
X36158558Y-10770323D01*
X36158560Y-10770322D01*
X36252359Y-10581947D01*
X36309948Y-10379544D01*
X36313477Y-10341455D01*
X36329365Y-10170000D01*
X36309948Y-9960458D01*
X36309948Y-9960455D01*
X36252359Y-9758052D01*
X36158560Y-9569677D01*
X36031739Y-9401739D01*
X35876225Y-9259970D01*
X35697304Y-9149187D01*
X35525456Y-9082613D01*
X35501076Y-9073168D01*
X35294220Y-9034500D01*
X35083780Y-9034500D01*
X34876923Y-9073168D01*
X34876924Y-9073168D01*
X34680695Y-9149187D01*
X34501774Y-9259970D01*
X34346260Y-9401739D01*
X34219439Y-9569677D01*
X34125640Y-9758052D01*
X34068051Y-9960455D01*
X34048635Y-10169999D01*
X22879659Y-10169999D01*
X22962723Y-10003183D01*
X23020312Y-9800780D01*
X23035120Y-9640970D01*
X23039729Y-9591236D01*
X23022170Y-9401741D01*
X23020312Y-9381691D01*
X22962723Y-9179288D01*
X22868924Y-8990913D01*
X22742103Y-8822975D01*
X22586589Y-8681206D01*
X22407668Y-8570423D01*
X22211440Y-8494404D01*
X22004584Y-8455736D01*
X21794144Y-8455736D01*
X21587288Y-8494403D01*
X21587288Y-8494404D01*
X21391059Y-8570423D01*
X21212138Y-8681206D01*
X21056624Y-8822975D01*
X20929803Y-8990913D01*
X20836004Y-9179288D01*
X20778415Y-9381691D01*
X20758999Y-9591236D01*
X102100Y-9591236D01*
X102100Y-4627771D01*
X951153Y-4627771D01*
X970904Y-5004645D01*
X1029939Y-5377382D01*
X1127615Y-5741914D01*
X1262861Y-6094240D01*
X1434190Y-6430495D01*
X1639729Y-6746996D01*
X1639732Y-6747000D01*
X1877231Y-7040286D01*
X2144085Y-7307140D01*
X2437371Y-7544639D01*
X2437373Y-7544640D01*
X2437374Y-7544641D01*
X2753875Y-7750180D01*
X2904365Y-7826858D01*
X3090133Y-7921511D01*
X3442456Y-8056755D01*
X3806988Y-8154431D01*
X3993356Y-8183948D01*
X4179728Y-8213467D01*
X4556600Y-8233218D01*
X4933472Y-8213467D01*
X5176083Y-8175040D01*
X5306211Y-8154431D01*
X5306215Y-8154430D01*
X5670744Y-8056755D01*
X6023067Y-7921511D01*
X6359324Y-7750180D01*
X6675829Y-7544639D01*
X6969115Y-7307140D01*
X7235969Y-7040286D01*
X7473468Y-6747000D01*
X7679009Y-6430495D01*
X7850340Y-6094238D01*
X7936330Y-5870223D01*
X7977124Y-5815892D01*
X8040424Y-5791212D01*
X8107229Y-5803594D01*
X8157481Y-5849319D01*
X8176094Y-5914662D01*
X8176094Y-6695639D01*
X8182503Y-6755254D01*
X8186098Y-6764893D01*
X8232798Y-6890101D01*
X8319048Y-7005316D01*
X8434263Y-7091566D01*
X8569111Y-7141861D01*
X8628721Y-7148270D01*
X10224464Y-7148269D01*
X10284075Y-7141861D01*
X10418923Y-7091566D01*
X10534138Y-7005316D01*
X10620388Y-6890101D01*
X10670683Y-6755253D01*
X10677092Y-6695643D01*
X10677091Y-6629625D01*
X10692637Y-6569512D01*
X10735380Y-6524470D01*
X10794600Y-6505797D01*
X10855448Y-6518176D01*
X10902665Y-6558503D01*
X10910374Y-6569512D01*
X11004997Y-6704646D01*
X11159718Y-6859367D01*
X11338955Y-6984871D01*
X11537264Y-7077344D01*
X11748617Y-7133976D01*
X11966593Y-7153046D01*
X12184569Y-7133976D01*
X12395922Y-7077344D01*
X12594231Y-6984871D01*
X12773468Y-6859367D01*
X12928189Y-6704646D01*
X13053693Y-6525409D01*
X13124211Y-6374181D01*
X13169968Y-6322006D01*
X13236593Y-6302587D01*
X13303218Y-6322006D01*
X13348974Y-6374181D01*
X13419493Y-6525409D01*
X13544997Y-6704646D01*
X13699718Y-6859367D01*
X13878955Y-6984871D01*
X14077264Y-7077344D01*
X14288617Y-7133976D01*
X14506593Y-7153046D01*
X14724569Y-7133976D01*
X14935922Y-7077344D01*
X15134231Y-6984871D01*
X15313468Y-6859367D01*
X15468189Y-6704646D01*
X15593693Y-6525409D01*
X15664211Y-6374181D01*
X15709968Y-6322006D01*
X15776593Y-6302587D01*
X15843218Y-6322006D01*
X15888974Y-6374181D01*
X15959493Y-6525409D01*
X16084997Y-6704646D01*
X16239718Y-6859367D01*
X16418955Y-6984871D01*
X16617264Y-7077344D01*
X16828617Y-7133976D01*
X17046593Y-7153046D01*
X17264569Y-7133976D01*
X17475922Y-7077344D01*
X17674231Y-6984871D01*
X17853468Y-6859367D01*
X18008189Y-6704646D01*
X18133693Y-6525409D01*
X18204211Y-6374181D01*
X18249968Y-6322006D01*
X18316593Y-6302587D01*
X18383218Y-6322006D01*
X18428974Y-6374181D01*
X18499493Y-6525409D01*
X18624997Y-6704646D01*
X18779718Y-6859367D01*
X18958955Y-6984871D01*
X19157264Y-7077344D01*
X19368617Y-7133976D01*
X19586593Y-7153046D01*
X19804569Y-7133976D01*
X20015922Y-7077344D01*
X20214231Y-6984871D01*
X20393468Y-6859367D01*
X20548189Y-6704646D01*
X20673693Y-6525409D01*
X20744211Y-6374181D01*
X20789968Y-6322006D01*
X20856593Y-6302587D01*
X20923218Y-6322006D01*
X20968974Y-6374181D01*
X21039493Y-6525409D01*
X21164997Y-6704646D01*
X21319718Y-6859367D01*
X21498955Y-6984871D01*
X21697264Y-7077344D01*
X21908617Y-7133976D01*
X22126593Y-7153046D01*
X22344569Y-7133976D01*
X22555922Y-7077344D01*
X22754231Y-6984871D01*
X22933468Y-6859367D01*
X23088189Y-6704646D01*
X23213693Y-6525409D01*
X23284211Y-6374181D01*
X23329968Y-6322006D01*
X23396593Y-6302587D01*
X23463218Y-6322006D01*
X23508974Y-6374181D01*
X23579493Y-6525409D01*
X23704997Y-6704646D01*
X23859718Y-6859367D01*
X24038955Y-6984871D01*
X24237264Y-7077344D01*
X24448617Y-7133976D01*
X24666593Y-7153046D01*
X24884569Y-7133976D01*
X25095922Y-7077344D01*
X25294231Y-6984871D01*
X25473468Y-6859367D01*
X25628189Y-6704646D01*
X25753693Y-6525409D01*
X25824211Y-6374181D01*
X25869968Y-6322006D01*
X25936593Y-6302587D01*
X26003218Y-6322006D01*
X26048974Y-6374181D01*
X26119493Y-6525409D01*
X26244997Y-6704646D01*
X26399718Y-6859367D01*
X26578955Y-6984871D01*
X26777264Y-7077344D01*
X26988617Y-7133976D01*
X27206593Y-7153046D01*
X27424569Y-7133976D01*
X27635922Y-7077344D01*
X27834231Y-6984871D01*
X28013468Y-6859367D01*
X28168189Y-6704646D01*
X28293693Y-6525409D01*
X28364211Y-6374181D01*
X28409968Y-6322006D01*
X28476593Y-6302587D01*
X28543218Y-6322006D01*
X28588974Y-6374181D01*
X28659493Y-6525409D01*
X28784997Y-6704646D01*
X28939718Y-6859367D01*
X29118955Y-6984871D01*
X29317264Y-7077344D01*
X29528617Y-7133976D01*
X29746593Y-7153046D01*
X29964569Y-7133976D01*
X30175922Y-7077344D01*
X30374231Y-6984871D01*
X30553468Y-6859367D01*
X30708189Y-6704646D01*
X30833693Y-6525409D01*
X30904211Y-6374181D01*
X30949968Y-6322006D01*
X31016593Y-6302587D01*
X31083218Y-6322006D01*
X31128974Y-6374181D01*
X31199493Y-6525409D01*
X31324997Y-6704646D01*
X31479718Y-6859367D01*
X31658955Y-6984871D01*
X31857264Y-7077344D01*
X32068617Y-7133976D01*
X32286593Y-7153046D01*
X32504569Y-7133976D01*
X32715922Y-7077344D01*
X32914231Y-6984871D01*
X33093468Y-6859367D01*
X33248189Y-6704646D01*
X33373693Y-6525409D01*
X33444211Y-6374181D01*
X33489968Y-6322006D01*
X33556593Y-6302587D01*
X33623218Y-6322006D01*
X33668974Y-6374181D01*
X33739493Y-6525409D01*
X33864997Y-6704646D01*
X34019718Y-6859367D01*
X34198955Y-6984871D01*
X34397264Y-7077344D01*
X34608617Y-7133976D01*
X34826593Y-7153046D01*
X35044569Y-7133976D01*
X35255922Y-7077344D01*
X35454231Y-6984871D01*
X35633468Y-6859367D01*
X35788189Y-6704646D01*
X35913693Y-6525409D01*
X35984211Y-6374181D01*
X36029968Y-6322006D01*
X36096593Y-6302587D01*
X36163218Y-6322006D01*
X36208974Y-6374181D01*
X36279493Y-6525409D01*
X36404997Y-6704646D01*
X36559718Y-6859367D01*
X36738955Y-6984871D01*
X36937264Y-7077344D01*
X37148617Y-7133976D01*
X37366593Y-7153046D01*
X37584569Y-7133976D01*
X37795922Y-7077344D01*
X37994231Y-6984871D01*
X38173468Y-6859367D01*
X38328189Y-6704646D01*
X38453693Y-6525409D01*
X38524211Y-6374181D01*
X38569968Y-6322006D01*
X38636593Y-6302587D01*
X38703218Y-6322006D01*
X38748974Y-6374181D01*
X38819493Y-6525409D01*
X38944997Y-6704646D01*
X39099718Y-6859367D01*
X39278955Y-6984871D01*
X39477264Y-7077344D01*
X39688617Y-7133976D01*
X39906593Y-7153046D01*
X40124569Y-7133976D01*
X40335922Y-7077344D01*
X40534231Y-6984871D01*
X40713468Y-6859367D01*
X40868189Y-6704646D01*
X40993693Y-6525409D01*
X41064211Y-6374181D01*
X41109968Y-6322006D01*
X41176593Y-6302587D01*
X41243218Y-6322006D01*
X41288974Y-6374181D01*
X41359493Y-6525409D01*
X41484997Y-6704646D01*
X41639718Y-6859367D01*
X41818955Y-6984871D01*
X42017264Y-7077344D01*
X42228617Y-7133976D01*
X42446593Y-7153046D01*
X42664569Y-7133976D01*
X42875922Y-7077344D01*
X43074231Y-6984871D01*
X43253468Y-6859367D01*
X43408189Y-6704646D01*
X43533693Y-6525409D01*
X43604211Y-6374181D01*
X43649968Y-6322006D01*
X43716593Y-6302587D01*
X43783218Y-6322006D01*
X43828974Y-6374181D01*
X43899493Y-6525409D01*
X44024997Y-6704646D01*
X44179718Y-6859367D01*
X44358955Y-6984871D01*
X44557264Y-7077344D01*
X44768617Y-7133976D01*
X44986593Y-7153046D01*
X45204569Y-7133976D01*
X45415922Y-7077344D01*
X45614231Y-6984871D01*
X45793468Y-6859367D01*
X45948189Y-6704646D01*
X46073693Y-6525409D01*
X46144211Y-6374181D01*
X46189968Y-6322006D01*
X46256593Y-6302587D01*
X46323218Y-6322006D01*
X46368974Y-6374181D01*
X46439493Y-6525409D01*
X46564997Y-6704646D01*
X46719718Y-6859367D01*
X46898955Y-6984871D01*
X47097264Y-7077344D01*
X47308617Y-7133976D01*
X47526593Y-7153046D01*
X47744569Y-7133976D01*
X47955922Y-7077344D01*
X48154231Y-6984871D01*
X48333468Y-6859367D01*
X48488189Y-6704646D01*
X48613693Y-6525409D01*
X48684211Y-6374181D01*
X48729968Y-6322006D01*
X48796593Y-6302587D01*
X48863218Y-6322006D01*
X48908974Y-6374181D01*
X48979493Y-6525409D01*
X49104997Y-6704646D01*
X49259718Y-6859367D01*
X49438955Y-6984871D01*
X49637264Y-7077344D01*
X49848617Y-7133976D01*
X50066593Y-7153046D01*
X50284569Y-7133976D01*
X50334063Y-7120713D01*
X50394917Y-7119870D01*
X50448843Y-7148083D01*
X50482851Y-7198557D01*
X50488747Y-7259132D01*
X50465110Y-7315216D01*
X50373839Y-7436077D01*
X50280040Y-7624452D01*
X50222451Y-7826855D01*
X50203035Y-8036399D01*
X50222451Y-8245944D01*
X50280040Y-8448347D01*
X50373839Y-8636722D01*
X50500660Y-8804660D01*
X50656174Y-8946429D01*
X50656176Y-8946430D01*
X50656177Y-8946431D01*
X50835096Y-9057213D01*
X51031324Y-9133232D01*
X51238180Y-9171900D01*
X51448618Y-9171900D01*
X51448620Y-9171900D01*
X51655476Y-9133232D01*
X51851704Y-9057213D01*
X51888387Y-9034500D01*
X52023479Y-8950855D01*
X52073518Y-8933222D01*
X52126347Y-8938117D01*
X52172293Y-8964643D01*
X52180177Y-8971831D01*
X52359096Y-9082613D01*
X52555324Y-9158632D01*
X52762180Y-9197300D01*
X52972618Y-9197300D01*
X52972620Y-9197300D01*
X53179476Y-9158632D01*
X53375704Y-9082613D01*
X53554623Y-8971831D01*
X53710140Y-8830059D01*
X53836958Y-8662125D01*
X53836958Y-8662123D01*
X53836960Y-8662122D01*
X53930759Y-8473747D01*
X53988348Y-8271344D01*
X53999181Y-8154431D01*
X54007765Y-8061800D01*
X53988348Y-7852258D01*
X53988348Y-7852255D01*
X53930759Y-7649852D01*
X53836960Y-7461477D01*
X53710139Y-7293539D01*
X53554625Y-7151770D01*
X53418085Y-7067228D01*
X53375896Y-7023662D01*
X53359412Y-6965299D01*
X53372578Y-6906099D01*
X53406094Y-6867335D01*
X53405797Y-6867038D01*
X53409893Y-6862941D01*
X53412241Y-6860225D01*
X53413468Y-6859367D01*
X53568189Y-6704646D01*
X53693693Y-6525409D01*
X53764211Y-6374181D01*
X53809968Y-6322006D01*
X53876593Y-6302587D01*
X53943218Y-6322006D01*
X53988974Y-6374181D01*
X54059493Y-6525409D01*
X54184997Y-6704646D01*
X54339718Y-6859367D01*
X54518955Y-6984871D01*
X54717264Y-7077344D01*
X54928617Y-7133976D01*
X55073934Y-7146689D01*
X55146592Y-7153046D01*
X55146592Y-7153045D01*
X55146593Y-7153046D01*
X55364569Y-7133976D01*
X55575922Y-7077344D01*
X55774231Y-6984871D01*
X55953468Y-6859367D01*
X56108189Y-6704646D01*
X56233693Y-6525409D01*
X56304211Y-6374181D01*
X56349968Y-6322006D01*
X56416593Y-6302587D01*
X56483218Y-6322006D01*
X56528974Y-6374181D01*
X56599493Y-6525409D01*
X56724997Y-6704646D01*
X56879718Y-6859367D01*
X57058955Y-6984871D01*
X57257264Y-7077344D01*
X57468617Y-7133976D01*
X57613934Y-7146689D01*
X57686592Y-7153046D01*
X57686592Y-7153045D01*
X57686593Y-7153046D01*
X57904569Y-7133976D01*
X58115922Y-7077344D01*
X58314231Y-6984871D01*
X58493468Y-6859367D01*
X58648189Y-6704646D01*
X58773693Y-6525409D01*
X58866166Y-6327100D01*
X58922798Y-6115747D01*
X58940635Y-5911858D01*
X58963591Y-5850132D01*
X59014916Y-5808865D01*
X59080133Y-5799699D01*
X59140845Y-5825219D01*
X59179927Y-5878228D01*
X59262847Y-6094240D01*
X59434176Y-6430495D01*
X59639715Y-6746996D01*
X59639718Y-6747000D01*
X59877217Y-7040286D01*
X60144071Y-7307140D01*
X60437357Y-7544639D01*
X60437359Y-7544640D01*
X60437360Y-7544641D01*
X60753861Y-7750180D01*
X60904351Y-7826858D01*
X61090119Y-7921511D01*
X61442442Y-8056755D01*
X61806974Y-8154431D01*
X61993342Y-8183948D01*
X62179714Y-8213467D01*
X62556586Y-8233218D01*
X62933458Y-8213467D01*
X63176069Y-8175040D01*
X63306197Y-8154431D01*
X63306201Y-8154430D01*
X63670730Y-8056755D01*
X64023053Y-7921511D01*
X64359310Y-7750180D01*
X64675815Y-7544639D01*
X64969101Y-7307140D01*
X65235955Y-7040286D01*
X65473454Y-6747000D01*
X65678995Y-6430495D01*
X65850326Y-6094238D01*
X65985570Y-5741915D01*
X66083245Y-5377386D01*
X66093332Y-5313703D01*
X66107217Y-5226032D01*
X66142282Y-5004643D01*
X66162033Y-4627771D01*
X66142282Y-4250899D01*
X66103773Y-4007766D01*
X66083246Y-3878159D01*
X65985570Y-3513627D01*
X65850326Y-3161304D01*
X65678993Y-2825043D01*
X65473456Y-2508545D01*
X65382463Y-2396178D01*
X65235955Y-2215256D01*
X64969101Y-1948402D01*
X64675815Y-1710903D01*
X64675813Y-1710902D01*
X64675811Y-1710900D01*
X64359310Y-1505361D01*
X64023055Y-1334032D01*
X64023054Y-1334031D01*
X64023053Y-1334031D01*
X63926597Y-1297005D01*
X63670729Y-1198786D01*
X63306197Y-1101110D01*
X62933460Y-1042075D01*
X62556586Y-1022324D01*
X62179711Y-1042075D01*
X61806974Y-1101110D01*
X61442442Y-1198786D01*
X61090119Y-1334030D01*
X60753858Y-1505363D01*
X60437360Y-1710900D01*
X60144067Y-1948405D01*
X59877220Y-2215252D01*
X59639715Y-2508545D01*
X59434178Y-2825043D01*
X59262845Y-3161304D01*
X59179927Y-3377313D01*
X59140845Y-3430322D01*
X59080133Y-3455842D01*
X59014916Y-3446676D01*
X58963591Y-3405409D01*
X58940635Y-3343682D01*
X58922798Y-3139797D01*
X58922798Y-3139795D01*
X58866166Y-2928442D01*
X58773693Y-2730134D01*
X58648189Y-2550896D01*
X58493468Y-2396175D01*
X58314231Y-2270671D01*
X58195385Y-2215252D01*
X58115923Y-2178198D01*
X57904566Y-2121565D01*
X57686593Y-2102495D01*
X57468619Y-2121565D01*
X57257262Y-2178198D01*
X57058958Y-2270670D01*
X57058956Y-2270671D01*
X56996152Y-2314647D01*
X56879714Y-2396178D01*
X56725000Y-2550892D01*
X56724997Y-2550895D01*
X56724997Y-2550896D01*
X56642861Y-2668199D01*
X56599492Y-2730136D01*
X56528975Y-2881359D01*
X56483218Y-2933535D01*
X56416593Y-2952954D01*
X56349968Y-2933535D01*
X56304211Y-2881359D01*
X56277950Y-2825043D01*
X56233693Y-2730134D01*
X56108189Y-2550896D01*
X55953468Y-2396175D01*
X55774231Y-2270671D01*
X55655385Y-2215252D01*
X55575923Y-2178198D01*
X55364566Y-2121565D01*
X55146593Y-2102495D01*
X54928619Y-2121565D01*
X54717262Y-2178198D01*
X54518958Y-2270670D01*
X54518956Y-2270671D01*
X54456152Y-2314647D01*
X54339714Y-2396178D01*
X54185000Y-2550892D01*
X54184997Y-2550895D01*
X54184997Y-2550896D01*
X54102861Y-2668199D01*
X54059492Y-2730136D01*
X53988975Y-2881359D01*
X53943218Y-2933535D01*
X53876593Y-2952954D01*
X53809968Y-2933535D01*
X53764211Y-2881359D01*
X53737950Y-2825043D01*
X53693693Y-2730134D01*
X53568189Y-2550896D01*
X53413468Y-2396175D01*
X53234231Y-2270671D01*
X53115385Y-2215252D01*
X53035923Y-2178198D01*
X52824566Y-2121565D01*
X52606593Y-2102495D01*
X52388619Y-2121565D01*
X52177262Y-2178198D01*
X51978958Y-2270670D01*
X51978956Y-2270671D01*
X51916152Y-2314647D01*
X51799714Y-2396178D01*
X51645000Y-2550892D01*
X51644997Y-2550895D01*
X51644997Y-2550896D01*
X51562861Y-2668199D01*
X51519492Y-2730136D01*
X51448975Y-2881359D01*
X51403218Y-2933535D01*
X51336593Y-2952954D01*
X51269968Y-2933535D01*
X51224211Y-2881359D01*
X51197950Y-2825043D01*
X51153693Y-2730134D01*
X51028189Y-2550896D01*
X50873468Y-2396175D01*
X50694231Y-2270671D01*
X50575385Y-2215252D01*
X50495923Y-2178198D01*
X50284566Y-2121565D01*
X50066593Y-2102495D01*
X49848619Y-2121565D01*
X49637262Y-2178198D01*
X49438958Y-2270670D01*
X49438956Y-2270671D01*
X49376152Y-2314647D01*
X49259714Y-2396178D01*
X49105000Y-2550892D01*
X49104997Y-2550895D01*
X49104997Y-2550896D01*
X49022861Y-2668199D01*
X48979492Y-2730136D01*
X48908975Y-2881359D01*
X48863218Y-2933535D01*
X48796593Y-2952954D01*
X48729968Y-2933535D01*
X48684211Y-2881359D01*
X48657950Y-2825043D01*
X48613693Y-2730134D01*
X48488189Y-2550896D01*
X48333468Y-2396175D01*
X48154231Y-2270671D01*
X48035385Y-2215252D01*
X47955923Y-2178198D01*
X47744566Y-2121565D01*
X47526593Y-2102495D01*
X47308619Y-2121565D01*
X47097262Y-2178198D01*
X46898958Y-2270670D01*
X46898956Y-2270671D01*
X46836152Y-2314647D01*
X46719714Y-2396178D01*
X46565000Y-2550892D01*
X46564997Y-2550895D01*
X46564997Y-2550896D01*
X46482861Y-2668199D01*
X46439492Y-2730136D01*
X46368975Y-2881359D01*
X46323218Y-2933535D01*
X46256593Y-2952954D01*
X46189968Y-2933535D01*
X46144211Y-2881359D01*
X46117950Y-2825043D01*
X46073693Y-2730134D01*
X45948189Y-2550896D01*
X45793468Y-2396175D01*
X45614231Y-2270671D01*
X45495385Y-2215252D01*
X45415923Y-2178198D01*
X45204566Y-2121565D01*
X44986593Y-2102495D01*
X44768619Y-2121565D01*
X44557262Y-2178198D01*
X44358958Y-2270670D01*
X44358956Y-2270671D01*
X44296152Y-2314647D01*
X44179714Y-2396178D01*
X44025000Y-2550892D01*
X44024997Y-2550895D01*
X44024997Y-2550896D01*
X43942861Y-2668199D01*
X43899492Y-2730136D01*
X43828975Y-2881359D01*
X43783218Y-2933535D01*
X43716593Y-2952954D01*
X43649968Y-2933535D01*
X43604211Y-2881359D01*
X43577950Y-2825043D01*
X43533693Y-2730134D01*
X43408189Y-2550896D01*
X43253468Y-2396175D01*
X43074231Y-2270671D01*
X42955385Y-2215252D01*
X42875923Y-2178198D01*
X42664566Y-2121565D01*
X42446593Y-2102495D01*
X42228619Y-2121565D01*
X42017262Y-2178198D01*
X41818958Y-2270670D01*
X41818956Y-2270671D01*
X41756152Y-2314647D01*
X41639714Y-2396178D01*
X41485000Y-2550892D01*
X41484997Y-2550895D01*
X41484997Y-2550896D01*
X41402861Y-2668199D01*
X41359492Y-2730136D01*
X41288975Y-2881359D01*
X41243218Y-2933535D01*
X41176593Y-2952954D01*
X41109968Y-2933535D01*
X41064211Y-2881359D01*
X41037950Y-2825043D01*
X40993693Y-2730134D01*
X40868189Y-2550896D01*
X40713468Y-2396175D01*
X40534231Y-2270671D01*
X40415385Y-2215252D01*
X40335923Y-2178198D01*
X40124566Y-2121565D01*
X39906593Y-2102495D01*
X39688619Y-2121565D01*
X39477262Y-2178198D01*
X39278958Y-2270670D01*
X39278956Y-2270671D01*
X39216152Y-2314647D01*
X39099714Y-2396178D01*
X38945000Y-2550892D01*
X38944997Y-2550895D01*
X38944997Y-2550896D01*
X38862861Y-2668199D01*
X38819492Y-2730136D01*
X38748975Y-2881359D01*
X38703218Y-2933535D01*
X38636593Y-2952954D01*
X38569968Y-2933535D01*
X38524211Y-2881359D01*
X38497950Y-2825043D01*
X38453693Y-2730134D01*
X38328189Y-2550896D01*
X38173468Y-2396175D01*
X37994231Y-2270671D01*
X37875385Y-2215252D01*
X37795923Y-2178198D01*
X37584566Y-2121565D01*
X37366593Y-2102495D01*
X37148619Y-2121565D01*
X36937262Y-2178198D01*
X36738958Y-2270670D01*
X36738956Y-2270671D01*
X36676152Y-2314647D01*
X36559714Y-2396178D01*
X36405000Y-2550892D01*
X36404997Y-2550895D01*
X36404997Y-2550896D01*
X36322861Y-2668199D01*
X36279492Y-2730136D01*
X36208975Y-2881359D01*
X36163218Y-2933535D01*
X36096593Y-2952954D01*
X36029968Y-2933535D01*
X35984211Y-2881359D01*
X35957950Y-2825043D01*
X35913693Y-2730134D01*
X35788189Y-2550896D01*
X35633468Y-2396175D01*
X35454231Y-2270671D01*
X35335385Y-2215252D01*
X35255923Y-2178198D01*
X35044566Y-2121565D01*
X34826593Y-2102495D01*
X34608619Y-2121565D01*
X34397262Y-2178198D01*
X34198958Y-2270670D01*
X34198956Y-2270671D01*
X34136152Y-2314647D01*
X34019714Y-2396178D01*
X33865000Y-2550892D01*
X33864997Y-2550895D01*
X33864997Y-2550896D01*
X33782861Y-2668199D01*
X33739492Y-2730136D01*
X33668975Y-2881359D01*
X33623218Y-2933535D01*
X33556593Y-2952954D01*
X33489968Y-2933535D01*
X33444211Y-2881359D01*
X33417950Y-2825043D01*
X33373693Y-2730134D01*
X33248189Y-2550896D01*
X33093468Y-2396175D01*
X32914231Y-2270671D01*
X32795385Y-2215252D01*
X32715923Y-2178198D01*
X32504566Y-2121565D01*
X32286592Y-2102495D01*
X32068619Y-2121565D01*
X31857262Y-2178198D01*
X31658958Y-2270670D01*
X31658956Y-2270671D01*
X31596152Y-2314647D01*
X31479714Y-2396178D01*
X31325000Y-2550892D01*
X31324997Y-2550895D01*
X31324997Y-2550896D01*
X31242861Y-2668199D01*
X31199492Y-2730136D01*
X31128975Y-2881359D01*
X31083218Y-2933535D01*
X31016593Y-2952954D01*
X30949968Y-2933535D01*
X30904211Y-2881359D01*
X30877950Y-2825043D01*
X30833693Y-2730134D01*
X30708189Y-2550896D01*
X30553468Y-2396175D01*
X30374231Y-2270671D01*
X30255385Y-2215252D01*
X30175923Y-2178198D01*
X29964566Y-2121565D01*
X29746592Y-2102495D01*
X29528619Y-2121565D01*
X29317262Y-2178198D01*
X29118958Y-2270670D01*
X29118956Y-2270671D01*
X29056152Y-2314647D01*
X28939714Y-2396178D01*
X28785000Y-2550892D01*
X28784997Y-2550895D01*
X28784997Y-2550896D01*
X28702861Y-2668199D01*
X28659492Y-2730136D01*
X28588975Y-2881359D01*
X28543218Y-2933535D01*
X28476593Y-2952954D01*
X28409968Y-2933535D01*
X28364211Y-2881359D01*
X28337950Y-2825043D01*
X28293693Y-2730134D01*
X28168189Y-2550896D01*
X28013468Y-2396175D01*
X27834231Y-2270671D01*
X27715385Y-2215252D01*
X27635923Y-2178198D01*
X27424566Y-2121565D01*
X27206592Y-2102495D01*
X26988619Y-2121565D01*
X26777262Y-2178198D01*
X26578958Y-2270670D01*
X26578956Y-2270671D01*
X26516152Y-2314647D01*
X26399714Y-2396178D01*
X26245000Y-2550892D01*
X26244997Y-2550895D01*
X26244997Y-2550896D01*
X26162861Y-2668199D01*
X26119492Y-2730136D01*
X26048975Y-2881359D01*
X26003218Y-2933535D01*
X25936593Y-2952954D01*
X25869968Y-2933535D01*
X25824211Y-2881359D01*
X25797950Y-2825043D01*
X25753693Y-2730134D01*
X25628189Y-2550896D01*
X25473468Y-2396175D01*
X25294231Y-2270671D01*
X25175385Y-2215252D01*
X25095923Y-2178198D01*
X24884566Y-2121565D01*
X24666592Y-2102495D01*
X24448619Y-2121565D01*
X24237262Y-2178198D01*
X24038958Y-2270670D01*
X24038956Y-2270671D01*
X23976152Y-2314647D01*
X23859714Y-2396178D01*
X23705000Y-2550892D01*
X23704997Y-2550895D01*
X23704997Y-2550896D01*
X23622861Y-2668199D01*
X23579492Y-2730136D01*
X23508975Y-2881359D01*
X23463218Y-2933535D01*
X23396593Y-2952954D01*
X23329968Y-2933535D01*
X23284211Y-2881359D01*
X23257950Y-2825043D01*
X23213693Y-2730134D01*
X23088189Y-2550896D01*
X22933468Y-2396175D01*
X22754231Y-2270671D01*
X22635385Y-2215252D01*
X22555923Y-2178198D01*
X22344566Y-2121565D01*
X22126592Y-2102495D01*
X21908619Y-2121565D01*
X21697262Y-2178198D01*
X21498958Y-2270670D01*
X21498956Y-2270671D01*
X21436152Y-2314647D01*
X21319714Y-2396178D01*
X21165000Y-2550892D01*
X21164997Y-2550895D01*
X21164997Y-2550896D01*
X21082861Y-2668199D01*
X21039492Y-2730136D01*
X20968975Y-2881359D01*
X20923218Y-2933535D01*
X20856593Y-2952954D01*
X20789968Y-2933535D01*
X20744211Y-2881359D01*
X20717950Y-2825043D01*
X20673693Y-2730134D01*
X20548189Y-2550896D01*
X20393468Y-2396175D01*
X20214231Y-2270671D01*
X20095385Y-2215252D01*
X20015923Y-2178198D01*
X19804566Y-2121565D01*
X19586592Y-2102495D01*
X19368619Y-2121565D01*
X19157262Y-2178198D01*
X18958958Y-2270670D01*
X18958956Y-2270671D01*
X18896152Y-2314647D01*
X18779714Y-2396178D01*
X18625000Y-2550892D01*
X18624997Y-2550895D01*
X18624997Y-2550896D01*
X18542861Y-2668199D01*
X18499492Y-2730136D01*
X18428975Y-2881359D01*
X18383218Y-2933535D01*
X18316593Y-2952954D01*
X18249968Y-2933535D01*
X18204211Y-2881359D01*
X18177950Y-2825043D01*
X18133693Y-2730134D01*
X18008189Y-2550896D01*
X17853468Y-2396175D01*
X17674231Y-2270671D01*
X17555385Y-2215252D01*
X17475923Y-2178198D01*
X17264566Y-2121565D01*
X17046592Y-2102495D01*
X16828619Y-2121565D01*
X16617262Y-2178198D01*
X16418958Y-2270670D01*
X16418956Y-2270671D01*
X16356152Y-2314647D01*
X16239714Y-2396178D01*
X16085000Y-2550892D01*
X16084997Y-2550895D01*
X16084997Y-2550896D01*
X16002861Y-2668199D01*
X15959492Y-2730136D01*
X15888975Y-2881359D01*
X15843218Y-2933535D01*
X15776593Y-2952954D01*
X15709968Y-2933535D01*
X15664211Y-2881359D01*
X15637950Y-2825043D01*
X15593693Y-2730134D01*
X15468189Y-2550896D01*
X15313468Y-2396175D01*
X15134231Y-2270671D01*
X15015385Y-2215252D01*
X14935923Y-2178198D01*
X14724566Y-2121565D01*
X14506592Y-2102495D01*
X14288619Y-2121565D01*
X14077262Y-2178198D01*
X13878958Y-2270670D01*
X13878956Y-2270671D01*
X13816152Y-2314647D01*
X13699714Y-2396178D01*
X13545000Y-2550892D01*
X13544997Y-2550895D01*
X13544997Y-2550896D01*
X13462861Y-2668199D01*
X13419492Y-2730136D01*
X13348699Y-2881951D01*
X13302942Y-2934127D01*
X13236317Y-2953546D01*
X13169692Y-2934127D01*
X13123935Y-2881951D01*
X13053257Y-2730384D01*
X13009716Y-2668200D01*
X13009715Y-2668199D01*
X12320146Y-3357771D01*
X13009715Y-4047340D01*
X13053256Y-3985160D01*
X13123933Y-3833591D01*
X13169690Y-3781415D01*
X13236315Y-3761995D01*
X13302941Y-3781414D01*
X13348698Y-3833590D01*
X13392354Y-3927211D01*
X13419493Y-3985409D01*
X13544997Y-4164646D01*
X13699718Y-4319367D01*
X13878955Y-4444871D01*
X14007777Y-4504942D01*
X14030181Y-4515389D01*
X14082357Y-4561146D01*
X14101776Y-4627771D01*
X14082357Y-4694396D01*
X14030181Y-4740153D01*
X13922800Y-4790226D01*
X13878956Y-4810671D01*
X13743611Y-4905441D01*
X13699714Y-4936178D01*
X13545000Y-5090892D01*
X13544997Y-5090895D01*
X13544997Y-5090896D01*
X13435938Y-5246649D01*
X13419492Y-5270136D01*
X13348975Y-5421359D01*
X13303218Y-5473535D01*
X13236593Y-5492954D01*
X13169968Y-5473535D01*
X13124211Y-5421359D01*
X13103704Y-5377382D01*
X13053693Y-5270134D01*
X12928189Y-5090896D01*
X12773468Y-4936175D01*
X12594231Y-4810671D01*
X12536033Y-4783532D01*
X12442412Y-4739876D01*
X12390236Y-4694119D01*
X12370817Y-4627493D01*
X12390237Y-4560868D01*
X12442413Y-4515111D01*
X12593982Y-4444434D01*
X12656163Y-4400893D01*
X11966594Y-3711324D01*
X11966593Y-3711324D01*
X11277021Y-4400893D01*
X11339209Y-4444438D01*
X11490772Y-4515112D01*
X11542948Y-4560868D01*
X11562368Y-4627493D01*
X11542949Y-4694118D01*
X11490774Y-4739876D01*
X11338956Y-4810671D01*
X11159714Y-4936178D01*
X11005000Y-5090892D01*
X11004997Y-5090895D01*
X11004997Y-5090896D01*
X10952468Y-5165916D01*
X10902666Y-5237040D01*
X10855449Y-5277367D01*
X10794601Y-5289746D01*
X10735381Y-5271074D01*
X10692638Y-5226032D01*
X10677091Y-5165916D01*
X10677091Y-5099902D01*
X10676123Y-5090896D01*
X10670683Y-5040289D01*
X10620388Y-4905441D01*
X10534138Y-4790226D01*
X10418923Y-4703976D01*
X10284075Y-4653681D01*
X10224465Y-4647272D01*
X10224461Y-4647272D01*
X10157577Y-4647272D01*
X10097461Y-4631725D01*
X10052419Y-4588983D01*
X10033747Y-4529763D01*
X10046126Y-4468915D01*
X10086452Y-4421698D01*
X10116163Y-4400893D01*
X9426594Y-3711324D01*
X9426593Y-3711324D01*
X8737021Y-4400893D01*
X8766732Y-4421697D01*
X8807059Y-4468914D01*
X8819439Y-4529761D01*
X8800768Y-4588981D01*
X8755727Y-4631724D01*
X8695611Y-4647272D01*
X8628724Y-4647272D01*
X8569109Y-4653681D01*
X8434261Y-4703976D01*
X8358774Y-4760486D01*
X8293898Y-4784860D01*
X8226076Y-4770612D01*
X8176491Y-4722194D01*
X8160634Y-4654729D01*
X8161275Y-4642496D01*
X8162047Y-4627771D01*
X8142296Y-4250899D01*
X8114153Y-4073212D01*
X8121494Y-4007766D01*
X8161311Y-3955308D01*
X8222374Y-3930637D01*
X8287456Y-3940712D01*
X8338201Y-3982691D01*
X8383469Y-4047341D01*
X9073040Y-3357772D01*
X9073040Y-3357771D01*
X9780146Y-3357771D01*
X10469715Y-4047340D01*
X10513259Y-3985155D01*
X10584211Y-3832999D01*
X10629968Y-3780823D01*
X10696593Y-3761403D01*
X10763218Y-3780822D01*
X10808975Y-3832998D01*
X10879928Y-3985158D01*
X10923469Y-4047341D01*
X11613040Y-3357772D01*
X11613040Y-3357771D01*
X10923468Y-2668199D01*
X10879928Y-2730384D01*
X10808974Y-2882543D01*
X10763216Y-2934718D01*
X10696592Y-2954137D01*
X10629967Y-2934717D01*
X10584210Y-2882542D01*
X10513257Y-2730383D01*
X10469716Y-2668200D01*
X10469715Y-2668199D01*
X9780146Y-3357771D01*
X9073040Y-3357771D01*
X8383468Y-2668199D01*
X8339927Y-2730385D01*
X8247492Y-2928611D01*
X8190882Y-3139884D01*
X8172958Y-3344748D01*
X8150002Y-3406475D01*
X8098676Y-3447742D01*
X8033459Y-3456907D01*
X7972747Y-3431386D01*
X7933666Y-3378377D01*
X7925756Y-3357771D01*
X7850340Y-3161304D01*
X7744482Y-2953546D01*
X7679007Y-2825043D01*
X7473470Y-2508545D01*
X7382477Y-2396178D01*
X7316454Y-2314646D01*
X8737021Y-2314646D01*
X9426593Y-3004218D01*
X9426594Y-3004218D01*
X10116163Y-2314647D01*
X10116162Y-2314646D01*
X11277021Y-2314646D01*
X11966593Y-3004218D01*
X11966594Y-3004218D01*
X12656163Y-2314647D01*
X12593980Y-2271106D01*
X12395752Y-2178670D01*
X12184479Y-2122060D01*
X11966593Y-2102997D01*
X11748706Y-2122060D01*
X11537433Y-2178670D01*
X11339207Y-2271105D01*
X11277021Y-2314646D01*
X10116162Y-2314646D01*
X10053980Y-2271106D01*
X9855752Y-2178670D01*
X9644479Y-2122060D01*
X9426593Y-2102997D01*
X9208706Y-2122060D01*
X8997433Y-2178670D01*
X8799207Y-2271105D01*
X8737021Y-2314646D01*
X7316454Y-2314646D01*
X7235969Y-2215256D01*
X6969115Y-1948402D01*
X6675829Y-1710903D01*
X6675827Y-1710902D01*
X6675825Y-1710900D01*
X6359324Y-1505361D01*
X6023069Y-1334032D01*
X6023068Y-1334031D01*
X6023067Y-1334031D01*
X5926611Y-1297005D01*
X5670743Y-1198786D01*
X5306211Y-1101110D01*
X4933474Y-1042075D01*
X4556600Y-1022324D01*
X4179725Y-1042075D01*
X3806988Y-1101110D01*
X3442456Y-1198786D01*
X3090133Y-1334030D01*
X2753872Y-1505363D01*
X2437374Y-1710900D01*
X2144081Y-1948405D01*
X1877234Y-2215252D01*
X1639729Y-2508545D01*
X1434192Y-2825043D01*
X1262859Y-3161304D01*
X1127615Y-3513627D01*
X1029939Y-3878159D01*
X970904Y-4250896D01*
X951153Y-4627771D01*
X102100Y-4627771D01*
X102100Y-226100D01*
X118713Y-164100D01*
X164100Y-118713D01*
X226100Y-102100D01*
X66829900Y-102100D01*
X66891900Y-118713D01*
G37*
%TD.AperFunction*%
%TD*%
M02*
