%TF.GenerationSoftware,KiCad,Pcbnew,7.0.1-3b83917a11~172~ubuntu22.04.1*%
%TF.CreationDate,2023-03-24T22:05:32-05:00*%
%TF.ProjectId,pi_hat_forclayton3,70695f68-6174-45f6-966f-72636c617974,rev?*%
%TF.SameCoordinates,Original*%
%TF.FileFunction,Legend,Bot*%
%TF.FilePolarity,Positive*%
%FSLAX46Y46*%
G04 Gerber Fmt 4.6, Leading zero omitted, Abs format (unit mm)*
G04 Created by KiCad (PCBNEW 7.0.1-3b83917a11~172~ubuntu22.04.1) date 2023-03-24 22:05:32*
%MOMM*%
%LPD*%
G01*
G04 APERTURE LIST*
%ADD10C,0.072202*%
G04 APERTURE END LIST*
D10*
X57875071Y-52324055D02*
X57875071Y-52035246D01*
X57875071Y-52035246D02*
X57773812Y-52241538D01*
X57773812Y-52241538D02*
X57672553Y-52035246D01*
X57672553Y-52035246D02*
X57672553Y-52324055D01*
X57542362Y-52241538D02*
X57397706Y-52241538D01*
X57571293Y-52324055D02*
X57470034Y-52035246D01*
X57470034Y-52035246D02*
X57368775Y-52324055D01*
X57166256Y-52172774D02*
X57122859Y-52186527D01*
X57122859Y-52186527D02*
X57108394Y-52200280D01*
X57108394Y-52200280D02*
X57093928Y-52227786D01*
X57093928Y-52227786D02*
X57093928Y-52269044D01*
X57093928Y-52269044D02*
X57108394Y-52296550D01*
X57108394Y-52296550D02*
X57122859Y-52310303D01*
X57122859Y-52310303D02*
X57151790Y-52324055D01*
X57151790Y-52324055D02*
X57267515Y-52324055D01*
X57267515Y-52324055D02*
X57267515Y-52035246D01*
X57267515Y-52035246D02*
X57166256Y-52035246D01*
X57166256Y-52035246D02*
X57137325Y-52048999D01*
X57137325Y-52048999D02*
X57122859Y-52062752D01*
X57122859Y-52062752D02*
X57108394Y-52090258D01*
X57108394Y-52090258D02*
X57108394Y-52117763D01*
X57108394Y-52117763D02*
X57122859Y-52145269D01*
X57122859Y-52145269D02*
X57137325Y-52159022D01*
X57137325Y-52159022D02*
X57166256Y-52172774D01*
X57166256Y-52172774D02*
X57267515Y-52172774D01*
X57889537Y-54908538D02*
X57744881Y-54908538D01*
X57918468Y-54991055D02*
X57817209Y-54702246D01*
X57817209Y-54702246D02*
X57715950Y-54991055D01*
X57513431Y-54839774D02*
X57470034Y-54853527D01*
X57470034Y-54853527D02*
X57455569Y-54867280D01*
X57455569Y-54867280D02*
X57441103Y-54894786D01*
X57441103Y-54894786D02*
X57441103Y-54936044D01*
X57441103Y-54936044D02*
X57455569Y-54963550D01*
X57455569Y-54963550D02*
X57470034Y-54977303D01*
X57470034Y-54977303D02*
X57498965Y-54991055D01*
X57498965Y-54991055D02*
X57614690Y-54991055D01*
X57614690Y-54991055D02*
X57614690Y-54702246D01*
X57614690Y-54702246D02*
X57513431Y-54702246D01*
X57513431Y-54702246D02*
X57484500Y-54715999D01*
X57484500Y-54715999D02*
X57470034Y-54729752D01*
X57470034Y-54729752D02*
X57455569Y-54757258D01*
X57455569Y-54757258D02*
X57455569Y-54784763D01*
X57455569Y-54784763D02*
X57470034Y-54812269D01*
X57470034Y-54812269D02*
X57484500Y-54826022D01*
X57484500Y-54826022D02*
X57513431Y-54839774D01*
X57513431Y-54839774D02*
X57614690Y-54839774D01*
X57137325Y-54963550D02*
X57151791Y-54977303D01*
X57151791Y-54977303D02*
X57195187Y-54991055D01*
X57195187Y-54991055D02*
X57224119Y-54991055D01*
X57224119Y-54991055D02*
X57267516Y-54977303D01*
X57267516Y-54977303D02*
X57296447Y-54949797D01*
X57296447Y-54949797D02*
X57310912Y-54922291D01*
X57310912Y-54922291D02*
X57325378Y-54867280D01*
X57325378Y-54867280D02*
X57325378Y-54826022D01*
X57325378Y-54826022D02*
X57310912Y-54771010D01*
X57310912Y-54771010D02*
X57296447Y-54743505D01*
X57296447Y-54743505D02*
X57267516Y-54715999D01*
X57267516Y-54715999D02*
X57224119Y-54702246D01*
X57224119Y-54702246D02*
X57195187Y-54702246D01*
X57195187Y-54702246D02*
X57151791Y-54715999D01*
X57151791Y-54715999D02*
X57137325Y-54729752D01*
X51779071Y-52324055D02*
X51779071Y-52035246D01*
X51779071Y-52035246D02*
X51677812Y-52241538D01*
X51677812Y-52241538D02*
X51576553Y-52035246D01*
X51576553Y-52035246D02*
X51576553Y-52324055D01*
X51446362Y-52241538D02*
X51301706Y-52241538D01*
X51475293Y-52324055D02*
X51374034Y-52035246D01*
X51374034Y-52035246D02*
X51272775Y-52324055D01*
X51070256Y-52172774D02*
X51026859Y-52186527D01*
X51026859Y-52186527D02*
X51012394Y-52200280D01*
X51012394Y-52200280D02*
X50997928Y-52227786D01*
X50997928Y-52227786D02*
X50997928Y-52269044D01*
X50997928Y-52269044D02*
X51012394Y-52296550D01*
X51012394Y-52296550D02*
X51026859Y-52310303D01*
X51026859Y-52310303D02*
X51055790Y-52324055D01*
X51055790Y-52324055D02*
X51171515Y-52324055D01*
X51171515Y-52324055D02*
X51171515Y-52035246D01*
X51171515Y-52035246D02*
X51070256Y-52035246D01*
X51070256Y-52035246D02*
X51041325Y-52048999D01*
X51041325Y-52048999D02*
X51026859Y-52062752D01*
X51026859Y-52062752D02*
X51012394Y-52090258D01*
X51012394Y-52090258D02*
X51012394Y-52117763D01*
X51012394Y-52117763D02*
X51026859Y-52145269D01*
X51026859Y-52145269D02*
X51041325Y-52159022D01*
X51041325Y-52159022D02*
X51070256Y-52172774D01*
X51070256Y-52172774D02*
X51171515Y-52172774D01*
X51605484Y-54963550D02*
X51619950Y-54977303D01*
X51619950Y-54977303D02*
X51663346Y-54991055D01*
X51663346Y-54991055D02*
X51692278Y-54991055D01*
X51692278Y-54991055D02*
X51735675Y-54977303D01*
X51735675Y-54977303D02*
X51764606Y-54949797D01*
X51764606Y-54949797D02*
X51779071Y-54922291D01*
X51779071Y-54922291D02*
X51793537Y-54867280D01*
X51793537Y-54867280D02*
X51793537Y-54826022D01*
X51793537Y-54826022D02*
X51779071Y-54771010D01*
X51779071Y-54771010D02*
X51764606Y-54743505D01*
X51764606Y-54743505D02*
X51735675Y-54715999D01*
X51735675Y-54715999D02*
X51692278Y-54702246D01*
X51692278Y-54702246D02*
X51663346Y-54702246D01*
X51663346Y-54702246D02*
X51619950Y-54715999D01*
X51619950Y-54715999D02*
X51605484Y-54729752D01*
X51504225Y-54702246D02*
X51431897Y-54991055D01*
X51431897Y-54991055D02*
X51374034Y-54784763D01*
X51374034Y-54784763D02*
X51316172Y-54991055D01*
X51316172Y-54991055D02*
X51243844Y-54702246D01*
X50954531Y-54991055D02*
X51055790Y-54853527D01*
X51128118Y-54991055D02*
X51128118Y-54702246D01*
X51128118Y-54702246D02*
X51012393Y-54702246D01*
X51012393Y-54702246D02*
X50983462Y-54715999D01*
X50983462Y-54715999D02*
X50968997Y-54729752D01*
X50968997Y-54729752D02*
X50954531Y-54757258D01*
X50954531Y-54757258D02*
X50954531Y-54798516D01*
X50954531Y-54798516D02*
X50968997Y-54826022D01*
X50968997Y-54826022D02*
X50983462Y-54839774D01*
X50983462Y-54839774D02*
X51012393Y-54853527D01*
X51012393Y-54853527D02*
X51128118Y-54853527D01*
M02*
