M48
; DRILL file {KiCad 7.0.1-3b83917a11~172~ubuntu22.04.1} date Fri 24 Mar 2023 10:05:39 PM CDT
; FORMAT={-:-/ absolute / metric / decimal}
; #@! TF.CreationDate,2023-03-24T22:05:39-05:00
; #@! TF.GenerationSoftware,Kicad,Pcbnew,7.0.1-3b83917a11~172~ubuntu22.04.1
; #@! TF.FileFunction,Plated,1,4,PTH
FMAT,2
METRIC
; #@! TA.AperFunction,Plated,PTH,ViaDrill
T1C0.508
; #@! TA.AperFunction,Plated,PTH,ViaDrill
T2C0.711
; #@! TA.AperFunction,Plated,PTH,ComponentDrill
T3C0.850
; #@! TA.AperFunction,Plated,PTH,ComponentDrill
T4C0.900
; #@! TA.AperFunction,Plated,PTH,ComponentDrill
T5C2.540
%
G90
G05
T1
X19.314Y-32.649
X21.981Y-11.821
X23.124Y-40.269
X25.664Y-32.268
X26.553Y-42.555
X35.189Y-10.17
X54.112Y-22.362
X55.89Y-14.742
X56.398Y-45.095
X59.582Y-21.196
X60.208Y-46.746
T2
X2.677Y-8.621
X9.433Y-14.996
X9.789Y-56.398
X13.599Y-28.839
X13.642Y-42.56
X14.107Y-39.126
X14.668Y-35.829
X14.996Y-47.305
X16.012Y-56.271
X16.215Y-23.302
X20.602Y-44.689
X21.612Y-30.505
X21.854Y-56.525
X21.872Y-24.732
X21.899Y-9.591
X22.744Y-18.476
X22.895Y-26.578
X23.454Y-16.876
X23.759Y-34.046
X26.832Y-17.892
X27.315Y-13.925
X28.204Y-56.906
X29.372Y-25.613
X29.372Y-27.823
X29.372Y-42.225
X29.88Y-21.651
X30.871Y-31.084
X33.538Y-40.523
X34.427Y-56.144
X35.519Y-47.025
X37.272Y-23.276
X37.602Y-43.469
X38.262Y-29.195
X38.796Y-47.879
X40.142Y-56.271
X40.904Y-24.064
X41.031Y-15.631
X41.031Y-28.839
X43.419Y-47.879
X43.673Y-18.476
X44.104Y-37.196
X45.024Y-49.159
X45.146Y-22.743
X45.269Y-12.075
X45.349Y-13.599
X45.755Y-24.775
X46.053Y-17.536
X46.124Y-28.609
X46.746Y-11.013
X46.746Y-34.529
X47.635Y-56.017
X49.007Y-32.268
X49.032Y-27.188
X50.307Y-14.533
X50.353Y-21.448
X50.556Y-23.276
X50.845Y-42.143
X51.343Y-8.036
X51.496Y-36.383
X52.588Y-56.271
X52.867Y-8.062
X54.112Y-31.581
X54.239Y-20.0
X55.89Y-10.551
X55.89Y-36.174
X57.16Y-37.196
X57.16Y-42.123
X57.922Y-16.139
X58.684Y-57.16
X64.907Y-40.396
T3
X42.837Y-44.828
X43.952Y-26.426
X50.457Y-44.828
X51.572Y-26.426
T4
X3.711Y-12.189
X3.711Y-17.051
X3.711Y-21.914
X3.711Y-26.776
X3.711Y-31.638
X3.711Y-36.501
X3.711Y-41.363
X3.711Y-46.225
X6.251Y-12.189
X6.251Y-17.051
X6.251Y-21.914
X6.251Y-26.776
X6.251Y-31.638
X6.251Y-36.501
X6.251Y-41.363
X6.251Y-46.225
X9.427Y-3.358
X9.427Y-5.898
X11.967Y-3.358
X11.967Y-5.898
X12.964Y-51.956
X12.964Y-54.496
X14.507Y-3.358
X14.507Y-5.898
X17.047Y-3.358
X17.047Y-5.898
X19.06Y-51.956
X19.06Y-54.496
X19.587Y-3.358
X19.587Y-5.898
X22.127Y-3.358
X22.127Y-5.898
X24.667Y-3.358
X24.667Y-5.898
X25.194Y-51.956
X25.194Y-54.496
X27.207Y-3.358
X27.207Y-5.898
X29.747Y-3.358
X29.747Y-5.898
X31.29Y-51.956
X31.29Y-54.496
X32.287Y-3.358
X32.287Y-5.898
X34.827Y-3.358
X34.827Y-5.898
X37.367Y-3.358
X37.367Y-5.898
X37.386Y-51.956
X37.386Y-54.496
X39.907Y-3.358
X39.907Y-5.898
X42.447Y-3.358
X42.447Y-5.898
X43.463Y-51.956
X43.463Y-54.496
X44.987Y-3.358
X44.987Y-5.898
X47.527Y-3.358
X47.527Y-5.898
X49.686Y-51.956
X49.686Y-54.496
X50.067Y-3.358
X50.067Y-5.898
X52.607Y-3.358
X52.607Y-5.898
X55.147Y-3.358
X55.147Y-5.898
X55.89Y-51.956
X55.89Y-54.496
X57.687Y-3.358
X57.687Y-5.898
X61.859Y-12.456
X61.859Y-14.996
X61.859Y-17.536
X61.859Y-20.076
X63.256Y-29.093
X63.256Y-31.633
X63.256Y-34.173
X63.256Y-36.713
X63.256Y-39.253
X63.256Y-41.793
X63.256Y-44.333
X63.256Y-46.873
X64.399Y-12.456
X64.399Y-14.996
X64.399Y-17.536
X64.399Y-20.076
T5
X4.494Y-52.956
X4.557Y-4.628
X62.494Y-52.956
X62.557Y-4.628
T0
M30
