%TF.GenerationSoftware,KiCad,Pcbnew,7.0.1-3b83917a11~172~ubuntu22.04.1*%
%TF.CreationDate,2023-03-24T22:05:32-05:00*%
%TF.ProjectId,pi_hat_forclayton3,70695f68-6174-45f6-966f-72636c617974,rev?*%
%TF.SameCoordinates,Original*%
%TF.FileFunction,Paste,Top*%
%TF.FilePolarity,Positive*%
%FSLAX46Y46*%
G04 Gerber Fmt 4.6, Leading zero omitted, Abs format (unit mm)*
G04 Created by KiCad (PCBNEW 7.0.1-3b83917a11~172~ubuntu22.04.1) date 2023-03-24 22:05:32*
%MOMM*%
%LPD*%
G01*
G04 APERTURE LIST*
G04 Aperture macros list*
%AMRoundRect*
0 Rectangle with rounded corners*
0 $1 Rounding radius*
0 $2 $3 $4 $5 $6 $7 $8 $9 X,Y pos of 4 corners*
0 Add a 4 corners polygon primitive as box body*
4,1,4,$2,$3,$4,$5,$6,$7,$8,$9,$2,$3,0*
0 Add four circle primitives for the rounded corners*
1,1,$1+$1,$2,$3*
1,1,$1+$1,$4,$5*
1,1,$1+$1,$6,$7*
1,1,$1+$1,$8,$9*
0 Add four rect primitives between the rounded corners*
20,1,$1+$1,$2,$3,$4,$5,0*
20,1,$1+$1,$4,$5,$6,$7,0*
20,1,$1+$1,$6,$7,$8,$9,0*
20,1,$1+$1,$8,$9,$2,$3,0*%
G04 Aperture macros list end*
%ADD10R,0.419989X0.499999*%
%ADD11R,0.319989X0.499999*%
%ADD12RoundRect,0.235001X-0.235000X-0.274993X0.235000X-0.274993X0.235000X0.274993X-0.235000X0.274993X0*%
%ADD13R,0.810006X0.980008*%
%ADD14R,0.870001X0.929996*%
%ADD15O,1.019988X0.940003*%
%ADD16R,0.929996X0.870001*%
%ADD17O,0.940003X1.019988*%
%ADD18R,0.980008X0.810006*%
%ADD19R,0.920013X0.970001*%
%ADD20R,0.699999X0.499999*%
%ADD21O,1.969999X0.599999*%
%ADD22R,0.970001X0.920013*%
%ADD23R,0.920013X0.980008*%
%ADD24RoundRect,0.235001X-0.274993X0.235000X-0.274993X-0.235000X0.274993X-0.235000X0.274993X0.235000X0*%
%ADD25R,0.650011X0.899998*%
%ADD26R,0.899998X0.650011*%
%ADD27O,0.599999X1.969999*%
G04 APERTURE END LIST*
D10*
%TO.C,Q1_H7*%
X46472975Y-48031952D03*
D11*
X46072976Y-49032000D03*
X46872974Y-49032000D03*
%TD*%
D12*
%TO.C,R31*%
X57005009Y-18171000D03*
X58584991Y-18171000D03*
%TD*%
D13*
%TO.C,R23_A_IN_1*%
X24766059Y-16520000D03*
X26308042Y-16520000D03*
%TD*%
D14*
%TO.C,R19_A_IN_1*%
X14597017Y-15758000D03*
X16156983Y-15758000D03*
%TD*%
D15*
%TO.C,R1_H8*%
X52696001Y-54143140D03*
X52696001Y-52563159D03*
%TD*%
D16*
%TO.C,R2_A_IN_1*%
X43825000Y-21871983D03*
X43825000Y-20312017D03*
%TD*%
D17*
%TO.C,R20_A_IN_1*%
X32323982Y-10030148D03*
X30744000Y-10030148D03*
%TD*%
D15*
%TO.C,R1_H5*%
X34427000Y-54140042D03*
X34427000Y-52560060D03*
%TD*%
D18*
%TO.C,R23_A_IN_2*%
X25536949Y-40785992D03*
X25536949Y-39243958D03*
%TD*%
D17*
%TO.C,R17_A_IN_1*%
X57695991Y-30731148D03*
X56116009Y-30731148D03*
%TD*%
D19*
%TO.C,C2_A_IN_1*%
X20978005Y-14348148D03*
X19427995Y-14348148D03*
%TD*%
D20*
%TO.C,D1_H7*%
X49836012Y-49413000D03*
X48735988Y-49413000D03*
%TD*%
%TO.C,D1_H6*%
X43613012Y-49540000D03*
X42512988Y-49540000D03*
%TD*%
D15*
%TO.C,R12_A_IN_2*%
X20339957Y-29433055D03*
X20339957Y-31013087D03*
%TD*%
D17*
%TO.C,R21_A_IN_1*%
X19413009Y-16634148D03*
X20992991Y-16634148D03*
%TD*%
D21*
%TO.C,U2_A_IN_2*%
X42245983Y-40510097D03*
X42245983Y-39240097D03*
X42245983Y-37970097D03*
X42245983Y-36700097D03*
X42245983Y-35430097D03*
X42245983Y-34160097D03*
X42245983Y-32890097D03*
X37295981Y-32890097D03*
X37295981Y-34160097D03*
X37295981Y-35430097D03*
X37295981Y-36700097D03*
X37295981Y-37970097D03*
X37295981Y-39240097D03*
X37295981Y-40510097D03*
%TD*%
D14*
%TO.C,R22_A_IN_2*%
X34154966Y-30604148D03*
X35714932Y-30604148D03*
%TD*%
D16*
%TO.C,R18_A_IN_2*%
X25537000Y-34408966D03*
X25537000Y-35968932D03*
%TD*%
D22*
%TO.C,C4_A_IN_2*%
X11440051Y-42948954D03*
X11440051Y-41398944D03*
%TD*%
D17*
%TO.C,R27_A_IN_1*%
X15095009Y-25409949D03*
X16674991Y-25409949D03*
%TD*%
D18*
%TO.C,R8_A_IN_2*%
X48787957Y-29071054D03*
X48787957Y-30613088D03*
%TD*%
D21*
%TO.C,U3_A_IN_1*%
X48589024Y-10678000D03*
X48589024Y-11948000D03*
X48589024Y-13218000D03*
X48589024Y-14488000D03*
X48589024Y-15758000D03*
X48589024Y-17028000D03*
X48589024Y-18298000D03*
X53539027Y-18298000D03*
X53539027Y-17028000D03*
X53539027Y-15758000D03*
X53539027Y-14488000D03*
X53539027Y-13218000D03*
X53539027Y-11948000D03*
X53539027Y-10678000D03*
%TD*%
D23*
%TO.C,C7*%
X63777005Y-25791000D03*
X62226995Y-25791000D03*
%TD*%
D17*
%TO.C,R17_A_IN_2*%
X54530947Y-44955148D03*
X52950966Y-44955148D03*
%TD*%
D15*
%TO.C,R26_A_IN_1*%
X27823000Y-9875157D03*
X27823000Y-11455138D03*
%TD*%
D19*
%TO.C,C3_A_IN_2*%
X12224961Y-35303097D03*
X10674952Y-35303097D03*
%TD*%
D16*
%TO.C,R15_A_IN_1*%
X23632000Y-11445131D03*
X23632000Y-9885164D03*
%TD*%
D17*
%TO.C,R5_A_IN_2*%
X38209009Y-44701148D03*
X39789042Y-44701148D03*
%TD*%
D10*
%TO.C,Q1_H8*%
X52733999Y-48032002D03*
D11*
X52334000Y-49032000D03*
X53133998Y-49032000D03*
%TD*%
D16*
%TO.C,R6_A_IN_1*%
X14234000Y-11457983D03*
X14234000Y-9898017D03*
%TD*%
%TO.C,R6_A_IN_2*%
X15005957Y-31257080D03*
X15005957Y-29697063D03*
%TD*%
D23*
%TO.C,C5*%
X63777005Y-23632000D03*
X62226995Y-23632000D03*
%TD*%
D24*
%TO.C,R30*%
X58938000Y-22842009D03*
X58938000Y-24421991D03*
%TD*%
D15*
%TO.C,R1_H4*%
X28077000Y-54012991D03*
X28077000Y-52433009D03*
%TD*%
D16*
%TO.C,R19_A_IN_2*%
X15894957Y-34269114D03*
X15894957Y-35829080D03*
%TD*%
%TO.C,R28_A_IN_1*%
X25664000Y-10950009D03*
X25664000Y-9389991D03*
%TD*%
D10*
%TO.C,Q1_H3*%
X21708001Y-48158952D03*
D11*
X21308002Y-49159000D03*
X22108000Y-49159000D03*
%TD*%
D15*
%TO.C,R4_A_IN_2*%
X17545957Y-29560055D03*
X17545957Y-31140087D03*
%TD*%
D18*
%TO.C,R29_A_IN_2*%
X29093000Y-39117008D03*
X29093000Y-40659042D03*
%TD*%
D14*
%TO.C,R11_A_IN_2*%
X10688008Y-31112097D03*
X12248025Y-31112097D03*
%TD*%
D13*
%TO.C,R16_A_IN_1*%
X28068008Y-19060000D03*
X29609992Y-19060000D03*
%TD*%
D20*
%TO.C,D1_H4*%
X31421012Y-49413000D03*
X30320988Y-49413000D03*
%TD*%
D16*
%TO.C,R15_A_IN_2*%
X23886000Y-30888932D03*
X23886000Y-29328915D03*
%TD*%
D20*
%TO.C,D1_H8*%
X56567012Y-49032000D03*
X55466988Y-49032000D03*
%TD*%
D17*
%TO.C,R5_A_IN_1*%
X37955009Y-24635148D03*
X39534991Y-24635148D03*
%TD*%
D15*
%TO.C,R1_H2*%
X15847002Y-54127138D03*
X15847002Y-52547157D03*
%TD*%
D16*
%TO.C,R2_A_IN_2*%
X46746000Y-42319034D03*
X46746000Y-40759017D03*
%TD*%
D25*
%TO.C,R9_A_IN_2*%
X23415033Y-44206051D03*
X24865018Y-44206051D03*
%TD*%
%TO.C,R9_A_IN_1*%
X20112982Y-19822000D03*
X21563018Y-19822000D03*
%TD*%
D15*
%TO.C,R1_H7*%
X46473001Y-54143140D03*
X46473001Y-52563159D03*
%TD*%
%TO.C,R26_A_IN_2*%
X29601051Y-31084106D03*
X29601051Y-32664138D03*
%TD*%
D17*
%TO.C,R20_A_IN_2*%
X33789511Y-33041125D03*
X32209529Y-33041125D03*
%TD*%
D20*
%TO.C,D1_H3*%
X25325012Y-49413000D03*
X24224988Y-49413000D03*
%TD*%
D22*
%TO.C,C3_A_IN_1*%
X10805051Y-17422005D03*
X10805051Y-15871995D03*
%TD*%
D15*
%TO.C,R1_H3*%
X21601422Y-54049923D03*
X21601422Y-52469941D03*
%TD*%
D16*
%TO.C,R18_A_IN_1*%
X29093000Y-13834966D03*
X29093000Y-15394932D03*
%TD*%
D19*
%TO.C,C1_A_IN_2*%
X12369995Y-37843097D03*
X10819986Y-37843097D03*
%TD*%
D14*
%TO.C,R11_A_IN_1*%
X10152017Y-10550949D03*
X11711983Y-10550949D03*
%TD*%
%TO.C,R3_A_IN_1*%
X20312017Y-23504949D03*
X21871983Y-23504949D03*
%TD*%
D16*
%TO.C,R10_A_IN_2*%
X46746051Y-36555114D03*
X46746051Y-38115131D03*
%TD*%
D17*
%TO.C,R13_A_IN_2*%
X40749009Y-30871000D03*
X42329042Y-30871000D03*
%TD*%
D14*
%TO.C,R3_A_IN_2*%
X19822000Y-42428000D03*
X21382017Y-42428000D03*
%TD*%
D15*
%TO.C,R1_H1*%
X9751002Y-54127138D03*
X9751002Y-52547157D03*
%TD*%
%TO.C,R4_A_IN_1*%
X16393000Y-10383157D03*
X16393000Y-11963138D03*
%TD*%
%TO.C,R12_A_IN_1*%
X19187000Y-9748157D03*
X19187000Y-11328138D03*
%TD*%
D13*
%TO.C,R16_A_IN_2*%
X28322008Y-44206051D03*
X29864042Y-44206051D03*
%TD*%
D20*
%TO.C,D1_H2*%
X19229012Y-49413000D03*
X18128988Y-49413000D03*
%TD*%
D10*
%TO.C,Q1_H1*%
X9553999Y-48412951D03*
D11*
X9154000Y-49413000D03*
X9953998Y-49413000D03*
%TD*%
D10*
%TO.C,Q1_H6*%
X40249975Y-48158952D03*
D11*
X39849976Y-49159000D03*
X40649974Y-49159000D03*
%TD*%
D17*
%TO.C,R21_A_IN_2*%
X19666958Y-38109949D03*
X21246991Y-38109949D03*
%TD*%
D20*
%TO.C,D1_H1*%
X13133012Y-49413000D03*
X12032988Y-49413000D03*
%TD*%
D16*
%TO.C,R10_A_IN_1*%
X43698000Y-13199966D03*
X43698000Y-14759932D03*
%TD*%
%TO.C,R25_A_IN_1*%
X16012000Y-21236983D03*
X16012000Y-19677017D03*
%TD*%
D10*
%TO.C,Q1_H5*%
X34318999Y-48031951D03*
D11*
X33919000Y-49032000D03*
X34719049Y-49032000D03*
%TD*%
D10*
%TO.C,Q1_H4*%
X28331025Y-48270000D03*
D11*
X27931026Y-49270048D03*
X28731024Y-49270048D03*
%TD*%
D23*
%TO.C,C6*%
X63650005Y-9408000D03*
X62099995Y-9408000D03*
%TD*%
D19*
%TO.C,C4_A_IN_1*%
X13231005Y-25791000D03*
X11680995Y-25791000D03*
%TD*%
D21*
%TO.C,U2_A_IN_1*%
X38552976Y-20964949D03*
X38552976Y-19694949D03*
X38552976Y-18424949D03*
X38552976Y-17154949D03*
X38552976Y-15884949D03*
X38552976Y-14614949D03*
X38552976Y-13344949D03*
X33603024Y-13344949D03*
X33603024Y-14614949D03*
X33603024Y-15884949D03*
X33603024Y-17154949D03*
X33603024Y-18424949D03*
X33603024Y-19694949D03*
X33603024Y-20964949D03*
%TD*%
D17*
%TO.C,R13_A_IN_1*%
X43035009Y-10042949D03*
X44614991Y-10042949D03*
%TD*%
D19*
%TO.C,C1_A_IN_1*%
X12088005Y-21345949D03*
X10537995Y-21345949D03*
%TD*%
D16*
%TO.C,R24_A_IN_2*%
X33411000Y-44985983D03*
X33411000Y-43426017D03*
%TD*%
D26*
%TO.C,R7_A_IN_1*%
X44841000Y-18478036D03*
X44841000Y-17028000D03*
%TD*%
D16*
%TO.C,R25_A_IN_2*%
X14869000Y-41000164D03*
X14869000Y-42560131D03*
%TD*%
D24*
%TO.C,R32*%
X58525098Y-11643530D03*
X58525098Y-13223512D03*
%TD*%
D14*
%TO.C,R24_A_IN_1*%
X33393068Y-24648000D03*
X34953085Y-24648000D03*
%TD*%
D19*
%TO.C,C2_A_IN_2*%
X20723979Y-34807975D03*
X19173970Y-34807975D03*
%TD*%
D16*
%TO.C,R28_A_IN_2*%
X27315051Y-31396983D03*
X27315051Y-29837017D03*
%TD*%
D14*
%TO.C,R22_A_IN_1*%
X37330017Y-10170000D03*
X38889983Y-10170000D03*
%TD*%
D20*
%TO.C,D1_H5*%
X37517012Y-49413000D03*
X36416988Y-49413000D03*
%TD*%
D10*
%TO.C,Q1_H2*%
X16120001Y-48539952D03*
D11*
X15720002Y-49540000D03*
X16520000Y-49540000D03*
%TD*%
D17*
%TO.C,R27_A_IN_2*%
X12174009Y-46110898D03*
X13753991Y-46110898D03*
%TD*%
D18*
%TO.C,R8_A_IN_1*%
X41666000Y-17145958D03*
X41666000Y-18687941D03*
%TD*%
D26*
%TO.C,R7_A_IN_2*%
X44911993Y-31075114D03*
X44911993Y-29625130D03*
%TD*%
D27*
%TO.C,U3_A_IN_2*%
X58430000Y-34427000D03*
X57160000Y-34427000D03*
X55890000Y-34427000D03*
X54620000Y-34427000D03*
X53350000Y-34427000D03*
X52080000Y-34427000D03*
X50810000Y-34427000D03*
X50810000Y-39376952D03*
X52080000Y-39376952D03*
X53350000Y-39376952D03*
X54620000Y-39376952D03*
X55890000Y-39376952D03*
X57160000Y-39376952D03*
X58430000Y-39376952D03*
%TD*%
D18*
%TO.C,R29_A_IN_1*%
X24775000Y-18924008D03*
X24775000Y-20465992D03*
%TD*%
D15*
%TO.C,R1_H6*%
X40250001Y-54143140D03*
X40250001Y-52563158D03*
%TD*%
M02*
