%TF.GenerationSoftware,KiCad,Pcbnew,7.0.1-3b83917a11~172~ubuntu22.04.1*%
%TF.CreationDate,2023-03-24T22:05:32-05:00*%
%TF.ProjectId,pi_hat_forclayton3,70695f68-6174-45f6-966f-72636c617974,rev?*%
%TF.SameCoordinates,Original*%
%TF.FileFunction,Soldermask,Bot*%
%TF.FilePolarity,Negative*%
%FSLAX46Y46*%
G04 Gerber Fmt 4.6, Leading zero omitted, Abs format (unit mm)*
G04 Created by KiCad (PCBNEW 7.0.1-3b83917a11~172~ubuntu22.04.1) date 2023-03-24 22:05:32*
%MOMM*%
%LPD*%
G01*
G04 APERTURE LIST*
%ADD10C,6.200013*%
%ADD11R,1.499997X1.499997*%
%ADD12C,1.499997*%
%ADD13C,1.399997*%
G04 APERTURE END LIST*
D10*
%TO.C,*%
X4556600Y-4627771D03*
%TD*%
%TO.C,*%
X62494000Y-52956148D03*
%TD*%
D11*
%TO.C,M\u002A1_H8*%
X55890000Y-54496150D03*
D12*
X55890000Y-51956150D03*
%TD*%
D11*
%TO.C,P3*%
X64399000Y-20076000D03*
D12*
X61859000Y-20076000D03*
X64399000Y-17536000D03*
X61859000Y-17536000D03*
X64399000Y-14996000D03*
X61859000Y-14996000D03*
X64399000Y-12456000D03*
X61859000Y-12456000D03*
%TD*%
D11*
%TO.C,M\u002A1_H5*%
X37385998Y-54496150D03*
D12*
X37385998Y-51956150D03*
%TD*%
D11*
%TO.C,M\u002A1_H6*%
X43462999Y-54496150D03*
D12*
X43462999Y-51956150D03*
%TD*%
D11*
%TO.C,M\u002A1_H4*%
X31289998Y-54496150D03*
D12*
X31289998Y-51956150D03*
%TD*%
D11*
%TO.C,MK3_A_IN_2*%
X3711034Y-36500554D03*
D12*
X6251034Y-36500554D03*
%TD*%
D11*
%TO.C,P2*%
X63256000Y-29093000D03*
D12*
X63256000Y-31633000D03*
X63256000Y-34173000D03*
X63256000Y-36713000D03*
X63256000Y-39253000D03*
X63256000Y-41793000D03*
X63256000Y-44333000D03*
X63256000Y-46873000D03*
%TD*%
D11*
%TO.C,M\u002A1_H3*%
X25193998Y-54496150D03*
D12*
X25193998Y-51956150D03*
%TD*%
D10*
%TO.C,*%
X4494014Y-52956148D03*
%TD*%
D11*
%TO.C,MK4_A_IN_2*%
X3711034Y-46225097D03*
D12*
X6251034Y-46225097D03*
%TD*%
D13*
%TO.C,R14_A_IN_1*%
X51572000Y-26426000D03*
X43952000Y-26426000D03*
%TD*%
D11*
%TO.C,M\u002A1_H2*%
X19060000Y-54496150D03*
D12*
X19060000Y-51956150D03*
%TD*%
D11*
%TO.C,P1*%
X9426593Y-5897771D03*
D12*
X9426593Y-3357771D03*
X11966593Y-5897771D03*
X11966593Y-3357771D03*
X14506593Y-5897771D03*
X14506593Y-3357771D03*
X17046593Y-5897771D03*
X17046593Y-3357771D03*
X19586593Y-5897771D03*
X19586593Y-3357771D03*
X22126593Y-5897771D03*
X22126593Y-3357771D03*
X24666593Y-5897771D03*
X24666593Y-3357771D03*
X27206593Y-5897771D03*
X27206593Y-3357771D03*
X29746593Y-5897771D03*
X29746593Y-3357771D03*
X32286593Y-5897771D03*
X32286593Y-3357771D03*
X34826593Y-5897771D03*
X34826593Y-3357771D03*
X37366593Y-5897771D03*
X37366593Y-3357771D03*
X39906593Y-5897771D03*
X39906593Y-3357771D03*
X42446593Y-5897771D03*
X42446593Y-3357771D03*
X44986593Y-5897771D03*
X44986593Y-3357771D03*
X47526593Y-5897771D03*
X47526593Y-3357771D03*
X50066593Y-5897771D03*
X50066593Y-3357771D03*
X52606593Y-5897771D03*
X52606593Y-3357771D03*
X55146593Y-5897771D03*
X55146593Y-3357771D03*
X57686593Y-5897771D03*
X57686593Y-3357771D03*
%TD*%
D11*
%TO.C,M\u002A1_H7*%
X49685999Y-54496150D03*
D12*
X49685999Y-51956150D03*
%TD*%
D13*
%TO.C,R14_A_IN_2*%
X50456991Y-44828097D03*
X42836991Y-44828097D03*
%TD*%
D11*
%TO.C,MK2_A_IN_2*%
X3711034Y-31638284D03*
D12*
X6251034Y-31638284D03*
%TD*%
D11*
%TO.C,M\u002A1_H1*%
X12964000Y-54496150D03*
D12*
X12964000Y-51956150D03*
%TD*%
D11*
%TO.C,MK1_A_IN_2*%
X3711034Y-41362825D03*
D12*
X6251034Y-41362825D03*
%TD*%
D11*
%TO.C,MK1_A_IN_1*%
X3711034Y-21913690D03*
D12*
X6251034Y-21913690D03*
%TD*%
D11*
%TO.C,MK4_A_IN_1*%
X3711034Y-26776012D03*
D12*
X6251034Y-26776012D03*
%TD*%
D11*
%TO.C,MK2_A_IN_1*%
X3711034Y-12189147D03*
D12*
X6251034Y-12189147D03*
%TD*%
D11*
%TO.C,MK3_A_IN_1*%
X3711034Y-17051419D03*
D12*
X6251034Y-17051419D03*
%TD*%
D10*
%TO.C,*%
X62556586Y-4627771D03*
%TD*%
M02*
