G04*
G04 #@! TF.GenerationSoftware,Altium Limited,Altium Designer,23.2.1 (34)*
G04*
G04 Layer_Color=32896*
%FSLAX25Y25*%
%MOIN*%
G70*
G04*
G04 #@! TF.SameCoordinates,168D8CC4-6B96-4916-8BE8-BBD7D9E71175*
G04*
G04*
G04 #@! TF.FilePolarity,Positive*
G04*
G01*
G75*
%ADD77C,0.00197*%
D77*
X98185Y140768D02*
X103815D01*
X98185Y129232D02*
Y140768D01*
Y129232D02*
X103815D01*
Y140768D01*
X142433Y147063D02*
X171646D01*
X142433Y111039D02*
X171646D01*
X142433D02*
Y147063D01*
X171646Y111039D02*
Y147063D01*
X186894Y198488D02*
X216106D01*
X186894Y234512D02*
X216106D01*
Y198488D02*
Y234512D01*
X186894Y198488D02*
Y234512D01*
X127894Y224012D02*
X157106D01*
X127894Y187988D02*
X157106D01*
X127894D02*
Y224012D01*
X157106Y187988D02*
Y224012D01*
X155933Y57543D02*
X161917D01*
Y69432D01*
X155933D02*
X161917D01*
X155933Y57543D02*
Y69432D01*
X108008Y58055D02*
X113992D01*
Y69945D01*
X108008D02*
X113992D01*
X108008Y58055D02*
Y69945D01*
X132232Y150236D02*
Y155865D01*
Y150236D02*
X143768D01*
Y155865D01*
X132232D02*
X143768D01*
X174524Y148933D02*
Y159169D01*
Y148933D02*
X180036D01*
Y159169D01*
X174524D02*
X180036D01*
X217984Y93559D02*
Y99543D01*
X206094D02*
X217984D01*
X206094Y93559D02*
Y99543D01*
Y93559D02*
X217984D01*
X56185Y114818D02*
X61815D01*
X56185Y103283D02*
Y114818D01*
Y103283D02*
X61815D01*
Y114818D01*
X105185Y147232D02*
X110815D01*
Y158768D01*
X105185D02*
X110815D01*
X105185Y147232D02*
Y158768D01*
X45555Y89008D02*
Y94992D01*
Y89008D02*
X57445D01*
Y94992D01*
X45555D02*
X57445D01*
X56724Y147783D02*
X62354D01*
Y159319D01*
X56724D02*
X62354D01*
X56724Y147783D02*
Y159319D01*
X66547Y159996D02*
X72531D01*
X66547Y148106D02*
Y159996D01*
Y148106D02*
X72531D01*
Y159996D01*
X91685Y149233D02*
X97315D01*
Y160768D01*
X91685D02*
X97315D01*
X91685Y149233D02*
Y160768D01*
X109390Y96586D02*
Y102413D01*
Y96586D02*
X120610D01*
Y102413D01*
X109390D02*
X120610D01*
X181685Y132318D02*
X187315D01*
X181685Y120783D02*
Y132318D01*
Y120783D02*
X187315D01*
Y132318D01*
X112087Y122110D02*
X117913D01*
X112087Y110890D02*
Y122110D01*
Y110890D02*
X117913D01*
Y122110D01*
X75055Y120508D02*
Y126492D01*
Y120508D02*
X86945D01*
Y126492D01*
X75055D02*
X86945D01*
X158055Y149008D02*
Y154992D01*
Y149008D02*
X169945D01*
Y154992D01*
X158055D02*
X169945D01*
X98086Y110390D02*
X103913D01*
Y121610D01*
X98086D02*
X103913D01*
X98086Y110390D02*
Y121610D01*
X60224Y141318D02*
X65854D01*
X60224Y129783D02*
Y141318D01*
Y129783D02*
X65854D01*
Y141318D01*
X136325Y140464D02*
Y146448D01*
X124435D02*
X136325D01*
X124435Y140464D02*
Y146448D01*
Y140464D02*
X136325D01*
X114008Y153996D02*
X119992D01*
X114008Y142106D02*
Y153996D01*
Y142106D02*
X119992D01*
Y153996D01*
X112185Y221768D02*
X117815D01*
X112185Y210232D02*
Y221768D01*
Y210232D02*
X117815D01*
Y221768D01*
X129233Y173685D02*
Y179315D01*
Y173685D02*
X140768D01*
Y179315D01*
X129233D02*
X140768D01*
X98685Y227732D02*
X104315D01*
Y239268D01*
X98685D02*
X104315D01*
X98685Y227732D02*
Y239268D01*
X74055Y205058D02*
Y211043D01*
Y205058D02*
X85945D01*
Y211043D01*
X74055D02*
X85945D01*
X148055Y94558D02*
Y100543D01*
Y94558D02*
X159945D01*
Y100543D01*
X148055D02*
X159945D01*
X147055Y173558D02*
Y179543D01*
Y173558D02*
X158945D01*
Y179543D01*
X147055D02*
X158945D01*
X75803Y103685D02*
Y109315D01*
Y103685D02*
X87339D01*
Y109315D01*
X75803D02*
X87339D01*
X77732Y178185D02*
Y183815D01*
Y178185D02*
X89268D01*
Y183815D01*
X77732D02*
X89268D01*
X90382Y102256D02*
X100618D01*
X90382Y96744D02*
Y102256D01*
Y96744D02*
X100618D01*
Y102256D01*
X77382Y198256D02*
X87618D01*
X77382Y192744D02*
Y198256D01*
Y192744D02*
X87618D01*
Y198256D01*
X189626Y161661D02*
X195453D01*
X189626Y150441D02*
Y161661D01*
Y150441D02*
X195453D01*
Y161661D01*
X161587Y208610D02*
X167413D01*
X161587Y197390D02*
Y208610D01*
Y197390D02*
X167413D01*
Y208610D01*
X42646Y101654D02*
X48355D01*
Y113347D01*
X42646D02*
X48355D01*
X42646Y101654D02*
Y113347D01*
X51957Y121696D02*
Y127405D01*
X40264D02*
X51957D01*
X40264Y121696D02*
Y127405D01*
Y121696D02*
X51957D01*
X50846Y186646D02*
Y192355D01*
X39154D02*
X50846D01*
X39154Y186646D02*
Y192355D01*
Y186646D02*
X50846D01*
X197488Y113650D02*
Y142862D01*
X233512Y113650D02*
Y142862D01*
X197488Y113650D02*
X233512D01*
X197488Y142862D02*
X233512D01*
X204933Y57543D02*
X210917D01*
Y69432D01*
X204933D02*
X210917D01*
X204933Y57543D02*
Y69432D01*
X180433Y57543D02*
X186417D01*
Y69432D01*
X180433D02*
X186417D01*
X180433Y57543D02*
Y69432D01*
X133008Y57555D02*
X138992D01*
Y69445D01*
X133008D02*
X138992D01*
X133008Y57555D02*
Y69445D01*
X82513Y57910D02*
X88498D01*
Y69799D01*
X82513D02*
X88498D01*
X82513Y57910D02*
Y69799D01*
X59858Y57606D02*
X65843D01*
Y69495D01*
X59858D02*
X65843D01*
X59858Y57606D02*
Y69495D01*
X35858Y57606D02*
X41843D01*
Y69495D01*
X35858D02*
X41843D01*
X35858Y57606D02*
Y69495D01*
X144732Y230685D02*
Y236315D01*
Y230685D02*
X156268D01*
Y236315D01*
X144732D02*
X156268D01*
X174244Y198527D02*
Y208764D01*
Y198527D02*
X179756D01*
Y208764D01*
X174244D02*
X179756D01*
X129185Y93732D02*
X134815D01*
Y105268D01*
X129185D02*
X134815D01*
X129185Y93732D02*
Y105268D01*
X181685Y104232D02*
X187315D01*
Y115768D01*
X181685D02*
X187315D01*
X181685Y104232D02*
Y115768D01*
X77547Y160496D02*
X83531D01*
X77547Y148606D02*
Y160496D01*
Y148606D02*
X83531D01*
Y160496D01*
X39843Y148236D02*
Y153866D01*
Y148236D02*
X51378D01*
Y153866D01*
X39843D02*
X51378D01*
X108390Y195587D02*
Y201413D01*
Y195587D02*
X119610D01*
Y201413D01*
X108390D02*
X119610D01*
X62008Y235495D02*
X67992D01*
X62008Y223606D02*
Y235495D01*
Y223606D02*
X67992D01*
Y235495D01*
X170185Y184732D02*
X175815D01*
Y196268D01*
X170185D02*
X175815D01*
X170185Y184732D02*
Y196268D01*
X60685Y187232D02*
X66315D01*
Y198768D01*
X60685D02*
X66315D01*
X60685Y187232D02*
Y198768D01*
X55232Y208685D02*
Y214315D01*
Y208685D02*
X66768D01*
Y214315D01*
X55232D02*
X66768D01*
X107008Y237495D02*
X112992D01*
X107008Y225606D02*
Y237495D01*
Y225606D02*
X112992D01*
Y237495D01*
X95390Y205587D02*
Y211413D01*
Y205587D02*
X106610D01*
Y211413D01*
X95390D02*
X106610D01*
X167055Y231008D02*
Y236992D01*
Y231008D02*
X178945D01*
Y236992D01*
X167055D02*
X178945D01*
X169685Y224268D02*
X175315D01*
X169685Y212732D02*
Y224268D01*
Y212732D02*
X175315D01*
Y224268D01*
X57055Y170508D02*
Y176492D01*
Y170508D02*
X68945D01*
Y176492D01*
X57055D02*
X68945D01*
X90685Y225783D02*
X96315D01*
Y237318D01*
X90685D02*
X96315D01*
X90685Y225783D02*
Y237318D01*
X230445Y149558D02*
Y155543D01*
X218555D02*
X230445D01*
X218555Y149558D02*
Y155543D01*
Y149558D02*
X230445D01*
X130555Y231058D02*
Y237043D01*
X118665D02*
X130555D01*
X118665Y231058D02*
Y237043D01*
Y231058D02*
X130555D01*
X53685Y225732D02*
X59315D01*
Y237268D01*
X53685D02*
X59315D01*
X53685Y225732D02*
Y237268D01*
X37732Y229185D02*
Y234815D01*
Y229185D02*
X49268D01*
Y234815D01*
X37732D02*
X49268D01*
X73008Y237995D02*
X78992D01*
X73008Y226106D02*
Y237995D01*
Y226106D02*
X78992D01*
Y237995D01*
X95087Y201610D02*
X100913D01*
X95087Y190390D02*
Y201610D01*
Y190390D02*
X100913D01*
Y201610D01*
X84846Y133646D02*
Y139355D01*
X73154D02*
X84846D01*
X73154Y133646D02*
Y139355D01*
Y133646D02*
X84846D01*
X51386Y131697D02*
Y137405D01*
X39693D02*
X51386D01*
X39693Y131697D02*
Y137405D01*
Y131697D02*
X51386D01*
X85846Y214196D02*
Y219905D01*
X74154D02*
X85846D01*
X74154Y214196D02*
Y219905D01*
Y214196D02*
X85846D01*
X55346Y169146D02*
Y174854D01*
X43654D02*
X55346D01*
X43654Y169146D02*
Y174854D01*
Y169146D02*
X55346D01*
X40146Y202154D02*
X45855D01*
Y213846D01*
X40146D02*
X45855D01*
X40146Y202154D02*
Y213846D01*
M02*
