G04*
G04 #@! TF.GenerationSoftware,Altium Limited,Altium Designer,23.2.1 (34)*
G04*
G04 Layer_Color=128*
%FSLAX25Y25*%
%MOIN*%
G70*
G04*
G04 #@! TF.SameCoordinates,168D8CC4-6B96-4916-8BE8-BBD7D9E71175*
G04*
G04*
G04 #@! TF.FilePolarity,Positive*
G04*
G01*
G75*
%ADD12C,0.00500*%
D12*
X242228Y224500D02*
X245772D01*
X244000Y222728D02*
Y226272D01*
X225801Y250320D02*
X229345D01*
X227573Y248548D02*
Y252091D01*
X175802Y260320D02*
X179345D01*
X177573Y258548D02*
Y262091D01*
X195801Y260320D02*
X199345D01*
X197573Y258548D02*
Y262091D01*
X155801Y250320D02*
X159345D01*
X157573Y248548D02*
Y252091D01*
X125802Y260320D02*
X129345D01*
X127573Y258548D02*
Y262091D01*
X95802Y260320D02*
X99345D01*
X97573Y258548D02*
Y262091D01*
X55801Y260320D02*
X59345D01*
X57573Y258548D02*
Y262091D01*
X75801Y250320D02*
X79345D01*
X77573Y248548D02*
Y252091D01*
X13299Y206408D02*
X16843D01*
X15071Y204636D02*
Y208179D01*
X13299Y187265D02*
X16843D01*
X15071Y185493D02*
Y189037D01*
X13299Y225551D02*
X16843D01*
X15071Y223779D02*
Y227322D01*
X13299Y168122D02*
X16843D01*
X15071Y166350D02*
Y169894D01*
X13299Y110694D02*
X16843D01*
X15071Y108922D02*
Y112465D01*
X13299Y148979D02*
X16843D01*
X15071Y147207D02*
Y150751D01*
X13299Y129836D02*
X16843D01*
X15071Y128065D02*
Y131608D01*
X13299Y91551D02*
X16843D01*
X15071Y89779D02*
Y93322D01*
X35802Y250320D02*
X39345D01*
X37573Y248548D02*
Y252091D01*
X35802Y260320D02*
X39345D01*
X37573Y258548D02*
Y262091D01*
X45801Y250320D02*
X49345D01*
X47573Y248548D02*
Y252091D01*
X45801Y260320D02*
X49345D01*
X47573Y258548D02*
Y262091D01*
X55801Y250320D02*
X59345D01*
X57573Y248548D02*
Y252091D01*
X65802Y250320D02*
X69345D01*
X67573Y248548D02*
Y252091D01*
X65802Y260320D02*
X69345D01*
X67573Y258548D02*
Y262091D01*
X75801Y260320D02*
X79345D01*
X77573Y258548D02*
Y262091D01*
X85802Y250320D02*
X89345D01*
X87573Y248548D02*
Y252091D01*
X85802Y260320D02*
X89345D01*
X87573Y258548D02*
Y262091D01*
X95802Y250320D02*
X99345D01*
X97573Y248548D02*
Y252091D01*
X105801Y250320D02*
X109345D01*
X107573Y248548D02*
Y252091D01*
X105801Y260320D02*
X109345D01*
X107573Y258548D02*
Y262091D01*
X115802Y250320D02*
X119345D01*
X117573Y248548D02*
Y252091D01*
X115802Y260320D02*
X119345D01*
X117573Y258548D02*
Y262091D01*
X125802Y250320D02*
X129345D01*
X127573Y248548D02*
Y252091D01*
X135801Y250320D02*
X139345D01*
X137573Y248548D02*
Y252091D01*
X135801Y260320D02*
X139345D01*
X137573Y258548D02*
Y262091D01*
X145801Y250320D02*
X149345D01*
X147573Y248548D02*
Y252091D01*
X145801Y260320D02*
X149345D01*
X147573Y258548D02*
Y262091D01*
X155801Y260320D02*
X159345D01*
X157573Y258548D02*
Y262091D01*
X165802Y250320D02*
X169345D01*
X167573Y248548D02*
Y252091D01*
X165802Y260320D02*
X169345D01*
X167573Y258548D02*
Y262091D01*
X175802Y250320D02*
X179345D01*
X177573Y248548D02*
Y252091D01*
X185801Y250320D02*
X189345D01*
X187573Y248548D02*
Y252091D01*
X185801Y260320D02*
X189345D01*
X187573Y258548D02*
Y262091D01*
X195801Y250320D02*
X199345D01*
X197573Y248548D02*
Y252091D01*
X205802Y250320D02*
X209345D01*
X207573Y248548D02*
Y252091D01*
X205802Y260320D02*
X209345D01*
X207573Y258548D02*
Y262091D01*
X215802Y250320D02*
X219345D01*
X217573Y248548D02*
Y252091D01*
X215802Y260320D02*
X219345D01*
X217573Y258548D02*
Y262091D01*
X225801Y260320D02*
X229345D01*
X227573Y258548D02*
Y262091D01*
X247728Y89000D02*
X251272D01*
X249500Y87228D02*
Y90772D01*
X247728Y99000D02*
X251272D01*
X249500Y97228D02*
Y100772D01*
X247728Y109000D02*
X251272D01*
X249500Y107228D02*
Y110772D01*
X247728Y119000D02*
X251272D01*
X249500Y117228D02*
Y120772D01*
X247728Y129000D02*
X251272D01*
X249500Y127228D02*
Y130772D01*
X247728Y139000D02*
X251272D01*
X249500Y137228D02*
Y140772D01*
X247728Y149000D02*
X251272D01*
X249500Y147228D02*
Y150772D01*
X247728Y159000D02*
X251272D01*
X249500Y157228D02*
Y160772D01*
X252228Y194500D02*
X255772D01*
X254000Y192728D02*
Y196272D01*
X242228Y194500D02*
X245772D01*
X244000Y192728D02*
Y196272D01*
X252228Y204500D02*
X255772D01*
X254000Y202728D02*
Y206272D01*
X242228Y204500D02*
X245772D01*
X244000Y202728D02*
Y206272D01*
X252228Y214500D02*
X255772D01*
X254000Y212728D02*
Y216272D01*
X242228Y214500D02*
X245772D01*
X244000Y212728D02*
Y216272D01*
X252228Y224500D02*
X255772D01*
X254000Y222728D02*
Y226272D01*
X13400Y255320D02*
X23400D01*
X18400Y250320D02*
Y260320D01*
X169803Y58988D02*
X173346D01*
X171575Y57216D02*
Y60759D01*
X169803Y68988D02*
X173346D01*
X171575Y67216D02*
Y70759D01*
X97878Y68988D02*
X101421D01*
X99650Y67216D02*
Y70759D01*
X97878Y58988D02*
X101421D01*
X99650Y57216D02*
Y60759D01*
X49728Y68988D02*
X53272D01*
X51500Y67216D02*
Y70759D01*
X49728Y58988D02*
X53272D01*
X51500Y57216D02*
Y60759D01*
X167437Y97051D02*
X170783D01*
X169110Y95377D02*
Y98724D01*
X197437Y97051D02*
X200783D01*
X199110Y95377D02*
Y98724D01*
X171827Y169500D02*
X175173D01*
X173500Y167827D02*
Y171173D01*
X201827Y169500D02*
X205173D01*
X203500Y167827D02*
Y171173D01*
X23299Y91551D02*
X26843D01*
X25071Y89779D02*
Y93322D01*
X23299Y110694D02*
X26843D01*
X25071Y108922D02*
Y112465D01*
X23299Y187265D02*
X26843D01*
X25071Y185493D02*
Y189037D01*
X218728Y68988D02*
X222272D01*
X220500Y67216D02*
Y70759D01*
X218728Y58988D02*
X222272D01*
X220500Y57216D02*
Y60759D01*
X194303Y68988D02*
X197846D01*
X196075Y67216D02*
Y70759D01*
X194303Y58988D02*
X197846D01*
X196075Y57216D02*
Y60759D01*
X145878Y68988D02*
X149421D01*
X147650Y67216D02*
Y70759D01*
X145878Y58988D02*
X149421D01*
X147650Y57216D02*
Y60759D01*
X121878Y68988D02*
X125421D01*
X123650Y67216D02*
Y70759D01*
X121878Y58988D02*
X125421D01*
X123650Y57216D02*
Y60759D01*
X73728Y68988D02*
X77272D01*
X75500Y67216D02*
Y70759D01*
X73728Y58988D02*
X77272D01*
X75500Y57216D02*
Y60759D01*
X23299Y129836D02*
X26843D01*
X25071Y128065D02*
Y131608D01*
X23299Y148979D02*
X26843D01*
X25071Y147207D02*
Y150751D01*
X23299Y206408D02*
X26843D01*
X25071Y204636D02*
Y208179D01*
X23299Y225551D02*
X26843D01*
X25071Y223779D02*
Y227322D01*
X23299Y168122D02*
X26843D01*
X25071Y166350D02*
Y169894D01*
X241746Y255320D02*
X251746D01*
X246746Y250320D02*
Y260320D01*
X241500Y65051D02*
X251500D01*
X246500Y60051D02*
Y70051D01*
X13154Y65051D02*
X23154D01*
X18154Y60051D02*
Y70051D01*
X110100Y49500D02*
X112900D01*
X111500Y48100D02*
Y50900D01*
X212500Y185500D02*
X214500D01*
X213500Y184500D02*
Y186500D01*
X219500Y215500D02*
X221500D01*
X220500Y214500D02*
Y216500D01*
X234035Y190091D02*
X236035D01*
X235035Y189091D02*
Y191091D01*
X100500Y146500D02*
X102500D01*
X101500Y145500D02*
Y147500D01*
X75500Y145000D02*
X77500D01*
X76500Y144000D02*
Y146000D01*
X86000Y227000D02*
X88000D01*
X87000Y226000D02*
Y228000D01*
X221500Y96000D02*
X223500D01*
X222500Y95000D02*
Y97000D01*
X138000Y233500D02*
X140000D01*
X139000Y232500D02*
Y234500D01*
X104000Y106000D02*
X106000D01*
X105000Y105000D02*
Y107000D01*
X236500Y89500D02*
X238500D01*
X237500Y88500D02*
Y90500D01*
X90500Y115000D02*
X92500D01*
X91500Y114000D02*
Y116000D01*
X92600Y139500D02*
X95400D01*
X94000Y138100D02*
Y140900D01*
X177600Y220000D02*
X180400D01*
X179000Y218600D02*
Y221400D01*
X227100Y210000D02*
X229900D01*
X228500Y208600D02*
Y211400D01*
X88602Y200800D02*
X91402D01*
X90002Y199400D02*
Y202200D01*
X52600Y160000D02*
X55400D01*
X54000Y158600D02*
Y161400D01*
X180651Y160905D02*
X183451D01*
X182051Y159505D02*
Y162305D01*
X84147Y153441D02*
X86947D01*
X85547Y152041D02*
Y154841D01*
X160600Y160000D02*
X163400D01*
X162000Y158600D02*
Y161400D01*
X180372Y204500D02*
X183172D01*
X181772Y203100D02*
Y205900D01*
X36200Y214500D02*
X39000D01*
X37600Y213100D02*
Y215900D01*
X9600Y239600D02*
X12400D01*
X11000Y238200D02*
Y241000D01*
X160600Y212000D02*
X163400D01*
X162000Y210600D02*
Y213400D01*
X52769Y105980D02*
X55569D01*
X54169Y104580D02*
Y107380D01*
X80171Y97598D02*
X82971D01*
X81571Y96198D02*
Y98998D01*
X56808Y132480D02*
X59608D01*
X58208Y131080D02*
Y133880D01*
X85171Y176169D02*
X87971D01*
X86571Y174769D02*
Y177569D01*
X219100Y131122D02*
X221900D01*
X220500Y129722D02*
Y132522D01*
X183100Y230181D02*
X185900D01*
X184500Y228781D02*
Y231581D01*
X177285Y226000D02*
X180085D01*
X178685Y224600D02*
Y227400D01*
X85279Y235779D02*
X88079D01*
X86679Y234379D02*
Y237179D01*
X207200Y241800D02*
X210000D01*
X208600Y240400D02*
Y243200D01*
X212600Y194800D02*
X215400D01*
X214000Y193400D02*
Y196200D01*
X219100Y232000D02*
X221900D01*
X220500Y230600D02*
Y233400D01*
X120600Y151161D02*
X123400D01*
X122000Y149761D02*
Y152561D01*
X224100Y107700D02*
X226900D01*
X225500Y106300D02*
Y109100D01*
X224100Y127100D02*
X226900D01*
X225500Y125700D02*
Y128500D01*
X176320Y80000D02*
X179120D01*
X177720Y78600D02*
Y81400D01*
X254600Y114500D02*
X257400D01*
X256000Y113100D02*
Y115900D01*
X149700Y158600D02*
X152500D01*
X151100Y157200D02*
Y160000D01*
X186600Y53000D02*
X189400D01*
X188000Y51600D02*
Y54400D01*
X157100Y52000D02*
X159900D01*
X158500Y50600D02*
Y53400D01*
X85100Y51000D02*
X87900D01*
X86500Y49600D02*
Y52400D01*
X134600Y52500D02*
X137400D01*
X136000Y51100D02*
Y53900D01*
X192100Y166500D02*
X194900D01*
X193500Y165100D02*
Y167900D01*
X198100Y181900D02*
X200900D01*
X199500Y180500D02*
Y183300D01*
X212100Y149206D02*
X214900D01*
X213500Y147806D02*
Y150606D01*
X89200Y168900D02*
X92000D01*
X90600Y167500D02*
Y170300D01*
X91400Y207100D02*
X94200D01*
X92800Y205700D02*
Y208500D01*
X54600Y119500D02*
X57400D01*
X56000Y118100D02*
Y120900D01*
X58100Y87300D02*
X60900D01*
X59500Y85900D02*
Y88700D01*
X138900Y88400D02*
X141700D01*
X140300Y87000D02*
Y89800D01*
X147100Y102400D02*
X149900D01*
X148500Y101000D02*
Y103800D01*
X206100Y52000D02*
X208900D01*
X207500Y50600D02*
Y53400D01*
X171000Y200800D02*
X173800D01*
X172400Y199400D02*
Y202200D01*
X62900Y181800D02*
X65700D01*
X64300Y180400D02*
Y183200D01*
X114700Y107300D02*
X117500D01*
X116100Y105900D02*
Y108700D01*
X114700Y164000D02*
X117500D01*
X116100Y162600D02*
Y165400D01*
X37600Y51500D02*
X40400D01*
X39000Y50100D02*
Y52900D01*
X62100Y52000D02*
X64900D01*
X63500Y50600D02*
Y53400D01*
X230100Y48500D02*
X232900D01*
X231500Y47100D02*
Y49900D01*
X106600Y218716D02*
X109400D01*
X108000Y217316D02*
Y220116D01*
X104700Y203100D02*
X107500D01*
X106100Y201700D02*
Y204500D01*
X151800Y85039D02*
X154600D01*
X153200Y83639D02*
Y86439D01*
X131100Y114000D02*
X133900D01*
X132500Y112600D02*
Y115400D01*
X170000Y85039D02*
X172800D01*
X171400Y83639D02*
Y86439D01*
X172700Y127100D02*
X175500D01*
X174100Y125700D02*
Y128500D01*
X183100Y137600D02*
X185900D01*
X184500Y136200D02*
Y139000D01*
X192000Y146500D02*
X194800D01*
X193400Y145100D02*
Y147900D01*
X145800Y181900D02*
X148600D01*
X147200Y180500D02*
Y183300D01*
X160100Y178800D02*
X162900D01*
X161500Y177400D02*
Y180200D01*
X176800Y184000D02*
X179600D01*
X178200Y182600D02*
Y185400D01*
X179200Y176000D02*
X182000D01*
X180600Y174600D02*
Y177400D01*
X116700Y188300D02*
X119500D01*
X118100Y186900D02*
Y189700D01*
X114700Y172700D02*
X117500D01*
X116100Y171300D02*
Y174100D01*
X197122Y216322D02*
X199922D01*
X198522Y214922D02*
Y217722D01*
X197300Y189100D02*
X200100D01*
X198700Y187700D02*
Y190500D01*
X199240Y107623D02*
X202040D01*
X200640Y106223D02*
Y109023D01*
X201800Y130300D02*
X204600D01*
X203200Y128900D02*
Y131700D01*
X201200Y241900D02*
X204000D01*
X202600Y240500D02*
Y243300D01*
M02*
