G04*
G04 #@! TF.GenerationSoftware,Altium Limited,Altium Designer,23.2.1 (34)*
G04*
G04 Layer_Color=8421504*
%FSLAX25Y25*%
%MOIN*%
G70*
G04*
G04 #@! TF.SameCoordinates,168D8CC4-6B96-4916-8BE8-BBD7D9E71175*
G04*
G04*
G04 #@! TF.FilePolarity,Positive*
G04*
G01*
G75*
G04:AMPARAMS|DCode=14|XSize=37.01mil|YSize=40.16mil|CornerRadius=3.7mil|HoleSize=0mil|Usage=FLASHONLY|Rotation=270.000|XOffset=0mil|YOffset=0mil|HoleType=Round|Shape=RoundedRectangle|*
%AMROUNDEDRECTD14*
21,1,0.03701,0.03276,0,0,270.0*
21,1,0.02961,0.04016,0,0,270.0*
1,1,0.00740,-0.01638,-0.01480*
1,1,0.00740,-0.01638,0.01480*
1,1,0.00740,0.01638,0.01480*
1,1,0.00740,0.01638,-0.01480*
%
%ADD14ROUNDEDRECTD14*%
G04:AMPARAMS|DCode=15|XSize=37.01mil|YSize=40.16mil|CornerRadius=3.7mil|HoleSize=0mil|Usage=FLASHONLY|Rotation=0.000|XOffset=0mil|YOffset=0mil|HoleType=Round|Shape=RoundedRectangle|*
%AMROUNDEDRECTD15*
21,1,0.03701,0.03276,0,0,0.0*
21,1,0.02961,0.04016,0,0,0.0*
1,1,0.00740,0.01480,-0.01638*
1,1,0.00740,-0.01480,-0.01638*
1,1,0.00740,-0.01480,0.01638*
1,1,0.00740,0.01480,0.01638*
%
%ADD15ROUNDEDRECTD15*%
%ADD16O,0.07756X0.02362*%
%ADD17O,0.03701X0.04016*%
%ADD18O,0.02362X0.07756*%
%ADD19R,0.03425X0.03661*%
%ADD20R,0.01260X0.01968*%
%ADD21O,0.04016X0.03701*%
%ADD22R,0.03661X0.03425*%
%ADD23R,0.02559X0.03543*%
%ADD24R,0.03622X0.03858*%
%ADD25R,0.01654X0.01968*%
%ADD26R,0.02756X0.01968*%
%ADD27R,0.03543X0.02559*%
%ADD28R,0.03189X0.03858*%
%ADD29R,0.03858X0.03189*%
%ADD30R,0.03819X0.03622*%
%ADD31R,0.03622X0.03819*%
D14*
X232500Y183610D02*
D03*
Y177390D02*
D03*
X230874Y227699D02*
D03*
Y221478D02*
D03*
D15*
X224890Y202000D02*
D03*
X231110D02*
D03*
D16*
X211244Y221500D02*
D03*
X147295Y129051D02*
D03*
X132756Y206000D02*
D03*
X147295Y114051D02*
D03*
Y119051D02*
D03*
Y124051D02*
D03*
Y134051D02*
D03*
Y139051D02*
D03*
Y144051D02*
D03*
X166783D02*
D03*
Y139051D02*
D03*
Y134051D02*
D03*
Y129051D02*
D03*
Y124051D02*
D03*
Y119051D02*
D03*
Y114051D02*
D03*
X211244Y231500D02*
D03*
Y226500D02*
D03*
Y216500D02*
D03*
Y211500D02*
D03*
Y206500D02*
D03*
Y201500D02*
D03*
X191756D02*
D03*
Y206500D02*
D03*
Y211500D02*
D03*
Y216500D02*
D03*
Y221500D02*
D03*
Y226500D02*
D03*
Y231500D02*
D03*
X132756Y191000D02*
D03*
Y196000D02*
D03*
Y201000D02*
D03*
Y211000D02*
D03*
Y216000D02*
D03*
Y221000D02*
D03*
X152244D02*
D03*
Y216000D02*
D03*
Y211000D02*
D03*
Y206000D02*
D03*
Y201000D02*
D03*
Y196000D02*
D03*
Y191000D02*
D03*
D17*
X227610Y152551D02*
D03*
X215149Y96551D02*
D03*
X208929D02*
D03*
X54610Y92000D02*
D03*
X48390D02*
D03*
X84110Y123500D02*
D03*
X77890D02*
D03*
X167110Y152000D02*
D03*
X160890D02*
D03*
X127270Y143456D02*
D03*
X133490D02*
D03*
X83110Y208051D02*
D03*
X76890D02*
D03*
X157110Y97551D02*
D03*
X150890D02*
D03*
X156110Y176551D02*
D03*
X149890D02*
D03*
X176110Y234000D02*
D03*
X169890D02*
D03*
X66110Y173500D02*
D03*
X59890D02*
D03*
X221390Y152551D02*
D03*
X121500Y234051D02*
D03*
X127720D02*
D03*
D18*
X220500Y118512D02*
D03*
X230500D02*
D03*
X225500D02*
D03*
X215500D02*
D03*
X210500D02*
D03*
X205500D02*
D03*
X200500D02*
D03*
Y138000D02*
D03*
X205500D02*
D03*
X210500D02*
D03*
X215500D02*
D03*
X220500D02*
D03*
X225500D02*
D03*
X230500D02*
D03*
D19*
X147429Y233500D02*
D03*
X134929Y153051D02*
D03*
X141071D02*
D03*
X138071Y176500D02*
D03*
X131929D02*
D03*
X84642Y106500D02*
D03*
X78500D02*
D03*
X86571Y181000D02*
D03*
X80429D02*
D03*
X153571Y233500D02*
D03*
X48681Y151051D02*
D03*
X42539D02*
D03*
X64071Y211500D02*
D03*
X57929D02*
D03*
X46571Y232000D02*
D03*
X40429D02*
D03*
D20*
X209650Y80500D02*
D03*
X185000D02*
D03*
X137150D02*
D03*
X160500Y80000D02*
D03*
X87500D02*
D03*
X113575Y79563D02*
D03*
X65500Y78500D02*
D03*
X39650Y79000D02*
D03*
X206500Y80500D02*
D03*
X181850D02*
D03*
X157350Y80000D02*
D03*
X134000Y80500D02*
D03*
X110425Y79563D02*
D03*
X84350Y80000D02*
D03*
X62350Y78500D02*
D03*
X36500Y79000D02*
D03*
D21*
X207925Y60377D02*
D03*
X183425D02*
D03*
X136000Y60390D02*
D03*
X158925Y60377D02*
D03*
X111000Y60890D02*
D03*
X85506Y60744D02*
D03*
X38850Y60440D02*
D03*
X62850D02*
D03*
X158925Y66598D02*
D03*
X111000Y67110D02*
D03*
X69539Y150941D02*
D03*
Y157161D02*
D03*
X117000Y144940D02*
D03*
Y151161D02*
D03*
X207925Y66598D02*
D03*
X183425D02*
D03*
X136000Y66610D02*
D03*
X85506Y66965D02*
D03*
X62850Y66661D02*
D03*
X38850D02*
D03*
X80539Y151441D02*
D03*
Y157661D02*
D03*
X65000Y226440D02*
D03*
Y232661D02*
D03*
X110000Y228440D02*
D03*
Y234661D02*
D03*
X76000Y228940D02*
D03*
Y235161D02*
D03*
D22*
X93500Y228480D02*
D03*
X108000Y149929D02*
D03*
X101500Y230429D02*
D03*
X94500Y151929D02*
D03*
X56500Y228429D02*
D03*
X59539Y150480D02*
D03*
X101000Y131929D02*
D03*
Y138071D02*
D03*
X59000Y105980D02*
D03*
Y112121D02*
D03*
X108000Y156071D02*
D03*
X59539Y156622D02*
D03*
X94500Y158071D02*
D03*
X184500Y123480D02*
D03*
Y129622D02*
D03*
X63039Y132480D02*
D03*
Y138622D02*
D03*
X115000Y212929D02*
D03*
Y219071D02*
D03*
X101500Y236571D02*
D03*
X132000Y102571D02*
D03*
Y96429D02*
D03*
X184500Y113071D02*
D03*
Y106929D02*
D03*
X173000Y193571D02*
D03*
Y187429D02*
D03*
X63500Y196071D02*
D03*
Y189929D02*
D03*
X172500Y215429D02*
D03*
Y221571D02*
D03*
X93500Y234621D02*
D03*
X56500Y234571D02*
D03*
D23*
X79646Y195500D02*
D03*
X92646Y99500D02*
D03*
X98354D02*
D03*
X85354Y195500D02*
D03*
D24*
X244949Y236500D02*
D03*
X251051D02*
D03*
X245449Y180500D02*
D03*
X251551D02*
D03*
X245449Y172000D02*
D03*
X251551D02*
D03*
D25*
X208075Y84437D02*
D03*
X183425Y84437D02*
D03*
X158925Y83937D02*
D03*
X135575Y84437D02*
D03*
X112000Y83500D02*
D03*
X85925Y83937D02*
D03*
X63925Y82437D02*
D03*
X38075Y82937D02*
D03*
D26*
X47835Y79000D02*
D03*
X52165D02*
D03*
X218835Y80500D02*
D03*
X223165D02*
D03*
X192335Y79000D02*
D03*
X196665D02*
D03*
X167835Y78500D02*
D03*
X172165D02*
D03*
X143835Y79000D02*
D03*
X148165D02*
D03*
X119835D02*
D03*
X124165D02*
D03*
X95835D02*
D03*
X100165D02*
D03*
X71835D02*
D03*
X76165D02*
D03*
D27*
X177280Y156905D02*
D03*
Y151196D02*
D03*
X177000Y206500D02*
D03*
Y200791D02*
D03*
D28*
X118036Y99500D02*
D03*
X111965D02*
D03*
X117035Y198500D02*
D03*
X110965D02*
D03*
X104036Y208500D02*
D03*
X97965D02*
D03*
D29*
X115000Y113464D02*
D03*
Y119535D02*
D03*
X101000Y119036D02*
D03*
Y112965D02*
D03*
X192539Y153015D02*
D03*
Y159086D02*
D03*
X164500Y199965D02*
D03*
Y206036D02*
D03*
X98000Y192965D02*
D03*
Y199035D02*
D03*
D30*
X45500Y110551D02*
D03*
Y104449D02*
D03*
X43000Y211051D02*
D03*
Y204949D02*
D03*
D31*
X43059Y124551D02*
D03*
X49161D02*
D03*
X41949Y189500D02*
D03*
X48051D02*
D03*
X75949Y136500D02*
D03*
X82051D02*
D03*
X42488Y134551D02*
D03*
X48590D02*
D03*
X76949Y217051D02*
D03*
X83051D02*
D03*
X46449Y172000D02*
D03*
X52551D02*
D03*
M02*
