G04*
G04 #@! TF.GenerationSoftware,Altium Limited,Altium Designer,23.2.1 (34)*
G04*
G04 Layer_Color=32896*
%FSLAX25Y25*%
%MOIN*%
G70*
G04*
G04 #@! TF.SameCoordinates,168D8CC4-6B96-4916-8BE8-BBD7D9E71175*
G04*
G04*
G04 #@! TF.FilePolarity,Positive*
G04*
G01*
G75*
%ADD13C,0.00400*%
D13*
X228600Y56900D02*
Y57766D01*
X228167Y58200D01*
X227734Y57766D01*
Y56900D01*
Y57550D01*
X228600D01*
X227300Y58200D02*
Y56900D01*
X226651D01*
X226434Y57117D01*
Y57333D01*
X226651Y57550D01*
X227300D01*
X226651D01*
X226434Y57766D01*
Y57983D01*
X226651Y58200D01*
X227300D01*
X225134Y57983D02*
X225351Y58200D01*
X225784D01*
X226001Y57983D01*
Y57117D01*
X225784Y56900D01*
X225351D01*
X225134Y57117D01*
X228600Y67400D02*
Y68700D01*
X228167Y68266D01*
X227734Y68700D01*
Y67400D01*
X227300D02*
Y68266D01*
X226867Y68700D01*
X226434Y68266D01*
Y67400D01*
Y68050D01*
X227300D01*
X226001Y68700D02*
Y67400D01*
X225351D01*
X225134Y67617D01*
Y67833D01*
X225351Y68050D01*
X226001D01*
X225351D01*
X225134Y68266D01*
Y68483D01*
X225351Y68700D01*
X226001D01*
X204600Y67400D02*
Y68700D01*
X204167Y68266D01*
X203734Y68700D01*
Y67400D01*
X203300D02*
Y68266D01*
X202867Y68700D01*
X202434Y68266D01*
Y67400D01*
Y68050D01*
X203300D01*
X202001Y68700D02*
Y67400D01*
X201351D01*
X201134Y67617D01*
Y67833D01*
X201351Y68050D01*
X202001D01*
X201351D01*
X201134Y68266D01*
Y68483D01*
X201351Y68700D01*
X202001D01*
X203734Y57983D02*
X203950Y58200D01*
X204383D01*
X204600Y57983D01*
Y57117D01*
X204383Y56900D01*
X203950D01*
X203734Y57117D01*
X203300Y58200D02*
Y56900D01*
X202867Y57333D01*
X202434Y56900D01*
Y58200D01*
X202001Y56900D02*
Y58200D01*
X201351D01*
X201134Y57983D01*
Y57550D01*
X201351Y57333D01*
X202001D01*
X201568D02*
X201134Y56900D01*
M02*
