G04*
G04 #@! TF.GenerationSoftware,Altium Limited,Altium Designer,23.2.1 (34)*
G04*
G04 Layer_Color=65535*
%FSLAX25Y25*%
%MOIN*%
G70*
G04*
G04 #@! TF.SameCoordinates,168D8CC4-6B96-4916-8BE8-BBD7D9E71175*
G04*
G04*
G04 #@! TF.FilePolarity,Positive*
G04*
G01*
G75*
%ADD10C,0.00787*%
%ADD11C,0.00984*%
%ADD12C,0.00500*%
%ADD13C,0.00400*%
D10*
X173378Y112909D02*
G03*
X173378Y112909I-394J0D01*
G01*
X185949Y232642D02*
G03*
X185949Y232642I-394J0D01*
G01*
X158839Y189858D02*
G03*
X158839Y189858I-394J0D01*
G01*
X232035Y144201D02*
G03*
X232035Y144201I-394J0D01*
G01*
X32573Y245320D02*
Y265320D01*
X232573Y245320D02*
Y265320D01*
X32573D02*
X232573D01*
X32573Y245320D02*
X232573D01*
X254500Y84000D02*
Y164000D01*
X244500Y84000D02*
Y164000D01*
X254500D01*
X244500Y84000D02*
X254500D01*
X239000Y229500D02*
X259000D01*
X239000Y189500D02*
X259000D01*
X239000D02*
Y229500D01*
X259000Y189500D02*
Y229500D01*
X176575Y53988D02*
Y73988D01*
X166575Y53988D02*
X176575D01*
X166575D02*
Y73988D01*
X176575D01*
X94650D02*
X104650D01*
X94650Y53988D02*
Y73988D01*
Y53988D02*
X104650D01*
Y73988D01*
X46500D02*
X56500D01*
X46500Y53988D02*
Y73988D01*
Y53988D02*
X56500D01*
Y73988D01*
X174110Y100051D02*
X194110D01*
Y97051D02*
X195010D01*
X194110Y94051D02*
Y100051D01*
X174110Y94051D02*
Y97051D01*
Y94051D02*
X194110D01*
X173210Y97051D02*
X174110D01*
Y100051D01*
X178500Y172500D02*
X198500D01*
Y169500D02*
X199400D01*
X198500Y166500D02*
Y172500D01*
X178500Y166500D02*
Y169500D01*
Y166500D02*
X198500D01*
X177600Y169500D02*
X178500D01*
Y172500D01*
X30583Y86039D02*
Y97063D01*
X9559D02*
X30583D01*
X9559Y86039D02*
Y97063D01*
Y86039D02*
X30583D01*
Y105182D02*
Y116205D01*
X9559D02*
X30583D01*
X9559Y105182D02*
Y116205D01*
Y105182D02*
X30583D01*
Y181753D02*
Y192777D01*
X9559D02*
X30583D01*
X9559Y181753D02*
Y192777D01*
Y181753D02*
X30583D01*
X215500Y73988D02*
X225500D01*
X215500Y53988D02*
Y73988D01*
Y53988D02*
X225500D01*
Y73988D01*
X191075D02*
X201075D01*
X191075Y53988D02*
Y73988D01*
Y53988D02*
X201075D01*
Y73988D01*
X142650D02*
X152650D01*
X142650Y53988D02*
Y73988D01*
Y53988D02*
X152650D01*
Y73988D01*
X118650D02*
X128650D01*
X118650Y53988D02*
Y73988D01*
Y53988D02*
X128650D01*
Y73988D01*
X70500D02*
X80500D01*
X70500Y53988D02*
Y73988D01*
Y53988D02*
X80500D01*
Y73988D01*
X30583Y124325D02*
Y135348D01*
X9559D02*
X30583D01*
X9559Y124325D02*
Y135348D01*
Y124325D02*
X30583D01*
Y143467D02*
Y154491D01*
X9559D02*
X30583D01*
X9559Y143467D02*
Y154491D01*
Y143467D02*
X30583D01*
Y200896D02*
Y211920D01*
X9559D02*
X30583D01*
X9559Y200896D02*
Y211920D01*
Y200896D02*
X30583D01*
Y220039D02*
Y231062D01*
X9559D02*
X30583D01*
X9559Y220039D02*
Y231062D01*
Y220039D02*
X30583D01*
Y162610D02*
Y173634D01*
X9559D02*
X30583D01*
X9559Y162610D02*
Y173634D01*
Y162610D02*
X30583D01*
D11*
X15563Y99621D02*
G03*
X15563Y99621I-492J0D01*
G01*
X15563Y118764D02*
G03*
X15563Y118764I-492J0D01*
G01*
Y195336D02*
G03*
X15563Y195336I-492J0D01*
G01*
Y137907D02*
G03*
X15563Y137907I-492J0D01*
G01*
Y157050D02*
G03*
X15563Y157050I-492J0D01*
G01*
Y214478D02*
G03*
X15563Y214478I-492J0D01*
G01*
Y233621D02*
G03*
X15563Y233621I-492J0D01*
G01*
Y176193D02*
G03*
X15563Y176193I-492J0D01*
G01*
D12*
X235217Y177350D02*
Y183650D01*
X229783Y177350D02*
Y183650D01*
X224850Y204717D02*
X231150D01*
X224850Y199283D02*
X231150D01*
X233591Y221439D02*
Y227738D01*
X228158Y221439D02*
Y227738D01*
X152433Y112023D02*
X161646D01*
X152433Y146078D02*
X161646D01*
X196894Y233528D02*
X206106D01*
X196894Y199472D02*
X206106D01*
X137894Y188973D02*
X147106D01*
X137894Y223028D02*
X147106D01*
X156209Y60338D02*
Y66637D01*
X161642Y60338D02*
Y66637D01*
X108283Y60850D02*
Y67150D01*
X113717Y60850D02*
Y67150D01*
X175705Y153736D02*
Y154366D01*
X178854Y153736D02*
Y154366D01*
X208890Y93834D02*
X215189D01*
X208890Y99267D02*
X215189D01*
X48350Y94717D02*
X54650D01*
X48350Y89284D02*
X54650D01*
X72256Y150901D02*
Y157200D01*
X66823Y150901D02*
Y157200D01*
X77850Y126217D02*
X84149D01*
X77850Y120784D02*
X84149D01*
X160850Y154717D02*
X167150D01*
X160850Y149283D02*
X167150D01*
X127230Y140740D02*
X133530D01*
X127230Y146173D02*
X133530D01*
X119717Y144901D02*
Y151200D01*
X114284Y144901D02*
Y151200D01*
X76850Y210767D02*
X83150D01*
X76850Y205334D02*
X83150D01*
X150851Y100267D02*
X157150D01*
X150851Y94834D02*
X157150D01*
X149850Y179267D02*
X156150D01*
X149850Y173834D02*
X156150D01*
X95185Y101075D02*
X95815D01*
X95185Y97925D02*
X95815D01*
X82185Y197075D02*
X82815D01*
X82185Y193925D02*
X82815D01*
X232528Y123650D02*
Y132862D01*
X198472Y123650D02*
Y132862D01*
X205209Y60338D02*
Y66637D01*
X210642Y60338D02*
Y66637D01*
X180709Y60338D02*
Y66637D01*
X186142Y60338D02*
Y66637D01*
X133283Y60350D02*
Y66649D01*
X138717Y60350D02*
Y66649D01*
X82789Y60705D02*
Y67004D01*
X88222Y60705D02*
Y67004D01*
X60134Y60401D02*
Y66700D01*
X65567Y60401D02*
Y66700D01*
X36134Y60401D02*
Y66700D01*
X41567Y60401D02*
Y66700D01*
X175425Y203331D02*
Y203961D01*
X178575Y203331D02*
Y203961D01*
X83256Y151401D02*
Y157700D01*
X77823Y151401D02*
Y157700D01*
X67717Y226401D02*
Y232700D01*
X62283Y226401D02*
Y232700D01*
X112717Y228401D02*
Y234700D01*
X107283Y228401D02*
Y234700D01*
X169850Y236717D02*
X176150D01*
X169850Y231284D02*
X176150D01*
X59850Y176217D02*
X66150D01*
X59850Y170784D02*
X66150D01*
X221350Y149834D02*
X227650D01*
X221350Y155267D02*
X227650D01*
X121461Y231334D02*
X127760D01*
X121461Y236767D02*
X127760D01*
X78717Y228901D02*
Y235200D01*
X73283Y228901D02*
Y235200D01*
D13*
X230524Y243700D02*
X231205D01*
X230833Y243205D01*
X231019D01*
X231143Y243143D01*
X231205Y243081D01*
X231266Y242895D01*
Y242771D01*
X231205Y242586D01*
X231081Y242462D01*
X230895Y242400D01*
X230710D01*
X230524Y242462D01*
X230462Y242524D01*
X230400Y242648D01*
X232362Y243267D02*
X232300Y243081D01*
X232176Y242957D01*
X231991Y242895D01*
X231929D01*
X231743Y242957D01*
X231619Y243081D01*
X231557Y243267D01*
Y243328D01*
X231619Y243514D01*
X231743Y243638D01*
X231929Y243700D01*
X231991D01*
X232176Y243638D01*
X232300Y243514D01*
X232362Y243267D01*
Y242957D01*
X232300Y242648D01*
X232176Y242462D01*
X231991Y242400D01*
X231867D01*
X231681Y242462D01*
X231619Y242586D01*
X231019Y269200D02*
X230400Y268333D01*
X231328D01*
X231019Y269200D02*
Y267900D01*
X231929Y269200D02*
X231743Y269138D01*
X231619Y268952D01*
X231557Y268643D01*
Y268457D01*
X231619Y268148D01*
X231743Y267962D01*
X231929Y267900D01*
X232052D01*
X232238Y267962D01*
X232362Y268148D01*
X232424Y268457D01*
Y268643D01*
X232362Y268952D01*
X232238Y269138D01*
X232052Y269200D01*
X231929D01*
X33962Y268390D02*
Y268452D01*
X34024Y268576D01*
X34086Y268638D01*
X34209Y268700D01*
X34457D01*
X34581Y268638D01*
X34643Y268576D01*
X34705Y268452D01*
Y268328D01*
X34643Y268205D01*
X34519Y268019D01*
X33900Y267400D01*
X34767D01*
X30400Y247452D02*
X30524Y247514D01*
X30709Y247700D01*
Y246400D01*
X244917Y230500D02*
X244700Y230717D01*
Y231150D01*
X244917Y231366D01*
X245134D01*
X245350Y231150D01*
X245567Y231366D01*
X245783D01*
X246000Y231150D01*
Y230717D01*
X245783Y230500D01*
X245567D01*
X245350Y230717D01*
X245134Y230500D01*
X244917D01*
X245350Y230717D02*
Y231150D01*
X254700Y230500D02*
Y231366D01*
X254917D01*
X255783Y230500D01*
X256000D01*
Y186500D02*
Y186933D01*
Y186717D01*
X254700D01*
X254917Y186500D01*
X244600Y186766D02*
Y185900D01*
X243734Y186766D01*
X243517D01*
X243300Y186550D01*
Y186117D01*
X243517Y185900D01*
X202900Y76900D02*
Y77117D01*
X203117D01*
Y76900D01*
X202900D01*
X178250Y76900D02*
Y77117D01*
X178467D01*
Y76900D01*
X178250D01*
X153750Y76400D02*
Y76617D01*
X153967D01*
Y76400D01*
X153750D01*
X130400Y76900D02*
Y77117D01*
X130617D01*
Y76900D01*
X130400D01*
X106825Y75963D02*
Y76179D01*
X107042D01*
Y75963D01*
X106825D01*
X80750Y76400D02*
Y76617D01*
X80967D01*
Y76400D01*
X80750D01*
X58750Y74900D02*
Y75117D01*
X58967D01*
Y74900D01*
X58750D01*
X32900Y75400D02*
Y75617D01*
X33117D01*
Y75400D01*
X32900D01*
X228200Y233000D02*
Y234300D01*
X228850D01*
X229066Y234083D01*
Y233650D01*
X228850Y233433D01*
X228200D01*
X228633D02*
X229066Y233000D01*
X229500Y234083D02*
X229716Y234300D01*
X230149D01*
X230366Y234083D01*
Y233866D01*
X230149Y233650D01*
X229933D01*
X230149D01*
X230366Y233433D01*
Y233217D01*
X230149Y233000D01*
X229716D01*
X229500Y233217D01*
X231665Y233000D02*
X230799D01*
X231665Y233866D01*
Y234083D01*
X231449Y234300D01*
X231016D01*
X230799Y234083D01*
X222400Y207500D02*
Y208800D01*
X223050D01*
X223266Y208583D01*
Y208150D01*
X223050Y207933D01*
X222400D01*
X222833D02*
X223266Y207500D01*
X223700Y208583D02*
X223916Y208800D01*
X224349D01*
X224566Y208583D01*
Y208366D01*
X224349Y208150D01*
X224133D01*
X224349D01*
X224566Y207933D01*
Y207717D01*
X224349Y207500D01*
X223916D01*
X223700Y207717D01*
X224999Y207500D02*
X225432D01*
X225216D01*
Y208800D01*
X224999Y208583D01*
X229800Y188900D02*
Y190200D01*
X230450D01*
X230666Y189983D01*
Y189550D01*
X230450Y189333D01*
X229800D01*
X230233D02*
X230666Y188900D01*
X231100Y189983D02*
X231316Y190200D01*
X231749D01*
X231966Y189983D01*
Y189766D01*
X231749Y189550D01*
X231533D01*
X231749D01*
X231966Y189333D01*
Y189117D01*
X231749Y188900D01*
X231316D01*
X231100Y189117D01*
X232399Y189983D02*
X232616Y190200D01*
X233049D01*
X233265Y189983D01*
Y189117D01*
X233049Y188900D01*
X232616D01*
X232399Y189117D01*
Y189983D01*
X238783Y172933D02*
X238567Y173150D01*
X238134D01*
X237917Y172933D01*
Y172067D01*
X238134Y171850D01*
X238567D01*
X238783Y172067D01*
X239217Y173150D02*
X240083D01*
Y172933D01*
X239217Y172067D01*
Y171850D01*
X238783Y237933D02*
X238567Y238150D01*
X238134D01*
X237917Y237933D01*
Y237067D01*
X238134Y236850D01*
X238567D01*
X238783Y237067D01*
X240083Y238150D02*
X239650Y237933D01*
X239217Y237500D01*
Y237067D01*
X239433Y236850D01*
X239866D01*
X240083Y237067D01*
Y237283D01*
X239866Y237500D01*
X239217D01*
X239283Y181433D02*
X239067Y181650D01*
X238634D01*
X238417Y181433D01*
Y180567D01*
X238634Y180350D01*
X239067D01*
X239283Y180567D01*
X240583Y181650D02*
X239717D01*
Y181000D01*
X240150Y181217D01*
X240366D01*
X240583Y181000D01*
Y180567D01*
X240366Y180350D01*
X239933D01*
X239717Y180567D01*
X27276Y267807D02*
Y269107D01*
X27925D01*
X28142Y268890D01*
Y268457D01*
X27925Y268240D01*
X27276D01*
X28575Y267807D02*
X29008D01*
X28792D01*
Y269107D01*
X28575Y268890D01*
X38249Y195747D02*
X38033Y195964D01*
X37600D01*
X37383Y195747D01*
Y194880D01*
X37600Y194664D01*
X38033D01*
X38249Y194880D01*
X38682Y194664D02*
X39116D01*
X38899D01*
Y195964D01*
X38682Y195747D01*
X39766Y194447D02*
X40632D01*
X41065Y194664D02*
Y195530D01*
X41498Y195964D01*
X41932Y195530D01*
Y194664D01*
Y195314D01*
X41065D01*
X42365Y194447D02*
X43231D01*
X43664Y195964D02*
X44097D01*
X43881D01*
Y194664D01*
X43664D01*
X44097D01*
X44747D02*
Y195964D01*
X45614Y194664D01*
Y195964D01*
X46047Y194447D02*
X46913D01*
X47346Y194664D02*
X47780D01*
X47563D01*
Y195964D01*
X47346Y195747D01*
X39278Y130798D02*
X39062Y131014D01*
X38629D01*
X38412Y130798D01*
Y129931D01*
X38629Y129715D01*
X39062D01*
X39278Y129931D01*
X39712Y129715D02*
X40145D01*
X39928D01*
Y131014D01*
X39712Y130798D01*
X40795Y129498D02*
X41661D01*
X42094Y129715D02*
Y130581D01*
X42527Y131014D01*
X42961Y130581D01*
Y129715D01*
Y130364D01*
X42094D01*
X43394Y129498D02*
X44260D01*
X44693Y131014D02*
X45127D01*
X44910D01*
Y129715D01*
X44693D01*
X45127D01*
X45776D02*
Y131014D01*
X46643Y129715D01*
Y131014D01*
X47076Y129498D02*
X47942D01*
X49242Y129715D02*
X48375D01*
X49242Y130581D01*
Y130798D01*
X49025Y131014D01*
X48592D01*
X48375Y130798D01*
X49247Y214720D02*
X49463Y214937D01*
Y215370D01*
X49247Y215587D01*
X48381D01*
X48164Y215370D01*
Y214937D01*
X48381Y214720D01*
X49247Y214287D02*
X49463Y214070D01*
Y213637D01*
X49247Y213421D01*
X49030D01*
X48814Y213637D01*
Y213854D01*
Y213637D01*
X48597Y213421D01*
X48381D01*
X48164Y213637D01*
Y214070D01*
X48381Y214287D01*
X47947Y212987D02*
Y212121D01*
X48164Y211688D02*
X49030D01*
X49463Y211255D01*
X49030Y210822D01*
X48164D01*
X48814D01*
Y211688D01*
X47947Y210388D02*
Y209522D01*
X49463Y209089D02*
Y208656D01*
Y208872D01*
X48164D01*
Y209089D01*
Y208656D01*
Y208006D02*
X49463D01*
X48164Y207139D01*
X49463D01*
X47947Y206706D02*
Y205840D01*
X48164Y205407D02*
Y204973D01*
Y205190D01*
X49463D01*
X49247Y205407D01*
X42709Y178247D02*
X42492Y178463D01*
X42059D01*
X41842Y178247D01*
Y177381D01*
X42059Y177164D01*
X42492D01*
X42709Y177381D01*
X43792Y177164D02*
Y178463D01*
X43142Y177814D01*
X44008D01*
X44442Y176947D02*
X45308D01*
X45741Y177164D02*
Y178030D01*
X46174Y178463D01*
X46608Y178030D01*
Y177164D01*
Y177814D01*
X45741D01*
X47041Y176947D02*
X47907D01*
X48340Y178463D02*
X48774D01*
X48557D01*
Y177164D01*
X48340D01*
X48774D01*
X49423D02*
Y178463D01*
X50290Y177164D01*
Y178463D01*
X50723Y176947D02*
X51589D01*
X52022Y177164D02*
X52456D01*
X52239D01*
Y178463D01*
X52022Y178247D01*
X74243Y222425D02*
X74027Y222641D01*
X73594D01*
X73377Y222425D01*
Y221558D01*
X73594Y221342D01*
X74027D01*
X74243Y221558D01*
X75543Y221342D02*
X74677D01*
X75543Y222208D01*
Y222425D01*
X75326Y222641D01*
X74893D01*
X74677Y222425D01*
X75976Y221125D02*
X76842D01*
X77276Y221342D02*
Y222208D01*
X77709Y222641D01*
X78142Y222208D01*
Y221342D01*
Y221992D01*
X77276D01*
X78575Y221125D02*
X79442D01*
X79875Y222641D02*
X80308D01*
X80092D01*
Y221342D01*
X79875D01*
X80308D01*
X80958D02*
Y222641D01*
X81824Y221342D01*
Y222641D01*
X82257Y221125D02*
X83124D01*
X83557Y221342D02*
X83990D01*
X83774D01*
Y222641D01*
X83557Y222425D01*
X51747Y114372D02*
X51964Y114589D01*
Y115022D01*
X51747Y115239D01*
X50881D01*
X50664Y115022D01*
Y114589D01*
X50881Y114372D01*
X50664Y113289D02*
X51964D01*
X51314Y113939D01*
Y113073D01*
X50447Y112640D02*
Y111773D01*
X50664Y111340D02*
X51530D01*
X51964Y110907D01*
X51530Y110474D01*
X50664D01*
X51314D01*
Y111340D01*
X50447Y110040D02*
Y109174D01*
X51964Y108741D02*
Y108308D01*
Y108524D01*
X50664D01*
Y108741D01*
Y108308D01*
Y107658D02*
X51964D01*
X50664Y106791D01*
X51964D01*
X50447Y106358D02*
Y105492D01*
X50664Y104192D02*
Y105059D01*
X51530Y104192D01*
X51747D01*
X51964Y104409D01*
Y104842D01*
X51747Y105059D01*
X38738Y140798D02*
X38521Y141014D01*
X38088D01*
X37872Y140798D01*
Y139931D01*
X38088Y139715D01*
X38521D01*
X38738Y139931D01*
X39171Y140798D02*
X39388Y141014D01*
X39821D01*
X40038Y140798D01*
Y140581D01*
X39821Y140364D01*
X39604D01*
X39821D01*
X40038Y140148D01*
Y139931D01*
X39821Y139715D01*
X39388D01*
X39171Y139931D01*
X40471Y139498D02*
X41337D01*
X41770Y139715D02*
Y140581D01*
X42203Y141014D01*
X42637Y140581D01*
Y139715D01*
Y140364D01*
X41770D01*
X43070Y139498D02*
X43936D01*
X44369Y141014D02*
X44803D01*
X44586D01*
Y139715D01*
X44369D01*
X44803D01*
X45452D02*
Y141014D01*
X46319Y139715D01*
Y141014D01*
X46752Y139498D02*
X47618D01*
X48918Y139715D02*
X48052D01*
X48918Y140581D01*
Y140798D01*
X48701Y141014D01*
X48268D01*
X48052Y140798D01*
X72199Y142747D02*
X71982Y142964D01*
X71549D01*
X71332Y142747D01*
Y141881D01*
X71549Y141664D01*
X71982D01*
X72199Y141881D01*
X73498Y141664D02*
X72632D01*
X73498Y142530D01*
Y142747D01*
X73282Y142964D01*
X72848D01*
X72632Y142747D01*
X73931Y141447D02*
X74798D01*
X75231Y141664D02*
Y142530D01*
X75664Y142964D01*
X76097Y142530D01*
Y141664D01*
Y142314D01*
X75231D01*
X76531Y141447D02*
X77397D01*
X77830Y142964D02*
X78263D01*
X78047D01*
Y141664D01*
X77830D01*
X78263D01*
X78913D02*
Y142964D01*
X79779Y141664D01*
Y142964D01*
X80213Y141447D02*
X81079D01*
X82379Y141664D02*
X81512D01*
X82379Y142530D01*
Y142747D01*
X82162Y142964D01*
X81729D01*
X81512Y142747D01*
X18835Y195056D02*
Y196356D01*
X19269Y195923D01*
X19702Y196356D01*
Y195056D01*
X20135Y196356D02*
Y195056D01*
Y195489D01*
X21001Y196356D01*
X20352Y195706D01*
X21001Y195056D01*
X21435D02*
X21868D01*
X21651D01*
Y196356D01*
X21435Y196139D01*
X22518Y194840D02*
X23384D01*
X23817Y195056D02*
Y195923D01*
X24250Y196356D01*
X24684Y195923D01*
Y195056D01*
Y195706D01*
X23817D01*
X25117Y194840D02*
X25983D01*
X26416Y196356D02*
X26849D01*
X26633D01*
Y195056D01*
X26416D01*
X26849D01*
X27499D02*
Y196356D01*
X28366Y195056D01*
Y196356D01*
X28799Y194840D02*
X29665D01*
X30099Y195056D02*
X30532D01*
X30315D01*
Y196356D01*
X30099Y196139D01*
X18380Y117985D02*
Y119284D01*
X18813Y118851D01*
X19246Y119284D01*
Y117985D01*
X19679Y119284D02*
Y117985D01*
Y118418D01*
X20546Y119284D01*
X19896Y118634D01*
X20546Y117985D01*
X20979D02*
X21412D01*
X21195D01*
Y119284D01*
X20979Y119068D01*
X22062Y117768D02*
X22928D01*
X23361Y117985D02*
Y118851D01*
X23795Y119284D01*
X24228Y118851D01*
Y117985D01*
Y118634D01*
X23361D01*
X24661Y117768D02*
X25527D01*
X25961Y119284D02*
X26394D01*
X26177D01*
Y117985D01*
X25961D01*
X26394D01*
X27044D02*
Y119284D01*
X27910Y117985D01*
Y119284D01*
X28343Y117768D02*
X29210D01*
X30509Y117985D02*
X29643D01*
X30509Y118851D01*
Y119068D01*
X30292Y119284D01*
X29859D01*
X29643Y119068D01*
X19127Y175413D02*
Y176713D01*
X19560Y176280D01*
X19994Y176713D01*
Y175413D01*
X20427Y176713D02*
Y175413D01*
Y175847D01*
X21293Y176713D01*
X20643Y176063D01*
X21293Y175413D01*
X22376D02*
Y176713D01*
X21726Y176063D01*
X22593D01*
X23026Y175197D02*
X23892D01*
X24326Y175413D02*
Y176280D01*
X24759Y176713D01*
X25192Y176280D01*
Y175413D01*
Y176063D01*
X24326D01*
X25625Y175197D02*
X26491D01*
X26925Y176713D02*
X27358D01*
X27141D01*
Y175413D01*
X26925D01*
X27358D01*
X28008D02*
Y176713D01*
X28874Y175413D01*
Y176713D01*
X29307Y175197D02*
X30174D01*
X30607Y175413D02*
X31040D01*
X30823D01*
Y176713D01*
X30607Y176496D01*
X19127Y233342D02*
Y234641D01*
X19560Y234208D01*
X19994Y234641D01*
Y233342D01*
X20427Y234641D02*
Y233342D01*
Y233775D01*
X21293Y234641D01*
X20643Y233992D01*
X21293Y233342D01*
X22593D02*
X21726D01*
X22593Y234208D01*
Y234425D01*
X22376Y234641D01*
X21943D01*
X21726Y234425D01*
X23026Y233125D02*
X23892D01*
X24326Y233342D02*
Y234208D01*
X24759Y234641D01*
X25192Y234208D01*
Y233342D01*
Y233992D01*
X24326D01*
X25625Y233125D02*
X26491D01*
X26925Y234641D02*
X27358D01*
X27141D01*
Y233342D01*
X26925D01*
X27358D01*
X28008D02*
Y234641D01*
X28874Y233342D01*
Y234641D01*
X29307Y233125D02*
X30174D01*
X30607Y233342D02*
X31040D01*
X30823D01*
Y234641D01*
X30607Y234425D01*
X18627Y213699D02*
Y214999D01*
X19060Y214565D01*
X19494Y214999D01*
Y213699D01*
X19927Y214999D02*
Y213699D01*
Y214132D01*
X20793Y214999D01*
X20143Y214349D01*
X20793Y213699D01*
X21226Y214782D02*
X21443Y214999D01*
X21876D01*
X22093Y214782D01*
Y214565D01*
X21876Y214349D01*
X21659D01*
X21876D01*
X22093Y214132D01*
Y213916D01*
X21876Y213699D01*
X21443D01*
X21226Y213916D01*
X22526Y213482D02*
X23392D01*
X23825Y213699D02*
Y214565D01*
X24259Y214999D01*
X24692Y214565D01*
Y213699D01*
Y214349D01*
X23825D01*
X25125Y213482D02*
X25991D01*
X26425Y214999D02*
X26858D01*
X26641D01*
Y213699D01*
X26425D01*
X26858D01*
X27508D02*
Y214999D01*
X28374Y213699D01*
Y214999D01*
X28807Y213482D02*
X29674D01*
X30107Y213699D02*
X30540D01*
X30323D01*
Y214999D01*
X30107Y214782D01*
X18672Y98842D02*
Y100142D01*
X19105Y99708D01*
X19538Y100142D01*
Y98842D01*
X19971Y100142D02*
Y98842D01*
Y99275D01*
X20837Y100142D01*
X20188Y99492D01*
X20837Y98842D01*
X21920D02*
Y100142D01*
X21271Y99492D01*
X22137D01*
X22570Y98625D02*
X23437D01*
X23870Y98842D02*
Y99708D01*
X24303Y100142D01*
X24736Y99708D01*
Y98842D01*
Y99492D01*
X23870D01*
X25169Y98625D02*
X26036D01*
X26469Y100142D02*
X26902D01*
X26686D01*
Y98842D01*
X26469D01*
X26902D01*
X27552D02*
Y100142D01*
X28418Y98842D01*
Y100142D01*
X28852Y98625D02*
X29718D01*
X31018Y98842D02*
X30151D01*
X31018Y99708D01*
Y99925D01*
X30801Y100142D01*
X30368D01*
X30151Y99925D01*
X18672Y156770D02*
Y158070D01*
X19105Y157637D01*
X19538Y158070D01*
Y156770D01*
X19971Y158070D02*
Y156770D01*
Y157203D01*
X20837Y158070D01*
X20188Y157420D01*
X20837Y156770D01*
X22137D02*
X21271D01*
X22137Y157637D01*
Y157853D01*
X21920Y158070D01*
X21487D01*
X21271Y157853D01*
X22570Y156554D02*
X23437D01*
X23870Y156770D02*
Y157637D01*
X24303Y158070D01*
X24736Y157637D01*
Y156770D01*
Y157420D01*
X23870D01*
X25169Y156554D02*
X26036D01*
X26469Y158070D02*
X26902D01*
X26686D01*
Y156770D01*
X26469D01*
X26902D01*
X27552D02*
Y158070D01*
X28418Y156770D01*
Y158070D01*
X28852Y156554D02*
X29718D01*
X31018Y156770D02*
X30151D01*
X31018Y157637D01*
Y157853D01*
X30801Y158070D01*
X30368D01*
X30151Y157853D01*
X18171Y137127D02*
Y138427D01*
X18605Y137994D01*
X19038Y138427D01*
Y137127D01*
X19471Y138427D02*
Y137127D01*
Y137561D01*
X20337Y138427D01*
X19688Y137777D01*
X20337Y137127D01*
X20771Y138210D02*
X20987Y138427D01*
X21420D01*
X21637Y138210D01*
Y137994D01*
X21420Y137777D01*
X21204D01*
X21420D01*
X21637Y137561D01*
Y137344D01*
X21420Y137127D01*
X20987D01*
X20771Y137344D01*
X22070Y136911D02*
X22937D01*
X23370Y137127D02*
Y137994D01*
X23803Y138427D01*
X24236Y137994D01*
Y137127D01*
Y137777D01*
X23370D01*
X24669Y136911D02*
X25536D01*
X25969Y138427D02*
X26402D01*
X26186D01*
Y137127D01*
X25969D01*
X26402D01*
X27052D02*
Y138427D01*
X27918Y137127D01*
Y138427D01*
X28352Y136911D02*
X29218D01*
X30518Y137127D02*
X29651D01*
X30518Y137994D01*
Y138210D01*
X30301Y138427D01*
X29868D01*
X29651Y138210D01*
X159813Y210920D02*
Y212220D01*
X160463D01*
X160680Y212003D01*
Y211570D01*
X160463Y211353D01*
X159813D01*
X160247D02*
X160680Y210920D01*
X161113Y212003D02*
X161329Y212220D01*
X161763D01*
X161979Y212003D01*
Y211786D01*
X161763Y211570D01*
X161979Y211353D01*
Y211137D01*
X161763Y210920D01*
X161329D01*
X161113Y211137D01*
Y211353D01*
X161329Y211570D01*
X161113Y211786D01*
Y212003D01*
X161329Y211570D02*
X161763D01*
X162412Y210703D02*
X163279D01*
X163712Y210920D02*
Y211786D01*
X164145Y212220D01*
X164578Y211786D01*
Y210920D01*
Y211570D01*
X163712D01*
X165012Y210703D02*
X165878D01*
X166311Y212220D02*
X166744D01*
X166528D01*
Y210920D01*
X166311D01*
X166744D01*
X167394D02*
Y212220D01*
X168261Y210920D01*
Y212220D01*
X168694Y210703D02*
X169560D01*
X169993Y210920D02*
X170426D01*
X170210D01*
Y212220D01*
X169993Y212003D01*
X187627Y162842D02*
Y164141D01*
X188277D01*
X188493Y163925D01*
Y163492D01*
X188277Y163275D01*
X187627D01*
X188060D02*
X188493Y162842D01*
X188927Y163925D02*
X189143Y164141D01*
X189576D01*
X189793Y163925D01*
Y163708D01*
X189576Y163492D01*
X189793Y163275D01*
Y163058D01*
X189576Y162842D01*
X189143D01*
X188927Y163058D01*
Y163275D01*
X189143Y163492D01*
X188927Y163708D01*
Y163925D01*
X189143Y163492D02*
X189576D01*
X190226Y162625D02*
X191093D01*
X191526Y162842D02*
Y163708D01*
X191959Y164141D01*
X192392Y163708D01*
Y162842D01*
Y163492D01*
X191526D01*
X192825Y162625D02*
X193692D01*
X194125Y164141D02*
X194558D01*
X194342D01*
Y162842D01*
X194125D01*
X194558D01*
X195208D02*
Y164141D01*
X196074Y162842D01*
Y164141D01*
X196508Y162625D02*
X197374D01*
X198673Y162842D02*
X197807D01*
X198673Y163708D01*
Y163925D01*
X198457Y164141D01*
X198024D01*
X197807Y163925D01*
X89386Y190436D02*
Y189136D01*
X88737D01*
X88520Y189353D01*
Y189786D01*
X88737Y190003D01*
X89386D01*
X88953D02*
X88520Y190436D01*
X88087Y190219D02*
X87870Y190436D01*
X87437D01*
X87221Y190219D01*
Y189353D01*
X87437Y189136D01*
X87870D01*
X88087Y189353D01*
Y189570D01*
X87870Y189786D01*
X87221D01*
X86787Y190653D02*
X85921D01*
X85488Y190436D02*
Y189570D01*
X85055Y189136D01*
X84621Y189570D01*
Y190436D01*
Y189786D01*
X85488D01*
X84188Y190653D02*
X83322D01*
X82889Y189136D02*
X82455D01*
X82672D01*
Y190436D01*
X82889D01*
X82455D01*
X81806D02*
Y189136D01*
X80939Y190436D01*
Y189136D01*
X80506Y190653D02*
X79640D01*
X79207Y190436D02*
X78773D01*
X78990D01*
Y189136D01*
X79207Y189353D01*
X88532Y104564D02*
Y105863D01*
X89182D01*
X89399Y105647D01*
Y105214D01*
X89182Y104997D01*
X88532D01*
X88965D02*
X89399Y104564D01*
X89832Y104780D02*
X90048Y104564D01*
X90482D01*
X90698Y104780D01*
Y105647D01*
X90482Y105863D01*
X90048D01*
X89832Y105647D01*
Y105430D01*
X90048Y105214D01*
X90698D01*
X91131Y104347D02*
X91998D01*
X92431Y104564D02*
Y105430D01*
X92864Y105863D01*
X93297Y105430D01*
Y104564D01*
Y105214D01*
X92431D01*
X93730Y104347D02*
X94597D01*
X95030Y105863D02*
X95463D01*
X95247D01*
Y104564D01*
X95030D01*
X95463D01*
X96113D02*
Y105863D01*
X96979Y104564D01*
Y105863D01*
X97413Y104347D02*
X98279D01*
X99579Y104564D02*
X98712D01*
X99579Y105430D01*
Y105647D01*
X99362Y105863D01*
X98929D01*
X98712Y105647D01*
X75913Y186164D02*
Y187463D01*
X76563D01*
X76780Y187247D01*
Y186814D01*
X76563Y186597D01*
X75913D01*
X76346D02*
X76780Y186164D01*
X77213Y187247D02*
X77429Y187463D01*
X77863D01*
X78079Y187247D01*
Y187030D01*
X77863Y186814D01*
X77646D01*
X77863D01*
X78079Y186597D01*
Y186381D01*
X77863Y186164D01*
X77429D01*
X77213Y186381D01*
X78513Y185947D02*
X79379D01*
X79812Y186164D02*
Y187030D01*
X80245Y187463D01*
X80678Y187030D01*
Y186164D01*
Y186814D01*
X79812D01*
X81112Y185947D02*
X81978D01*
X82411Y187463D02*
X82844D01*
X82628D01*
Y186164D01*
X82411D01*
X82844D01*
X83494D02*
Y187463D01*
X84361Y186164D01*
Y187463D01*
X84794Y185947D02*
X85660D01*
X86093Y186164D02*
X86527D01*
X86310D01*
Y187463D01*
X86093Y187247D01*
X73903Y111664D02*
Y112963D01*
X74553D01*
X74770Y112747D01*
Y112314D01*
X74553Y112097D01*
X73903D01*
X74336D02*
X74770Y111664D01*
X75203Y112747D02*
X75419Y112963D01*
X75853D01*
X76069Y112747D01*
Y112530D01*
X75853Y112314D01*
X75636D01*
X75853D01*
X76069Y112097D01*
Y111880D01*
X75853Y111664D01*
X75419D01*
X75203Y111880D01*
X76502Y111447D02*
X77369D01*
X77802Y111664D02*
Y112530D01*
X78235Y112963D01*
X78668Y112530D01*
Y111664D01*
Y112314D01*
X77802D01*
X79102Y111447D02*
X79968D01*
X80401Y112963D02*
X80834D01*
X80618D01*
Y111664D01*
X80401D01*
X80834D01*
X81484D02*
Y112963D01*
X82350Y111664D01*
Y112963D01*
X82784Y111447D02*
X83650D01*
X84950Y111664D02*
X84083D01*
X84950Y112530D01*
Y112747D01*
X84733Y112963D01*
X84300D01*
X84083Y112747D01*
X149877Y169842D02*
Y171142D01*
X150527D01*
X150743Y170925D01*
Y170492D01*
X150527Y170275D01*
X149877D01*
X150310D02*
X150743Y169842D01*
X152043Y171142D02*
X151177D01*
Y170492D01*
X151610Y170708D01*
X151826D01*
X152043Y170492D01*
Y170059D01*
X151826Y169842D01*
X151393D01*
X151177Y170059D01*
X152476Y169625D02*
X153342D01*
X153776Y169842D02*
Y170708D01*
X154209Y171142D01*
X154642Y170708D01*
Y169842D01*
Y170492D01*
X153776D01*
X155075Y169625D02*
X155942D01*
X156375Y171142D02*
X156808D01*
X156591D01*
Y169842D01*
X156375D01*
X156808D01*
X157458D02*
Y171142D01*
X158324Y169842D01*
Y171142D01*
X158757Y169625D02*
X159624D01*
X160057Y169842D02*
X160490D01*
X160274D01*
Y171142D01*
X160057Y170925D01*
X145883Y92900D02*
X144584D01*
Y93550D01*
X144800Y93766D01*
X145234D01*
X145450Y93550D01*
Y92900D01*
Y93333D02*
X145883Y93766D01*
X144584Y95066D02*
Y94200D01*
X145234D01*
X145017Y94633D01*
Y94849D01*
X145234Y95066D01*
X145667D01*
X145883Y94849D01*
Y94416D01*
X145667Y94200D01*
X146100Y95499D02*
Y96365D01*
X145883Y96799D02*
X145017D01*
X144584Y97232D01*
X145017Y97665D01*
X145883D01*
X145234D01*
Y96799D01*
X146100Y98098D02*
Y98965D01*
X144584Y99398D02*
Y99831D01*
Y99615D01*
X145883D01*
Y99398D01*
Y99831D01*
Y100481D02*
X144584D01*
X145883Y101347D01*
X144584D01*
X146100Y101780D02*
Y102647D01*
X145883Y103946D02*
Y103080D01*
X145017Y103946D01*
X144800D01*
X144584Y103730D01*
Y103297D01*
X144800Y103080D01*
X102930Y188036D02*
Y186736D01*
X102280D01*
X102064Y186953D01*
Y187386D01*
X102280Y187603D01*
X102930D01*
X102497D02*
X102064Y188036D01*
X100764D02*
X101630D01*
X100764Y187170D01*
Y186953D01*
X100981Y186736D01*
X101414D01*
X101630Y186953D01*
X100331Y187819D02*
X100114Y188036D01*
X99681D01*
X99464Y187819D01*
Y186953D01*
X99681Y186736D01*
X100114D01*
X100331Y186953D01*
Y187170D01*
X100114Y187386D01*
X99464D01*
X99031Y188253D02*
X98165D01*
X97732Y188036D02*
Y187170D01*
X97299Y186736D01*
X96865Y187170D01*
Y188036D01*
Y187386D01*
X97732D01*
X96432Y188253D02*
X95566D01*
X95132Y186736D02*
X94699D01*
X94916D01*
Y188036D01*
X95132D01*
X94699D01*
X94050D02*
Y186736D01*
X93183Y188036D01*
Y186736D01*
X92750Y188253D02*
X91884D01*
X91450Y188036D02*
X91017D01*
X91234D01*
Y186736D01*
X91450Y186953D01*
X71252Y238842D02*
Y240142D01*
X71902D01*
X72119Y239925D01*
Y239492D01*
X71902Y239275D01*
X71252D01*
X71685D02*
X72119Y238842D01*
X72552D02*
X72985D01*
X72768D01*
Y240142D01*
X72552Y239925D01*
X74501Y238842D02*
X73635D01*
X74501Y239708D01*
Y239925D01*
X74284Y240142D01*
X73851D01*
X73635Y239925D01*
X74934Y238625D02*
X75801D01*
X76234Y238842D02*
Y239708D01*
X76667Y240142D01*
X77100Y239708D01*
Y238842D01*
Y239492D01*
X76234D01*
X77534Y238625D02*
X78400D01*
X78833Y240142D02*
X79266D01*
X79050D01*
Y238842D01*
X78833D01*
X79266D01*
X79916D02*
Y240142D01*
X80782Y238842D01*
Y240142D01*
X81216Y238625D02*
X82082D01*
X82515Y238842D02*
X82948D01*
X82732D01*
Y240142D01*
X82515Y239925D01*
X36806Y235791D02*
Y237091D01*
X37456D01*
X37672Y236874D01*
Y236441D01*
X37456Y236225D01*
X36806D01*
X37239D02*
X37672Y235791D01*
X38106D02*
X38539D01*
X38322D01*
Y237091D01*
X38106Y236874D01*
X39189Y235791D02*
X39622D01*
X39405D01*
Y237091D01*
X39189Y236874D01*
X40272Y235575D02*
X41138D01*
X41571Y235791D02*
Y236658D01*
X42004Y237091D01*
X42438Y236658D01*
Y235791D01*
Y236441D01*
X41571D01*
X42871Y235575D02*
X43737D01*
X44170Y237091D02*
X44604D01*
X44387D01*
Y235791D01*
X44170D01*
X44604D01*
X45253D02*
Y237091D01*
X46120Y235791D01*
Y237091D01*
X46553Y235575D02*
X47419D01*
X47853Y235791D02*
X48286D01*
X48069D01*
Y237091D01*
X47853Y236874D01*
X52126Y237879D02*
Y239179D01*
X52776D01*
X52993Y238962D01*
Y238529D01*
X52776Y238312D01*
X52126D01*
X52559D02*
X52993Y237879D01*
X54292Y239179D02*
X53859Y238962D01*
X53426Y238529D01*
Y238096D01*
X53642Y237879D01*
X54076D01*
X54292Y238096D01*
Y238312D01*
X54076Y238529D01*
X53426D01*
X54725Y237663D02*
X55592D01*
X56025Y237879D02*
Y238746D01*
X56458Y239179D01*
X56891Y238746D01*
Y237879D01*
Y238529D01*
X56025D01*
X57324Y237663D02*
X58191D01*
X58624Y239179D02*
X59057D01*
X58841D01*
Y237879D01*
X58624D01*
X59057D01*
X59707D02*
Y239179D01*
X60574Y237879D01*
Y239179D01*
X61007Y237663D02*
X61873D01*
X62306Y237879D02*
X62739D01*
X62523D01*
Y239179D01*
X62306Y238962D01*
X72752Y212342D02*
Y213642D01*
X73402D01*
X73619Y213425D01*
Y212992D01*
X73402Y212775D01*
X72752D01*
X73185D02*
X73619Y212342D01*
X74918D02*
X74052D01*
X74918Y213208D01*
Y213425D01*
X74701Y213642D01*
X74268D01*
X74052Y213425D01*
X75351Y212342D02*
X75784D01*
X75568D01*
Y213642D01*
X75351Y213425D01*
X76434Y212125D02*
X77301D01*
X77734Y212342D02*
Y213208D01*
X78167Y213642D01*
X78600Y213208D01*
Y212342D01*
Y212992D01*
X77734D01*
X79033Y212125D02*
X79900D01*
X80333Y213642D02*
X80766D01*
X80550D01*
Y212342D01*
X80333D01*
X80766D01*
X81416D02*
Y213642D01*
X82282Y212342D01*
Y213642D01*
X82716Y212125D02*
X83582D01*
X84015Y212342D02*
X84448D01*
X84232D01*
Y213642D01*
X84015Y213425D01*
X118400Y239617D02*
Y240916D01*
X119050D01*
X119266Y240700D01*
Y240266D01*
X119050Y240050D01*
X118400D01*
X118833D02*
X119266Y239617D01*
X120566D02*
X119700D01*
X120566Y240483D01*
Y240700D01*
X120349Y240916D01*
X119916D01*
X119700Y240700D01*
X120999D02*
X121216Y240916D01*
X121649D01*
X121866Y240700D01*
Y239833D01*
X121649Y239617D01*
X121216D01*
X120999Y239833D01*
Y240700D01*
X122299Y239400D02*
X123165D01*
X123598Y239617D02*
Y240483D01*
X124031Y240916D01*
X124465Y240483D01*
Y239617D01*
Y240266D01*
X123598D01*
X124898Y239400D02*
X125764D01*
X126198Y240916D02*
X126631D01*
X126414D01*
Y239617D01*
X126198D01*
X126631D01*
X127280D02*
Y240916D01*
X128147Y239617D01*
Y240916D01*
X128580Y239400D02*
X129446D01*
X129880Y239617D02*
X130313D01*
X130096D01*
Y240916D01*
X129880Y240700D01*
X216611Y157914D02*
Y159214D01*
X217260D01*
X217477Y158997D01*
Y158564D01*
X217260Y158348D01*
X216611D01*
X217044D02*
X217477Y157914D01*
X217910D02*
X218343D01*
X218127D01*
Y159214D01*
X217910Y158997D01*
X218993Y159214D02*
X219860D01*
Y158997D01*
X218993Y158131D01*
Y157914D01*
X220293Y157698D02*
X221159D01*
X221592Y157914D02*
Y158781D01*
X222025Y159214D01*
X222459Y158781D01*
Y157914D01*
Y158564D01*
X221592D01*
X222892Y157698D02*
X223758D01*
X224191Y159214D02*
X224625D01*
X224408D01*
Y157914D01*
X224191D01*
X224625D01*
X225274D02*
Y159214D01*
X226141Y157914D01*
Y159214D01*
X226574Y157698D02*
X227440D01*
X227874Y157914D02*
X228307D01*
X228090D01*
Y159214D01*
X227874Y158997D01*
X85252Y237842D02*
Y239141D01*
X85902D01*
X86119Y238925D01*
Y238492D01*
X85902Y238275D01*
X85252D01*
X85685D02*
X86119Y237842D01*
X86552D02*
X86985D01*
X86768D01*
Y239141D01*
X86552Y238925D01*
X88501Y239141D02*
X87635D01*
Y238492D01*
X88068Y238708D01*
X88284D01*
X88501Y238492D01*
Y238058D01*
X88284Y237842D01*
X87851D01*
X87635Y238058D01*
X88934Y237625D02*
X89801D01*
X90234Y237842D02*
Y238708D01*
X90667Y239141D01*
X91100Y238708D01*
Y237842D01*
Y238492D01*
X90234D01*
X91533Y237625D02*
X92400D01*
X92833Y239141D02*
X93266D01*
X93050D01*
Y237842D01*
X92833D01*
X93266D01*
X93916D02*
Y239141D01*
X94782Y237842D01*
Y239141D01*
X95216Y237625D02*
X96082D01*
X96515Y237842D02*
X96948D01*
X96732D01*
Y239141D01*
X96515Y238925D01*
X55070Y178864D02*
Y180164D01*
X55720D01*
X55936Y179947D01*
Y179514D01*
X55720Y179297D01*
X55070D01*
X55503D02*
X55936Y178864D01*
X57236D02*
X56370D01*
X57236Y179730D01*
Y179947D01*
X57019Y180164D01*
X56586D01*
X56370Y179947D01*
X57669Y180164D02*
X58536D01*
Y179947D01*
X57669Y179080D01*
Y178864D01*
X58969Y178647D02*
X59835D01*
X60268Y178864D02*
Y179730D01*
X60702Y180164D01*
X61135Y179730D01*
Y178864D01*
Y179514D01*
X60268D01*
X61568Y178647D02*
X62434D01*
X62867Y180164D02*
X63301D01*
X63084D01*
Y178864D01*
X62867D01*
X63301D01*
X63951D02*
Y180164D01*
X64817Y178864D01*
Y180164D01*
X65250Y178647D02*
X66116D01*
X66550Y178864D02*
X66983D01*
X66766D01*
Y180164D01*
X66550Y179947D01*
X167711Y226620D02*
Y227920D01*
X168360D01*
X168577Y227703D01*
Y227270D01*
X168360Y227053D01*
X167711D01*
X168144D02*
X168577Y226620D01*
X169010D02*
X169443D01*
X169227D01*
Y227920D01*
X169010Y227703D01*
X170093D02*
X170310Y227920D01*
X170743D01*
X170959Y227703D01*
Y226836D01*
X170743Y226620D01*
X170310D01*
X170093Y226836D01*
Y227703D01*
X171393Y226403D02*
X172259D01*
X172692Y226620D02*
Y227486D01*
X173126Y227920D01*
X173559Y227486D01*
Y226620D01*
Y227270D01*
X172692D01*
X173992Y226403D02*
X174858D01*
X175292Y227920D02*
X175725D01*
X175508D01*
Y226620D01*
X175292D01*
X175725D01*
X176374D02*
Y227920D01*
X177241Y226620D01*
Y227920D01*
X177674Y226403D02*
X178540D01*
X178974Y226620D02*
X179407D01*
X179190D01*
Y227920D01*
X178974Y227703D01*
X165252Y238291D02*
Y239591D01*
X165902D01*
X166119Y239374D01*
Y238941D01*
X165902Y238725D01*
X165252D01*
X165685D02*
X166119Y238291D01*
X166552D02*
X166985D01*
X166768D01*
Y239591D01*
X166552Y239374D01*
X167635D02*
X167851Y239591D01*
X168284D01*
X168501Y239374D01*
Y239158D01*
X168284Y238941D01*
X168068D01*
X168284D01*
X168501Y238725D01*
Y238508D01*
X168284Y238291D01*
X167851D01*
X167635Y238508D01*
X168934Y238075D02*
X169801D01*
X170234Y238291D02*
Y239158D01*
X170667Y239591D01*
X171100Y239158D01*
Y238291D01*
Y238941D01*
X170234D01*
X171534Y238075D02*
X172400D01*
X172833Y239591D02*
X173266D01*
X173050D01*
Y238291D01*
X172833D01*
X173266D01*
X173916D02*
Y239591D01*
X174782Y238291D01*
Y239591D01*
X175216Y238075D02*
X176082D01*
X176515Y238291D02*
X176948D01*
X176732D01*
Y239591D01*
X176515Y239374D01*
X96670Y241564D02*
Y242863D01*
X97320D01*
X97536Y242647D01*
Y242214D01*
X97320Y241997D01*
X96670D01*
X97103D02*
X97536Y241564D01*
X98836D02*
X97970D01*
X98836Y242430D01*
Y242647D01*
X98619Y242863D01*
X98186D01*
X97970Y242647D01*
X99269D02*
X99486Y242863D01*
X99919D01*
X100136Y242647D01*
Y242430D01*
X99919Y242214D01*
X100136Y241997D01*
Y241780D01*
X99919Y241564D01*
X99486D01*
X99269Y241780D01*
Y241997D01*
X99486Y242214D01*
X99269Y242430D01*
Y242647D01*
X99486Y242214D02*
X99919D01*
X100569Y241347D02*
X101435D01*
X101868Y241564D02*
Y242430D01*
X102302Y242863D01*
X102735Y242430D01*
Y241564D01*
Y242214D01*
X101868D01*
X103168Y241347D02*
X104034D01*
X104467Y242863D02*
X104901D01*
X104684D01*
Y241564D01*
X104467D01*
X104901D01*
X105551D02*
Y242863D01*
X106417Y241564D01*
Y242863D01*
X106850Y241347D02*
X107717D01*
X108150Y241564D02*
X108583D01*
X108366D01*
Y242863D01*
X108150Y242647D01*
X108964Y213430D02*
X110264D01*
Y212780D01*
X110047Y212564D01*
X109614D01*
X109397Y212780D01*
Y213430D01*
Y212997D02*
X108964Y212564D01*
Y211264D02*
Y212130D01*
X109830Y211264D01*
X110047D01*
X110264Y211481D01*
Y211914D01*
X110047Y212130D01*
Y210831D02*
X110264Y210614D01*
Y210181D01*
X110047Y209964D01*
X109830D01*
X109614Y210181D01*
Y210398D01*
Y210181D01*
X109397Y209964D01*
X109180D01*
X108964Y210181D01*
Y210614D01*
X109180Y210831D01*
X108747Y209531D02*
Y208665D01*
X108964Y208232D02*
X109830D01*
X110264Y207799D01*
X109830Y207365D01*
X108964D01*
X109614D01*
Y208232D01*
X108747Y206932D02*
Y206066D01*
X110264Y205632D02*
Y205199D01*
Y205416D01*
X108964D01*
Y205632D01*
Y205199D01*
Y204550D02*
X110264D01*
X108964Y203683D01*
X110264D01*
X108747Y203250D02*
Y202383D01*
X108964Y201950D02*
Y201517D01*
Y201734D01*
X110264D01*
X110047Y201950D01*
X167940Y175364D02*
Y176663D01*
X168589D01*
X168806Y176447D01*
Y176014D01*
X168589Y175797D01*
X167940D01*
X168373D02*
X168806Y175364D01*
X169239D02*
X169672D01*
X169456D01*
Y176663D01*
X169239Y176447D01*
X170972Y175364D02*
Y176663D01*
X170322Y176014D01*
X171189D01*
X171622Y175147D02*
X172488D01*
X172921Y175364D02*
Y176230D01*
X173355Y176663D01*
X173788Y176230D01*
Y175364D01*
Y176014D01*
X172921D01*
X174221Y175147D02*
X175087D01*
X175521Y176663D02*
X175954D01*
X175737D01*
Y175364D01*
X175521D01*
X175954D01*
X176603D02*
Y176663D01*
X177470Y175364D01*
Y176663D01*
X177903Y175147D02*
X178770D01*
X179203Y175364D02*
X179636D01*
X179419D01*
Y176663D01*
X179203Y176447D01*
X104900Y238117D02*
Y239416D01*
X105550D01*
X105766Y239200D01*
Y238766D01*
X105550Y238550D01*
X104900D01*
X105333D02*
X105766Y238117D01*
X107066D02*
X106200D01*
X107066Y238983D01*
Y239200D01*
X106849Y239416D01*
X106416D01*
X106200Y239200D01*
X108366Y239416D02*
X107932Y239200D01*
X107499Y238766D01*
Y238333D01*
X107716Y238117D01*
X108149D01*
X108366Y238333D01*
Y238550D01*
X108149Y238766D01*
X107499D01*
X108799Y237900D02*
X109665D01*
X110098Y238117D02*
Y238983D01*
X110531Y239416D01*
X110965Y238983D01*
Y238117D01*
Y238766D01*
X110098D01*
X111398Y237900D02*
X112264D01*
X112698Y239416D02*
X113131D01*
X112914D01*
Y238117D01*
X112698D01*
X113131D01*
X113780D02*
Y239416D01*
X114647Y238117D01*
Y239416D01*
X115080Y237900D02*
X115946D01*
X116380Y238117D02*
X116813D01*
X116596D01*
Y239416D01*
X116380Y239200D01*
X68789Y206336D02*
Y205036D01*
X68140D01*
X67923Y205253D01*
Y205686D01*
X68140Y205903D01*
X68789D01*
X68356D02*
X67923Y206336D01*
X67490D02*
X67057D01*
X67273D01*
Y205036D01*
X67490Y205253D01*
X66407Y206119D02*
X66190Y206336D01*
X65757D01*
X65540Y206119D01*
Y205253D01*
X65757Y205036D01*
X66190D01*
X66407Y205253D01*
Y205470D01*
X66190Y205686D01*
X65540D01*
X65107Y206553D02*
X64241D01*
X63808Y206336D02*
Y205470D01*
X63375Y205036D01*
X62941Y205470D01*
Y206336D01*
Y205686D01*
X63808D01*
X62508Y206553D02*
X61642D01*
X61208Y205036D02*
X60775D01*
X60992D01*
Y206336D01*
X61208D01*
X60775D01*
X60125D02*
Y205036D01*
X59259Y206336D01*
Y205036D01*
X58826Y206553D02*
X57960D01*
X57526Y206336D02*
X57093D01*
X57310D01*
Y205036D01*
X57526Y205253D01*
X143064Y181330D02*
X144363D01*
Y180680D01*
X144147Y180464D01*
X143714D01*
X143497Y180680D01*
Y181330D01*
Y180897D02*
X143064Y180464D01*
Y179164D02*
Y180030D01*
X143930Y179164D01*
X144147D01*
X144363Y179381D01*
Y179814D01*
X144147Y180030D01*
X143064Y178081D02*
X144363D01*
X143714Y178731D01*
Y177864D01*
X142847Y177431D02*
Y176565D01*
X143064Y176132D02*
X143930D01*
X144363Y175698D01*
X143930Y175265D01*
X143064D01*
X143714D01*
Y176132D01*
X142847Y174832D02*
Y173966D01*
X144363Y173532D02*
Y173099D01*
Y173316D01*
X143064D01*
Y173532D01*
Y173099D01*
Y172450D02*
X144363D01*
X143064Y171583D01*
X144363D01*
X142847Y171150D02*
Y170283D01*
X143064Y169850D02*
Y169417D01*
Y169634D01*
X144363D01*
X144147Y169850D01*
X111209Y209528D02*
X109909D01*
Y210177D01*
X110126Y210394D01*
X110559D01*
X110775Y210177D01*
Y209528D01*
Y209961D02*
X111209Y210394D01*
Y210827D02*
Y211260D01*
Y211044D01*
X109909D01*
X110126Y210827D01*
Y211910D02*
X109909Y212127D01*
Y212560D01*
X110126Y212777D01*
X110342D01*
X110559Y212560D01*
X110775Y212777D01*
X110992D01*
X111209Y212560D01*
Y212127D01*
X110992Y211910D01*
X110775D01*
X110559Y212127D01*
X110342Y211910D01*
X110126D01*
X110559Y212127D02*
Y212560D01*
X111425Y213210D02*
Y214076D01*
X111209Y214509D02*
X110342D01*
X109909Y214943D01*
X110342Y215376D01*
X111209D01*
X110559D01*
Y214509D01*
X111425Y215809D02*
Y216675D01*
X109909Y217108D02*
Y217542D01*
Y217325D01*
X111209D01*
Y217108D01*
Y217542D01*
Y218192D02*
X109909D01*
X111209Y219058D01*
X109909D01*
X111425Y219491D02*
Y220357D01*
X111209Y220791D02*
Y221224D01*
Y221007D01*
X109909D01*
X110126Y220791D01*
X68330Y184936D02*
Y183636D01*
X67680D01*
X67464Y183853D01*
Y184286D01*
X67680Y184503D01*
X68330D01*
X67897D02*
X67464Y184936D01*
X66164D02*
X67030D01*
X66164Y184070D01*
Y183853D01*
X66381Y183636D01*
X66814D01*
X67030Y183853D01*
X64864Y183636D02*
X65731D01*
Y184286D01*
X65298Y184070D01*
X65081D01*
X64864Y184286D01*
Y184719D01*
X65081Y184936D01*
X65514D01*
X65731Y184719D01*
X64431Y185153D02*
X63565D01*
X63132Y184936D02*
Y184070D01*
X62699Y183636D01*
X62265Y184070D01*
Y184936D01*
Y184286D01*
X63132D01*
X61832Y185153D02*
X60966D01*
X60532Y183636D02*
X60099D01*
X60316D01*
Y184936D01*
X60532D01*
X60099D01*
X59449D02*
Y183636D01*
X58583Y184936D01*
Y183636D01*
X58150Y185153D02*
X57284D01*
X56850Y184936D02*
X56417D01*
X56634D01*
Y183636D01*
X56850Y183853D01*
X176900Y191617D02*
Y192916D01*
X177550D01*
X177766Y192700D01*
Y192266D01*
X177550Y192050D01*
X176900D01*
X177333D02*
X177766Y191617D01*
X179066D02*
X178200D01*
X179066Y192483D01*
Y192700D01*
X178849Y192916D01*
X178416D01*
X178200Y192700D01*
X179499Y191400D02*
X180366D01*
X180799Y191617D02*
Y192483D01*
X181232Y192916D01*
X181665Y192483D01*
Y191617D01*
Y192266D01*
X180799D01*
X182098Y191400D02*
X182965D01*
X183398Y192916D02*
X183831D01*
X183615D01*
Y191617D01*
X183398D01*
X183831D01*
X184481D02*
Y192916D01*
X185347Y191617D01*
Y192916D01*
X185781Y191400D02*
X186647D01*
X187080Y191617D02*
X187513D01*
X187297D01*
Y192916D01*
X187080Y192700D01*
X60377Y236342D02*
Y237642D01*
X61027D01*
X61243Y237425D01*
Y236992D01*
X61027Y236775D01*
X60377D01*
X60810D02*
X61243Y236342D01*
X62326D02*
Y237642D01*
X61677Y236992D01*
X62543D01*
X62976Y236125D02*
X63842D01*
X64276Y236342D02*
Y237208D01*
X64709Y237642D01*
X65142Y237208D01*
Y236342D01*
Y236992D01*
X64276D01*
X65575Y236125D02*
X66442D01*
X66875Y237642D02*
X67308D01*
X67092D01*
Y236342D01*
X66875D01*
X67308D01*
X67958D02*
Y237642D01*
X68824Y236342D01*
Y237642D01*
X69257Y236125D02*
X70124D01*
X70557Y236342D02*
X70990D01*
X70774D01*
Y237642D01*
X70557Y237425D01*
X106252Y202842D02*
Y204141D01*
X106902D01*
X107119Y203925D01*
Y203492D01*
X106902Y203275D01*
X106252D01*
X106685D02*
X107119Y202842D01*
X107552D02*
X107985D01*
X107768D01*
Y204141D01*
X107552Y203925D01*
X109501Y204141D02*
X109068Y203925D01*
X108635Y203492D01*
Y203059D01*
X108851Y202842D01*
X109284D01*
X109501Y203059D01*
Y203275D01*
X109284Y203492D01*
X108635D01*
X109934Y202625D02*
X110801D01*
X111234Y202842D02*
Y203708D01*
X111667Y204141D01*
X112100Y203708D01*
Y202842D01*
Y203492D01*
X111234D01*
X112533Y202625D02*
X113400D01*
X113833Y204141D02*
X114266D01*
X114050D01*
Y202842D01*
X113833D01*
X114266D01*
X114916D02*
Y204141D01*
X115782Y202842D01*
Y204141D01*
X116216Y202625D02*
X117082D01*
X117515Y202842D02*
X117948D01*
X117732D01*
Y204141D01*
X117515Y203925D01*
X163469Y102915D02*
Y104214D01*
X164119D01*
X164335Y103998D01*
Y103564D01*
X164119Y103348D01*
X163469D01*
X163902D02*
X164335Y102915D01*
X164768D02*
X165202D01*
X164985D01*
Y104214D01*
X164768Y103998D01*
X166501Y102915D02*
Y104214D01*
X165851Y103564D01*
X166718D01*
X167151Y102698D02*
X168017D01*
X168451Y102915D02*
Y103781D01*
X168884Y104214D01*
X169317Y103781D01*
Y102915D01*
Y103564D01*
X168451D01*
X169750Y102698D02*
X170617D01*
X171050Y104214D02*
X171483D01*
X171266D01*
Y102915D01*
X171050D01*
X171483D01*
X172133D02*
Y104214D01*
X172999Y102915D01*
Y104214D01*
X173432Y102698D02*
X174299D01*
X175598Y102915D02*
X174732D01*
X175598Y103781D01*
Y103998D01*
X175382Y104214D01*
X174949D01*
X174732Y103998D01*
X111889Y156370D02*
Y157670D01*
X112539D01*
X112756Y157453D01*
Y157020D01*
X112539Y156804D01*
X111889D01*
X112322D02*
X112756Y156370D01*
X114055D02*
X113189D01*
X114055Y157237D01*
Y157453D01*
X113839Y157670D01*
X113405D01*
X113189Y157453D01*
X115355Y157670D02*
X114921Y157453D01*
X114488Y157020D01*
Y156587D01*
X114705Y156370D01*
X115138D01*
X115355Y156587D01*
Y156804D01*
X115138Y157020D01*
X114488D01*
X115788Y156154D02*
X116654D01*
X117087Y156370D02*
Y157237D01*
X117521Y157670D01*
X117954Y157237D01*
Y156370D01*
Y157020D01*
X117087D01*
X118387Y156154D02*
X119253D01*
X119687Y157670D02*
X120120D01*
X119903D01*
Y156370D01*
X119687D01*
X120120D01*
X120770D02*
Y157670D01*
X121636Y156370D01*
Y157670D01*
X122069Y156154D02*
X122936D01*
X124235Y156370D02*
X123369D01*
X124235Y157237D01*
Y157453D01*
X124019Y157670D01*
X123585D01*
X123369Y157453D01*
X122369Y148820D02*
Y150119D01*
X123019D01*
X123235Y149903D01*
Y149470D01*
X123019Y149253D01*
X122369D01*
X122802D02*
X123235Y148820D01*
X124535D02*
X123669D01*
X124535Y149686D01*
Y149903D01*
X124318Y150119D01*
X123885D01*
X123669Y149903D01*
X124968D02*
X125185Y150119D01*
X125618D01*
X125835Y149903D01*
Y149036D01*
X125618Y148820D01*
X125185D01*
X124968Y149036D01*
Y149903D01*
X126268Y148603D02*
X127134D01*
X127567Y148820D02*
Y149686D01*
X128000Y150119D01*
X128434Y149686D01*
Y148820D01*
Y149470D01*
X127567D01*
X128867Y148603D02*
X129733D01*
X130166Y150119D02*
X130600D01*
X130383D01*
Y148820D01*
X130166D01*
X130600D01*
X131249D02*
Y150119D01*
X132116Y148820D01*
Y150119D01*
X132549Y148603D02*
X133415D01*
X134715Y148820D02*
X133849D01*
X134715Y149686D01*
Y149903D01*
X134498Y150119D01*
X134065D01*
X133849Y149903D01*
X58169Y143615D02*
Y144914D01*
X58819D01*
X59035Y144698D01*
Y144264D01*
X58819Y144048D01*
X58169D01*
X58602D02*
X59035Y143615D01*
X59468D02*
X59901D01*
X59685D01*
Y144914D01*
X59468Y144698D01*
X60551Y143831D02*
X60768Y143615D01*
X61201D01*
X61418Y143831D01*
Y144698D01*
X61201Y144914D01*
X60768D01*
X60551Y144698D01*
Y144481D01*
X60768Y144264D01*
X61418D01*
X61851Y143398D02*
X62717D01*
X63150Y143615D02*
Y144481D01*
X63584Y144914D01*
X64017Y144481D01*
Y143615D01*
Y144264D01*
X63150D01*
X64450Y143398D02*
X65316D01*
X65750Y144914D02*
X66183D01*
X65966D01*
Y143615D01*
X65750D01*
X66183D01*
X66833D02*
Y144914D01*
X67699Y143615D01*
Y144914D01*
X68132Y143398D02*
X68998D01*
X70298Y143615D02*
X69432D01*
X70298Y144481D01*
Y144698D01*
X70082Y144914D01*
X69648D01*
X69432Y144698D01*
X95989Y123964D02*
Y125264D01*
X96639D01*
X96855Y125047D01*
Y124614D01*
X96639Y124397D01*
X95989D01*
X96422D02*
X96855Y123964D01*
X98155D02*
X97289D01*
X98155Y124830D01*
Y125047D01*
X97938Y125264D01*
X97505D01*
X97289Y125047D01*
X98588D02*
X98805Y125264D01*
X99238D01*
X99454Y125047D01*
Y124830D01*
X99238Y124614D01*
X99021D01*
X99238D01*
X99454Y124397D01*
Y124180D01*
X99238Y123964D01*
X98805D01*
X98588Y124180D01*
X99888Y123747D02*
X100754D01*
X101187Y123964D02*
Y124830D01*
X101620Y125264D01*
X102054Y124830D01*
Y123964D01*
Y124614D01*
X101187D01*
X102487Y123747D02*
X103353D01*
X103786Y125264D02*
X104220D01*
X104003D01*
Y123964D01*
X103786D01*
X104220D01*
X104869D02*
Y125264D01*
X105736Y123964D01*
Y125264D01*
X106169Y123747D02*
X107035D01*
X108335Y123964D02*
X107469D01*
X108335Y124830D01*
Y125047D01*
X108118Y125264D01*
X107685D01*
X107469Y125047D01*
X156029Y157364D02*
Y158663D01*
X156679D01*
X156896Y158447D01*
Y158014D01*
X156679Y157797D01*
X156029D01*
X156463D02*
X156896Y157364D01*
X157329D02*
X157762D01*
X157546D01*
Y158663D01*
X157329Y158447D01*
X158412D02*
X158629Y158663D01*
X159062D01*
X159278Y158447D01*
Y158230D01*
X159062Y158014D01*
X158845D01*
X159062D01*
X159278Y157797D01*
Y157580D01*
X159062Y157364D01*
X158629D01*
X158412Y157580D01*
X159712Y157147D02*
X160578D01*
X161011Y157364D02*
Y158230D01*
X161444Y158663D01*
X161878Y158230D01*
Y157364D01*
Y158014D01*
X161011D01*
X162311Y157147D02*
X163177D01*
X163610Y158663D02*
X164044D01*
X163827D01*
Y157364D01*
X163610D01*
X164044D01*
X164693D02*
Y158663D01*
X165560Y157364D01*
Y158663D01*
X165993Y157147D02*
X166859D01*
X168159Y157364D02*
X167292D01*
X168159Y158230D01*
Y158447D01*
X167942Y158663D01*
X167509D01*
X167292Y158447D01*
X73030Y128864D02*
Y130164D01*
X73679D01*
X73896Y129947D01*
Y129514D01*
X73679Y129297D01*
X73030D01*
X73463D02*
X73896Y128864D01*
X75195D02*
X74329D01*
X75195Y129730D01*
Y129947D01*
X74979Y130164D01*
X74546D01*
X74329Y129947D01*
X75629Y128864D02*
X76062D01*
X75845D01*
Y130164D01*
X75629Y129947D01*
X76712Y128647D02*
X77578D01*
X78011Y128864D02*
Y129730D01*
X78444Y130164D01*
X78878Y129730D01*
Y128864D01*
Y129514D01*
X78011D01*
X79311Y128647D02*
X80177D01*
X80610Y130164D02*
X81044D01*
X80827D01*
Y128864D01*
X80610D01*
X81044D01*
X81693D02*
Y130164D01*
X82560Y128864D01*
Y130164D01*
X82993Y128647D02*
X83859D01*
X85159Y128864D02*
X84293D01*
X85159Y129730D01*
Y129947D01*
X84942Y130164D01*
X84509D01*
X84293Y129947D01*
X120100Y108883D02*
Y107584D01*
X119450D01*
X119234Y107800D01*
Y108234D01*
X119450Y108450D01*
X120100D01*
X119667D02*
X119234Y108883D01*
X117934D02*
X118800D01*
X117934Y108017D01*
Y107800D01*
X118151Y107584D01*
X118584D01*
X118800Y107800D01*
X117501Y108667D02*
X117284Y108883D01*
X116851D01*
X116634Y108667D01*
Y107800D01*
X116851Y107584D01*
X117284D01*
X117501Y107800D01*
Y108017D01*
X117284Y108234D01*
X116634D01*
X116201Y109100D02*
X115335D01*
X114902Y108883D02*
Y108017D01*
X114469Y107584D01*
X114035Y108017D01*
Y108883D01*
Y108234D01*
X114902D01*
X113602Y109100D02*
X112736D01*
X112302Y107584D02*
X111869D01*
X112086D01*
Y108883D01*
X112302D01*
X111869D01*
X111220D02*
Y107584D01*
X110353Y108883D01*
Y107584D01*
X109920Y109100D02*
X109054D01*
X107754Y108883D02*
X108620D01*
X107754Y108017D01*
Y107800D01*
X107971Y107584D01*
X108404D01*
X108620Y107800D01*
X179630Y134670D02*
Y135970D01*
X180280D01*
X180496Y135753D01*
Y135320D01*
X180280Y135104D01*
X179630D01*
X180063D02*
X180496Y134670D01*
X180929D02*
X181362D01*
X181146D01*
Y135970D01*
X180929Y135753D01*
X182012D02*
X182229Y135970D01*
X182662D01*
X182879Y135753D01*
Y134887D01*
X182662Y134670D01*
X182229D01*
X182012Y134887D01*
Y135753D01*
X183312Y134454D02*
X184178D01*
X184611Y134670D02*
Y135537D01*
X185045Y135970D01*
X185478Y135537D01*
Y134670D01*
Y135320D01*
X184611D01*
X185911Y134454D02*
X186777D01*
X187211Y135970D02*
X187644D01*
X187427D01*
Y134670D01*
X187211D01*
X187644D01*
X188294D02*
Y135970D01*
X189160Y134670D01*
Y135970D01*
X189593Y134454D02*
X190460D01*
X191759Y134670D02*
X190893D01*
X191759Y135537D01*
Y135753D01*
X191542Y135970D01*
X191109D01*
X190893Y135753D01*
X107400Y104117D02*
Y105416D01*
X108050D01*
X108266Y105200D01*
Y104766D01*
X108050Y104550D01*
X107400D01*
X107833D02*
X108266Y104117D01*
X108700D02*
X109133D01*
X108916D01*
Y105416D01*
X108700Y105200D01*
X110649Y105416D02*
X110216Y105200D01*
X109783Y104766D01*
Y104333D01*
X109999Y104117D01*
X110432D01*
X110649Y104333D01*
Y104550D01*
X110432Y104766D01*
X109783D01*
X111082Y103900D02*
X111949D01*
X112382Y104117D02*
Y104983D01*
X112815Y105416D01*
X113248Y104983D01*
Y104117D01*
Y104766D01*
X112382D01*
X113681Y103900D02*
X114548D01*
X114981Y105416D02*
X115414D01*
X115198D01*
Y104117D01*
X114981D01*
X115414D01*
X116064D02*
Y105416D01*
X116930Y104117D01*
Y105416D01*
X117363Y103900D02*
X118230D01*
X119529Y104117D02*
X118663D01*
X119529Y104983D01*
Y105200D01*
X119313Y105416D01*
X118880D01*
X118663Y105200D01*
X85502Y161291D02*
Y162591D01*
X86152D01*
X86369Y162374D01*
Y161941D01*
X86152Y161724D01*
X85502D01*
X85935D02*
X86369Y161291D01*
X86802D02*
X87235D01*
X87019D01*
Y162591D01*
X86802Y162374D01*
X88751Y162591D02*
X87885D01*
Y161941D01*
X88318Y162158D01*
X88535D01*
X88751Y161941D01*
Y161508D01*
X88535Y161291D01*
X88101D01*
X87885Y161508D01*
X89184Y161075D02*
X90051D01*
X90484Y161291D02*
Y162158D01*
X90917Y162591D01*
X91350Y162158D01*
Y161291D01*
Y161941D01*
X90484D01*
X91784Y161075D02*
X92650D01*
X93083Y162591D02*
X93516D01*
X93300D01*
Y161291D01*
X93083D01*
X93516D01*
X94166D02*
Y162591D01*
X95033Y161291D01*
Y162591D01*
X95466Y161075D02*
X96332D01*
X97632Y161291D02*
X96765D01*
X97632Y162158D01*
Y162374D01*
X97415Y162591D01*
X96982D01*
X96765Y162374D01*
X37809Y156215D02*
Y157514D01*
X38459D01*
X38676Y157298D01*
Y156864D01*
X38459Y156648D01*
X37809D01*
X38242D02*
X38676Y156215D01*
X39109D02*
X39542D01*
X39325D01*
Y157514D01*
X39109Y157298D01*
X40192Y156215D02*
X40625D01*
X40408D01*
Y157514D01*
X40192Y157298D01*
X41275Y155998D02*
X42141D01*
X42574Y156215D02*
Y157081D01*
X43007Y157514D01*
X43441Y157081D01*
Y156215D01*
Y156864D01*
X42574D01*
X43874Y155998D02*
X44740D01*
X45173Y157514D02*
X45607D01*
X45390D01*
Y156215D01*
X45173D01*
X45607D01*
X46257D02*
Y157514D01*
X47123Y156215D01*
Y157514D01*
X47556Y155998D02*
X48422D01*
X49722Y156215D02*
X48856D01*
X49722Y157081D01*
Y157298D01*
X49505Y157514D01*
X49072D01*
X48856Y157298D01*
X73002Y161842D02*
Y163142D01*
X73652D01*
X73869Y162925D01*
Y162492D01*
X73652Y162275D01*
X73002D01*
X73435D02*
X73869Y161842D01*
X74302D02*
X74735D01*
X74518D01*
Y163142D01*
X74302Y162925D01*
X76251Y161842D02*
X75385D01*
X76251Y162708D01*
Y162925D01*
X76035Y163142D01*
X75601D01*
X75385Y162925D01*
X76684Y161625D02*
X77551D01*
X77984Y161842D02*
Y162708D01*
X78417Y163142D01*
X78850Y162708D01*
Y161842D01*
Y162492D01*
X77984D01*
X79283Y161625D02*
X80150D01*
X80583Y163142D02*
X81016D01*
X80800D01*
Y161842D01*
X80583D01*
X81016D01*
X81666D02*
Y163142D01*
X82533Y161842D01*
Y163142D01*
X82966Y161625D02*
X83832D01*
X85132Y161842D02*
X84265D01*
X85132Y162708D01*
Y162925D01*
X84915Y163142D01*
X84482D01*
X84265Y162925D01*
X62627Y165842D02*
Y167141D01*
X63277D01*
X63493Y166925D01*
Y166492D01*
X63277Y166275D01*
X62627D01*
X63060D02*
X63493Y165842D01*
X64576D02*
Y167141D01*
X63927Y166492D01*
X64793D01*
X65226Y165625D02*
X66093D01*
X66526Y165842D02*
Y166708D01*
X66959Y167141D01*
X67392Y166708D01*
Y165842D01*
Y166492D01*
X66526D01*
X67825Y165625D02*
X68692D01*
X69125Y167141D02*
X69558D01*
X69341D01*
Y165842D01*
X69125D01*
X69558D01*
X70208D02*
Y167141D01*
X71074Y165842D01*
Y167141D01*
X71508Y165625D02*
X72374D01*
X73673Y165842D02*
X72807D01*
X73673Y166708D01*
Y166925D01*
X73457Y167141D01*
X73024D01*
X72807Y166925D01*
X189664Y117668D02*
X190963D01*
Y117018D01*
X190747Y116801D01*
X190314D01*
X190097Y117018D01*
Y117668D01*
Y117235D02*
X189664Y116801D01*
Y115502D02*
Y116368D01*
X190530Y115502D01*
X190747D01*
X190963Y115718D01*
Y116151D01*
X190747Y116368D01*
X189447Y115069D02*
Y114202D01*
X189664Y113769D02*
X190530D01*
X190963Y113336D01*
X190530Y112903D01*
X189664D01*
X190314D01*
Y113769D01*
X189447Y112469D02*
Y111603D01*
X190963Y111170D02*
Y110737D01*
Y110953D01*
X189664D01*
Y111170D01*
Y110737D01*
Y110087D02*
X190963D01*
X189664Y109221D01*
X190963D01*
X189447Y108787D02*
Y107921D01*
X189664Y106621D02*
Y107488D01*
X190530Y106621D01*
X190747D01*
X190963Y106838D01*
Y107271D01*
X190747Y107488D01*
X52627Y160342D02*
Y161642D01*
X53277D01*
X53493Y161425D01*
Y160992D01*
X53277Y160775D01*
X52627D01*
X53060D02*
X53493Y160342D01*
X54793Y161642D02*
X54360Y161425D01*
X53927Y160992D01*
Y160558D01*
X54143Y160342D01*
X54576D01*
X54793Y160558D01*
Y160775D01*
X54576Y160992D01*
X53927D01*
X55226Y160125D02*
X56093D01*
X56526Y160342D02*
Y161208D01*
X56959Y161642D01*
X57392Y161208D01*
Y160342D01*
Y160992D01*
X56526D01*
X57825Y160125D02*
X58692D01*
X59125Y161642D02*
X59558D01*
X59342D01*
Y160342D01*
X59125D01*
X59558D01*
X60208D02*
Y161642D01*
X61074Y160342D01*
Y161642D01*
X61507Y160125D02*
X62374D01*
X63674Y160342D02*
X62807D01*
X63674Y161208D01*
Y161425D01*
X63457Y161642D01*
X63024D01*
X62807Y161425D01*
X43489Y97364D02*
Y98664D01*
X44139D01*
X44355Y98447D01*
Y98014D01*
X44139Y97797D01*
X43489D01*
X43922D02*
X44355Y97364D01*
X45655D02*
X44788D01*
X45655Y98230D01*
Y98447D01*
X45438Y98664D01*
X45005D01*
X44788Y98447D01*
X46088Y98664D02*
X46954D01*
Y98447D01*
X46088Y97581D01*
Y97364D01*
X47388Y97148D02*
X48254D01*
X48687Y97364D02*
Y98230D01*
X49120Y98664D01*
X49553Y98230D01*
Y97364D01*
Y98014D01*
X48687D01*
X49987Y97148D02*
X50853D01*
X51286Y98664D02*
X51719D01*
X51503D01*
Y97364D01*
X51286D01*
X51719D01*
X52369D02*
Y98664D01*
X53236Y97364D01*
Y98664D01*
X53669Y97148D02*
X54535D01*
X55835Y97364D02*
X54968D01*
X55835Y98230D01*
Y98447D01*
X55618Y98664D01*
X55185D01*
X54968Y98447D01*
X104877Y159342D02*
Y160642D01*
X105527D01*
X105744Y160425D01*
Y159992D01*
X105527Y159775D01*
X104877D01*
X105310D02*
X105744Y159342D01*
X107043D02*
X106177D01*
X107043Y160208D01*
Y160425D01*
X106827Y160642D01*
X106394D01*
X106177Y160425D01*
X107476D02*
X107693Y160642D01*
X108126D01*
X108343Y160425D01*
Y160208D01*
X108126Y159992D01*
X108343Y159775D01*
Y159558D01*
X108126Y159342D01*
X107693D01*
X107476Y159558D01*
Y159775D01*
X107693Y159992D01*
X107476Y160208D01*
Y160425D01*
X107693Y159992D02*
X108126D01*
X108776Y159125D02*
X109642D01*
X110076Y159342D02*
Y160208D01*
X110509Y160642D01*
X110942Y160208D01*
Y159342D01*
Y159992D01*
X110076D01*
X111375Y159125D02*
X112242D01*
X112675Y160642D02*
X113108D01*
X112891D01*
Y159342D01*
X112675D01*
X113108D01*
X113758D02*
Y160642D01*
X114624Y159342D01*
Y160642D01*
X115057Y159125D02*
X115924D01*
X117223Y159342D02*
X116357D01*
X117223Y160208D01*
Y160425D01*
X117007Y160642D01*
X116574D01*
X116357Y160425D01*
X54089Y117114D02*
Y118414D01*
X54739D01*
X54955Y118197D01*
Y117764D01*
X54739Y117548D01*
X54089D01*
X54522D02*
X54955Y117114D01*
X56255D02*
X55388D01*
X56255Y117981D01*
Y118197D01*
X56038Y118414D01*
X55605D01*
X55388Y118197D01*
X57555Y118414D02*
X56688D01*
Y117764D01*
X57121Y117981D01*
X57338D01*
X57555Y117764D01*
Y117331D01*
X57338Y117114D01*
X56905D01*
X56688Y117331D01*
X57988Y116898D02*
X58854D01*
X59287Y117114D02*
Y117981D01*
X59720Y118414D01*
X60154Y117981D01*
Y117114D01*
Y117764D01*
X59287D01*
X60587Y116898D02*
X61453D01*
X61886Y118414D02*
X62320D01*
X62103D01*
Y117114D01*
X61886D01*
X62320D01*
X62969D02*
Y118414D01*
X63836Y117114D01*
Y118414D01*
X64269Y116898D02*
X65135D01*
X66435Y117114D02*
X65569D01*
X66435Y117981D01*
Y118197D01*
X66218Y118414D01*
X65785D01*
X65569Y118197D01*
X127089Y107564D02*
Y108863D01*
X127739D01*
X127955Y108647D01*
Y108214D01*
X127739Y107997D01*
X127089D01*
X127522D02*
X127955Y107564D01*
X129255D02*
X128389D01*
X129255Y108430D01*
Y108647D01*
X129038Y108863D01*
X128605D01*
X128389Y108647D01*
X130338Y107564D02*
Y108863D01*
X129688Y108214D01*
X130554D01*
X130988Y107347D02*
X131854D01*
X132287Y107564D02*
Y108430D01*
X132720Y108863D01*
X133154Y108430D01*
Y107564D01*
Y108214D01*
X132287D01*
X133587Y107347D02*
X134453D01*
X134886Y108863D02*
X135320D01*
X135103D01*
Y107564D01*
X134886D01*
X135320D01*
X135969D02*
Y108863D01*
X136836Y107564D01*
Y108863D01*
X137269Y107347D02*
X138135D01*
X139435Y107564D02*
X138569D01*
X139435Y108430D01*
Y108647D01*
X139218Y108863D01*
X138785D01*
X138569Y108647D01*
X204069Y101915D02*
Y103214D01*
X204719D01*
X204935Y102998D01*
Y102564D01*
X204719Y102348D01*
X204069D01*
X204502D02*
X204935Y101915D01*
X205368D02*
X205802D01*
X205585D01*
Y103214D01*
X205368Y102998D01*
X206451Y103214D02*
X207318D01*
Y102998D01*
X206451Y102131D01*
Y101915D01*
X207751Y101698D02*
X208617D01*
X209050Y101915D02*
Y102781D01*
X209484Y103214D01*
X209917Y102781D01*
Y101915D01*
Y102564D01*
X209050D01*
X210350Y101698D02*
X211216D01*
X211650Y103214D02*
X212083D01*
X211866D01*
Y101915D01*
X211650D01*
X212083D01*
X212733D02*
Y103214D01*
X213599Y101915D01*
Y103214D01*
X214032Y101698D02*
X214899D01*
X216198Y101915D02*
X215332D01*
X216198Y102781D01*
Y102998D01*
X215982Y103214D01*
X215548D01*
X215332Y102998D01*
X169877Y209937D02*
Y211237D01*
X170527D01*
X170743Y211020D01*
Y210587D01*
X170527Y210370D01*
X169877D01*
X170310D02*
X170743Y209937D01*
X171177Y211237D02*
X172043D01*
Y211020D01*
X171177Y210154D01*
Y209937D01*
X172476Y209720D02*
X173343D01*
X173776Y209937D02*
Y210803D01*
X174209Y211237D01*
X174642Y210803D01*
Y209937D01*
Y210587D01*
X173776D01*
X175075Y209720D02*
X175942D01*
X176375Y211237D02*
X176808D01*
X176592D01*
Y209937D01*
X176375D01*
X176808D01*
X177458D02*
Y211237D01*
X178324Y209937D01*
Y211237D01*
X178757Y209720D02*
X179624D01*
X180057Y209937D02*
X180490D01*
X180274D01*
Y211237D01*
X180057Y211020D01*
X181947Y146631D02*
Y145331D01*
X181298D01*
X181081Y145548D01*
Y145981D01*
X181298Y146197D01*
X181947D01*
X181514D02*
X181081Y146631D01*
X180648Y145331D02*
X179781D01*
Y145548D01*
X180648Y146414D01*
Y146631D01*
X179348Y146847D02*
X178482D01*
X178049Y146631D02*
Y145764D01*
X177615Y145331D01*
X177182Y145764D01*
Y146631D01*
Y145981D01*
X178049D01*
X176749Y146847D02*
X175883D01*
X175450Y145331D02*
X175016D01*
X175233D01*
Y146631D01*
X175450D01*
X175016D01*
X174367D02*
Y145331D01*
X173500Y146631D01*
Y145331D01*
X173067Y146847D02*
X172201D01*
X170901Y146631D02*
X171767D01*
X170901Y145764D01*
Y145548D01*
X171118Y145331D01*
X171551D01*
X171767Y145548D01*
X142670Y238664D02*
Y239964D01*
X143320D01*
X143536Y239747D01*
Y239314D01*
X143320Y239097D01*
X142670D01*
X143103D02*
X143536Y238664D01*
X144836D02*
X143970D01*
X144836Y239530D01*
Y239747D01*
X144619Y239964D01*
X144186D01*
X143970Y239747D01*
X146136Y238664D02*
X145269D01*
X146136Y239530D01*
Y239747D01*
X145919Y239964D01*
X145486D01*
X145269Y239747D01*
X146569Y238447D02*
X147435D01*
X147868Y238664D02*
Y239530D01*
X148301Y239964D01*
X148735Y239530D01*
Y238664D01*
Y239314D01*
X147868D01*
X149168Y238447D02*
X150034D01*
X150468Y239964D02*
X150901D01*
X150684D01*
Y238664D01*
X150468D01*
X150901D01*
X151550D02*
Y239964D01*
X152417Y238664D01*
Y239964D01*
X152850Y238447D02*
X153717D01*
X154150Y238664D02*
X154583D01*
X154366D01*
Y239964D01*
X154150Y239747D01*
X130089Y158214D02*
Y159514D01*
X130739D01*
X130955Y159297D01*
Y158864D01*
X130739Y158648D01*
X130089D01*
X130522D02*
X130955Y158214D01*
X132255D02*
X131388D01*
X132255Y159081D01*
Y159297D01*
X132038Y159514D01*
X131605D01*
X131388Y159297D01*
X133554Y158214D02*
X132688D01*
X133554Y159081D01*
Y159297D01*
X133338Y159514D01*
X132905D01*
X132688Y159297D01*
X133988Y157998D02*
X134854D01*
X135287Y158214D02*
Y159081D01*
X135720Y159514D01*
X136154Y159081D01*
Y158214D01*
Y158864D01*
X135287D01*
X136587Y157998D02*
X137453D01*
X137886Y159514D02*
X138320D01*
X138103D01*
Y158214D01*
X137886D01*
X138320D01*
X138969D02*
Y159514D01*
X139836Y158214D01*
Y159514D01*
X140269Y157998D02*
X141135D01*
X142435Y158214D02*
X141569D01*
X142435Y159081D01*
Y159297D01*
X142218Y159514D01*
X141785D01*
X141569Y159297D01*
X241400Y165900D02*
Y167200D01*
X242050D01*
X242266Y166983D01*
Y166550D01*
X242050Y166333D01*
X241400D01*
X243566Y165900D02*
X242700D01*
X243566Y166766D01*
Y166983D01*
X243349Y167200D01*
X242916D01*
X242700Y166983D01*
X47376Y83641D02*
Y82342D01*
X48026D01*
X48242Y82559D01*
Y83425D01*
X48026Y83641D01*
X47376D01*
X48676Y82342D02*
X49109D01*
X48892D01*
Y83641D01*
X48676Y83425D01*
X49759Y82125D02*
X50625D01*
X51058Y83641D02*
Y82342D01*
Y82992D01*
X51925D01*
Y83641D01*
Y82342D01*
X52358D02*
X52791D01*
X52574D01*
Y83641D01*
X52358Y83425D01*
X70626Y83141D02*
Y81842D01*
X71276D01*
X71492Y82059D01*
Y82925D01*
X71276Y83141D01*
X70626D01*
X71926Y81842D02*
X72359D01*
X72142D01*
Y83141D01*
X71926Y82925D01*
X73009Y81625D02*
X73875D01*
X74308Y83141D02*
Y81842D01*
Y82492D01*
X75175D01*
Y83141D01*
Y81842D01*
X76474D02*
X75608D01*
X76474Y82708D01*
Y82925D01*
X76258Y83141D01*
X75824D01*
X75608Y82925D01*
X94626Y82642D02*
Y81342D01*
X95276D01*
X95493Y81559D01*
Y82425D01*
X95276Y82642D01*
X94626D01*
X95926Y81342D02*
X96359D01*
X96142D01*
Y82642D01*
X95926Y82425D01*
X97009Y81125D02*
X97875D01*
X98308Y82642D02*
Y81342D01*
Y81992D01*
X99175D01*
Y82642D01*
Y81342D01*
X99608Y82425D02*
X99824Y82642D01*
X100258D01*
X100474Y82425D01*
Y82208D01*
X100258Y81992D01*
X100041D01*
X100258D01*
X100474Y81775D01*
Y81559D01*
X100258Y81342D01*
X99824D01*
X99608Y81559D01*
X119126Y83141D02*
Y81842D01*
X119776D01*
X119992Y82059D01*
Y82925D01*
X119776Y83141D01*
X119126D01*
X120426Y81842D02*
X120859D01*
X120642D01*
Y83141D01*
X120426Y82925D01*
X121509Y81625D02*
X122375D01*
X122808Y83141D02*
Y81842D01*
Y82492D01*
X123675D01*
Y83141D01*
Y81842D01*
X124758D02*
Y83141D01*
X124108Y82492D01*
X124974D01*
X142126Y83141D02*
Y81842D01*
X142776D01*
X142992Y82059D01*
Y82925D01*
X142776Y83141D01*
X142126D01*
X143426Y81842D02*
X143859D01*
X143642D01*
Y83141D01*
X143426Y82925D01*
X144509Y81625D02*
X145375D01*
X145808Y83141D02*
Y81842D01*
Y82492D01*
X146675D01*
Y83141D01*
Y81842D01*
X147974Y83141D02*
X147108D01*
Y82492D01*
X147541Y82708D01*
X147758D01*
X147974Y82492D01*
Y82059D01*
X147758Y81842D01*
X147324D01*
X147108Y82059D01*
X167626Y76641D02*
Y75342D01*
X168276D01*
X168492Y75559D01*
Y76425D01*
X168276Y76641D01*
X167626D01*
X168926Y75342D02*
X169359D01*
X169142D01*
Y76641D01*
X168926Y76425D01*
X170009Y75125D02*
X170875D01*
X171308Y76641D02*
Y75342D01*
Y75992D01*
X172175D01*
Y76641D01*
Y75342D01*
X173474Y76641D02*
X173041Y76425D01*
X172608Y75992D01*
Y75559D01*
X172824Y75342D01*
X173258D01*
X173474Y75559D01*
Y75775D01*
X173258Y75992D01*
X172608D01*
X190626Y82642D02*
Y81342D01*
X191276D01*
X191492Y81559D01*
Y82425D01*
X191276Y82642D01*
X190626D01*
X191926Y81342D02*
X192359D01*
X192142D01*
Y82642D01*
X191926Y82425D01*
X193009Y81125D02*
X193875D01*
X194308Y82642D02*
Y81342D01*
Y81992D01*
X195175D01*
Y82642D01*
Y81342D01*
X195608Y82642D02*
X196474D01*
Y82425D01*
X195608Y81559D01*
Y81342D01*
X217626Y85141D02*
Y83842D01*
X218276D01*
X218493Y84058D01*
Y84925D01*
X218276Y85141D01*
X217626D01*
X218926Y83842D02*
X219359D01*
X219142D01*
Y85141D01*
X218926Y84925D01*
X220009Y83625D02*
X220875D01*
X221308Y85141D02*
Y83842D01*
Y84492D01*
X222175D01*
Y85141D01*
Y83842D01*
X222608Y84925D02*
X222824Y85141D01*
X223258D01*
X223474Y84925D01*
Y84708D01*
X223258Y84492D01*
X223474Y84275D01*
Y84058D01*
X223258Y83842D01*
X222824D01*
X222608Y84058D01*
Y84275D01*
X222824Y84492D01*
X222608Y84708D01*
Y84925D01*
X222824Y84492D02*
X223258D01*
X47626Y50279D02*
Y51578D01*
X48059Y51145D01*
X48493Y51578D01*
Y50279D01*
X48926Y51362D02*
X49792Y50495D01*
X48926D02*
X49792Y51362D01*
X48926Y50929D02*
X49792D01*
X49359Y50495D02*
Y51362D01*
X50226Y50279D02*
X50659D01*
X50442D01*
Y51578D01*
X50226Y51362D01*
X51309Y50062D02*
X52175D01*
X52608Y51578D02*
Y50279D01*
Y50929D01*
X53474D01*
Y51578D01*
Y50279D01*
X53908D02*
X54341D01*
X54124D01*
Y51578D01*
X53908Y51362D01*
X71162Y50279D02*
Y51578D01*
X71595Y51145D01*
X72028Y51578D01*
Y50279D01*
X72462Y51362D02*
X73328Y50495D01*
X72462D02*
X73328Y51362D01*
X72462Y50929D02*
X73328D01*
X72895Y50495D02*
Y51362D01*
X73761Y50279D02*
X74195D01*
X73978D01*
Y51578D01*
X73761Y51362D01*
X74844Y50062D02*
X75711D01*
X76144Y51578D02*
Y50279D01*
Y50929D01*
X77010D01*
Y51578D01*
Y50279D01*
X78310D02*
X77443D01*
X78310Y51145D01*
Y51362D01*
X78093Y51578D01*
X77660D01*
X77443Y51362D01*
X95114Y50279D02*
Y51578D01*
X95548Y51145D01*
X95981Y51578D01*
Y50279D01*
X96414Y51362D02*
X97281Y50495D01*
X96414D02*
X97281Y51362D01*
X96414Y50929D02*
X97281D01*
X96847Y50495D02*
Y51362D01*
X97714Y50279D02*
X98147D01*
X97930D01*
Y51578D01*
X97714Y51362D01*
X98797Y50062D02*
X99663D01*
X100096Y51578D02*
Y50279D01*
Y50929D01*
X100963D01*
Y51578D01*
Y50279D01*
X101396Y51362D02*
X101612Y51578D01*
X102046D01*
X102262Y51362D01*
Y51145D01*
X102046Y50929D01*
X101829D01*
X102046D01*
X102262Y50712D01*
Y50495D01*
X102046Y50279D01*
X101612D01*
X101396Y50495D01*
X119067Y50279D02*
Y51578D01*
X119500Y51145D01*
X119933Y51578D01*
Y50279D01*
X120366Y51362D02*
X121233Y50495D01*
X120366D02*
X121233Y51362D01*
X120366Y50929D02*
X121233D01*
X120800Y50495D02*
Y51362D01*
X121666Y50279D02*
X122099D01*
X121883D01*
Y51578D01*
X121666Y51362D01*
X122749Y50062D02*
X123615D01*
X124049Y51578D02*
Y50279D01*
Y50929D01*
X124915D01*
Y51578D01*
Y50279D01*
X125998D02*
Y51578D01*
X125348Y50929D01*
X126215D01*
X143019Y50279D02*
Y51578D01*
X143452Y51145D01*
X143886Y51578D01*
Y50279D01*
X144319Y51362D02*
X145185Y50495D01*
X144319D02*
X145185Y51362D01*
X144319Y50929D02*
X145185D01*
X144752Y50495D02*
Y51362D01*
X145618Y50279D02*
X146052D01*
X145835D01*
Y51578D01*
X145618Y51362D01*
X146701Y50062D02*
X147568D01*
X148001Y51578D02*
Y50279D01*
Y50929D01*
X148867D01*
Y51578D01*
Y50279D01*
X150167Y51578D02*
X149301D01*
Y50929D01*
X149734Y51145D01*
X149950D01*
X150167Y50929D01*
Y50495D01*
X149950Y50279D01*
X149517D01*
X149301Y50495D01*
X166972Y50342D02*
Y51641D01*
X167405Y51208D01*
X167838Y51641D01*
Y50342D01*
X168271Y51425D02*
X169138Y50559D01*
X168271D02*
X169138Y51425D01*
X168271Y50992D02*
X169138D01*
X168704Y50559D02*
Y51425D01*
X169571Y50342D02*
X170004D01*
X169787D01*
Y51641D01*
X169571Y51425D01*
X170654Y50125D02*
X171520D01*
X171953Y51641D02*
Y50342D01*
Y50992D01*
X172820D01*
Y51641D01*
Y50342D01*
X174119Y51641D02*
X173686Y51425D01*
X173253Y50992D01*
Y50559D01*
X173469Y50342D01*
X173903D01*
X174119Y50559D01*
Y50775D01*
X173903Y50992D01*
X173253D01*
X190924Y50342D02*
Y51641D01*
X191357Y51208D01*
X191790Y51641D01*
Y50342D01*
X192224Y51425D02*
X193090Y50559D01*
X192224D02*
X193090Y51425D01*
X192224Y50992D02*
X193090D01*
X192657Y50559D02*
Y51425D01*
X193523Y50342D02*
X193956D01*
X193740D01*
Y51641D01*
X193523Y51425D01*
X194606Y50125D02*
X195473D01*
X195906Y51641D02*
Y50342D01*
Y50992D01*
X196772D01*
Y51641D01*
Y50342D01*
X197205Y51641D02*
X198072D01*
Y51425D01*
X197205Y50559D01*
Y50342D01*
X214802D02*
Y51641D01*
X215235Y51208D01*
X215668Y51641D01*
Y50342D01*
X216101Y51425D02*
X216968Y50559D01*
X216101D02*
X216968Y51425D01*
X216101Y50992D02*
X216968D01*
X216534Y50559D02*
Y51425D01*
X217401Y50342D02*
X217834D01*
X217617D01*
Y51641D01*
X217401Y51425D01*
X218484Y50125D02*
X219350D01*
X219783Y51641D02*
Y50342D01*
Y50992D01*
X220650D01*
Y51641D01*
Y50342D01*
X221083Y51425D02*
X221299Y51641D01*
X221733D01*
X221949Y51425D01*
Y51208D01*
X221733Y50992D01*
X221949Y50775D01*
Y50559D01*
X221733Y50342D01*
X221299D01*
X221083Y50559D01*
Y50775D01*
X221299Y50992D01*
X221083Y51208D01*
Y51425D01*
X221299Y50992D02*
X221733D01*
X40547Y75120D02*
Y74253D01*
X40764Y74037D01*
X41197D01*
X41414Y74253D01*
Y75120D01*
X41197Y75336D01*
X40764D01*
X40980Y74903D02*
X40547Y75336D01*
X40764D02*
X40547Y75120D01*
X40114Y75336D02*
X39681D01*
X39897D01*
Y74037D01*
X40114Y74253D01*
X39031Y75553D02*
X38164D01*
X37731Y74037D02*
Y75336D01*
Y74686D01*
X36865D01*
Y74037D01*
Y75336D01*
X36432D02*
X35999D01*
X36215D01*
Y74037D01*
X36432Y74253D01*
X66358Y75992D02*
Y75126D01*
X66575Y74909D01*
X67008D01*
X67224Y75126D01*
Y75992D01*
X67008Y76209D01*
X66575D01*
X66791Y75775D02*
X66358Y76209D01*
X66575D02*
X66358Y75992D01*
X65925Y76209D02*
X65491D01*
X65708D01*
Y74909D01*
X65925Y75126D01*
X64842Y76425D02*
X63975D01*
X63542Y74909D02*
Y76209D01*
Y75559D01*
X62676D01*
Y74909D01*
Y76209D01*
X61376D02*
X62243D01*
X61376Y75342D01*
Y75126D01*
X61593Y74909D01*
X62026D01*
X62243Y75126D01*
X88478Y76120D02*
Y75253D01*
X88695Y75037D01*
X89128D01*
X89345Y75253D01*
Y76120D01*
X89128Y76336D01*
X88695D01*
X88912Y75903D02*
X88478Y76336D01*
X88695D02*
X88478Y76120D01*
X88045Y76336D02*
X87612D01*
X87829D01*
Y75037D01*
X88045Y75253D01*
X86962Y76553D02*
X86096D01*
X85663Y75037D02*
Y76336D01*
Y75686D01*
X84796D01*
Y75037D01*
Y76336D01*
X84363Y75253D02*
X84147Y75037D01*
X83713D01*
X83497Y75253D01*
Y75470D01*
X83713Y75686D01*
X83930D01*
X83713D01*
X83497Y75903D01*
Y76120D01*
X83713Y76336D01*
X84147D01*
X84363Y76120D01*
X114582Y77055D02*
Y76188D01*
X114799Y75972D01*
X115232D01*
X115449Y76188D01*
Y77055D01*
X115232Y77271D01*
X114799D01*
X115015Y76838D02*
X114582Y77271D01*
X114799D02*
X114582Y77055D01*
X114149Y77271D02*
X113716D01*
X113933D01*
Y75972D01*
X114149Y76188D01*
X113066Y77488D02*
X112200D01*
X111767Y75972D02*
Y77271D01*
Y76622D01*
X110900D01*
Y75972D01*
Y77271D01*
X109817D02*
Y75972D01*
X110467Y76622D01*
X109600D01*
X138128Y76619D02*
Y75753D01*
X138345Y75537D01*
X138778D01*
X138995Y75753D01*
Y76619D01*
X138778Y76836D01*
X138345D01*
X138561Y76403D02*
X138128Y76836D01*
X138345D02*
X138128Y76619D01*
X137695Y76836D02*
X137262D01*
X137478D01*
Y75537D01*
X137695Y75753D01*
X136612Y77053D02*
X135746D01*
X135312Y75537D02*
Y76836D01*
Y76186D01*
X134446D01*
Y75537D01*
Y76836D01*
X133146Y75537D02*
X134013D01*
Y76186D01*
X133580Y75970D01*
X133363D01*
X133146Y76186D01*
Y76619D01*
X133363Y76836D01*
X133796D01*
X134013Y76619D01*
X161479Y76120D02*
Y75253D01*
X161695Y75037D01*
X162128D01*
X162345Y75253D01*
Y76120D01*
X162128Y76336D01*
X161695D01*
X161912Y75903D02*
X161479Y76336D01*
X161695D02*
X161479Y76120D01*
X161045Y76336D02*
X160612D01*
X160829D01*
Y75037D01*
X161045Y75253D01*
X159962Y76553D02*
X159096D01*
X158663Y75037D02*
Y76336D01*
Y75686D01*
X157796D01*
Y75037D01*
Y76336D01*
X156497Y75037D02*
X156930Y75253D01*
X157363Y75686D01*
Y76120D01*
X157147Y76336D01*
X156713D01*
X156497Y76120D01*
Y75903D01*
X156713Y75686D01*
X157363D01*
X185978Y76620D02*
Y75753D01*
X186195Y75537D01*
X186628D01*
X186845Y75753D01*
Y76620D01*
X186628Y76836D01*
X186195D01*
X186412Y76403D02*
X185978Y76836D01*
X186195D02*
X185978Y76620D01*
X185545Y76836D02*
X185112D01*
X185329D01*
Y75537D01*
X185545Y75753D01*
X184462Y77053D02*
X183596D01*
X183163Y75537D02*
Y76836D01*
Y76186D01*
X182296D01*
Y75537D01*
Y76836D01*
X181863Y75537D02*
X180997D01*
Y75753D01*
X181863Y76620D01*
Y76836D01*
X210628Y76619D02*
Y75753D01*
X210845Y75537D01*
X211278D01*
X211495Y75753D01*
Y76619D01*
X211278Y76836D01*
X210845D01*
X211062Y76403D02*
X210628Y76836D01*
X210845D02*
X210628Y76619D01*
X210195Y76836D02*
X209762D01*
X209979D01*
Y75537D01*
X210195Y75753D01*
X209112Y77053D02*
X208246D01*
X207812Y75537D02*
Y76836D01*
Y76186D01*
X206946D01*
Y75537D01*
Y76836D01*
X206513Y75753D02*
X206296Y75537D01*
X205863D01*
X205646Y75753D01*
Y75970D01*
X205863Y76186D01*
X205646Y76403D01*
Y76619D01*
X205863Y76836D01*
X206296D01*
X206513Y76619D01*
Y76403D01*
X206296Y76186D01*
X206513Y75970D01*
Y75753D01*
X206296Y76186D02*
X205863D01*
X35086Y71814D02*
Y73114D01*
X35736D01*
X35953Y72897D01*
Y72464D01*
X35736Y72248D01*
X35086D01*
X35520D02*
X35953Y71814D01*
X36386D02*
X36819D01*
X36603D01*
Y73114D01*
X36386Y72897D01*
X37469Y71598D02*
X38335D01*
X38769Y73114D02*
Y71814D01*
Y72464D01*
X39635D01*
Y73114D01*
Y71814D01*
X40068D02*
X40501D01*
X40285D01*
Y73114D01*
X40068Y72897D01*
X59626Y70842D02*
Y72141D01*
X60276D01*
X60492Y71925D01*
Y71492D01*
X60276Y71275D01*
X59626D01*
X60059D02*
X60492Y70842D01*
X60926D02*
X61359D01*
X61142D01*
Y72141D01*
X60926Y71925D01*
X62009Y70625D02*
X62875D01*
X63308Y72141D02*
Y70842D01*
Y71492D01*
X64175D01*
Y72141D01*
Y70842D01*
X65474D02*
X64608D01*
X65474Y71708D01*
Y71925D01*
X65258Y72141D01*
X64824D01*
X64608Y71925D01*
X82626Y71342D02*
Y72641D01*
X83276D01*
X83492Y72425D01*
Y71992D01*
X83276Y71775D01*
X82626D01*
X83059D02*
X83492Y71342D01*
X83926D02*
X84359D01*
X84142D01*
Y72641D01*
X83926Y72425D01*
X85009Y71125D02*
X85875D01*
X86308Y72641D02*
Y71342D01*
Y71992D01*
X87175D01*
Y72641D01*
Y71342D01*
X87608Y72425D02*
X87824Y72641D01*
X88258D01*
X88474Y72425D01*
Y72208D01*
X88258Y71992D01*
X88041D01*
X88258D01*
X88474Y71775D01*
Y71558D01*
X88258Y71342D01*
X87824D01*
X87608Y71558D01*
X107626Y55342D02*
Y56642D01*
X108276D01*
X108493Y56425D01*
Y55992D01*
X108276Y55775D01*
X107626D01*
X108059D02*
X108493Y55342D01*
X108926D02*
X109359D01*
X109142D01*
Y56642D01*
X108926Y56425D01*
X110009Y55125D02*
X110875D01*
X111308Y56642D02*
Y55342D01*
Y55992D01*
X112175D01*
Y56642D01*
Y55342D01*
X113258D02*
Y56642D01*
X112608Y55992D01*
X113474D01*
X132155Y71764D02*
Y73063D01*
X132805D01*
X133021Y72847D01*
Y72414D01*
X132805Y72197D01*
X132155D01*
X132588D02*
X133021Y71764D01*
X133455D02*
X133888D01*
X133671D01*
Y73063D01*
X133455Y72847D01*
X134537Y71547D02*
X135404D01*
X135837Y73063D02*
Y71764D01*
Y72414D01*
X136703D01*
Y73063D01*
Y71764D01*
X138003Y73063D02*
X137137D01*
Y72414D01*
X137570Y72630D01*
X137786D01*
X138003Y72414D01*
Y71980D01*
X137786Y71764D01*
X137353D01*
X137137Y71980D01*
X155080Y71751D02*
Y73051D01*
X155730D01*
X155947Y72834D01*
Y72401D01*
X155730Y72185D01*
X155080D01*
X155513D02*
X155947Y71751D01*
X156380D02*
X156813D01*
X156596D01*
Y73051D01*
X156380Y72834D01*
X157463Y71535D02*
X158329D01*
X158762Y73051D02*
Y71751D01*
Y72401D01*
X159629D01*
Y73051D01*
Y71751D01*
X160928Y73051D02*
X160495Y72834D01*
X160062Y72401D01*
Y71968D01*
X160278Y71751D01*
X160712D01*
X160928Y71968D01*
Y72185D01*
X160712Y72401D01*
X160062D01*
X179580Y71751D02*
Y73051D01*
X180230D01*
X180447Y72834D01*
Y72401D01*
X180230Y72185D01*
X179580D01*
X180013D02*
X180447Y71751D01*
X180880D02*
X181313D01*
X181096D01*
Y73051D01*
X180880Y72834D01*
X181963Y71535D02*
X182829D01*
X183262Y73051D02*
Y71751D01*
Y72401D01*
X184129D01*
Y73051D01*
Y71751D01*
X184562Y73051D02*
X185428D01*
Y72834D01*
X184562Y71968D01*
Y71751D01*
X204080Y71751D02*
Y73051D01*
X204730D01*
X204946Y72834D01*
Y72401D01*
X204730Y72185D01*
X204080D01*
X204513D02*
X204946Y71751D01*
X205380D02*
X205813D01*
X205596D01*
Y73051D01*
X205380Y72834D01*
X206463Y71535D02*
X207329D01*
X207762Y73051D02*
Y71751D01*
Y72401D01*
X208629D01*
Y73051D01*
Y71751D01*
X209062Y72834D02*
X209278Y73051D01*
X209712D01*
X209928Y72834D01*
Y72618D01*
X209712Y72401D01*
X209928Y72185D01*
Y71968D01*
X209712Y71751D01*
X209278D01*
X209062Y71968D01*
Y72185D01*
X209278Y72401D01*
X209062Y72618D01*
Y72834D01*
X209278Y72401D02*
X209712D01*
X237400Y230900D02*
Y232200D01*
X238050D01*
X238266Y231983D01*
Y231550D01*
X238050Y231333D01*
X237400D01*
X238700Y231983D02*
X238916Y232200D01*
X239349D01*
X239566Y231983D01*
Y231766D01*
X239349Y231550D01*
X239133D01*
X239349D01*
X239566Y231333D01*
Y231117D01*
X239349Y230900D01*
X238916D01*
X238700Y231117D01*
X127377Y226591D02*
Y225508D01*
X127594Y225291D01*
X128027D01*
X128243Y225508D01*
Y226591D01*
X129543Y225291D02*
X128677D01*
X129543Y226158D01*
Y226374D01*
X129326Y226591D01*
X128893D01*
X128677Y226374D01*
X129976Y225075D02*
X130843D01*
X131276Y225291D02*
Y226158D01*
X131709Y226591D01*
X132142Y226158D01*
Y225291D01*
Y225941D01*
X131276D01*
X132575Y225075D02*
X133442D01*
X133875Y226591D02*
X134308D01*
X134091D01*
Y225291D01*
X133875D01*
X134308D01*
X134958D02*
Y226591D01*
X135824Y225291D01*
Y226591D01*
X136258Y225075D02*
X137124D01*
X137557Y225291D02*
X137990D01*
X137774D01*
Y226591D01*
X137557Y226374D01*
X184409Y196377D02*
X185492D01*
X185709Y196594D01*
Y197027D01*
X185492Y197243D01*
X184409D01*
X184626Y197677D02*
X184409Y197893D01*
Y198326D01*
X184626Y198543D01*
X184842D01*
X185059Y198326D01*
Y198110D01*
Y198326D01*
X185275Y198543D01*
X185492D01*
X185709Y198326D01*
Y197893D01*
X185492Y197677D01*
X185925Y198976D02*
Y199843D01*
X185709Y200276D02*
X184842D01*
X184409Y200709D01*
X184842Y201142D01*
X185709D01*
X185059D01*
Y200276D01*
X185925Y201575D02*
Y202442D01*
X184409Y202875D02*
Y203308D01*
Y203092D01*
X185709D01*
Y202875D01*
Y203308D01*
Y203958D02*
X184409D01*
X185709Y204824D01*
X184409D01*
X185925Y205258D02*
Y206124D01*
X185709Y206557D02*
Y206990D01*
Y206774D01*
X184409D01*
X184626Y206557D01*
X195632Y148520D02*
Y147437D01*
X195849Y147220D01*
X196282D01*
X196499Y147437D01*
Y148520D01*
X196932Y148303D02*
X197148Y148520D01*
X197582D01*
X197798Y148303D01*
Y148087D01*
X197582Y147870D01*
X197365D01*
X197582D01*
X197798Y147653D01*
Y147437D01*
X197582Y147220D01*
X197148D01*
X196932Y147437D01*
X198231Y147003D02*
X199098D01*
X199531Y147220D02*
Y148087D01*
X199964Y148520D01*
X200397Y148087D01*
Y147220D01*
Y147870D01*
X199531D01*
X200831Y147003D02*
X201697D01*
X202130Y148520D02*
X202563D01*
X202347D01*
Y147220D01*
X202130D01*
X202563D01*
X203213D02*
Y148520D01*
X204080Y147220D01*
Y148520D01*
X204513Y147003D02*
X205379D01*
X206679Y147220D02*
X205812D01*
X206679Y148087D01*
Y148303D01*
X206462Y148520D01*
X206029D01*
X205812Y148303D01*
X140900Y149916D02*
Y148833D01*
X141117Y148617D01*
X141550D01*
X141766Y148833D01*
Y149916D01*
X143066Y148617D02*
X142200D01*
X143066Y149483D01*
Y149700D01*
X142849Y149916D01*
X142416D01*
X142200Y149700D01*
X143499Y148400D02*
X144366D01*
X144799Y148617D02*
Y149483D01*
X145232Y149916D01*
X145665Y149483D01*
Y148617D01*
Y149266D01*
X144799D01*
X146098Y148400D02*
X146965D01*
X147398Y149916D02*
X147831D01*
X147615D01*
Y148617D01*
X147398D01*
X147831D01*
X148481D02*
Y149916D01*
X149347Y148617D01*
Y149916D01*
X149780Y148400D02*
X150647D01*
X151946Y148617D02*
X151080D01*
X151946Y149483D01*
Y149700D01*
X151730Y149916D01*
X151297D01*
X151080Y149700D01*
X96130Y143064D02*
Y144363D01*
X96779D01*
X96996Y144147D01*
Y143714D01*
X96779Y143497D01*
X96130D01*
X96563D02*
X96996Y143064D01*
X97429D02*
X97862D01*
X97646D01*
Y144363D01*
X97429Y144147D01*
X98512D02*
X98729Y144363D01*
X99162D01*
X99378Y144147D01*
Y143930D01*
X99162Y143714D01*
X99378Y143497D01*
Y143280D01*
X99162Y143064D01*
X98729D01*
X98512Y143280D01*
Y143497D01*
X98729Y143714D01*
X98512Y143930D01*
Y144147D01*
X98729Y143714D02*
X99162D01*
X99812Y142847D02*
X100678D01*
X101111Y143064D02*
Y143930D01*
X101544Y144363D01*
X101978Y143930D01*
Y143064D01*
Y143714D01*
X101111D01*
X102411Y142847D02*
X103277D01*
X103710Y144363D02*
X104144D01*
X103927D01*
Y143064D01*
X103710D01*
X104144D01*
X104793D02*
Y144363D01*
X105660Y143064D01*
Y144363D01*
X106093Y142847D02*
X106959D01*
X108259Y143064D02*
X107393D01*
X108259Y143930D01*
Y144147D01*
X108042Y144363D01*
X107609D01*
X107393Y144147D01*
M02*
