G04*
G04 #@! TF.GenerationSoftware,Altium Limited,Altium Designer,23.2.1 (34)*
G04*
G04 Layer_Physical_Order=3*
G04 Layer_Color=128*
%FSLAX25Y25*%
%MOIN*%
G70*
G04*
G04 #@! TF.SameCoordinates,168D8CC4-6B96-4916-8BE8-BBD7D9E71175*
G04*
G04*
G04 #@! TF.FilePolarity,Negative*
G04*
G01*
G75*
%ADD67C,0.04000*%
%ADD68C,0.04343*%
%ADD69C,0.04343*%
G04:AMPARAMS|DCode=70|XSize=67.055mil|YSize=67.055mil|CornerRadius=0mil|HoleSize=0mil|Usage=FLASHONLY|Rotation=0.000|XOffset=0mil|YOffset=0mil|HoleType=Round|Shape=Relief|Width=4mil|Gap=4mil|Entries=4|*
%AMTHD70*
7,0,0,0.06706,0.05906,0.00400,45*
%
%ADD70THD70*%
G04:AMPARAMS|DCode=71|XSize=67.055mil|YSize=67.055mil|CornerRadius=0mil|HoleSize=0mil|Usage=FLASHONLY|Rotation=0.000|XOffset=0mil|YOffset=0mil|HoleType=Round|Shape=Relief|Width=4mil|Gap=4mil|Entries=4|*
%AMTHD71*
7,0,0,0.06706,0.05906,0.00400,45*
%
%ADD71THD71*%
%ADD72C,0.10800*%
%ADD74C,0.04147*%
%ADD75C,0.03600*%
D67*
X500Y43000D02*
X264500D01*
Y273500D01*
X0D02*
X264500D01*
X0D02*
X500Y273000D01*
Y43000D02*
Y273000D01*
D68*
X254000Y194500D02*
D03*
X244000D02*
D03*
X254000Y204500D02*
D03*
X244000D02*
D03*
X254000Y214500D02*
D03*
X244000D02*
D03*
X254000Y224500D02*
D03*
D69*
X37573Y250320D02*
D03*
Y260320D02*
D03*
X47573Y250320D02*
D03*
Y260320D02*
D03*
X57573Y250320D02*
D03*
X67573D02*
D03*
Y260320D02*
D03*
X77573D02*
D03*
X87573Y250320D02*
D03*
Y260320D02*
D03*
X97573Y250320D02*
D03*
X107573D02*
D03*
Y260320D02*
D03*
X117573Y250320D02*
D03*
Y260320D02*
D03*
X127573Y250320D02*
D03*
X137573D02*
D03*
Y260320D02*
D03*
X147573Y250320D02*
D03*
Y260320D02*
D03*
X157573D02*
D03*
X167573Y250320D02*
D03*
Y260320D02*
D03*
X177573Y250320D02*
D03*
X187573D02*
D03*
Y260320D02*
D03*
X197573Y250320D02*
D03*
X207573D02*
D03*
Y260320D02*
D03*
X217573Y250320D02*
D03*
Y260320D02*
D03*
X227573D02*
D03*
X249500Y89000D02*
D03*
Y99000D02*
D03*
Y109000D02*
D03*
Y119000D02*
D03*
Y129000D02*
D03*
Y139000D02*
D03*
Y149000D02*
D03*
Y159000D02*
D03*
X171575Y58988D02*
D03*
Y68988D02*
D03*
X99650D02*
D03*
Y58988D02*
D03*
X51500Y68988D02*
D03*
Y58988D02*
D03*
X25071Y91551D02*
D03*
Y110694D02*
D03*
Y187265D02*
D03*
X220500Y68988D02*
D03*
Y58988D02*
D03*
X196075Y68988D02*
D03*
Y58988D02*
D03*
X147650Y68988D02*
D03*
Y58988D02*
D03*
X123650Y68988D02*
D03*
Y58988D02*
D03*
X75500Y68988D02*
D03*
Y58988D02*
D03*
X25071Y129836D02*
D03*
Y148979D02*
D03*
Y206408D02*
D03*
Y225551D02*
D03*
Y168122D02*
D03*
D70*
X227573Y250320D02*
D03*
X177573Y260320D02*
D03*
X197573D02*
D03*
X157573Y250320D02*
D03*
X127573Y260320D02*
D03*
X97573D02*
D03*
X57573D02*
D03*
X77573Y250320D02*
D03*
X15071Y206408D02*
D03*
Y187265D02*
D03*
Y225551D02*
D03*
Y168122D02*
D03*
Y110694D02*
D03*
Y148979D02*
D03*
Y129836D02*
D03*
Y91551D02*
D03*
D71*
X244000Y224500D02*
D03*
D72*
X18400Y255320D02*
D03*
X246746D02*
D03*
X246500Y65051D02*
D03*
X18154D02*
D03*
D74*
X169110Y97051D02*
D03*
X199110D02*
D03*
X173500Y169500D02*
D03*
X203500D02*
D03*
D75*
X111500Y49500D02*
D03*
X94000Y139500D02*
D03*
X179000Y220000D02*
D03*
X228500Y210000D02*
D03*
X90002Y200800D02*
D03*
X54000Y160000D02*
D03*
X182051Y160905D02*
D03*
X85547Y153441D02*
D03*
X162000Y160000D02*
D03*
X181772Y204500D02*
D03*
X37600Y214500D02*
D03*
X11000Y239600D02*
D03*
X162000Y212000D02*
D03*
X54169Y105980D02*
D03*
X81571Y97598D02*
D03*
X58208Y132480D02*
D03*
X86571Y176169D02*
D03*
X220500Y131122D02*
D03*
X184500Y230181D02*
D03*
X178685Y226000D02*
D03*
X86679Y235779D02*
D03*
X208600Y241800D02*
D03*
X214000Y194800D02*
D03*
X220500Y232000D02*
D03*
X122000Y151161D02*
D03*
X225500Y107700D02*
D03*
Y127100D02*
D03*
X177720Y80000D02*
D03*
X256000Y114500D02*
D03*
X151100Y158600D02*
D03*
X188000Y53000D02*
D03*
X158500Y52000D02*
D03*
X86500Y51000D02*
D03*
X136000Y52500D02*
D03*
X193500Y166500D02*
D03*
X199500Y181900D02*
D03*
X213500Y149206D02*
D03*
X90600Y168900D02*
D03*
X92800Y207100D02*
D03*
X56000Y119500D02*
D03*
X59500Y87300D02*
D03*
X140300Y88400D02*
D03*
X148500Y102400D02*
D03*
X207500Y52000D02*
D03*
X172400Y200800D02*
D03*
X64300Y181800D02*
D03*
X116100Y107300D02*
D03*
Y164000D02*
D03*
X39000Y51500D02*
D03*
X63500Y52000D02*
D03*
X231500Y48500D02*
D03*
X108000Y218716D02*
D03*
X106100Y203100D02*
D03*
X153200Y85039D02*
D03*
X132500Y114000D02*
D03*
X171400Y85039D02*
D03*
X174100Y127100D02*
D03*
X184500Y137600D02*
D03*
X193400Y146500D02*
D03*
X147200Y181900D02*
D03*
X161500Y178800D02*
D03*
X178200Y184000D02*
D03*
X180600Y176000D02*
D03*
X118100Y188300D02*
D03*
X116100Y172700D02*
D03*
X198522Y216322D02*
D03*
X198700Y189100D02*
D03*
X200640Y107623D02*
D03*
X203200Y130300D02*
D03*
X202600Y241900D02*
D03*
M02*
