G04*
G04 #@! TF.GenerationSoftware,Altium Limited,Altium Designer,23.2.1 (34)*
G04*
G04 Layer_Physical_Order=4*
G04 Layer_Color=16711680*
%FSLAX25Y25*%
%MOIN*%
G70*
G04*
G04 #@! TF.SameCoordinates,168D8CC4-6B96-4916-8BE8-BBD7D9E71175*
G04*
G04*
G04 #@! TF.FilePolarity,Positive*
G04*
G01*
G75*
%ADD58C,0.01000*%
%ADD59C,0.05906*%
%ADD60C,0.05906*%
%ADD61R,0.05906X0.05906*%
%ADD62R,0.05906X0.05906*%
%ADD63R,0.05906X0.05906*%
%ADD64C,0.24410*%
%ADD65C,0.05512*%
%ADD66C,0.05000*%
G36*
X177864Y264746D02*
X177643Y264298D01*
X177573Y264307D01*
X176541Y264171D01*
X175580Y263773D01*
X174754Y263139D01*
X174120Y262313D01*
X174055Y262156D01*
X173555Y262256D01*
Y262274D01*
X173439Y262859D01*
X173107Y263355D01*
X167354Y269109D01*
X167546Y269571D01*
X173039D01*
X177864Y264746D01*
D02*
G37*
G36*
X118325Y264712D02*
X118092Y264238D01*
X117573Y264307D01*
X116541Y264171D01*
X115580Y263773D01*
X114754Y263139D01*
X114120Y262313D01*
X113722Y261352D01*
X113586Y260320D01*
X113722Y259288D01*
X113914Y258824D01*
X110945Y255854D01*
X110613Y255358D01*
X110497Y254773D01*
Y253689D01*
X109997Y253443D01*
X109567Y253772D01*
X108605Y254171D01*
X107573Y254307D01*
X106541Y254171D01*
X105580Y253772D01*
X104754Y253139D01*
X104121Y252313D01*
X104055Y252156D01*
X103555Y252256D01*
Y254139D01*
X106077Y256661D01*
X106541Y256469D01*
X107573Y256333D01*
X108605Y256469D01*
X109567Y256867D01*
X110392Y257501D01*
X111026Y258326D01*
X111424Y259288D01*
X111560Y260320D01*
X111424Y261352D01*
X111026Y262313D01*
X110392Y263139D01*
X109567Y263773D01*
X108605Y264171D01*
X107573Y264307D01*
X106541Y264171D01*
X105580Y263773D01*
X104754Y263139D01*
X104121Y262313D01*
X103722Y261352D01*
X103586Y260320D01*
X103722Y259288D01*
X103914Y258824D01*
X100945Y255854D01*
X100613Y255358D01*
X100497Y254773D01*
Y253689D01*
X99997Y253443D01*
X99567Y253772D01*
X98605Y254171D01*
X97573Y254307D01*
X96541Y254171D01*
X95580Y253772D01*
X94754Y253139D01*
X94129Y252325D01*
X94092Y252320D01*
X93629Y252434D01*
Y258205D01*
X94092Y258319D01*
X94129Y258315D01*
X94754Y257501D01*
X95580Y256867D01*
X96541Y256469D01*
X97073Y256399D01*
Y260320D01*
Y264241D01*
X96541Y264171D01*
X95580Y263773D01*
X94754Y263139D01*
X94129Y262325D01*
X94092Y262320D01*
X93629Y262434D01*
Y262973D01*
X93513Y263558D01*
X93181Y264054D01*
X92454Y264781D01*
X92646Y265243D01*
X117794D01*
X118325Y264712D01*
D02*
G37*
G36*
X45399Y267009D02*
X41472Y263081D01*
X41283Y262799D01*
X40714Y262740D01*
X40693Y262747D01*
X40392Y263139D01*
X39567Y263773D01*
X38605Y264171D01*
X37573Y264307D01*
X36541Y264171D01*
X35858Y263888D01*
X35574Y264312D01*
X38734Y267471D01*
X45208D01*
X45399Y267009D01*
D02*
G37*
G36*
X62718Y264781D02*
X62019Y264081D01*
X61687Y263585D01*
X61571Y263000D01*
Y262305D01*
X61071Y262205D01*
X61026Y262313D01*
X60392Y263139D01*
X59567Y263773D01*
X58605Y264171D01*
X58073Y264241D01*
Y260320D01*
Y256399D01*
X58605Y256469D01*
X59567Y256867D01*
X60392Y257501D01*
X61026Y258326D01*
X61071Y258434D01*
X61571Y258335D01*
Y252975D01*
X61264Y252698D01*
X60688Y252754D01*
X60392Y253139D01*
X59567Y253772D01*
X58605Y254171D01*
X57573Y254307D01*
X56541Y254171D01*
X55580Y253772D01*
X54754Y253139D01*
X54120Y252313D01*
X53722Y251352D01*
X53586Y250320D01*
X53722Y249288D01*
X54120Y248326D01*
X54754Y247501D01*
X54977Y247329D01*
X54808Y246829D01*
X50339D01*
X50169Y247329D01*
X50392Y247501D01*
X51026Y248326D01*
X51424Y249288D01*
X51560Y250320D01*
X51424Y251352D01*
X51026Y252313D01*
X50392Y253139D01*
X49567Y253772D01*
X48605Y254171D01*
X47573Y254307D01*
X46541Y254171D01*
X45580Y253772D01*
X44754Y253139D01*
X44120Y252313D01*
X43722Y251352D01*
X43586Y250320D01*
X43722Y249288D01*
X44120Y248326D01*
X44754Y247501D01*
X44977Y247329D01*
X44807Y246829D01*
X41526D01*
Y252110D01*
X43635Y254219D01*
X43966Y254715D01*
X44083Y255300D01*
Y257554D01*
X44583Y257724D01*
X44754Y257501D01*
X45580Y256867D01*
X46541Y256469D01*
X47573Y256333D01*
X48605Y256469D01*
X49567Y256867D01*
X50392Y257501D01*
X51026Y258326D01*
X51424Y259288D01*
X51560Y260320D01*
X51424Y261352D01*
X51026Y262313D01*
X50392Y263139D01*
X49567Y263773D01*
X48605Y264171D01*
X47712Y264288D01*
X47475Y264758D01*
X47960Y265243D01*
X62527D01*
X62718Y264781D01*
D02*
G37*
G36*
X167355Y264782D02*
X167176Y264254D01*
X166541Y264171D01*
X165580Y263773D01*
X164754Y263139D01*
X164120Y262313D01*
X163722Y261352D01*
X163689Y261099D01*
X163120D01*
X162535Y260983D01*
X162535Y260983D01*
X162039Y260651D01*
X162023Y260635D01*
X161495Y260814D01*
X161424Y261352D01*
X161026Y262313D01*
X160392Y263139D01*
X159567Y263773D01*
X158605Y264171D01*
X157573Y264307D01*
X156541Y264171D01*
X156077Y263979D01*
X154202Y265854D01*
X153706Y266186D01*
X153120Y266302D01*
X145729D01*
X145143Y266186D01*
X145143Y266186D01*
X144647Y265854D01*
X141418Y262624D01*
X140754Y262668D01*
X140392Y263139D01*
X139567Y263773D01*
X138605Y264171D01*
X137573Y264307D01*
X136541Y264171D01*
X135580Y263773D01*
X134754Y263139D01*
X134121Y262313D01*
X133722Y261352D01*
X133586Y260320D01*
X133722Y259288D01*
X133914Y258824D01*
X131393Y256302D01*
X129509D01*
X129410Y256802D01*
X129567Y256867D01*
X130392Y257501D01*
X131026Y258326D01*
X131424Y259288D01*
X131494Y259820D01*
X127573D01*
Y260320D01*
X127073D01*
Y264241D01*
X126541Y264171D01*
X125580Y263773D01*
X124754Y263139D01*
X124129Y262325D01*
X124092Y262320D01*
X123629Y262434D01*
Y263100D01*
X123513Y263685D01*
X123181Y264181D01*
X120354Y267009D01*
X120546Y267471D01*
X164666D01*
X167355Y264782D01*
D02*
G37*
G36*
X36046Y269109D02*
X32019Y265081D01*
X31687Y264585D01*
X31571Y264000D01*
Y259167D01*
X31071Y259107D01*
X30997Y259413D01*
X30202Y261333D01*
X29116Y263105D01*
X27766Y264686D01*
X26186Y266036D01*
X24413Y267122D01*
X22493Y267917D01*
X20472Y268402D01*
X18400Y268565D01*
X16328Y268402D01*
X14307Y267917D01*
X12387Y267122D01*
X10614Y266036D01*
X9034Y264686D01*
X7684Y263105D01*
X6885Y261801D01*
X6211Y261659D01*
X6129Y261715D01*
Y269466D01*
X6233Y269571D01*
X35854D01*
X36046Y269109D01*
D02*
G37*
G36*
X224450Y262743D02*
X224120Y262313D01*
X223722Y261352D01*
X223586Y260320D01*
X223722Y259288D01*
X224120Y258326D01*
X224754Y257501D01*
X225580Y256867D01*
X226541Y256469D01*
X227573Y256333D01*
X228605Y256469D01*
X229567Y256867D01*
X230392Y257501D01*
X231012Y258309D01*
X231062Y258313D01*
X231512Y258178D01*
Y252462D01*
X231062Y252326D01*
X231012Y252331D01*
X230392Y253139D01*
X229567Y253772D01*
X228605Y254171D01*
X228073Y254241D01*
Y250320D01*
Y246399D01*
X228605Y246469D01*
X229567Y246867D01*
X230392Y247501D01*
X231012Y248308D01*
X231062Y248313D01*
X231512Y248178D01*
Y245458D01*
X231629Y244873D01*
X231960Y244377D01*
X250341Y225996D01*
X250149Y225532D01*
X250013Y224500D01*
X250149Y223468D01*
X250547Y222507D01*
X250913Y222029D01*
X250667Y221529D01*
X247333D01*
X247087Y222029D01*
X247453Y222507D01*
X247851Y223468D01*
X247921Y224000D01*
X244000D01*
X240079D01*
X240149Y223468D01*
X240547Y222507D01*
X240913Y222029D01*
X240667Y221529D01*
X239633D01*
X219103Y242060D01*
Y246675D01*
X219567Y246867D01*
X220392Y247501D01*
X221026Y248326D01*
X221424Y249288D01*
X221560Y250320D01*
X221424Y251352D01*
X221026Y252313D01*
X220392Y253139D01*
X219567Y253772D01*
X218605Y254171D01*
X217573Y254307D01*
X216541Y254171D01*
X215580Y253772D01*
X214754Y253139D01*
X214603Y252942D01*
X214129Y253103D01*
Y254713D01*
X216077Y256661D01*
X216541Y256469D01*
X217573Y256333D01*
X218605Y256469D01*
X219567Y256867D01*
X220392Y257501D01*
X221026Y258326D01*
X221424Y259288D01*
X221560Y260320D01*
X221424Y261352D01*
X221026Y262313D01*
X220696Y262743D01*
X220943Y263243D01*
X224204D01*
X224450Y262743D01*
D02*
G37*
G36*
X214450D02*
X214121Y262313D01*
X213722Y261352D01*
X213586Y260320D01*
X213722Y259288D01*
X213914Y258824D01*
X211519Y256428D01*
X211187Y255932D01*
X211071Y255347D01*
Y253076D01*
X210571Y252907D01*
X210392Y253139D01*
X209567Y253772D01*
X208605Y254171D01*
X207573Y254307D01*
X206541Y254171D01*
X205580Y253772D01*
X204754Y253139D01*
X204120Y252313D01*
X203884Y251743D01*
X203835Y251733D01*
X203338Y251401D01*
X202004Y250067D01*
X201710Y250212D01*
X201559Y250329D01*
X201424Y251352D01*
X201026Y252313D01*
X200392Y253139D01*
X200186Y253297D01*
X200347Y253771D01*
X202553D01*
X203139Y253887D01*
X203635Y254219D01*
X206077Y256661D01*
X206541Y256469D01*
X207573Y256333D01*
X208605Y256469D01*
X209567Y256867D01*
X210392Y257501D01*
X211026Y258326D01*
X211424Y259288D01*
X211560Y260320D01*
X211424Y261352D01*
X211026Y262313D01*
X210696Y262743D01*
X210943Y263243D01*
X214204D01*
X214450Y262743D01*
D02*
G37*
G36*
X194450D02*
X194121Y262313D01*
X193722Y261352D01*
X193652Y260820D01*
X197573D01*
Y259820D01*
X193652D01*
X193722Y259288D01*
X194121Y258326D01*
X194754Y257501D01*
X195218Y257145D01*
X195171Y256550D01*
X194919Y256381D01*
X192019Y253481D01*
X191687Y252985D01*
X191571Y252400D01*
Y252305D01*
X191071Y252205D01*
X191026Y252313D01*
X190392Y253139D01*
X189567Y253772D01*
X188605Y254171D01*
X187573Y254307D01*
X186541Y254171D01*
X185580Y253772D01*
X184754Y253139D01*
X184121Y252313D01*
X183722Y251352D01*
X183586Y250320D01*
X183722Y249288D01*
X184121Y248326D01*
X184754Y247501D01*
X185580Y246867D01*
X186541Y246469D01*
X187573Y246333D01*
X188605Y246469D01*
X189567Y246867D01*
X190392Y247501D01*
X191026Y248326D01*
X191071Y248434D01*
X191571Y248335D01*
Y169872D01*
X191529Y169846D01*
X191029Y170124D01*
Y226500D01*
X190913Y227085D01*
X190581Y227581D01*
X189174Y228989D01*
X188677Y229321D01*
X188588Y229339D01*
X187997Y229929D01*
X188030Y230181D01*
X187910Y231095D01*
X187557Y231946D01*
X186996Y232677D01*
X186265Y233238D01*
X185414Y233591D01*
X184500Y233711D01*
X183586Y233591D01*
X182735Y233238D01*
X182004Y232677D01*
X181443Y231946D01*
X181090Y231095D01*
X180970Y230181D01*
X181090Y229267D01*
X181133Y229164D01*
X180722Y228849D01*
X180450Y229057D01*
X179599Y229410D01*
X178685Y229530D01*
X177772Y229410D01*
X176920Y229057D01*
X176189Y228496D01*
X175628Y227765D01*
X175276Y226914D01*
X175155Y226000D01*
X175276Y225086D01*
X175628Y224235D01*
X176189Y223504D01*
X176592Y223194D01*
Y222564D01*
X176504Y222496D01*
X175943Y221765D01*
X175590Y220914D01*
X175470Y220000D01*
X175590Y219086D01*
X175943Y218235D01*
X176504Y217504D01*
X177235Y216943D01*
X178086Y216590D01*
X179000Y216470D01*
X179914Y216590D01*
X180765Y216943D01*
X181496Y217504D01*
X182057Y218235D01*
X182410Y219086D01*
X182530Y220000D01*
X182410Y220914D01*
X182057Y221765D01*
X181496Y222496D01*
X181093Y222806D01*
Y223436D01*
X181182Y223504D01*
X181203Y223532D01*
X181776Y223561D01*
X184271Y221066D01*
Y207625D01*
X183771Y207378D01*
X183537Y207557D01*
X182685Y207910D01*
X181772Y208030D01*
X180858Y207910D01*
X180007Y207557D01*
X179276Y206996D01*
X178715Y206265D01*
X178362Y205414D01*
X178242Y204500D01*
X178362Y203586D01*
X178715Y202735D01*
X179276Y202004D01*
X180007Y201443D01*
X180858Y201090D01*
X181772Y200970D01*
X182685Y201090D01*
X183537Y201443D01*
X183771Y201622D01*
X184271Y201376D01*
Y200634D01*
X179666Y196029D01*
X172634D01*
X171821Y196842D01*
X172055Y197315D01*
X172400Y197270D01*
X173314Y197390D01*
X174165Y197743D01*
X174896Y198304D01*
X175457Y199035D01*
X175810Y199886D01*
X175930Y200800D01*
X175810Y201714D01*
X175457Y202565D01*
X174896Y203296D01*
X174165Y203857D01*
X173929Y203955D01*
Y247754D01*
X174429Y247924D01*
X174754Y247501D01*
X175580Y246867D01*
X176541Y246469D01*
X177573Y246333D01*
X178605Y246469D01*
X179567Y246867D01*
X180392Y247501D01*
X181026Y248326D01*
X181424Y249288D01*
X181560Y250320D01*
X181424Y251352D01*
X181026Y252313D01*
X180392Y253139D01*
X179567Y253772D01*
X179410Y253838D01*
X179509Y254338D01*
X180000D01*
X180585Y254454D01*
X181081Y254786D01*
X183107Y256812D01*
X183439Y257308D01*
X183555Y257893D01*
Y258384D01*
X184055Y258484D01*
X184121Y258326D01*
X184754Y257501D01*
X185580Y256867D01*
X186541Y256469D01*
X187573Y256333D01*
X188605Y256469D01*
X189567Y256867D01*
X190392Y257501D01*
X191026Y258326D01*
X191424Y259288D01*
X191560Y260320D01*
X191424Y261352D01*
X191232Y261816D01*
X192659Y263243D01*
X194204D01*
X194450Y262743D01*
D02*
G37*
G36*
X84450D02*
X84121Y262313D01*
X83722Y261352D01*
X83586Y260320D01*
X83722Y259288D01*
X83914Y258824D01*
X80945Y255854D01*
X80613Y255358D01*
X80497Y254773D01*
Y253689D01*
X79997Y253443D01*
X79567Y253772D01*
X78605Y254171D01*
X78073Y254241D01*
Y250320D01*
Y246399D01*
X78605Y246469D01*
X79567Y246867D01*
X79997Y247197D01*
X80497Y246950D01*
Y163160D01*
X62419Y145082D01*
X62087Y144586D01*
X61971Y144001D01*
Y133850D01*
X61471Y133750D01*
X61266Y134245D01*
X60705Y134976D01*
X59974Y135537D01*
X59122Y135890D01*
X58208Y136010D01*
X57295Y135890D01*
X56443Y135537D01*
X55712Y134976D01*
X55151Y134245D01*
X54799Y133394D01*
X54678Y132480D01*
X54799Y131566D01*
X55151Y130715D01*
X55712Y129984D01*
X56443Y129423D01*
X57295Y129070D01*
X58208Y128950D01*
X59122Y129070D01*
X59974Y129423D01*
X60705Y129984D01*
X61266Y130715D01*
X61471Y131210D01*
X61971Y131110D01*
Y90381D01*
X61522Y90160D01*
X61265Y90357D01*
X61029Y90455D01*
Y116000D01*
X60913Y116585D01*
X60581Y117081D01*
X59312Y118351D01*
X59410Y118586D01*
X59530Y119500D01*
X59410Y120414D01*
X59057Y121265D01*
X58496Y121996D01*
X57765Y122557D01*
X56914Y122910D01*
X56000Y123030D01*
X55086Y122910D01*
X54235Y122557D01*
X53504Y121996D01*
X52943Y121265D01*
X52590Y120414D01*
X52470Y119500D01*
X52590Y118586D01*
X52943Y117735D01*
X53504Y117004D01*
X54235Y116443D01*
X55086Y116090D01*
X56000Y115970D01*
X56914Y116090D01*
X57149Y116188D01*
X57971Y115366D01*
Y107255D01*
X57471Y107155D01*
X57226Y107745D01*
X56665Y108476D01*
X55934Y109037D01*
X55083Y109390D01*
X54169Y109510D01*
X53255Y109390D01*
X52404Y109037D01*
X51673Y108476D01*
X51112Y107745D01*
X50759Y106894D01*
X50639Y105980D01*
X50759Y105066D01*
X51112Y104215D01*
X51673Y103484D01*
X52404Y102923D01*
X53255Y102570D01*
X54169Y102450D01*
X55083Y102570D01*
X55934Y102923D01*
X56665Y103484D01*
X57226Y104215D01*
X57471Y104804D01*
X57971Y104705D01*
Y90455D01*
X57735Y90357D01*
X57004Y89796D01*
X56443Y89065D01*
X56090Y88214D01*
X55970Y87300D01*
X56090Y86386D01*
X56443Y85535D01*
X57004Y84804D01*
X57735Y84243D01*
X58586Y83890D01*
X59500Y83770D01*
X60414Y83890D01*
X61265Y84243D01*
X61522Y84440D01*
X61971Y84219D01*
Y55155D01*
X61735Y55057D01*
X61004Y54496D01*
X60443Y53765D01*
X60090Y52914D01*
X59970Y52000D01*
X60090Y51086D01*
X60443Y50235D01*
X61004Y49504D01*
X61735Y48943D01*
X62586Y48590D01*
X63500Y48470D01*
X64414Y48590D01*
X65265Y48943D01*
X65996Y49504D01*
X66557Y50235D01*
X66910Y51086D01*
X67030Y52000D01*
X66910Y52914D01*
X66557Y53765D01*
X65996Y54496D01*
X65265Y55057D01*
X65029Y55155D01*
Y143367D01*
X83107Y161445D01*
X83439Y161942D01*
X83555Y162527D01*
Y173572D01*
X84029Y173733D01*
X84075Y173673D01*
X84806Y173112D01*
X85657Y172759D01*
X86571Y172639D01*
X87485Y172759D01*
X88336Y173112D01*
X88571Y173292D01*
X89071Y173046D01*
Y172055D01*
X88835Y171957D01*
X88104Y171396D01*
X87543Y170665D01*
X87190Y169814D01*
X87070Y168900D01*
X87190Y167986D01*
X87543Y167135D01*
X88104Y166404D01*
X88835Y165843D01*
X89686Y165490D01*
X90600Y165370D01*
X91514Y165490D01*
X92365Y165843D01*
X93096Y166404D01*
X93657Y167135D01*
X94010Y167986D01*
X94130Y168900D01*
X94010Y169814D01*
X93657Y170665D01*
X93096Y171396D01*
X92365Y171957D01*
X92129Y172055D01*
Y184700D01*
X92013Y185285D01*
X91681Y185781D01*
X87529Y189934D01*
Y197720D01*
X87978Y197942D01*
X88237Y197743D01*
X89088Y197390D01*
X90002Y197270D01*
X90916Y197390D01*
X91767Y197743D01*
X92498Y198304D01*
X93059Y199035D01*
X93412Y199886D01*
X93532Y200800D01*
X93412Y201714D01*
X93059Y202565D01*
X92661Y203084D01*
X92724Y203302D01*
X92908Y203584D01*
X93714Y203690D01*
X94565Y204043D01*
X95296Y204604D01*
X95544Y204926D01*
X96044Y204757D01*
Y159536D01*
X89526Y153018D01*
X89053Y153252D01*
X89077Y153441D01*
X88957Y154354D01*
X88604Y155206D01*
X88043Y155937D01*
X87312Y156498D01*
X86461Y156851D01*
X85547Y156971D01*
X84633Y156851D01*
X83782Y156498D01*
X83051Y155937D01*
X82490Y155206D01*
X82137Y154354D01*
X82017Y153441D01*
X82137Y152527D01*
X82490Y151675D01*
X83051Y150944D01*
X83782Y150383D01*
X84633Y150031D01*
X85547Y149910D01*
X85736Y149935D01*
X85969Y149462D01*
X80384Y143876D01*
X79946Y144074D01*
X79913Y144113D01*
X79964Y144500D01*
X77000D01*
Y141536D01*
X77387Y141587D01*
X77426Y141554D01*
X77624Y141116D01*
X76419Y139911D01*
X76087Y139415D01*
X75971Y138829D01*
Y91600D01*
X76087Y91015D01*
X76419Y90519D01*
X78471Y88467D01*
Y72321D01*
X77971Y72074D01*
X77493Y72440D01*
X76532Y72839D01*
X75500Y72974D01*
X74468Y72839D01*
X73507Y72440D01*
X72681Y71807D01*
X72047Y70981D01*
X71649Y70020D01*
X71513Y68988D01*
X71649Y67956D01*
X72047Y66994D01*
X72681Y66168D01*
X73507Y65535D01*
X74468Y65137D01*
X75500Y65001D01*
X76532Y65137D01*
X77493Y65535D01*
X77971Y65901D01*
X78471Y65654D01*
Y62940D01*
X71547D01*
Y55035D01*
X78471D01*
Y50600D01*
X78587Y50015D01*
X78919Y49519D01*
X81823Y46614D01*
X81632Y46152D01*
X3854Y46001D01*
X3500Y46354D01*
Y212250D01*
X3519Y212273D01*
X4000Y212497D01*
X4315Y212287D01*
X4900Y212171D01*
X31767D01*
X60988Y182949D01*
X60890Y182714D01*
X60770Y181800D01*
X60890Y180886D01*
X61243Y180035D01*
X61804Y179304D01*
X62535Y178743D01*
X63386Y178390D01*
X64300Y178270D01*
X65214Y178390D01*
X66065Y178743D01*
X66796Y179304D01*
X67357Y180035D01*
X67710Y180886D01*
X67830Y181800D01*
X67710Y182714D01*
X67357Y183565D01*
X66796Y184296D01*
X66065Y184857D01*
X65214Y185210D01*
X64300Y185330D01*
X63386Y185210D01*
X63151Y185112D01*
X37774Y210489D01*
X37954Y211016D01*
X38514Y211090D01*
X39365Y211443D01*
X40096Y212004D01*
X40657Y212735D01*
X41010Y213586D01*
X41130Y214500D01*
X41010Y215414D01*
X40657Y216265D01*
X40096Y216996D01*
X39365Y217557D01*
X38514Y217910D01*
X37600Y218030D01*
X36686Y217910D01*
X35835Y217557D01*
X35104Y216996D01*
X34543Y216265D01*
X34190Y215414D01*
X34116Y214854D01*
X33588Y214674D01*
X33481Y214781D01*
X32985Y215113D01*
X32400Y215229D01*
X6129D01*
Y248924D01*
X6211Y248981D01*
X6885Y248839D01*
X7684Y247534D01*
X9034Y245954D01*
X10614Y244604D01*
X12387Y243518D01*
X14307Y242723D01*
X16328Y242237D01*
X18400Y242074D01*
X20472Y242237D01*
X22493Y242723D01*
X24413Y243518D01*
X26186Y244604D01*
X27766Y245954D01*
X29116Y247534D01*
X30202Y249306D01*
X30997Y251227D01*
X31071Y251532D01*
X31571Y251473D01*
Y245300D01*
X31687Y244715D01*
X32019Y244219D01*
X32515Y243887D01*
X33100Y243771D01*
X56400D01*
X56985Y243887D01*
X57481Y244219D01*
X63140Y249877D01*
X63668Y249698D01*
X63722Y249288D01*
X64121Y248326D01*
X64754Y247501D01*
X65580Y246867D01*
X66541Y246469D01*
X67573Y246333D01*
X68605Y246469D01*
X69567Y246867D01*
X69997Y247197D01*
X70497Y246950D01*
Y170160D01*
X37919Y137582D01*
X37587Y137086D01*
X37471Y136501D01*
Y54655D01*
X37235Y54557D01*
X36504Y53996D01*
X35943Y53265D01*
X35590Y52414D01*
X35470Y51500D01*
X35590Y50586D01*
X35943Y49735D01*
X36504Y49004D01*
X37235Y48443D01*
X38086Y48090D01*
X39000Y47970D01*
X39914Y48090D01*
X40765Y48443D01*
X41496Y49004D01*
X42057Y49735D01*
X42410Y50586D01*
X42530Y51500D01*
X42410Y52414D01*
X42057Y53265D01*
X41496Y53996D01*
X40765Y54557D01*
X40529Y54655D01*
Y135867D01*
X73107Y168445D01*
X73439Y168941D01*
X73555Y169527D01*
Y248384D01*
X74055Y248483D01*
X74120Y248326D01*
X74754Y247501D01*
X75580Y246867D01*
X76541Y246469D01*
X77073Y246399D01*
Y250320D01*
Y254241D01*
X76541Y254171D01*
X75580Y253772D01*
X74754Y253139D01*
X74120Y252313D01*
X74055Y252156D01*
X73555Y252256D01*
Y254139D01*
X76077Y256661D01*
X76541Y256469D01*
X77573Y256333D01*
X78605Y256469D01*
X79567Y256867D01*
X80392Y257501D01*
X81026Y258326D01*
X81424Y259288D01*
X81560Y260320D01*
X81424Y261352D01*
X81026Y262313D01*
X80696Y262743D01*
X80943Y263243D01*
X84204D01*
X84450Y262743D01*
D02*
G37*
G36*
X74450D02*
X74120Y262313D01*
X73722Y261352D01*
X73586Y260320D01*
X73722Y259288D01*
X73914Y258824D01*
X70945Y255854D01*
X70613Y255358D01*
X70497Y254773D01*
Y253689D01*
X69997Y253443D01*
X69567Y253772D01*
X68605Y254171D01*
X67573Y254307D01*
X66541Y254171D01*
X65580Y253772D01*
X65129Y253427D01*
X64629Y253674D01*
Y256966D01*
X65129Y257213D01*
X65580Y256867D01*
X66541Y256469D01*
X67573Y256333D01*
X68605Y256469D01*
X69567Y256867D01*
X70392Y257501D01*
X71026Y258326D01*
X71424Y259288D01*
X71560Y260320D01*
X71424Y261352D01*
X71026Y262313D01*
X70696Y262743D01*
X70943Y263243D01*
X74204D01*
X74450Y262743D01*
D02*
G37*
G36*
X141591Y248384D02*
Y236554D01*
X141091Y236307D01*
X140765Y236557D01*
X139914Y236910D01*
X139500Y236964D01*
Y233500D01*
Y230036D01*
X139914Y230090D01*
X140765Y230443D01*
X141091Y230693D01*
X141591Y230446D01*
Y173063D01*
X141707Y172478D01*
X142039Y171982D01*
X151460Y162560D01*
X151239Y162112D01*
X151100Y162130D01*
X150186Y162010D01*
X149335Y161657D01*
X148604Y161096D01*
X148043Y160365D01*
X147690Y159514D01*
X147570Y158600D01*
X147690Y157686D01*
X148043Y156835D01*
X148604Y156104D01*
X149335Y155543D01*
X150186Y155190D01*
X151100Y155070D01*
X152014Y155190D01*
X152249Y155288D01*
X178571Y128966D01*
Y119734D01*
X176419Y117581D01*
X176129Y117149D01*
X175883Y117150D01*
X175629Y117232D01*
Y123945D01*
X175865Y124043D01*
X176596Y124604D01*
X177157Y125335D01*
X177510Y126186D01*
X177630Y127100D01*
X177510Y128014D01*
X177157Y128865D01*
X176596Y129596D01*
X175865Y130157D01*
X175014Y130510D01*
X174100Y130630D01*
X173186Y130510D01*
X172335Y130157D01*
X171604Y129596D01*
X171043Y128865D01*
X170690Y128014D01*
X170570Y127100D01*
X170690Y126186D01*
X171043Y125335D01*
X171604Y124604D01*
X172335Y124043D01*
X172571Y123945D01*
Y99532D01*
X172071Y99362D01*
X171789Y99730D01*
X171004Y100332D01*
X170091Y100710D01*
X169110Y100839D01*
X168130Y100710D01*
X167216Y100332D01*
X166431Y99730D01*
X165829Y98945D01*
X165451Y98031D01*
X165322Y97051D01*
X165451Y96070D01*
X165829Y95157D01*
X166431Y94372D01*
X167216Y93770D01*
X168130Y93392D01*
X169110Y93262D01*
X170091Y93392D01*
X171004Y93770D01*
X171789Y94372D01*
X172071Y94739D01*
X172571Y94569D01*
Y89333D01*
X171759Y88522D01*
X171400Y88570D01*
X170486Y88449D01*
X169635Y88097D01*
X168904Y87536D01*
X168343Y86804D01*
X167990Y85953D01*
X167870Y85039D01*
X167990Y84126D01*
X168343Y83274D01*
X168904Y82543D01*
X169635Y81982D01*
X170486Y81630D01*
X171400Y81509D01*
X172314Y81630D01*
X173165Y81982D01*
X173896Y82543D01*
X174457Y83274D01*
X174810Y84126D01*
X174930Y85039D01*
X174810Y85953D01*
X174457Y86804D01*
X174418Y86855D01*
X175181Y87619D01*
X175471Y88051D01*
X175717Y88050D01*
X175971Y87968D01*
Y83064D01*
X175955Y83057D01*
X175224Y82496D01*
X174663Y81765D01*
X174310Y80914D01*
X174190Y80000D01*
X174310Y79086D01*
X174663Y78235D01*
X175224Y77504D01*
X175955Y76943D01*
X176807Y76590D01*
X177720Y76470D01*
X178634Y76590D01*
X179485Y76943D01*
X180217Y77504D01*
X180778Y78235D01*
X181130Y79086D01*
X181251Y80000D01*
X181130Y80914D01*
X180778Y81765D01*
X180217Y82496D01*
X179485Y83057D01*
X179029Y83246D01*
Y115866D01*
X181181Y118019D01*
X181513Y118515D01*
X181629Y119100D01*
Y129600D01*
X181513Y130185D01*
X181181Y130681D01*
X154412Y157451D01*
X154510Y157686D01*
X154630Y158600D01*
X154612Y158739D01*
X155060Y158960D01*
X182419Y131602D01*
X182419Y131602D01*
X186471Y127550D01*
Y56155D01*
X186235Y56057D01*
X185504Y55496D01*
X184943Y54765D01*
X184590Y53914D01*
X184470Y53000D01*
X184590Y52086D01*
X184943Y51235D01*
X185504Y50504D01*
X186235Y49943D01*
X187086Y49590D01*
X187956Y49476D01*
X187923Y48976D01*
X161086D01*
X160925Y49449D01*
X160996Y49504D01*
X161557Y50235D01*
X161910Y51086D01*
X162030Y52000D01*
X161910Y52914D01*
X161557Y53765D01*
X160996Y54496D01*
X160265Y55057D01*
X160029Y55155D01*
Y139934D01*
X159913Y140519D01*
X159581Y141015D01*
X134650Y165946D01*
Y246950D01*
X135150Y247197D01*
X135580Y246867D01*
X136541Y246469D01*
X137573Y246333D01*
X138605Y246469D01*
X139567Y246867D01*
X140392Y247501D01*
X141026Y248326D01*
X141091Y248483D01*
X141591Y248384D01*
D02*
G37*
G36*
X131591D02*
Y165313D01*
X131707Y164728D01*
X132039Y164232D01*
X156971Y139300D01*
Y86389D01*
X156471Y86289D01*
X156257Y86804D01*
X155696Y87536D01*
X154965Y88097D01*
X154729Y88194D01*
Y104000D01*
X154613Y104585D01*
X154281Y105081D01*
X144281Y115081D01*
X143785Y115413D01*
X143200Y115529D01*
X135655D01*
X135557Y115765D01*
X134996Y116496D01*
X134265Y117057D01*
X133414Y117410D01*
X132500Y117530D01*
X131586Y117410D01*
X130735Y117057D01*
X130004Y116496D01*
X129443Y115765D01*
X129090Y114914D01*
X128970Y114000D01*
X129090Y113086D01*
X129443Y112235D01*
X130004Y111504D01*
X130735Y110943D01*
X131586Y110590D01*
X132500Y110470D01*
X133414Y110590D01*
X134265Y110943D01*
X134996Y111504D01*
X135557Y112235D01*
X135655Y112471D01*
X142567D01*
X148676Y106361D01*
X148412Y105919D01*
X147586Y105810D01*
X146735Y105457D01*
X146004Y104896D01*
X145443Y104165D01*
X145090Y103314D01*
X144970Y102400D01*
X145090Y101486D01*
X145443Y100635D01*
X146004Y99904D01*
X146735Y99343D01*
X146971Y99245D01*
Y97233D01*
X141449Y91712D01*
X141214Y91810D01*
X140300Y91930D01*
X139386Y91810D01*
X138535Y91457D01*
X137804Y90896D01*
X137243Y90165D01*
X136890Y89314D01*
X136770Y88400D01*
X136890Y87486D01*
X137243Y86635D01*
X137804Y85904D01*
X138535Y85343D01*
X139386Y84990D01*
X140300Y84870D01*
X141214Y84990D01*
X142065Y85343D01*
X142796Y85904D01*
X143357Y86635D01*
X143710Y87486D01*
X143830Y88400D01*
X143710Y89314D01*
X143612Y89549D01*
X149581Y95519D01*
X149913Y96015D01*
X150029Y96600D01*
Y99245D01*
X150265Y99343D01*
X150996Y99904D01*
X151171Y100131D01*
X151671Y99961D01*
Y88194D01*
X151435Y88097D01*
X150704Y87536D01*
X150143Y86804D01*
X149790Y85953D01*
X149670Y85039D01*
X149790Y84126D01*
X150143Y83274D01*
X150704Y82543D01*
X151435Y81982D01*
X152286Y81630D01*
X153200Y81509D01*
X154114Y81630D01*
X154965Y81982D01*
X155696Y82543D01*
X156257Y83274D01*
X156471Y83789D01*
X156971Y83690D01*
Y55155D01*
X156735Y55057D01*
X156004Y54496D01*
X155443Y53765D01*
X155090Y52914D01*
X154970Y52000D01*
X155090Y51086D01*
X155443Y50235D01*
X156004Y49504D01*
X156075Y49449D01*
X155914Y48976D01*
X138155D01*
X138081Y49071D01*
X138164Y49749D01*
X138496Y50004D01*
X139057Y50735D01*
X139410Y51586D01*
X139530Y52500D01*
X139410Y53414D01*
X139057Y54265D01*
X138496Y54996D01*
X137765Y55557D01*
X136914Y55910D01*
X136000Y56030D01*
X135086Y55910D01*
X134851Y55812D01*
X131632Y59031D01*
Y63390D01*
X131515Y63975D01*
X131184Y64472D01*
X129133Y66522D01*
X129095Y66548D01*
X129176Y66699D01*
X129516Y67821D01*
X129631Y68988D01*
X129516Y70155D01*
X129176Y71277D01*
X128623Y72311D01*
X127879Y73217D01*
X127529Y73504D01*
Y155892D01*
X127413Y156477D01*
X127081Y156974D01*
X126789Y157267D01*
X126788Y157267D01*
X124650Y159405D01*
Y246950D01*
X125150Y247197D01*
X125580Y246867D01*
X126541Y246469D01*
X127573Y246333D01*
X128605Y246469D01*
X129567Y246867D01*
X130392Y247501D01*
X131026Y248326D01*
X131091Y248483D01*
X131591Y248384D01*
D02*
G37*
G36*
X261328Y270328D02*
X261561Y270561D01*
X262022Y270368D01*
X261790Y219580D01*
X261289Y219373D01*
X259581Y221081D01*
X259085Y221413D01*
X258500Y221529D01*
X257333D01*
X257087Y222029D01*
X257453Y222507D01*
X257851Y223468D01*
X257987Y224500D01*
X257851Y225532D01*
X257453Y226493D01*
X256819Y227319D01*
X255993Y227953D01*
X255032Y228351D01*
X254000Y228487D01*
X252968Y228351D01*
X252504Y228159D01*
X234571Y246092D01*
Y248959D01*
X235071Y249100D01*
X236031Y247534D01*
X237380Y245954D01*
X238961Y244604D01*
X240733Y243518D01*
X242653Y242723D01*
X244674Y242237D01*
X246746Y242074D01*
X248818Y242237D01*
X250839Y242723D01*
X252760Y243518D01*
X254532Y244604D01*
X256112Y245954D01*
X257462Y247534D01*
X258548Y249306D01*
X259344Y251227D01*
X259829Y253248D01*
X259992Y255320D01*
X259829Y257392D01*
X259344Y259413D01*
X258548Y261333D01*
X257462Y263105D01*
X256112Y264686D01*
X254532Y266036D01*
X252760Y267122D01*
X250839Y267917D01*
X248818Y268402D01*
X246746Y268565D01*
X244674Y268402D01*
X242653Y267917D01*
X240733Y267122D01*
X238961Y266036D01*
X237380Y264686D01*
X236031Y263105D01*
X235020Y261456D01*
X234604Y261486D01*
X234494Y261536D01*
X234455Y261734D01*
X234247Y262045D01*
X234123Y262230D01*
X230499Y265854D01*
X230003Y266186D01*
X230003Y266186D01*
X229418Y266302D01*
X192026D01*
X191441Y266186D01*
X190945Y265854D01*
X189069Y263979D01*
X188605Y264171D01*
X187573Y264307D01*
X186541Y264171D01*
X185580Y263773D01*
X184754Y263139D01*
X184121Y262313D01*
X184055Y262156D01*
X183555Y262256D01*
Y262747D01*
X183439Y263332D01*
X183107Y263828D01*
X176597Y270339D01*
X176789Y270800D01*
X261328Y270328D01*
D02*
G37*
G36*
X84121Y248326D02*
X84754Y247501D01*
X85580Y246867D01*
X86541Y246469D01*
X87573Y246333D01*
X88605Y246469D01*
X89567Y246867D01*
X90071Y247254D01*
X90571Y247007D01*
Y241833D01*
X87828Y239091D01*
X87592Y239189D01*
X86679Y239309D01*
X85765Y239189D01*
X84913Y238836D01*
X84182Y238275D01*
X84055Y238109D01*
X83555Y238279D01*
Y248384D01*
X84055Y248483D01*
X84121Y248326D01*
D02*
G37*
G36*
X214754Y247501D02*
X215580Y246867D01*
X216044Y246675D01*
Y241427D01*
X216160Y240842D01*
X216492Y240345D01*
X220848Y235989D01*
X220615Y235515D01*
X220500Y235530D01*
X219586Y235410D01*
X218735Y235057D01*
X218004Y234496D01*
X217443Y233765D01*
X217090Y232914D01*
X216970Y232000D01*
X217090Y231086D01*
X217443Y230235D01*
X218004Y229504D01*
X218735Y228943D01*
X219586Y228590D01*
X220500Y228470D01*
X221414Y228590D01*
X221649Y228688D01*
X229103Y221234D01*
Y218867D01*
X229220Y218282D01*
X229551Y217786D01*
X238919Y208419D01*
X239415Y208087D01*
X240000Y207971D01*
X241209D01*
X241378Y207471D01*
X241181Y207319D01*
X240547Y206493D01*
X240149Y205532D01*
X240013Y204500D01*
X240149Y203468D01*
X240547Y202507D01*
X241181Y201681D01*
X242007Y201047D01*
X242050Y201029D01*
X241950Y200529D01*
X217382D01*
X214129Y203782D01*
Y247537D01*
X214603Y247698D01*
X214754Y247501D01*
D02*
G37*
G36*
X94129Y248315D02*
X94754Y247501D01*
X95580Y246867D01*
X96044Y246675D01*
Y209443D01*
X95544Y209274D01*
X95296Y209596D01*
X94565Y210157D01*
X93714Y210510D01*
X92800Y210630D01*
X91886Y210510D01*
X91035Y210157D01*
X90304Y209596D01*
X89743Y208865D01*
X89645Y208629D01*
X88000D01*
X87415Y208513D01*
X86919Y208181D01*
X84919Y206181D01*
X84587Y205685D01*
X84471Y205100D01*
Y189300D01*
X84587Y188715D01*
X84919Y188219D01*
X89071Y184066D01*
Y179293D01*
X88571Y179047D01*
X88336Y179227D01*
X87485Y179579D01*
X86571Y179700D01*
X85657Y179579D01*
X84806Y179227D01*
X84075Y178666D01*
X84029Y178606D01*
X83555Y178767D01*
Y224918D01*
X84055Y225088D01*
X84504Y224504D01*
X85235Y223943D01*
X86086Y223590D01*
X86500Y223536D01*
Y227000D01*
Y230464D01*
X86086Y230410D01*
X85235Y230057D01*
X84504Y229496D01*
X84055Y228912D01*
X83555Y229082D01*
Y233278D01*
X84055Y233448D01*
X84182Y233282D01*
X84913Y232721D01*
X85765Y232369D01*
X86679Y232248D01*
X87592Y232369D01*
X88444Y232721D01*
X89175Y233282D01*
X89736Y234014D01*
X90088Y234865D01*
X90209Y235779D01*
X90088Y236692D01*
X89991Y236928D01*
X93181Y240119D01*
X93513Y240615D01*
X93629Y241200D01*
Y248205D01*
X94092Y248319D01*
X94129Y248315D01*
D02*
G37*
G36*
X200835Y238843D02*
X201686Y238490D01*
X202600Y238370D01*
X203514Y238490D01*
X203523Y238494D01*
X203971Y238156D01*
Y227946D01*
X203509Y227754D01*
X200129Y231134D01*
Y238819D01*
X200578Y239040D01*
X200835Y238843D01*
D02*
G37*
G36*
X104121Y248326D02*
X104754Y247501D01*
X105580Y246867D01*
X106541Y246469D01*
X107573Y246333D01*
X108605Y246469D01*
X109567Y246867D01*
X109997Y247197D01*
X110497Y246950D01*
Y221842D01*
X109997Y221596D01*
X109765Y221773D01*
X108914Y222126D01*
X108000Y222246D01*
X107086Y222126D01*
X106235Y221773D01*
X105504Y221212D01*
X104943Y220481D01*
X104590Y219630D01*
X104470Y218716D01*
X104590Y217803D01*
X104943Y216951D01*
X105504Y216220D01*
X106235Y215659D01*
X106471Y215561D01*
Y206955D01*
X106100Y206630D01*
X105186Y206510D01*
X104335Y206157D01*
X104055Y205943D01*
X103555Y206189D01*
Y248384D01*
X104055Y248483D01*
X104121Y248326D01*
D02*
G37*
G36*
X195580Y246867D02*
X196541Y246469D01*
X197564Y246334D01*
X197681Y246183D01*
X197826Y245889D01*
X197519Y245581D01*
X197187Y245085D01*
X197071Y244500D01*
Y230500D01*
X197187Y229915D01*
X197519Y229419D01*
X201971Y224967D01*
Y218397D01*
X201471Y218228D01*
X201018Y218818D01*
X200287Y219379D01*
X199435Y219731D01*
X198522Y219852D01*
X197608Y219731D01*
X196756Y219379D01*
X196025Y218818D01*
X195464Y218087D01*
X195112Y217235D01*
X194629Y217324D01*
Y246966D01*
X195129Y247213D01*
X195580Y246867D01*
D02*
G37*
G36*
X155543Y253798D02*
X155542Y253743D01*
X154754Y253139D01*
X154121Y252313D01*
X153722Y251352D01*
X153652Y250820D01*
X157573D01*
Y250320D01*
X158073D01*
Y246399D01*
X158605Y246469D01*
X159567Y246867D01*
X160392Y247501D01*
X160571Y247733D01*
X161071Y247563D01*
Y229700D01*
X161187Y229115D01*
X161519Y228619D01*
X165671Y224466D01*
Y213591D01*
X165171Y213491D01*
X165057Y213765D01*
X164496Y214496D01*
X163765Y215057D01*
X162914Y215410D01*
X162000Y215530D01*
X161086Y215410D01*
X160235Y215057D01*
X159504Y214496D01*
X158943Y213765D01*
X158590Y212914D01*
X158470Y212000D01*
X158590Y211086D01*
X158943Y210235D01*
X159504Y209504D01*
X160235Y208943D01*
X161086Y208590D01*
X162000Y208470D01*
X162914Y208590D01*
X163765Y208943D01*
X164496Y209504D01*
X165057Y210235D01*
X165171Y210509D01*
X165671Y210409D01*
Y199300D01*
X165787Y198715D01*
X166119Y198219D01*
X170919Y193419D01*
X171415Y193087D01*
X172000Y192971D01*
X180300D01*
X180885Y193087D01*
X181381Y193419D01*
X185509Y197546D01*
X185971Y197354D01*
Y165532D01*
X185509Y165340D01*
X179210Y171639D01*
X179169Y171848D01*
X178837Y172344D01*
X178741Y172440D01*
X179025Y172864D01*
X179686Y172590D01*
X180600Y172470D01*
X181514Y172590D01*
X182365Y172943D01*
X183096Y173504D01*
X183657Y174235D01*
X184010Y175086D01*
X184130Y176000D01*
X184010Y176914D01*
X183657Y177765D01*
X183096Y178496D01*
X182365Y179057D01*
X182129Y179155D01*
Y182000D01*
X182013Y182585D01*
X181681Y183081D01*
X181618Y183145D01*
X181730Y184000D01*
X181610Y184914D01*
X181257Y185765D01*
X180696Y186496D01*
X179965Y187057D01*
X179114Y187410D01*
X178200Y187530D01*
X177286Y187410D01*
X176435Y187057D01*
X175704Y186496D01*
X175143Y185765D01*
X174790Y184914D01*
X174670Y184000D01*
X174790Y183086D01*
X175143Y182235D01*
X175704Y181504D01*
X176435Y180943D01*
X177286Y180590D01*
X178200Y180470D01*
X178695Y180535D01*
X179071Y180205D01*
Y179155D01*
X178835Y179057D01*
X178104Y178496D01*
X177543Y177765D01*
X177190Y176914D01*
X177070Y176000D01*
X177190Y175086D01*
X177464Y174425D01*
X177040Y174141D01*
X149103Y202079D01*
Y246675D01*
X149567Y246867D01*
X150392Y247501D01*
X151026Y248326D01*
X151424Y249288D01*
X151560Y250320D01*
X151424Y251352D01*
X151026Y252313D01*
X150392Y253139D01*
X149605Y253743D01*
X149604Y253798D01*
X149919Y254243D01*
X155227D01*
X155543Y253798D01*
D02*
G37*
G36*
X252050Y217971D02*
X252007Y217953D01*
X251181Y217319D01*
X250547Y216493D01*
X250149Y215532D01*
X250013Y214500D01*
X250149Y213468D01*
X250547Y212507D01*
X251181Y211681D01*
X251378Y211529D01*
X251208Y211029D01*
X246792D01*
X246622Y211529D01*
X246819Y211681D01*
X247453Y212507D01*
X247851Y213468D01*
X247987Y214500D01*
X247851Y215532D01*
X247453Y216493D01*
X246819Y217319D01*
X245993Y217953D01*
X245950Y217971D01*
X246050Y218471D01*
X251950D01*
X252050Y217971D01*
D02*
G37*
G36*
X237919Y218919D02*
X238415Y218587D01*
X239000Y218471D01*
X241950D01*
X242050Y217971D01*
X242007Y217953D01*
X241181Y217319D01*
X240547Y216493D01*
X240149Y215532D01*
X240013Y214500D01*
X240149Y213468D01*
X240547Y212507D01*
X241181Y211681D01*
X241378Y211529D01*
X241209Y211029D01*
X240634D01*
X232162Y219501D01*
Y221867D01*
X232046Y222453D01*
X231714Y222949D01*
X223812Y230851D01*
X223910Y231086D01*
X224030Y232000D01*
X224015Y232115D01*
X224489Y232348D01*
X237919Y218919D01*
D02*
G37*
G36*
X164754Y247501D02*
X165580Y246867D01*
X166541Y246469D01*
X167573Y246333D01*
X168605Y246469D01*
X169567Y246867D01*
X170371Y247484D01*
X170546Y247456D01*
X170871Y247346D01*
Y203955D01*
X170635Y203857D01*
X169904Y203296D01*
X169343Y202565D01*
X169229Y202291D01*
X168729Y202391D01*
Y225100D01*
X168613Y225685D01*
X168281Y226181D01*
X164129Y230333D01*
Y247537D01*
X164603Y247698D01*
X164754Y247501D01*
D02*
G37*
G36*
X110497Y215590D02*
Y52873D01*
X109735Y52557D01*
X109004Y51996D01*
X108443Y51265D01*
X108090Y50414D01*
X107970Y49500D01*
X108090Y48586D01*
X108443Y47735D01*
X108831Y47229D01*
X108584Y46729D01*
X86033D01*
X85691Y47072D01*
X85924Y47546D01*
X86500Y47470D01*
X87414Y47590D01*
X88265Y47943D01*
X88996Y48504D01*
X89557Y49235D01*
X89910Y50086D01*
X90030Y51000D01*
X89910Y51914D01*
X89557Y52765D01*
X88996Y53496D01*
X88265Y54057D01*
X88029Y54155D01*
Y112993D01*
X88529Y113122D01*
X89004Y112504D01*
X89735Y111943D01*
X90586Y111590D01*
X91000Y111536D01*
Y115000D01*
Y118464D01*
X90586Y118410D01*
X89735Y118057D01*
X89004Y117496D01*
X88529Y116878D01*
X88029Y117007D01*
Y144367D01*
X103107Y159445D01*
X103439Y159941D01*
X103555Y160527D01*
Y200011D01*
X104055Y200257D01*
X104335Y200043D01*
X105186Y199690D01*
X106100Y199570D01*
X107014Y199690D01*
X107865Y200043D01*
X108596Y200604D01*
X109157Y201335D01*
X109510Y202186D01*
X109630Y203100D01*
X109510Y204014D01*
X109370Y204351D01*
X109413Y204415D01*
X109529Y205000D01*
Y215561D01*
X109765Y215659D01*
X109997Y215837D01*
X110497Y215590D01*
D02*
G37*
G36*
X211071Y238719D02*
Y203148D01*
X211187Y202563D01*
X211519Y202067D01*
X214864Y198721D01*
X214631Y198247D01*
X214000Y198330D01*
X213086Y198210D01*
X212851Y198112D01*
X210129Y200834D01*
Y238645D01*
X210365Y238743D01*
X210622Y238940D01*
X211071Y238719D01*
D02*
G37*
G36*
X251378Y207471D02*
X251181Y207319D01*
X250547Y206493D01*
X250149Y205532D01*
X250013Y204500D01*
X250149Y203468D01*
X250547Y202507D01*
X251181Y201681D01*
X252007Y201047D01*
X252968Y200649D01*
X254000Y200513D01*
X255032Y200649D01*
X255993Y201047D01*
X256471Y201413D01*
X256971Y201167D01*
Y198453D01*
X250047D01*
Y197784D01*
X249692Y197630D01*
X249547Y197616D01*
X247081Y200081D01*
X246585Y200413D01*
X246034Y200523D01*
X246006Y200568D01*
X245993Y201047D01*
X246819Y201681D01*
X247453Y202507D01*
X247851Y203468D01*
X247987Y204500D01*
X247851Y205532D01*
X247453Y206493D01*
X246819Y207319D01*
X246622Y207471D01*
X246792Y207971D01*
X251208D01*
X251378Y207471D01*
D02*
G37*
G36*
X240913Y196971D02*
X240547Y196493D01*
X240355Y196029D01*
X221700D01*
X221115Y195913D01*
X220619Y195581D01*
X217533Y192496D01*
X217296Y192525D01*
X217057Y193035D01*
X217410Y193886D01*
X217530Y194800D01*
X217410Y195714D01*
X217057Y196565D01*
X216745Y196972D01*
X216993Y197471D01*
X240667D01*
X240913Y196971D01*
D02*
G37*
G36*
X201971Y214246D02*
Y191408D01*
X201471Y191239D01*
X201196Y191596D01*
X200465Y192157D01*
X200140Y192292D01*
Y213204D01*
X200287Y213264D01*
X201018Y213825D01*
X201471Y214416D01*
X201971Y214246D01*
D02*
G37*
G36*
X114120Y248326D02*
X114754Y247501D01*
X115580Y246867D01*
X116541Y246469D01*
X117573Y246333D01*
X118605Y246469D01*
X119567Y246867D01*
X120392Y247501D01*
X121026Y248326D01*
X121091Y248483D01*
X121591Y248384D01*
Y190285D01*
X121437Y190206D01*
X121091Y190151D01*
X120596Y190796D01*
X119865Y191357D01*
X119014Y191710D01*
X118100Y191830D01*
X117186Y191710D01*
X116335Y191357D01*
X115604Y190796D01*
X115043Y190065D01*
X114690Y189214D01*
X114570Y188300D01*
X114690Y187386D01*
X115043Y186535D01*
X115604Y185804D01*
X116335Y185243D01*
X116571Y185145D01*
Y176547D01*
X116195Y176218D01*
X116100Y176230D01*
X115186Y176110D01*
X114335Y175757D01*
X114055Y175543D01*
X113555Y175789D01*
Y248384D01*
X114055Y248483D01*
X114120Y248326D01*
D02*
G37*
G36*
X145580Y246867D02*
X146044Y246675D01*
Y201446D01*
X146160Y200860D01*
X146492Y200364D01*
X173114Y173742D01*
X172935Y173214D01*
X172520Y173159D01*
X171606Y172781D01*
X170821Y172179D01*
X170219Y171394D01*
X169841Y170481D01*
X169712Y169500D01*
X169841Y168519D01*
X170219Y167606D01*
X170821Y166821D01*
X171606Y166219D01*
X172520Y165841D01*
X173500Y165712D01*
X174480Y165841D01*
X175394Y166219D01*
X176179Y166821D01*
X176781Y167606D01*
X177159Y168519D01*
X177184Y168705D01*
X177657Y168866D01*
X181638Y164885D01*
X181459Y164357D01*
X181138Y164315D01*
X180286Y163962D01*
X179555Y163401D01*
X178994Y162670D01*
X178641Y161819D01*
X178521Y160905D01*
X178641Y159991D01*
X178994Y159140D01*
X179555Y158409D01*
X180286Y157848D01*
X181138Y157495D01*
X182051Y157375D01*
X182965Y157495D01*
X183817Y157848D01*
X184548Y158409D01*
X185109Y159140D01*
X185461Y159991D01*
X185504Y160313D01*
X186031Y160492D01*
X205971Y140553D01*
Y133216D01*
X205471Y132969D01*
X204965Y133357D01*
X204114Y133710D01*
X203200Y133830D01*
X202286Y133710D01*
X201435Y133357D01*
X200704Y132796D01*
X200143Y132065D01*
X199790Y131214D01*
X199670Y130300D01*
X199790Y129386D01*
X200045Y128772D01*
X199558Y128285D01*
X199227Y127789D01*
X199110Y127204D01*
Y110778D01*
X198874Y110680D01*
X198143Y110119D01*
X197582Y109388D01*
X197230Y108537D01*
X197109Y107623D01*
X197230Y106709D01*
X197582Y105858D01*
X198143Y105127D01*
X198874Y104566D01*
X199726Y104213D01*
X200640Y104093D01*
X201553Y104213D01*
X202405Y104566D01*
X203136Y105127D01*
X203697Y105858D01*
X204049Y106709D01*
X204170Y107623D01*
X204049Y108537D01*
X203697Y109388D01*
X203136Y110119D01*
X202405Y110680D01*
X202169Y110778D01*
Y126504D01*
X202551Y126855D01*
X203200Y126770D01*
X204114Y126890D01*
X204965Y127243D01*
X205471Y127631D01*
X205971Y127384D01*
Y55155D01*
X205735Y55057D01*
X205004Y54496D01*
X204443Y53765D01*
X204090Y52914D01*
X203970Y52000D01*
X204090Y51086D01*
X204443Y50235D01*
X205004Y49504D01*
X205075Y49449D01*
X204914Y48976D01*
X188077D01*
X188044Y49476D01*
X188914Y49590D01*
X189765Y49943D01*
X190496Y50504D01*
X191057Y51235D01*
X191410Y52086D01*
X191530Y53000D01*
X191410Y53914D01*
X191057Y54765D01*
X190496Y55496D01*
X189765Y56057D01*
X189529Y56155D01*
Y128184D01*
X189413Y128769D01*
X189081Y129265D01*
X184748Y133598D01*
X184915Y134114D01*
X184927Y134126D01*
X185414Y134190D01*
X186265Y134543D01*
X186996Y135104D01*
X187557Y135835D01*
X187910Y136687D01*
X188030Y137600D01*
X187910Y138514D01*
X187812Y138750D01*
X192251Y143188D01*
X192486Y143090D01*
X193400Y142970D01*
X194314Y143090D01*
X195165Y143443D01*
X195896Y144004D01*
X196457Y144735D01*
X196810Y145586D01*
X196930Y146500D01*
X196810Y147414D01*
X196457Y148265D01*
X195896Y148996D01*
X195165Y149557D01*
X194314Y149910D01*
X193400Y150030D01*
X192486Y149910D01*
X191635Y149557D01*
X190904Y148996D01*
X190343Y148265D01*
X189990Y147414D01*
X189870Y146500D01*
X189990Y145586D01*
X190088Y145351D01*
X185650Y140912D01*
X185414Y141010D01*
X184500Y141130D01*
X183587Y141010D01*
X182735Y140657D01*
X182004Y140096D01*
X181443Y139365D01*
X181090Y138514D01*
X181026Y138027D01*
X180498Y137848D01*
X162337Y156010D01*
X162516Y156538D01*
X162914Y156590D01*
X163765Y156943D01*
X164496Y157504D01*
X165057Y158235D01*
X165410Y159086D01*
X165530Y160000D01*
X165410Y160914D01*
X165057Y161765D01*
X164496Y162496D01*
X163765Y163057D01*
X162914Y163410D01*
X162000Y163530D01*
X161086Y163410D01*
X160235Y163057D01*
X159504Y162496D01*
X158943Y161765D01*
X158590Y160914D01*
X158538Y160516D01*
X158010Y160337D01*
X144650Y173696D01*
Y178815D01*
X145150Y179061D01*
X145435Y178843D01*
X146286Y178490D01*
X147200Y178370D01*
X148114Y178490D01*
X148965Y178843D01*
X149696Y179404D01*
X150054Y179871D01*
X157647D01*
X158045Y179371D01*
X157970Y178800D01*
X158090Y177886D01*
X158443Y177035D01*
X159004Y176304D01*
X159735Y175743D01*
X160586Y175390D01*
X161500Y175270D01*
X162414Y175390D01*
X163265Y175743D01*
X163996Y176304D01*
X164557Y177035D01*
X164910Y177886D01*
X165030Y178800D01*
X164910Y179714D01*
X164557Y180565D01*
X163996Y181296D01*
X163265Y181857D01*
X162414Y182210D01*
X161500Y182330D01*
X160586Y182210D01*
X160351Y182112D01*
X159981Y182481D01*
X159485Y182813D01*
X158900Y182929D01*
X150562D01*
X150257Y183665D01*
X149696Y184396D01*
X148965Y184957D01*
X148114Y185310D01*
X147200Y185430D01*
X146286Y185310D01*
X145435Y184957D01*
X145150Y184739D01*
X144650Y184985D01*
Y246950D01*
X145150Y247197D01*
X145580Y246867D01*
D02*
G37*
G36*
X121437Y186394D02*
X121591Y186315D01*
Y158772D01*
X121707Y158186D01*
X122039Y157690D01*
X124471Y155259D01*
Y154242D01*
X124022Y154021D01*
X123765Y154218D01*
X122914Y154571D01*
X122000Y154691D01*
X121086Y154571D01*
X120235Y154218D01*
X119504Y153657D01*
X118943Y152926D01*
X118590Y152075D01*
X118470Y151161D01*
X118590Y150247D01*
X118943Y149396D01*
X119504Y148665D01*
X120235Y148104D01*
X120363Y148050D01*
X119062Y109946D01*
X118847Y109877D01*
X118558Y109826D01*
X117865Y110357D01*
X117629Y110455D01*
Y160845D01*
X117865Y160943D01*
X118596Y161504D01*
X119157Y162235D01*
X119510Y163086D01*
X119630Y164000D01*
X119510Y164914D01*
X119157Y165765D01*
X118596Y166496D01*
X117865Y167057D01*
X117014Y167410D01*
X116100Y167530D01*
X115186Y167410D01*
X114335Y167057D01*
X114055Y166843D01*
X113555Y167089D01*
Y169611D01*
X114055Y169857D01*
X114335Y169643D01*
X115186Y169290D01*
X116100Y169170D01*
X117014Y169290D01*
X117865Y169643D01*
X118596Y170204D01*
X119157Y170935D01*
X119510Y171786D01*
X119630Y172700D01*
X119510Y173614D01*
X119383Y173920D01*
X119513Y174115D01*
X119629Y174700D01*
Y185145D01*
X119865Y185243D01*
X120596Y185804D01*
X121091Y186449D01*
X121437Y186394D01*
D02*
G37*
G36*
X100497Y246950D02*
Y161160D01*
X99564Y160228D01*
X99103Y160420D01*
Y246675D01*
X99567Y246867D01*
X99997Y247197D01*
X100497Y246950D01*
D02*
G37*
G36*
X252471Y152333D02*
X251971Y152087D01*
X251493Y152453D01*
X250532Y152851D01*
X249500Y152987D01*
X248468Y152851D01*
X247507Y152453D01*
X246681Y151819D01*
X246047Y150993D01*
X245649Y150032D01*
X245513Y149000D01*
X245649Y147968D01*
X245841Y147504D01*
X239866Y141529D01*
X212148D01*
X211669Y142009D01*
X211860Y142471D01*
X234500D01*
X235085Y142587D01*
X235581Y142919D01*
X247710Y155047D01*
X252471D01*
Y152333D01*
D02*
G37*
G36*
X210919Y189719D02*
X211415Y189387D01*
X212000Y189271D01*
X212151D01*
X212250Y188771D01*
X211735Y188557D01*
X211004Y187996D01*
X210443Y187265D01*
X210090Y186414D01*
X210036Y186000D01*
X216964D01*
X216910Y186414D01*
X216557Y187265D01*
X215996Y187996D01*
X215265Y188557D01*
X214750Y188771D01*
X214849Y189271D01*
X218000D01*
X218585Y189387D01*
X219081Y189719D01*
X222334Y192971D01*
X232279D01*
X232449Y192471D01*
X231978Y191856D01*
X231625Y191004D01*
X231570Y190591D01*
X238499D01*
X238445Y191004D01*
X238092Y191856D01*
X237620Y192471D01*
X237790Y192971D01*
X240355D01*
X240547Y192507D01*
X241181Y191681D01*
X242007Y191047D01*
X242968Y190649D01*
X244000Y190513D01*
X245032Y190649D01*
X245993Y191047D01*
X246471Y191413D01*
X246971Y191167D01*
Y170800D01*
X247087Y170215D01*
X247419Y169719D01*
X252471Y164666D01*
Y162953D01*
X245547D01*
Y157210D01*
X233867Y145529D01*
X215076D01*
X214977Y146029D01*
X215265Y146149D01*
X215996Y146710D01*
X216557Y147441D01*
X216910Y148292D01*
X217030Y149206D01*
X216910Y150120D01*
X216557Y150971D01*
X215996Y151702D01*
X215265Y152263D01*
X215029Y152361D01*
Y176900D01*
X214913Y177485D01*
X214581Y177981D01*
X205029Y187533D01*
Y194954D01*
X205491Y195146D01*
X210919Y189719D01*
D02*
G37*
G36*
X195464Y214557D02*
X196025Y213825D01*
X196756Y213264D01*
X197081Y213130D01*
Y192218D01*
X196935Y192157D01*
X196204Y191596D01*
X195643Y190865D01*
X195290Y190014D01*
X195170Y189100D01*
X195290Y188186D01*
X195643Y187335D01*
X196204Y186604D01*
X196935Y186043D01*
X197786Y185690D01*
X198098Y185649D01*
X198166Y185136D01*
X197735Y184957D01*
X197004Y184396D01*
X196443Y183665D01*
X196090Y182814D01*
X195970Y181900D01*
X196090Y180986D01*
X196443Y180135D01*
X197004Y179404D01*
X197735Y178843D01*
X198586Y178490D01*
X199500Y178370D01*
X200414Y178490D01*
X201265Y178843D01*
X201996Y179404D01*
X202557Y180135D01*
X202910Y180986D01*
X203030Y181900D01*
X202910Y182814D01*
X202664Y183407D01*
X203393Y184318D01*
X203892Y184345D01*
X211971Y176267D01*
Y152361D01*
X211735Y152263D01*
X211004Y151702D01*
X210443Y150971D01*
X210090Y150120D01*
X209970Y149206D01*
X210090Y148292D01*
X210443Y147441D01*
X211004Y146710D01*
X211735Y146149D01*
X212023Y146029D01*
X211924Y145529D01*
X210977D01*
X193932Y162574D01*
X194092Y163048D01*
X194414Y163090D01*
X195265Y163443D01*
X195996Y164004D01*
X196557Y164735D01*
X196910Y165586D01*
X197030Y166500D01*
X196910Y167414D01*
X196557Y168265D01*
X195996Y168996D01*
X195265Y169557D01*
X194629Y169821D01*
Y215319D01*
X195112Y215408D01*
X195464Y214557D01*
D02*
G37*
G36*
X252471Y145667D02*
Y142333D01*
X251971Y142087D01*
X251493Y142453D01*
X250532Y142851D01*
X249500Y142987D01*
X248468Y142851D01*
X247507Y142453D01*
X246681Y141819D01*
X246047Y140993D01*
X245649Y140032D01*
X245513Y139000D01*
X245649Y137968D01*
X246047Y137007D01*
X246413Y136529D01*
X246167Y136029D01*
X232900D01*
X232315Y135913D01*
X231819Y135581D01*
X226649Y130412D01*
X226414Y130510D01*
X225500Y130630D01*
X224586Y130510D01*
X224375Y130422D01*
X223978Y130727D01*
X224030Y131122D01*
X223910Y132036D01*
X223557Y132887D01*
X222996Y133618D01*
X222265Y134179D01*
X221414Y134532D01*
X220500Y134652D01*
X219586Y134532D01*
X218735Y134179D01*
X218004Y133618D01*
X217443Y132887D01*
X217090Y132036D01*
X216970Y131122D01*
X217090Y130208D01*
X217443Y129357D01*
X218004Y128626D01*
X218735Y128065D01*
X219586Y127712D01*
X220500Y127592D01*
X221414Y127712D01*
X221625Y127800D01*
X222022Y127495D01*
X221970Y127100D01*
X222090Y126186D01*
X222443Y125335D01*
X223004Y124604D01*
X223735Y124043D01*
X224586Y123690D01*
X225500Y123570D01*
X226414Y123690D01*
X227265Y124043D01*
X227996Y124604D01*
X228557Y125335D01*
X228910Y126186D01*
X229030Y127100D01*
X228910Y128014D01*
X228812Y128249D01*
X233534Y132971D01*
X247450D01*
X247550Y132471D01*
X247507Y132453D01*
X246681Y131819D01*
X246047Y130993D01*
X245649Y130032D01*
X245513Y129000D01*
X245649Y127968D01*
X246047Y127007D01*
X246681Y126181D01*
X247507Y125547D01*
X248468Y125149D01*
X249500Y125013D01*
X250532Y125149D01*
X251493Y125547D01*
X252319Y126181D01*
X252953Y127007D01*
X253351Y127968D01*
X253487Y129000D01*
X253351Y130032D01*
X253159Y130496D01*
X258509Y135846D01*
X258971Y135654D01*
Y119133D01*
X257503Y117666D01*
X256914Y117910D01*
X256000Y118030D01*
X255086Y117910D01*
X254235Y117557D01*
X253504Y116996D01*
X253473Y116956D01*
X253036Y117208D01*
X253351Y117968D01*
X253487Y119000D01*
X253351Y120032D01*
X252953Y120993D01*
X252319Y121819D01*
X251493Y122453D01*
X250532Y122851D01*
X249500Y122987D01*
X248468Y122851D01*
X247507Y122453D01*
X246681Y121819D01*
X246047Y120993D01*
X245649Y120032D01*
X245513Y119000D01*
X245649Y117968D01*
X246047Y117007D01*
X246681Y116181D01*
X247507Y115547D01*
X248468Y115149D01*
X249500Y115013D01*
X250532Y115149D01*
X251493Y115547D01*
X252319Y116181D01*
X252422Y116315D01*
X252859Y116063D01*
X252590Y115414D01*
X252470Y114500D01*
X252590Y113586D01*
X252943Y112735D01*
X253504Y112004D01*
X254235Y111443D01*
X255086Y111090D01*
X256000Y110970D01*
X256914Y111090D01*
X257765Y111443D01*
X258496Y112004D01*
X259057Y112735D01*
X259410Y113586D01*
X259530Y114500D01*
X259429Y115266D01*
X260858Y116695D01*
X261320Y116503D01*
X261000Y46500D01*
X234925Y46449D01*
X234646Y46949D01*
X234910Y47586D01*
X235030Y48500D01*
X234910Y49414D01*
X234557Y50265D01*
X233996Y50996D01*
X233265Y51557D01*
X232414Y51910D01*
X231500Y52030D01*
X230586Y51910D01*
X229735Y51557D01*
X229004Y50996D01*
X228443Y50265D01*
X228090Y49414D01*
X227970Y48500D01*
X228090Y47586D01*
X228188Y47351D01*
X227567Y46729D01*
X211946D01*
X211754Y47191D01*
X215481Y50919D01*
X215813Y51415D01*
X215929Y52000D01*
Y95967D01*
X224351Y104388D01*
X224586Y104290D01*
X225500Y104170D01*
X226414Y104290D01*
X227265Y104643D01*
X227996Y105204D01*
X228557Y105935D01*
X228910Y106786D01*
X229030Y107700D01*
X228910Y108614D01*
X228557Y109465D01*
X227996Y110196D01*
X227265Y110757D01*
X226414Y111110D01*
X225500Y111230D01*
X224586Y111110D01*
X223735Y110757D01*
X223004Y110196D01*
X222443Y109465D01*
X222090Y108614D01*
X221970Y107700D01*
X222090Y106786D01*
X222188Y106551D01*
X213319Y97681D01*
X212987Y97185D01*
X212871Y96600D01*
Y52634D01*
X211428Y51191D01*
X210954Y51424D01*
X211030Y52000D01*
X210910Y52914D01*
X210557Y53765D01*
X209996Y54496D01*
X209265Y55057D01*
X209029Y55155D01*
Y139669D01*
X209491Y139860D01*
X210433Y138919D01*
X210929Y138587D01*
X211515Y138471D01*
X240500D01*
X241085Y138587D01*
X241581Y138919D01*
X248004Y145341D01*
X248468Y145149D01*
X249500Y145013D01*
X250532Y145149D01*
X251493Y145547D01*
X251971Y145913D01*
X252471Y145667D01*
D02*
G37*
G36*
X256971Y138634D02*
X255991Y137654D01*
X255529Y137846D01*
Y165300D01*
X255413Y165885D01*
X255081Y166381D01*
X250029Y171433D01*
Y190055D01*
X250047Y190547D01*
X256971D01*
Y138634D01*
D02*
G37*
G36*
X114335Y160943D02*
X114571Y160845D01*
Y110455D01*
X114335Y110357D01*
X114055Y110143D01*
X113555Y110389D01*
Y160911D01*
X114055Y161157D01*
X114335Y160943D01*
D02*
G37*
G36*
X118873Y104386D02*
X117671Y69192D01*
X117682Y69126D01*
X117668Y68988D01*
X117783Y67821D01*
X118123Y66699D01*
X118676Y65664D01*
X119420Y64758D01*
X120326Y64014D01*
X121361Y63461D01*
X121430Y63440D01*
X121356Y62940D01*
X119697D01*
Y55035D01*
X126573D01*
Y54698D01*
X126636Y54380D01*
X126689Y54112D01*
X126689Y54112D01*
X126689Y54112D01*
X126856Y53863D01*
X127021Y53616D01*
X127278Y53359D01*
X127278Y53359D01*
X133446Y47191D01*
X133254Y46729D01*
X114416D01*
X114169Y47229D01*
X114557Y47735D01*
X114910Y48586D01*
X115030Y49500D01*
X114910Y50414D01*
X114557Y51265D01*
X113996Y51996D01*
X113555Y52334D01*
Y104211D01*
X114055Y104457D01*
X114335Y104243D01*
X115186Y103890D01*
X116100Y103770D01*
X117014Y103890D01*
X117865Y104243D01*
X118381Y104639D01*
X118873Y104386D01*
D02*
G37*
G36*
X84971Y143484D02*
Y99738D01*
X84471Y99568D01*
X84067Y100094D01*
X83336Y100655D01*
X82485Y101008D01*
X81571Y101128D01*
X80657Y101008D01*
X79806Y100655D01*
X79529Y100443D01*
X79029Y100690D01*
Y138196D01*
X84509Y143675D01*
X84971Y143484D01*
D02*
G37*
G36*
Y95458D02*
Y54155D01*
X84735Y54057D01*
X84004Y53496D01*
X83443Y52765D01*
X83090Y51914D01*
X82970Y51000D01*
X83046Y50424D01*
X82572Y50191D01*
X81529Y51234D01*
Y89100D01*
X81413Y89685D01*
X81081Y90181D01*
X79029Y92234D01*
Y94506D01*
X79529Y94753D01*
X79806Y94541D01*
X80657Y94188D01*
X81571Y94068D01*
X82485Y94188D01*
X83336Y94541D01*
X84067Y95102D01*
X84471Y95628D01*
X84971Y95458D01*
D02*
G37*
G36*
X124471Y148080D02*
Y73371D01*
X123971Y72932D01*
X123650Y72974D01*
X122618Y72839D01*
X121656Y72440D01*
X121334Y72193D01*
X120843Y72446D01*
X123421Y147961D01*
X123765Y148104D01*
X124022Y148301D01*
X124471Y148080D01*
D02*
G37*
%LPC*%
G36*
X98073Y264241D02*
Y260820D01*
X101494D01*
X101424Y261352D01*
X101026Y262313D01*
X100392Y263139D01*
X99567Y263773D01*
X98605Y264171D01*
X98073Y264241D01*
D02*
G37*
G36*
X101494Y259820D02*
X98073D01*
Y256399D01*
X98605Y256469D01*
X99567Y256867D01*
X100392Y257501D01*
X101026Y258326D01*
X101424Y259288D01*
X101494Y259820D01*
D02*
G37*
G36*
X57073Y264241D02*
X56541Y264171D01*
X55580Y263773D01*
X54754Y263139D01*
X54120Y262313D01*
X53722Y261352D01*
X53652Y260820D01*
X57073D01*
Y264241D01*
D02*
G37*
G36*
Y259820D02*
X53652D01*
X53722Y259288D01*
X54120Y258326D01*
X54754Y257501D01*
X55580Y256867D01*
X56541Y256469D01*
X57073Y256399D01*
Y259820D01*
D02*
G37*
G36*
X128073Y264241D02*
Y260820D01*
X131494D01*
X131424Y261352D01*
X131026Y262313D01*
X130392Y263139D01*
X129567Y263773D01*
X128605Y264171D01*
X128073Y264241D01*
D02*
G37*
G36*
X227073Y254241D02*
X226541Y254171D01*
X225580Y253772D01*
X224754Y253139D01*
X224120Y252313D01*
X223722Y251352D01*
X223652Y250820D01*
X227073D01*
Y254241D01*
D02*
G37*
G36*
Y249820D02*
X223652D01*
X223722Y249288D01*
X224120Y248326D01*
X224754Y247501D01*
X225580Y246867D01*
X226541Y246469D01*
X227073Y246399D01*
Y249820D01*
D02*
G37*
G36*
X244500Y228421D02*
Y225000D01*
X247921D01*
X247851Y225532D01*
X247453Y226493D01*
X246819Y227319D01*
X245993Y227953D01*
X245032Y228351D01*
X244500Y228421D01*
D02*
G37*
G36*
X243500D02*
X242968Y228351D01*
X242007Y227953D01*
X241181Y227319D01*
X240547Y226493D01*
X240149Y225532D01*
X240079Y225000D01*
X243500D01*
Y228421D01*
D02*
G37*
G36*
X11000Y243130D02*
X10086Y243010D01*
X9235Y242657D01*
X8504Y242096D01*
X7943Y241365D01*
X7590Y240514D01*
X7470Y239600D01*
X7590Y238686D01*
X7943Y237835D01*
X8504Y237104D01*
X9235Y236543D01*
X10086Y236190D01*
X11000Y236070D01*
X11914Y236190D01*
X12765Y236543D01*
X13496Y237104D01*
X14057Y237835D01*
X14410Y238686D01*
X14530Y239600D01*
X14410Y240514D01*
X14057Y241365D01*
X13496Y242096D01*
X12765Y242657D01*
X11914Y243010D01*
X11000Y243130D01*
D02*
G37*
G36*
X19024Y229503D02*
X15571D01*
Y226051D01*
X19024D01*
Y229503D01*
D02*
G37*
G36*
X14571D02*
X11118D01*
Y226051D01*
X14571D01*
Y229503D01*
D02*
G37*
G36*
X19024Y225051D02*
X15571D01*
Y221598D01*
X19024D01*
Y225051D01*
D02*
G37*
G36*
X14571D02*
X11118D01*
Y221598D01*
X14571D01*
Y225051D01*
D02*
G37*
G36*
X25071Y229538D02*
X24039Y229402D01*
X23078Y229003D01*
X22252Y228370D01*
X21618Y227544D01*
X21220Y226583D01*
X21084Y225551D01*
X21220Y224519D01*
X21618Y223557D01*
X22252Y222731D01*
X23078Y222098D01*
X24039Y221700D01*
X25071Y221564D01*
X26103Y221700D01*
X27064Y222098D01*
X27890Y222731D01*
X28524Y223557D01*
X28922Y224519D01*
X29058Y225551D01*
X28922Y226583D01*
X28524Y227544D01*
X27890Y228370D01*
X27064Y229003D01*
X26103Y229402D01*
X25071Y229538D01*
D02*
G37*
G36*
X19024Y210361D02*
X15571D01*
Y206908D01*
X19024D01*
Y210361D01*
D02*
G37*
G36*
X14571D02*
X11118D01*
Y206908D01*
X14571D01*
Y210361D01*
D02*
G37*
G36*
X19024Y205908D02*
X15571D01*
Y202455D01*
X19024D01*
Y205908D01*
D02*
G37*
G36*
X14571D02*
X11118D01*
Y202455D01*
X14571D01*
Y205908D01*
D02*
G37*
G36*
X25071Y210395D02*
X24039Y210259D01*
X23078Y209860D01*
X22252Y209227D01*
X21618Y208401D01*
X21220Y207440D01*
X21084Y206408D01*
X21220Y205376D01*
X21618Y204414D01*
X22252Y203589D01*
X23078Y202955D01*
X24039Y202557D01*
X25071Y202421D01*
X26103Y202557D01*
X27064Y202955D01*
X27890Y203589D01*
X28524Y204414D01*
X28922Y205376D01*
X29058Y206408D01*
X28922Y207440D01*
X28524Y208401D01*
X27890Y209227D01*
X27064Y209860D01*
X26103Y210259D01*
X25071Y210395D01*
D02*
G37*
G36*
X19024Y191218D02*
X15571D01*
Y187765D01*
X19024D01*
Y191218D01*
D02*
G37*
G36*
X14571D02*
X11118D01*
Y187765D01*
X14571D01*
Y191218D01*
D02*
G37*
G36*
X19024Y186765D02*
X15571D01*
Y183312D01*
X19024D01*
Y186765D01*
D02*
G37*
G36*
X14571D02*
X11118D01*
Y183312D01*
X14571D01*
Y186765D01*
D02*
G37*
G36*
X25071Y191252D02*
X24039Y191116D01*
X23078Y190718D01*
X22252Y190084D01*
X21618Y189258D01*
X21220Y188297D01*
X21084Y187265D01*
X21220Y186233D01*
X21618Y185272D01*
X22252Y184446D01*
X23078Y183812D01*
X24039Y183414D01*
X25071Y183278D01*
X26103Y183414D01*
X27064Y183812D01*
X27890Y184446D01*
X28524Y185272D01*
X28922Y186233D01*
X29058Y187265D01*
X28922Y188297D01*
X28524Y189258D01*
X27890Y190084D01*
X27064Y190718D01*
X26103Y191116D01*
X25071Y191252D01*
D02*
G37*
G36*
X19024Y172075D02*
X15571D01*
Y168622D01*
X19024D01*
Y172075D01*
D02*
G37*
G36*
X14571D02*
X11118D01*
Y168622D01*
X14571D01*
Y172075D01*
D02*
G37*
G36*
X19024Y167622D02*
X15571D01*
Y164169D01*
X19024D01*
Y167622D01*
D02*
G37*
G36*
X14571D02*
X11118D01*
Y164169D01*
X14571D01*
Y167622D01*
D02*
G37*
G36*
X25071Y172109D02*
X24039Y171973D01*
X23078Y171575D01*
X22252Y170941D01*
X21618Y170115D01*
X21220Y169154D01*
X21084Y168122D01*
X21220Y167090D01*
X21618Y166129D01*
X22252Y165303D01*
X23078Y164669D01*
X24039Y164271D01*
X25071Y164135D01*
X26103Y164271D01*
X27064Y164669D01*
X27890Y165303D01*
X28524Y166129D01*
X28922Y167090D01*
X29058Y168122D01*
X28922Y169154D01*
X28524Y170115D01*
X27890Y170941D01*
X27064Y171575D01*
X26103Y171973D01*
X25071Y172109D01*
D02*
G37*
G36*
X54000Y163530D02*
X53086Y163410D01*
X52235Y163057D01*
X51504Y162496D01*
X50943Y161765D01*
X50590Y160914D01*
X50470Y160000D01*
X50590Y159086D01*
X50943Y158235D01*
X51504Y157504D01*
X52235Y156943D01*
X53086Y156590D01*
X54000Y156470D01*
X54914Y156590D01*
X55765Y156943D01*
X56496Y157504D01*
X57057Y158235D01*
X57410Y159086D01*
X57530Y160000D01*
X57410Y160914D01*
X57057Y161765D01*
X56496Y162496D01*
X55765Y163057D01*
X54914Y163410D01*
X54000Y163530D01*
D02*
G37*
G36*
X19024Y152932D02*
X15571D01*
Y149479D01*
X19024D01*
Y152932D01*
D02*
G37*
G36*
X14571D02*
X11118D01*
Y149479D01*
X14571D01*
Y152932D01*
D02*
G37*
G36*
X77000Y148464D02*
Y145500D01*
X79964D01*
X79910Y145914D01*
X79557Y146765D01*
X78996Y147496D01*
X78265Y148057D01*
X77414Y148410D01*
X77000Y148464D01*
D02*
G37*
G36*
X76000D02*
X75586Y148410D01*
X74735Y148057D01*
X74004Y147496D01*
X73443Y146765D01*
X73090Y145914D01*
X73036Y145500D01*
X76000D01*
Y148464D01*
D02*
G37*
G36*
X19024Y148479D02*
X15571D01*
Y145026D01*
X19024D01*
Y148479D01*
D02*
G37*
G36*
X14571D02*
X11118D01*
Y145026D01*
X14571D01*
Y148479D01*
D02*
G37*
G36*
X25071Y152966D02*
X24039Y152830D01*
X23078Y152432D01*
X22252Y151798D01*
X21618Y150973D01*
X21220Y150011D01*
X21084Y148979D01*
X21220Y147947D01*
X21618Y146986D01*
X22252Y146160D01*
X23078Y145527D01*
X24039Y145128D01*
X25071Y144992D01*
X26103Y145128D01*
X27064Y145527D01*
X27890Y146160D01*
X28524Y146986D01*
X28922Y147947D01*
X29058Y148979D01*
X28922Y150011D01*
X28524Y150973D01*
X27890Y151798D01*
X27064Y152432D01*
X26103Y152830D01*
X25071Y152966D01*
D02*
G37*
G36*
X76000Y144500D02*
X73036D01*
X73090Y144086D01*
X73443Y143235D01*
X74004Y142504D01*
X74735Y141943D01*
X75586Y141590D01*
X76000Y141536D01*
Y144500D01*
D02*
G37*
G36*
X19024Y133789D02*
X15571D01*
Y130336D01*
X19024D01*
Y133789D01*
D02*
G37*
G36*
X14571D02*
X11118D01*
Y130336D01*
X14571D01*
Y133789D01*
D02*
G37*
G36*
X19024Y129336D02*
X15571D01*
Y125884D01*
X19024D01*
Y129336D01*
D02*
G37*
G36*
X14571D02*
X11118D01*
Y125884D01*
X14571D01*
Y129336D01*
D02*
G37*
G36*
X25071Y133823D02*
X24039Y133687D01*
X23078Y133289D01*
X22252Y132656D01*
X21618Y131830D01*
X21220Y130868D01*
X21084Y129836D01*
X21220Y128805D01*
X21618Y127843D01*
X22252Y127017D01*
X23078Y126384D01*
X24039Y125985D01*
X25071Y125849D01*
X26103Y125985D01*
X27064Y126384D01*
X27890Y127017D01*
X28524Y127843D01*
X28922Y128805D01*
X29058Y129836D01*
X28922Y130868D01*
X28524Y131830D01*
X27890Y132656D01*
X27064Y133289D01*
X26103Y133687D01*
X25071Y133823D01*
D02*
G37*
G36*
X19024Y114646D02*
X15571D01*
Y111194D01*
X19024D01*
Y114646D01*
D02*
G37*
G36*
X14571D02*
X11118D01*
Y111194D01*
X14571D01*
Y114646D01*
D02*
G37*
G36*
X19024Y110194D02*
X15571D01*
Y106741D01*
X19024D01*
Y110194D01*
D02*
G37*
G36*
X14571D02*
X11118D01*
Y106741D01*
X14571D01*
Y110194D01*
D02*
G37*
G36*
X25071Y114681D02*
X24039Y114545D01*
X23078Y114146D01*
X22252Y113513D01*
X21618Y112687D01*
X21220Y111725D01*
X21084Y110694D01*
X21220Y109662D01*
X21618Y108700D01*
X22252Y107875D01*
X23078Y107241D01*
X24039Y106843D01*
X25071Y106707D01*
X26103Y106843D01*
X27064Y107241D01*
X27890Y107875D01*
X28524Y108700D01*
X28922Y109662D01*
X29058Y110694D01*
X28922Y111725D01*
X28524Y112687D01*
X27890Y113513D01*
X27064Y114146D01*
X26103Y114545D01*
X25071Y114681D01*
D02*
G37*
G36*
X19024Y95503D02*
X15571D01*
Y92051D01*
X19024D01*
Y95503D01*
D02*
G37*
G36*
X14571D02*
X11118D01*
Y92051D01*
X14571D01*
Y95503D01*
D02*
G37*
G36*
X19024Y91051D02*
X15571D01*
Y87598D01*
X19024D01*
Y91051D01*
D02*
G37*
G36*
X14571D02*
X11118D01*
Y87598D01*
X14571D01*
Y91051D01*
D02*
G37*
G36*
X25071Y95538D02*
X24039Y95402D01*
X23078Y95003D01*
X22252Y94370D01*
X21618Y93544D01*
X21220Y92583D01*
X21084Y91551D01*
X21220Y90519D01*
X21618Y89557D01*
X22252Y88732D01*
X23078Y88098D01*
X24039Y87700D01*
X25071Y87564D01*
X26103Y87700D01*
X27064Y88098D01*
X27890Y88732D01*
X28524Y89557D01*
X28922Y90519D01*
X29058Y91551D01*
X28922Y92583D01*
X28524Y93544D01*
X27890Y94370D01*
X27064Y95003D01*
X26103Y95402D01*
X25071Y95538D01*
D02*
G37*
G36*
X51500Y72974D02*
X50468Y72839D01*
X49507Y72440D01*
X48681Y71807D01*
X48047Y70981D01*
X47649Y70020D01*
X47513Y68988D01*
X47649Y67956D01*
X48047Y66994D01*
X48681Y66168D01*
X49507Y65535D01*
X50468Y65137D01*
X51500Y65001D01*
X52532Y65137D01*
X53493Y65535D01*
X54319Y66168D01*
X54953Y66994D01*
X55351Y67956D01*
X55487Y68988D01*
X55351Y70020D01*
X54953Y70981D01*
X54319Y71807D01*
X53493Y72440D01*
X52532Y72839D01*
X51500Y72974D01*
D02*
G37*
G36*
X55453Y62940D02*
X47547D01*
Y55035D01*
X55453D01*
Y62940D01*
D02*
G37*
G36*
X18154Y78296D02*
X16082Y78133D01*
X14061Y77648D01*
X12140Y76853D01*
X10368Y75766D01*
X8788Y74417D01*
X7438Y72836D01*
X6352Y71064D01*
X5556Y69144D01*
X5071Y67123D01*
X4908Y65051D01*
X5071Y62979D01*
X5556Y60957D01*
X6352Y59037D01*
X7438Y57265D01*
X8788Y55685D01*
X10368Y54335D01*
X12140Y53249D01*
X14061Y52453D01*
X16082Y51968D01*
X18154Y51805D01*
X20226Y51968D01*
X22247Y52453D01*
X24167Y53249D01*
X25939Y54335D01*
X27520Y55685D01*
X28870Y57265D01*
X29956Y59037D01*
X30751Y60957D01*
X31236Y62979D01*
X31399Y65051D01*
X31236Y67123D01*
X30751Y69144D01*
X29956Y71064D01*
X28870Y72836D01*
X27520Y74417D01*
X25939Y75766D01*
X24167Y76853D01*
X22247Y77648D01*
X20226Y78133D01*
X18154Y78296D01*
D02*
G37*
G36*
X138500Y236964D02*
X138086Y236910D01*
X137235Y236557D01*
X136504Y235996D01*
X135943Y235265D01*
X135590Y234414D01*
X135536Y234000D01*
X138500D01*
Y236964D01*
D02*
G37*
G36*
Y233000D02*
X135536D01*
X135590Y232586D01*
X135943Y231735D01*
X136504Y231004D01*
X137235Y230443D01*
X138086Y230090D01*
X138500Y230036D01*
Y233000D01*
D02*
G37*
G36*
X171575Y72974D02*
X170543Y72839D01*
X169581Y72440D01*
X168756Y71807D01*
X168122Y70981D01*
X167724Y70020D01*
X167588Y68988D01*
X167724Y67956D01*
X168122Y66994D01*
X168756Y66168D01*
X169581Y65535D01*
X170543Y65137D01*
X171575Y65001D01*
X172607Y65137D01*
X173568Y65535D01*
X174394Y66168D01*
X175028Y66994D01*
X175426Y67956D01*
X175562Y68988D01*
X175426Y70020D01*
X175028Y70981D01*
X174394Y71807D01*
X173568Y72440D01*
X172607Y72839D01*
X171575Y72974D01*
D02*
G37*
G36*
X175528Y62940D02*
X167622D01*
Y55035D01*
X175528D01*
Y62940D01*
D02*
G37*
G36*
X147650Y72974D02*
X146618Y72839D01*
X145656Y72440D01*
X144831Y71807D01*
X144197Y70981D01*
X143799Y70020D01*
X143663Y68988D01*
X143799Y67956D01*
X144197Y66994D01*
X144831Y66168D01*
X145656Y65535D01*
X146618Y65137D01*
X147650Y65001D01*
X148681Y65137D01*
X149643Y65535D01*
X150469Y66168D01*
X151102Y66994D01*
X151501Y67956D01*
X151637Y68988D01*
X151501Y70020D01*
X151102Y70981D01*
X150469Y71807D01*
X149643Y72440D01*
X148681Y72839D01*
X147650Y72974D01*
D02*
G37*
G36*
X151602Y62940D02*
X143697D01*
Y55035D01*
X151602D01*
Y62940D01*
D02*
G37*
G36*
X221000Y218964D02*
Y216000D01*
X223964D01*
X223910Y216414D01*
X223557Y217265D01*
X222996Y217996D01*
X222265Y218557D01*
X221414Y218910D01*
X221000Y218964D01*
D02*
G37*
G36*
X220000D02*
X219586Y218910D01*
X218735Y218557D01*
X218004Y217996D01*
X217443Y217265D01*
X217090Y216414D01*
X217036Y216000D01*
X220000D01*
Y218964D01*
D02*
G37*
G36*
X223964Y215000D02*
X221000D01*
Y212036D01*
X221414Y212090D01*
X222265Y212443D01*
X222996Y213004D01*
X223557Y213735D01*
X223910Y214586D01*
X223964Y215000D01*
D02*
G37*
G36*
X220000D02*
X217036D01*
X217090Y214586D01*
X217443Y213735D01*
X218004Y213004D01*
X218735Y212443D01*
X219586Y212090D01*
X220000Y212036D01*
Y215000D01*
D02*
G37*
G36*
X228500Y213530D02*
X227586Y213410D01*
X226735Y213057D01*
X226004Y212496D01*
X225443Y211765D01*
X225090Y210914D01*
X224970Y210000D01*
X225090Y209086D01*
X225443Y208235D01*
X226004Y207504D01*
X226735Y206943D01*
X227586Y206590D01*
X228500Y206470D01*
X229414Y206590D01*
X230265Y206943D01*
X230996Y207504D01*
X231557Y208235D01*
X231910Y209086D01*
X232030Y210000D01*
X231910Y210914D01*
X231557Y211765D01*
X230996Y212496D01*
X230265Y213057D01*
X229414Y213410D01*
X228500Y213530D01*
D02*
G37*
G36*
X87500Y230464D02*
Y227500D01*
X90464D01*
X90410Y227914D01*
X90057Y228765D01*
X89496Y229496D01*
X88765Y230057D01*
X87914Y230410D01*
X87500Y230464D01*
D02*
G37*
G36*
X90464Y226500D02*
X87500D01*
Y223536D01*
X87914Y223590D01*
X88765Y223943D01*
X89496Y224504D01*
X90057Y225235D01*
X90410Y226086D01*
X90464Y226500D01*
D02*
G37*
G36*
X157073Y249820D02*
X153652D01*
X153722Y249288D01*
X154121Y248326D01*
X154754Y247501D01*
X155580Y246867D01*
X156541Y246469D01*
X157073Y246399D01*
Y249820D01*
D02*
G37*
G36*
X102000Y149964D02*
Y147000D01*
X104964D01*
X104910Y147414D01*
X104557Y148265D01*
X103996Y148996D01*
X103265Y149557D01*
X102414Y149910D01*
X102000Y149964D01*
D02*
G37*
G36*
X101000D02*
X100586Y149910D01*
X99735Y149557D01*
X99004Y148996D01*
X98443Y148265D01*
X98090Y147414D01*
X98036Y147000D01*
X101000D01*
Y149964D01*
D02*
G37*
G36*
X104964Y146000D02*
X102000D01*
Y143036D01*
X102414Y143090D01*
X103265Y143443D01*
X103996Y144004D01*
X104557Y144735D01*
X104910Y145586D01*
X104964Y146000D01*
D02*
G37*
G36*
X101000D02*
X98036D01*
X98090Y145586D01*
X98443Y144735D01*
X99004Y144004D01*
X99735Y143443D01*
X100586Y143090D01*
X101000Y143036D01*
Y146000D01*
D02*
G37*
G36*
X94000Y143030D02*
X93086Y142910D01*
X92235Y142557D01*
X91504Y141996D01*
X90943Y141265D01*
X90590Y140414D01*
X90470Y139500D01*
X90590Y138586D01*
X90943Y137735D01*
X91504Y137004D01*
X92235Y136443D01*
X93086Y136090D01*
X94000Y135970D01*
X94914Y136090D01*
X95765Y136443D01*
X96496Y137004D01*
X97057Y137735D01*
X97410Y138586D01*
X97530Y139500D01*
X97410Y140414D01*
X97057Y141265D01*
X96496Y141996D01*
X95765Y142557D01*
X94914Y142910D01*
X94000Y143030D01*
D02*
G37*
G36*
X92000Y118464D02*
Y115500D01*
X94964D01*
X94910Y115914D01*
X94557Y116765D01*
X93996Y117496D01*
X93265Y118057D01*
X92414Y118410D01*
X92000Y118464D01*
D02*
G37*
G36*
X94964Y114500D02*
X92000D01*
Y111536D01*
X92414Y111590D01*
X93265Y111943D01*
X93996Y112504D01*
X94557Y113235D01*
X94910Y114086D01*
X94964Y114500D01*
D02*
G37*
G36*
X105500Y109464D02*
Y106500D01*
X108464D01*
X108410Y106914D01*
X108057Y107765D01*
X107496Y108496D01*
X106765Y109057D01*
X105914Y109410D01*
X105500Y109464D01*
D02*
G37*
G36*
X104500D02*
X104086Y109410D01*
X103235Y109057D01*
X102504Y108496D01*
X101943Y107765D01*
X101590Y106914D01*
X101536Y106500D01*
X104500D01*
Y109464D01*
D02*
G37*
G36*
X108464Y105500D02*
X105500D01*
Y102536D01*
X105914Y102590D01*
X106765Y102943D01*
X107496Y103504D01*
X108057Y104235D01*
X108410Y105086D01*
X108464Y105500D01*
D02*
G37*
G36*
X104500D02*
X101536D01*
X101590Y105086D01*
X101943Y104235D01*
X102504Y103504D01*
X103235Y102943D01*
X104086Y102590D01*
X104500Y102536D01*
Y105500D01*
D02*
G37*
G36*
X99650Y72974D02*
X98618Y72839D01*
X97656Y72440D01*
X96830Y71807D01*
X96197Y70981D01*
X95799Y70020D01*
X95663Y68988D01*
X95799Y67956D01*
X96197Y66994D01*
X96830Y66168D01*
X97656Y65535D01*
X98618Y65137D01*
X99650Y65001D01*
X100681Y65137D01*
X101643Y65535D01*
X102469Y66168D01*
X103102Y66994D01*
X103501Y67956D01*
X103637Y68988D01*
X103501Y70020D01*
X103102Y70981D01*
X102469Y71807D01*
X101643Y72440D01*
X100681Y72839D01*
X99650Y72974D01*
D02*
G37*
G36*
X103602Y62940D02*
X95697D01*
Y55035D01*
X103602D01*
Y62940D01*
D02*
G37*
G36*
X199110Y100839D02*
X198130Y100710D01*
X197216Y100332D01*
X196432Y99730D01*
X195829Y98945D01*
X195451Y98031D01*
X195322Y97051D01*
X195451Y96070D01*
X195829Y95157D01*
X196432Y94372D01*
X197216Y93770D01*
X198130Y93392D01*
X199110Y93262D01*
X200091Y93392D01*
X201004Y93770D01*
X201789Y94372D01*
X202391Y95157D01*
X202769Y96070D01*
X202899Y97051D01*
X202769Y98031D01*
X202391Y98945D01*
X201789Y99730D01*
X201004Y100332D01*
X200091Y100710D01*
X199110Y100839D01*
D02*
G37*
G36*
X196075Y72974D02*
X195043Y72839D01*
X194081Y72440D01*
X193256Y71807D01*
X192622Y70981D01*
X192224Y70020D01*
X192088Y68988D01*
X192224Y67956D01*
X192622Y66994D01*
X193256Y66168D01*
X194081Y65535D01*
X195043Y65137D01*
X196075Y65001D01*
X197107Y65137D01*
X198068Y65535D01*
X198894Y66168D01*
X199528Y66994D01*
X199926Y67956D01*
X200062Y68988D01*
X199926Y70020D01*
X199528Y70981D01*
X198894Y71807D01*
X198068Y72440D01*
X197107Y72839D01*
X196075Y72974D01*
D02*
G37*
G36*
X200027Y62940D02*
X192122D01*
Y55035D01*
X200027D01*
Y62940D01*
D02*
G37*
G36*
X238499Y189591D02*
X235535D01*
Y186626D01*
X235948Y186681D01*
X236800Y187033D01*
X237531Y187594D01*
X238092Y188325D01*
X238445Y189177D01*
X238499Y189591D01*
D02*
G37*
G36*
X234535D02*
X231570D01*
X231625Y189177D01*
X231978Y188325D01*
X232539Y187594D01*
X233270Y187033D01*
X234121Y186681D01*
X234535Y186626D01*
Y189591D01*
D02*
G37*
G36*
X216964Y185000D02*
X214000D01*
Y182036D01*
X214414Y182090D01*
X215265Y182443D01*
X215996Y183004D01*
X216557Y183735D01*
X216910Y184586D01*
X216964Y185000D01*
D02*
G37*
G36*
X213000D02*
X210036D01*
X210090Y184586D01*
X210443Y183735D01*
X211004Y183004D01*
X211735Y182443D01*
X212586Y182090D01*
X213000Y182036D01*
Y185000D01*
D02*
G37*
G36*
X203500Y173288D02*
X202519Y173159D01*
X201606Y172781D01*
X200821Y172179D01*
X200219Y171394D01*
X199841Y170481D01*
X199712Y169500D01*
X199841Y168519D01*
X200219Y167606D01*
X200821Y166821D01*
X201606Y166219D01*
X202519Y165841D01*
X203500Y165712D01*
X204481Y165841D01*
X205394Y166219D01*
X206179Y166821D01*
X206781Y167606D01*
X207159Y168519D01*
X207288Y169500D01*
X207159Y170481D01*
X206781Y171394D01*
X206179Y172179D01*
X205394Y172781D01*
X204481Y173159D01*
X203500Y173288D01*
D02*
G37*
G36*
X249500Y112987D02*
X248468Y112851D01*
X247507Y112453D01*
X246681Y111819D01*
X246047Y110993D01*
X245649Y110032D01*
X245513Y109000D01*
X245649Y107968D01*
X246047Y107007D01*
X246681Y106181D01*
X247507Y105547D01*
X248468Y105149D01*
X249500Y105013D01*
X250532Y105149D01*
X251493Y105547D01*
X252319Y106181D01*
X252953Y107007D01*
X253351Y107968D01*
X253487Y109000D01*
X253351Y110032D01*
X252953Y110993D01*
X252319Y111819D01*
X251493Y112453D01*
X250532Y112851D01*
X249500Y112987D01*
D02*
G37*
G36*
X223000Y99464D02*
Y96500D01*
X225964D01*
X225910Y96914D01*
X225557Y97765D01*
X224996Y98496D01*
X224265Y99057D01*
X223414Y99410D01*
X223000Y99464D01*
D02*
G37*
G36*
X222000D02*
X221586Y99410D01*
X220735Y99057D01*
X220004Y98496D01*
X219443Y97765D01*
X219090Y96914D01*
X219036Y96500D01*
X222000D01*
Y99464D01*
D02*
G37*
G36*
X249500Y102987D02*
X248468Y102851D01*
X247507Y102453D01*
X246681Y101819D01*
X246047Y100993D01*
X245649Y100032D01*
X245513Y99000D01*
X245649Y97968D01*
X246047Y97007D01*
X246681Y96181D01*
X247507Y95547D01*
X248468Y95149D01*
X249500Y95013D01*
X250532Y95149D01*
X251493Y95547D01*
X252319Y96181D01*
X252953Y97007D01*
X253351Y97968D01*
X253487Y99000D01*
X253351Y100032D01*
X252953Y100993D01*
X252319Y101819D01*
X251493Y102453D01*
X250532Y102851D01*
X249500Y102987D01*
D02*
G37*
G36*
X225964Y95500D02*
X223000D01*
Y92536D01*
X223414Y92590D01*
X224265Y92943D01*
X224996Y93504D01*
X225557Y94235D01*
X225910Y95086D01*
X225964Y95500D01*
D02*
G37*
G36*
X222000D02*
X219036D01*
X219090Y95086D01*
X219443Y94235D01*
X220004Y93504D01*
X220735Y92943D01*
X221586Y92590D01*
X222000Y92536D01*
Y95500D01*
D02*
G37*
G36*
X238000Y92964D02*
Y90000D01*
X240964D01*
X240910Y90414D01*
X240557Y91265D01*
X239996Y91996D01*
X239265Y92557D01*
X238414Y92910D01*
X238000Y92964D01*
D02*
G37*
G36*
X237000D02*
X236586Y92910D01*
X235735Y92557D01*
X235004Y91996D01*
X234443Y91265D01*
X234090Y90414D01*
X234036Y90000D01*
X237000D01*
Y92964D01*
D02*
G37*
G36*
X240964Y89000D02*
X238000D01*
Y86036D01*
X238414Y86090D01*
X239265Y86443D01*
X239996Y87004D01*
X240557Y87735D01*
X240910Y88586D01*
X240964Y89000D01*
D02*
G37*
G36*
X237000D02*
X234036D01*
X234090Y88586D01*
X234443Y87735D01*
X235004Y87004D01*
X235735Y86443D01*
X236586Y86090D01*
X237000Y86036D01*
Y89000D01*
D02*
G37*
G36*
X249500Y92987D02*
X248468Y92851D01*
X247507Y92453D01*
X246681Y91819D01*
X246047Y90993D01*
X245649Y90032D01*
X245513Y89000D01*
X245649Y87968D01*
X246047Y87007D01*
X246681Y86181D01*
X247507Y85547D01*
X248468Y85149D01*
X249500Y85013D01*
X250532Y85149D01*
X251493Y85547D01*
X252319Y86181D01*
X252953Y87007D01*
X253351Y87968D01*
X253487Y89000D01*
X253351Y90032D01*
X252953Y90993D01*
X252319Y91819D01*
X251493Y92453D01*
X250532Y92851D01*
X249500Y92987D01*
D02*
G37*
G36*
X220500Y72974D02*
X219468Y72839D01*
X218507Y72440D01*
X217681Y71807D01*
X217047Y70981D01*
X216649Y70020D01*
X216513Y68988D01*
X216649Y67956D01*
X217047Y66994D01*
X217681Y66168D01*
X218507Y65535D01*
X219468Y65137D01*
X220500Y65001D01*
X221532Y65137D01*
X222493Y65535D01*
X223319Y66168D01*
X223953Y66994D01*
X224351Y67956D01*
X224487Y68988D01*
X224351Y70020D01*
X223953Y70981D01*
X223319Y71807D01*
X222493Y72440D01*
X221532Y72839D01*
X220500Y72974D01*
D02*
G37*
G36*
X224453Y62940D02*
X216547D01*
Y55035D01*
X224453D01*
Y62940D01*
D02*
G37*
G36*
X246500Y78296D02*
X244428Y78133D01*
X242407Y77648D01*
X240487Y76853D01*
X238714Y75766D01*
X237134Y74417D01*
X235784Y72836D01*
X234698Y71064D01*
X233903Y69144D01*
X233418Y67123D01*
X233254Y65051D01*
X233418Y62979D01*
X233903Y60957D01*
X234698Y59037D01*
X235784Y57265D01*
X237134Y55685D01*
X238714Y54335D01*
X240487Y53249D01*
X242407Y52453D01*
X244428Y51968D01*
X246500Y51805D01*
X248572Y51968D01*
X250593Y52453D01*
X252513Y53249D01*
X254286Y54335D01*
X255866Y55685D01*
X257216Y57265D01*
X258302Y59037D01*
X259097Y60957D01*
X259582Y62979D01*
X259746Y65051D01*
X259582Y67123D01*
X259097Y69144D01*
X258302Y71064D01*
X257216Y72836D01*
X255866Y74417D01*
X254286Y75766D01*
X252513Y76853D01*
X250593Y77648D01*
X248572Y78133D01*
X246500Y78296D01*
D02*
G37*
%LPD*%
D58*
X119199Y69139D02*
G03*
X122514Y64682I4450J-152D01*
G01*
X126293Y72583D02*
X126293Y72582D01*
X127552Y66843D02*
G03*
X128052Y65440I879J-477D01*
G01*
X127552Y66843D02*
G03*
X126339Y72536I-3902J2145D01*
G01*
X112026Y50026D02*
Y254773D01*
X111500Y49500D02*
X112026Y50026D01*
X187573Y260320D02*
X192026Y264773D01*
X229418D01*
X233042Y261148D01*
Y245458D02*
Y261148D01*
Y245458D02*
X254000Y224500D01*
X117573Y250320D02*
X122100Y254847D01*
Y263100D01*
X118427Y266773D02*
X122100Y263100D01*
X47326Y266773D02*
X118427D01*
X42553Y262000D02*
X47326Y266773D01*
X42553Y255300D02*
Y262000D01*
X37573Y250320D02*
X42553Y255300D01*
X210343Y144000D02*
X234500D01*
X188092Y227908D02*
X189500Y226500D01*
Y164843D02*
Y226500D01*
Y164843D02*
X210343Y144000D01*
X184500Y230181D02*
X185582D01*
X187856Y227908D01*
X188092D01*
X234500Y144000D02*
X249500Y159000D01*
X211515Y140000D02*
X240500D01*
X185800Y221700D02*
X187500Y220000D01*
Y164015D02*
Y220000D01*
Y164015D02*
X211515Y140000D01*
X179451Y225235D02*
X182265D01*
X185800Y221700D01*
X178685Y226000D02*
X179451Y225235D01*
X185800Y200000D02*
Y221700D01*
X180300Y194500D02*
X185800Y200000D01*
X56400Y245300D02*
X63100Y252000D01*
X240500Y140000D02*
X249500Y149000D01*
X172000Y194500D02*
X180300D01*
X167200Y199300D02*
X172000Y194500D01*
X167200Y199300D02*
Y225100D01*
X162600Y229700D02*
X167200Y225100D01*
X162600Y229700D02*
Y252400D01*
X166000Y255800D01*
X170500D01*
X172026Y257326D01*
Y262274D01*
X165300Y269000D02*
X172026Y262274D01*
X38100Y269000D02*
X165300D01*
X33100Y264000D02*
X38100Y269000D01*
X33100Y245300D02*
Y264000D01*
Y245300D02*
X56400D01*
X63100Y252000D02*
Y263000D01*
X64873Y264773D01*
X90300D01*
X92100Y262973D01*
Y241200D02*
Y262973D01*
X86679Y235779D02*
X92100Y241200D01*
X208600Y200200D02*
Y241800D01*
Y200200D02*
X214000Y194800D01*
X220500Y232000D02*
X230633Y221867D01*
Y218867D02*
Y221867D01*
Y218867D02*
X240000Y209500D01*
X256000D01*
X258500Y207000D01*
Y138000D02*
Y207000D01*
X249500Y129000D02*
X258500Y138000D01*
X128359Y54441D02*
X135354Y47446D01*
X127224Y63440D02*
X128102Y62562D01*
X128102Y54698D01*
X122514Y64682D02*
X127224Y63440D01*
X128102Y54698D02*
X128359Y54441D01*
X119199Y69139D02*
X122000Y151161D01*
X214400Y96600D02*
X225500Y107700D01*
X214400Y52000D02*
Y96600D01*
X209846Y47446D02*
X214400Y52000D01*
X135354Y47446D02*
X209846D01*
X212600Y255347D02*
X217573Y260320D01*
X212600Y203148D02*
Y255347D01*
Y203148D02*
X216748Y199000D01*
X246000D01*
X248500Y196500D01*
Y170800D02*
Y196500D01*
Y170800D02*
X254000Y165300D01*
Y136500D02*
Y165300D01*
X252000Y134500D02*
X254000Y136500D01*
X232900Y134500D02*
X252000D01*
X225500Y127100D02*
X232900Y134500D01*
X177500Y80220D02*
Y116500D01*
Y80220D02*
X177720Y80000D01*
X217573Y241427D02*
Y250320D01*
X239000Y220000D02*
X258500D01*
X217573Y241427D02*
X239000Y220000D01*
X256000Y114500D02*
X256500D01*
X260500Y118500D01*
Y218000D01*
X177500Y116500D02*
X180100Y119100D01*
Y129600D01*
X151100Y158600D02*
X180100Y129600D01*
X258500Y220000D02*
X260500Y218000D01*
X188000Y53000D02*
Y128184D01*
X183500Y132684D02*
X188000Y128184D01*
X143120Y173063D02*
X183500Y132684D01*
X143120Y173063D02*
Y252164D01*
X146729Y255773D01*
X159323D02*
X163120Y259570D01*
X146729Y255773D02*
X159323D01*
X163120Y259570D02*
X166823D01*
X167573Y260320D01*
X158500Y52000D02*
Y139934D01*
X136276Y255320D02*
X138870D01*
X142026Y258475D02*
Y261070D01*
X145729Y264773D01*
X133120Y165313D02*
Y252164D01*
X153120Y264773D02*
X157573Y260320D01*
X145729Y264773D02*
X153120D01*
X138870Y255320D02*
X142026Y258475D01*
X133120Y165313D02*
X158500Y139934D01*
X133120Y252164D02*
X136276Y255320D01*
X86500Y51000D02*
Y145001D01*
X102026Y160527D01*
Y254773D02*
X107573Y260320D01*
X102026Y160527D02*
Y254773D01*
X112026D02*
X117573Y260320D01*
X126000Y72875D02*
Y155892D01*
X126293Y72582D02*
X126339Y72536D01*
X130102Y58398D02*
Y63390D01*
Y58398D02*
X130395Y58105D01*
X126000Y72875D02*
X126293Y72583D01*
X130395Y58105D02*
X136000Y52500D01*
X123120Y158772D02*
X125707Y156185D01*
X128052Y65440D02*
X130102Y63390D01*
X125707Y156185D02*
X126000Y155892D01*
X132026Y254773D02*
X137573Y260320D01*
X123120Y252164D02*
X125729Y254773D01*
X123120Y158772D02*
Y252164D01*
X125729Y254773D02*
X132026D01*
X193100Y166900D02*
X193500Y166500D01*
X193100Y166900D02*
Y252400D01*
X196000Y255300D01*
X202553D01*
X207573Y260320D01*
X198600Y244500D02*
X204420Y250320D01*
X198600Y230500D02*
Y244500D01*
X203500Y186900D02*
Y225600D01*
X199500Y181900D02*
X203500Y186900D01*
X204420Y250320D02*
X207573D01*
X198600Y230500D02*
X203500Y225600D01*
Y186900D02*
X213500Y176900D01*
Y149206D02*
Y176900D01*
X90600Y168900D02*
Y184700D01*
X88000Y207100D02*
X92800D01*
X86000Y205100D02*
X88000Y207100D01*
X86000Y189300D02*
Y205100D01*
Y189300D02*
X90600Y184700D01*
X56000Y119500D02*
X59500Y116000D01*
Y87300D02*
Y116000D01*
X140300Y88400D02*
X148500Y96600D01*
Y102400D01*
X177756Y170930D02*
X207500Y141186D01*
X177756Y170930D02*
Y171263D01*
X207500Y52000D02*
Y141186D01*
X147573Y201446D02*
X177756Y171263D01*
X147573Y201446D02*
Y250320D01*
X172400Y200800D02*
Y254241D01*
X174026Y255867D01*
X180000D01*
X182026Y257893D01*
Y262747D01*
X173673Y271100D02*
X182026Y262747D01*
X5600Y271100D02*
X173673D01*
X4600Y270100D02*
X5600Y271100D01*
X4600Y214000D02*
Y270100D01*
Y214000D02*
X4900Y213700D01*
X32400D01*
X64300Y181800D01*
X116100Y107300D02*
Y164000D01*
X39000Y51500D02*
Y136501D01*
X72026Y169527D01*
Y254773D01*
X77573Y260320D01*
X63500Y52000D02*
Y144001D01*
X82026Y162527D01*
Y254773D01*
X87573Y260320D01*
X85400Y45200D02*
X228200D01*
X231500Y48500D01*
X80000Y50600D02*
X85400Y45200D01*
X80000Y50600D02*
Y89100D01*
X77500Y91600D02*
X80000Y89100D01*
X77500Y91600D02*
Y138829D01*
X97573Y158903D01*
Y250320D01*
X108000Y205000D02*
Y218716D01*
X106100Y203100D02*
X108000Y205000D01*
X153200Y85039D02*
Y104000D01*
X143200Y114000D02*
X153200Y104000D01*
X132500Y114000D02*
X143200D01*
X171400Y85039D02*
Y86000D01*
X174100Y88700D01*
Y127100D01*
X184500Y137600D02*
X193400Y146500D01*
X147200Y181400D02*
X158900D01*
X147200D02*
Y181900D01*
X158900Y181400D02*
X161500Y178800D01*
X178200Y184000D02*
X178600D01*
X180600Y182000D01*
Y176000D02*
Y182000D01*
X118100Y174700D02*
Y188300D01*
X116100Y172700D02*
X118100Y174700D01*
X198522Y216322D02*
X198611Y216232D01*
Y189189D02*
Y216232D01*
Y189189D02*
X198700Y189100D01*
X200640Y127204D02*
X203200Y129764D01*
X200640Y107623D02*
Y127204D01*
X203200Y129764D02*
Y130300D01*
X212000Y190800D02*
X218000D01*
X221700Y194500D02*
X244000D01*
X218000Y190800D02*
X221700Y194500D01*
X205500Y197300D02*
X212000Y190800D01*
X205500Y197300D02*
Y239000D01*
X202600Y241900D02*
X205500Y239000D01*
D59*
X244000Y224500D02*
D03*
Y194500D02*
D03*
X254000Y204500D02*
D03*
X244000D02*
D03*
X254000Y214500D02*
D03*
X244000D02*
D03*
X254000Y224500D02*
D03*
D60*
X227573Y250320D02*
D03*
X177573Y260320D02*
D03*
X197573D02*
D03*
X157573Y250320D02*
D03*
X127573Y260320D02*
D03*
X97573D02*
D03*
X57573D02*
D03*
X77573Y250320D02*
D03*
X37573Y260320D02*
D03*
X47573Y250320D02*
D03*
Y260320D02*
D03*
X57573Y250320D02*
D03*
X67573D02*
D03*
Y260320D02*
D03*
X77573D02*
D03*
X87573Y250320D02*
D03*
Y260320D02*
D03*
X97573Y250320D02*
D03*
X107573D02*
D03*
Y260320D02*
D03*
X117573Y250320D02*
D03*
Y260320D02*
D03*
X127573Y250320D02*
D03*
X137573D02*
D03*
Y260320D02*
D03*
X147573Y250320D02*
D03*
Y260320D02*
D03*
X157573D02*
D03*
X167573Y250320D02*
D03*
Y260320D02*
D03*
X177573Y250320D02*
D03*
X187573D02*
D03*
Y260320D02*
D03*
X197573Y250320D02*
D03*
X207573D02*
D03*
Y260320D02*
D03*
X217573Y250320D02*
D03*
Y260320D02*
D03*
X227573D02*
D03*
X249500Y89000D02*
D03*
Y99000D02*
D03*
Y109000D02*
D03*
Y119000D02*
D03*
Y129000D02*
D03*
Y139000D02*
D03*
Y149000D02*
D03*
X171575Y68988D02*
D03*
X99650D02*
D03*
X51500D02*
D03*
X25071Y91551D02*
D03*
Y110694D02*
D03*
Y187265D02*
D03*
X220500Y68988D02*
D03*
X196075D02*
D03*
X147650D02*
D03*
X123650D02*
D03*
X75500D02*
D03*
X25071Y129836D02*
D03*
Y148979D02*
D03*
Y206408D02*
D03*
Y225551D02*
D03*
Y168122D02*
D03*
D61*
X15071Y206408D02*
D03*
Y187265D02*
D03*
Y225551D02*
D03*
Y168122D02*
D03*
Y110694D02*
D03*
Y148979D02*
D03*
Y129836D02*
D03*
Y91551D02*
D03*
X37573Y250320D02*
D03*
D62*
X249500Y159000D02*
D03*
X171575Y58988D02*
D03*
X99650D02*
D03*
X51500D02*
D03*
X220500D02*
D03*
X196075D02*
D03*
X147650D02*
D03*
X123650D02*
D03*
X75500D02*
D03*
D63*
X254000Y194500D02*
D03*
D64*
X18400Y255320D02*
D03*
X246746D02*
D03*
X246500Y65051D02*
D03*
X18154D02*
D03*
D65*
X169110Y97051D02*
D03*
X199110D02*
D03*
X173500Y169500D02*
D03*
X203500D02*
D03*
D66*
X111500Y49500D02*
D03*
X213500Y185500D02*
D03*
X220500Y215500D02*
D03*
X235035Y190091D02*
D03*
X101500Y146500D02*
D03*
X76500Y145000D02*
D03*
X87000Y227000D02*
D03*
X222500Y96000D02*
D03*
X139000Y233500D02*
D03*
X105000Y106000D02*
D03*
X237500Y89500D02*
D03*
X91500Y115000D02*
D03*
X94000Y139500D02*
D03*
X179000Y220000D02*
D03*
X228500Y210000D02*
D03*
X90002Y200800D02*
D03*
X54000Y160000D02*
D03*
X182051Y160905D02*
D03*
X85547Y153441D02*
D03*
X162000Y160000D02*
D03*
X181772Y204500D02*
D03*
X37600Y214500D02*
D03*
X11000Y239600D02*
D03*
X162000Y212000D02*
D03*
X54169Y105980D02*
D03*
X81571Y97598D02*
D03*
X58208Y132480D02*
D03*
X86571Y176169D02*
D03*
X220500Y131122D02*
D03*
X184500Y230181D02*
D03*
X178685Y226000D02*
D03*
X86679Y235779D02*
D03*
X208600Y241800D02*
D03*
X214000Y194800D02*
D03*
X220500Y232000D02*
D03*
X122000Y151161D02*
D03*
X225500Y107700D02*
D03*
Y127100D02*
D03*
X177720Y80000D02*
D03*
X256000Y114500D02*
D03*
X151100Y158600D02*
D03*
X188000Y53000D02*
D03*
X158500Y52000D02*
D03*
X86500Y51000D02*
D03*
X136000Y52500D02*
D03*
X193500Y166500D02*
D03*
X199500Y181900D02*
D03*
X213500Y149206D02*
D03*
X90600Y168900D02*
D03*
X92800Y207100D02*
D03*
X56000Y119500D02*
D03*
X59500Y87300D02*
D03*
X140300Y88400D02*
D03*
X148500Y102400D02*
D03*
X207500Y52000D02*
D03*
X172400Y200800D02*
D03*
X64300Y181800D02*
D03*
X116100Y107300D02*
D03*
Y164000D02*
D03*
X39000Y51500D02*
D03*
X63500Y52000D02*
D03*
X231500Y48500D02*
D03*
X108000Y218716D02*
D03*
X106100Y203100D02*
D03*
X153200Y85039D02*
D03*
X132500Y114000D02*
D03*
X171400Y85039D02*
D03*
X174100Y127100D02*
D03*
X184500Y137600D02*
D03*
X193400Y146500D02*
D03*
X147200Y181900D02*
D03*
X161500Y178800D02*
D03*
X178200Y184000D02*
D03*
X180600Y176000D02*
D03*
X118100Y188300D02*
D03*
X116100Y172700D02*
D03*
X198522Y216322D02*
D03*
X198700Y189100D02*
D03*
X200640Y107623D02*
D03*
X203200Y130300D02*
D03*
X202600Y241900D02*
D03*
M02*
