G04*
G04 #@! TF.GenerationSoftware,Altium Limited,Altium Designer,23.2.1 (34)*
G04*
G04 Layer_Color=12632256*
%FSLAX25Y25*%
%MOIN*%
G70*
G04*
G04 #@! TF.SameCoordinates,168D8CC4-6B96-4916-8BE8-BBD7D9E71175*
G04*
G04*
G04 #@! TF.FilePolarity,Positive*
G04*
G01*
G75*
%ADD59C,0.05906*%
%ADD60C,0.05906*%
%ADD61R,0.05906X0.05906*%
%ADD62R,0.05906X0.05906*%
%ADD63R,0.05906X0.05906*%
%ADD64C,0.24410*%
%ADD65C,0.05512*%
D59*
X244000Y224500D02*
D03*
Y194500D02*
D03*
X254000Y204500D02*
D03*
X244000D02*
D03*
X254000Y214500D02*
D03*
X244000D02*
D03*
X254000Y224500D02*
D03*
D60*
X227573Y250320D02*
D03*
X177573Y260320D02*
D03*
X197573D02*
D03*
X157573Y250320D02*
D03*
X127573Y260320D02*
D03*
X97573D02*
D03*
X57573D02*
D03*
X77573Y250320D02*
D03*
X37573Y260320D02*
D03*
X47573Y250320D02*
D03*
Y260320D02*
D03*
X57573Y250320D02*
D03*
X67573D02*
D03*
Y260320D02*
D03*
X77573D02*
D03*
X87573Y250320D02*
D03*
Y260320D02*
D03*
X97573Y250320D02*
D03*
X107573D02*
D03*
Y260320D02*
D03*
X117573Y250320D02*
D03*
Y260320D02*
D03*
X127573Y250320D02*
D03*
X137573D02*
D03*
Y260320D02*
D03*
X147573Y250320D02*
D03*
Y260320D02*
D03*
X157573D02*
D03*
X167573Y250320D02*
D03*
Y260320D02*
D03*
X177573Y250320D02*
D03*
X187573D02*
D03*
Y260320D02*
D03*
X197573Y250320D02*
D03*
X207573D02*
D03*
Y260320D02*
D03*
X217573Y250320D02*
D03*
Y260320D02*
D03*
X227573D02*
D03*
X249500Y89000D02*
D03*
Y99000D02*
D03*
Y109000D02*
D03*
Y119000D02*
D03*
Y129000D02*
D03*
Y139000D02*
D03*
Y149000D02*
D03*
X171575Y68988D02*
D03*
X99650D02*
D03*
X51500D02*
D03*
X25071Y91551D02*
D03*
Y110694D02*
D03*
Y187265D02*
D03*
X220500Y68988D02*
D03*
X196075D02*
D03*
X147650D02*
D03*
X123650D02*
D03*
X75500D02*
D03*
X25071Y129836D02*
D03*
Y148979D02*
D03*
Y206408D02*
D03*
Y225551D02*
D03*
Y168122D02*
D03*
D61*
X15071Y206408D02*
D03*
Y187265D02*
D03*
Y225551D02*
D03*
Y168122D02*
D03*
Y110694D02*
D03*
Y148979D02*
D03*
Y129836D02*
D03*
Y91551D02*
D03*
X37573Y250320D02*
D03*
D62*
X249500Y159000D02*
D03*
X171575Y58988D02*
D03*
X99650D02*
D03*
X51500D02*
D03*
X220500D02*
D03*
X196075D02*
D03*
X147650D02*
D03*
X123650D02*
D03*
X75500D02*
D03*
D63*
X254000Y194500D02*
D03*
D64*
X18400Y255320D02*
D03*
X246746D02*
D03*
X246500Y65051D02*
D03*
X18154D02*
D03*
D65*
X169110Y97051D02*
D03*
X199110D02*
D03*
X173500Y169500D02*
D03*
X203500D02*
D03*
M02*
